/* XPM */
static char *result[] = {
/* columns rows colors chars-per-pixel */
"64 64 55 1 ",
"  c black",
". c #010000",
"X c #000100",
"o c #010100",
"O c #000001",
"+ c #010001",
"@ c #000101",
"# c #010101",
"$ c #796F6E",
"% c #796E6F",
"& c #786F6F",
"* c #796F6F",
"= c #B32E2E",
"- c #B32F2E",
"; c #B32E2F",
": c #B32F2F",
"> c #F73E3E",
", c #F63E3F",
"< c #F73F3F",
"1 c #815515",
"2 c #E26002",
"3 c #E36002",
"4 c #E26102",
"5 c #E26003",
"6 c #E2CC02",
"7 c #E3CC02",
"8 c #E2CD02",
"9 c #E3CD02",
"0 c #E2CC03",
"q c #E3CC03",
"w c #E2CD03",
"e c #F873BC",
"r c #8C8686",
"t c #8D8686",
"y c #8C8786",
"u c #8D8786",
"i c #8C8687",
"p c #8D8687",
"a c #8C8787",
"s c #8D8787",
"d c #F7B38A",
"f c #F6BA98",
"g c #F7BA98",
"h c #F6BB98",
"j c #F7BB98",
"k c #F6BA99",
"l c #F7BA99",
"z c #F6BB99",
"x c #F7BB99",
"c c #98D9F0",
"v c #98D9F1",
"b c #AFDEF0",
"n c #AFDFF0",
"m c #DBEDF4",
"M c None",
/* pixels */
"MMMMMMMMMMMMMMMMMMMMMMMMMMMMMMMMMMMMMMMMMMMMMMMMMMMMMMMMMMMMMMMM",
"MMMMMMMMMMMMMMMMMMMMMMMMMMMMMMMMMMMMMMMMMMMMMMMMMMMMMMMMMMMMMMMM",
"MMMMMMMMMMMMMMMMMMMMMMMMMMMMMMMMMMMMMMMMMMMMMMMMMMMMMMMMMMMMMMMM",
"MMMMMMMMMMMMMMMMMMMMMMMMMMMMMMMMMMMMMMMMMMMMMMMMMMMMMMMMMMMMMMMM",
"MMMMMMMMMMMMMMMMMMMMMMMMMMMMMMMMMMMMMMMMMMMMMMMMMMMMMMMMMMMMMMMM",
"MMMMMMMMMMMMMMMMMMMMMMMMMMMMMMMMMMMMMMMMMMMMMMMMMMMMMMMMMMMMMMMM",
"MMMMMMMMMMMMMMMMMMMMMMMMMMMMMMMMMMMMMMMMMMMMMMMMMMMMMMMMMMMMMMMM",
"MMMMMMMMMMMMMMMMMMMMMMMMMMMMMMMMMMMMMMMMMMMMMMMMMMMMMMMMMMMMMMMM",
"MMMMMMMMMMMMMMMMMMMMMMMMMMMMMMMMMMMMMMMMMMMMMMMMMMMMMMMMMMMMMMMM",
"MMMMMMMMMMMMMMMMMMMMMMMMMMMMMMMMMMMMMMMMMMMMMMMMMMMMMMMMMMMMMMMM",
"MMMMMMMMMMMMMMMMMMMMMMMMMMMMMMMMMMMMMMMMMMMMMMMMMMMMMMMMMMMMMMMM",
"MMMMMMMMMMMMMMMMMMMMMMMMMMMMMMMMMMMMMMMMMMMMMMMMMMMMMMMMMMMMMMMM",
"MMMMMMMMMMMMMMMMMMMMMMMMMMMMMMMMMMMMMMMMMMMMMMMMMMMMMMMMMMMMMMMM",
"MMMMMMMMMMMMMMMMMMMMMMMMMMMMMMMMMMMMMMMMM#++MMMMMMMMMMMMMMMMMMMM",
"MMMMMMMMMMMMMMMMMMMMMMMMMMMMMMMMMMMMMMMM+aasO+MMMMMMMMMMMMMMMMMM",
"MMMMMMMMMMMMMMMMMMMMMMMMMMMMMMMMMMMMMMMM+asays MMMMMMMMMMMMMMMMM",
"MMMMMMMMMMMMMMMMMMMMMMMMMMMMMMMMMMMMMMMMM#aa*ii+MMMMMMMMMMMMMMMM",
"MMMMMMMMMMMMMMMMMMMMMMMMMMMMMMMMMMMM o+++MOra*sa+MMMMMMMMMMMMMMM",
"MMMMMMMMMMMMMMMMMMMMMMMMMMMMMMMMMM..hzd22.M+ay*aa+MMMMMMMMMMMMMM",
"MMMMMMMMMMMMMMMMMMMMMMMMMMMMMMMccvfjhhhhj2.M@aa&su+MMMMMMMMMMMMM",
"MMMMMMMMMMMMMMMMMMMMMMMMMMMMMMcmnncfhzfgxh2X+sayaia.MMMMMMMMMMMM",
"MMMMMMMMMMMMMMMMMMMMMMMMMMMMMMcmbnc+fkhzhfx++iiayys+MMMMMMMMMMMM",
"MMMMMMMMMMMMMMMMMMMMMMMMMMMMM cnnncXjjzzhffj ya*saaa+MMMMMMMMMMM",
"MMMMMMMMMMMMMMMMMMMMMMMMMMMMM.cnnnchhhzffzhx+ra*iaaa#MMMMMMMMMMM",
"MMMMMMMMMMMMMMMMMMMMMMMMMMMMM.fccc1jf .jjhfhoay*saaaa#MMMMMMMMMM",
"MMMMMMMMMMMMMMMMMMMMMMMMMM..+Xglhgjfghozhxj. aaapaa$s+MMMMMMMMMM",
"MMMMMMMMMMMMMMMMMMMMMMMMM.986qoxjkjjejjghhO= ssaaay*a.MMMMMMMMMM",
"MMMMMMMMMMMMMMMMMMMMMMMMo686246+jghhhhhgz.= raasaaa$a+MMMMMMMMMM",
"MMMMMMMMMMMMMMMMMMMMMM + 08386q6+jhhzhhz.= iasysasy*a.MMMMMMMMMM",
"MMMMMMMMMMMMMMMMMMMMM+.> 8076 X....zhz#.-=oaaaaaaaaia.MMMMMMMMMM",
"MMMMMMMMMMMMMMMMMMMM+t >>.66o086008X@@=== yaaayaaaaya.MMMMMMMMMM",
"MMMMMMMMMMMMMMMMMMM+aay >,+.0w86737w#=== iaauyaa*pus+MMMMMMMMMMM",
"MMMMMMMMMMMMMMMMMMM+a*ay >>+665320w6o;= paaauai*asaa+MMMMMMMMMMM",
"MMMMMMMMMMMMMMMMMMMM+a%aaX<+w6wq0668#=Xiayiaaa*iapa.MMMMMMMMMMMM",
"MMMMMMMMMMMMMMMMMMMM+pa$aa >.666760o=.ipyirasaaasai+MMMMMMMMMMMM",
"MMMMMMMMMMMMMMMMMMMMMoyy*ra = oXO.o==.asaaaaasasuaOMMMMMMMMMMMMM",
"MMMMMMMMMMMMMMMMMMMMMM+ts*aa.;::=;== ariaya*auaaa#MMMMMMMMMMMMMM",
"MMMMMMMMMMMMMMMMMMMMMMM+aayyu .o   .yaaasy%raaya+MMMMMMMMMMMMMMM",
"MMMMMMMMMMMMMMMMMMMMMMMM+asiiaapiasyaaiay*aitya#MMMMMMMMMMMMMMMM",
"MMMMMMMMMMMMMMMMMMMMMMMMM.aaaiaaaiysyiatpaaaaa+MMMMMMMMMMMMMMMMM",
"MMMMMMMMMMMMMMMMMMMMMMMMMM++yaas*******ayssa++MMMMMMMMMMMMMMMMMM",
"MMMMMMMMMMMMMMMMMMMMMMMMMMMM+++payaaaaaap +XMMMMMMMMMMMMMMMMMMMM",
"MMMMMMMMMMMMMMMMMMMMMMMMMMMMMMMO@##O+#+@+MMMMMMMMMMMMMMMMMMMMMMM",
"MMMMMMMMMMMMMMMMMMMMMMMMMMMMMMMMMMMMMMMMMMMMMMMMMMMMMMMMMMMMMMMM",
"MMMMMMMMMMMMMMMMMMMMMMMMMMMMMMMMMMMMMMMMMMMMMMMMMMMMMMMMMMMMMMMM",
"MMMMMMMMMMMMMMMMMMMMMMMMMMMMMMMMMMMMMMMMMMMMMMMMMMMMMMMMMMMMMMMM",
"MMMMMMMMMMMMMMMMMMMMMMMMMMMMMMMMMMMMMMMMMMMMMMMMMMMMMMMMMMMMMMMM",
"MMMMMMMMMMMMMMMMMMMMMMMMMMMMMMMMMMMMMMMMMMMMMMMMMMMMMMMMMMMMMMMM",
"MMMMMMMMMMMMMMMMMMMMMMMMMMMMMMMMMMMMMMMMMMMMMMMMMMMMMMMMMMMMMMMM",
"MMMMMMMMMMMMMMMMMMMMMMMMMMMMMMMMMMMMMMMMMMMMMMMMMMMMMMMMMMMMMMMM",
"MMMMMMMMMMMMMMMMMMMMMMMMMMMMMMMMMMMMMMMMMMMMMMMMMMMMMMMMMMMMMMMM",
"MMMMMMMMMMMMMMMMMMMMMMMMMMMMMMMMMMMMMMMMMMMMMMMMMMMMMMMMMMMMMMMM",
"MMMMMMMMMMMMMMMMMMMMMMMMMMMMMMMMMMMMMMMMMMMMMMMMMMMMMMMMMMMMMMMM",
"MMMMMMMMMMMMMMMMMMMMMMMMMMMMMMMMMMMMMMMMMMMMMMMMMMMMMMMMMMMMMMMM",
"MMMMMMMMMMMMMMMMMMMMMMMMMMMMMMMMMMMMMMMMMMMMMMMMMMMMMMMMMMMMMMMM",
"MMMMMMMMMMMMMMMMMMMMMMMMMMMMMMMMMMMMMMMMMMMMMMMMMMMMMMMMMMMMMMMM",
"MMMMMMMMMMMMMMMMMMMMMMMMMMMMMMMMMMMMMMMMMMMMMMMMMMMMMMMMMMMMMMMM",
"MMMMMMMMMMMMMMMMMMMMMMMMMMMMMMMMMMMMMMMMMMMMMMMMMMMMMMMMMMMMMMMM",
"MMMMMMMMMMMMMMMMMMMMMMMMMMMMMMMMMMMMMMMMMMMMMMMMMMMMMMMMMMMMMMMM",
"MMMMMMMMMMMMMMMMMMMMMMMMMMMMMMMMMMMMMMMMMMMMMMMMMMMMMMMMMMMMMMMM",
"MMMMMMMMMMMMMMMMMMMMMMMMMMMMMMMMMMMMMMMMMMMMMMMMMMMMMMMMMMMMMMMM",
"MMMMMMMMMMMMMMMMMMMMMMMMMMMMMMMMMMMMMMMMMMMMMMMMMMMMMMMMMMMMMMMM",
"MMMMMMMMMMMMMMMMMMMMMMMMMMMMMMMMMMMMMMMMMMMMMMMMMMMMMMMMMMMMMMMM",
"MMMMMMMMMMMMMMMMMMMMMMMMMMMMMMMMMMMMMMMMMMMMMMMMMMMMMMMMMMMMMMMM"
};
