/* XPM */
static char *result[] = {
/* columns rows colors chars-per-pixel */
"64 64 47 1 ",
"  c black",
". c #010000",
"X c #000100",
"o c #010100",
"O c #000001",
"+ c #010001",
"@ c #000101",
"# c #010101",
"$ c #796F6E",
"% c #786F6F",
"& c #796F6F",
"* c #B32E2E",
"= c #B32E2F",
"- c #B32F2F",
"; c #F73E3E",
": c #F63E3F",
"> c #F73E3F",
", c #815515",
"< c #E26002",
"1 c #E36002",
"2 c #E26102",
"3 c #E26003",
"4 c #E2CC02",
"5 c #E3CC02",
"6 c #E2CD02",
"7 c #E2CC03",
"8 c #E3CC03",
"9 c #E2CD03",
"0 c #F872BC",
"q c #F873BD",
"w c #8C8686",
"e c #8C8786",
"r c #8D8786",
"t c #8C8687",
"y c #8D8687",
"u c #8C8787",
"i c #8D8787",
"p c #F7B28A",
"a c #F7B38A",
"s c #F6BA98",
"d c #F7BA98",
"f c #F6BB98",
"g c #F7BB98",
"h c #F6BA99",
"j c #F6BB99",
"k c #F7BB99",
"l c None",
/* pixels */
"llllllllllllllllllllllllllllllllllllllllllllllllllllllllllllllll",
"llllllllllllllllllllllllllllllllllllllllllllllllllllllllllllllll",
"llllllllllllllllllllllllllllllllllllllllllllllllllllllllllllllll",
"llllllllllllllllllllllllllllllllllllllllllllllllllllllllllllllll",
"llllllllllllllllllllllllllllllllllllllllllllllllllllllllllllllll",
"llllllllllllllllllllllllllllllllllllllllllllllllllllllllllllllll",
"llllllllllllllllllllllllllllllllllllllllllllllllllllllllllllllll",
"llllllllllllllllllllllllllllllllllllllllllllllllllllllllllllllll",
"llllllllllllllllllllllllllllllllllllllllllllllllllllllllllllllll",
"llllllllllllllllllllllllllllllllllllllllllllllllllllllllllllllll",
"llllllllllllllllllllllllllllllllllllllllllllllllllllllllllllllll",
"llllllllllllllllllllllllllllllllllllllllllllllllllllllllllllllll",
"llllllllllllllllllllllllllllllllllllllllllllllllllllllllllllllll",
"lllllllllllllllllllllllllllllllllllllllllo++llllllllllllllllllll",
"llllllllllllllllllllllllllllllllllllllll+uuiO+llllllllllllllllll",
"llllllllllllllllllllllllllllllllllllllll+uiueu+lllllllllllllllll",
"lllllllllllllllllllllllllllllllllllllllll#uu&tt+llllllllllllllll",
"llllllllllllllllllllllllllllllllllll o++.lOwu&iu+lllllllllllllll",
"llllllllllllllllllllllllllllllllll+.fja<<.l+ue&uu+llllllllllllll",
"llllllllllllllllllllllllllllllllXXfgffffg<.lOuu%ir+lllllllllllll",
"lllllllllllllllllllllllllllllll.kdssfjsdgf<X.uueutu.llllllllllll",
"llllllllllllllllllllllllllllll.psfXOshfffsk++utueui+llllllllllll",
"lllllllllllllllllllllllllllll pffqsXfgjjfssg.eu&iuuu+lllllllllll",
"lllllllllllllllllllllllllllll.psfsjjffjsfjfg+wu&uuuu#lllllllllll",
"lllllllllllllllllllllllllllll.sfff,gs .fgfsfoue&uuiuu+llllllllll",
"llllllllllllllllllllllllll...Xgdfgfsdfoffkk. uuuuuu&i+llllllllll",
"lllllllllllllllllllllllll.5648okghfg0fgdff+* iiuuuu&u+llllllllll",
"llllllllllllllllllllllllo464<24.gdfgfffdj.* wuuuuuu&u+llllllllll",
"llllllllllllllllllllll + 4614484.gffjffj.* tuieiuiu&u.llllllllll",
"lllllllllllllllllllll+.; 6754  ....jfj+.**.uuuuuuuutu+llllllllll",
"llllllllllllllllllll+r ;;.74o464746XX@*** euuueuuuueu+llllllllll",
"lllllllllllllllllll+eue >:+ 48645<46o*** tuuruuu&iei+lllllllllll",
"lllllllllllllllllll+u&ue ;;+4431<774 ** tuuuiut&uiuu+lllllllllll",
"llllllllllllllllllll+u&uuX>+94687446.* uuuuuuu&uuiu+llllllllllll",
"llllllllllllllllllll+ti$uu ;.444547o*.tyeutuuuuuiut+llllllllllll",
"lllllllllllllllllllllOee&wu * o. .o**.uiuuuuuuuiiu+lllllllllllll",
"llllllllllllllllllllll+ri&uu.*-=*=**.uutueu&uruuu+llllllllllllll",
"lllllllllllllllllllllll+uueer .    .euutie&euueu+lllllllllllllll",
"llllllllllllllllllllllll+uutuuuttuieuutuu&tteeu#llllllllllllllll",
"lllllllllllllllllllllllll.uuuuuuuteieturyuuuuu+lllllllllllllllll",
"llllllllllllllllllllllllll++uuuu&&&&&&&ueiuu++llllllllllllllllll",
"llllllllllllllllllllllllllll+++tueuuuuuuy.+ llllllllllllllllllll",
"lllllllllllllllllllllllllllllll++##++++#+lllllllllllllllllllllll",
"llllllllllllllllllllllllllllllllllllllllllllllllllllllllllllllll",
"llllllllllllllllllllllllllllllllllllllllllllllllllllllllllllllll",
"llllllllllllllllllllllllllllllllllllllllllllllllllllllllllllllll",
"llllllllllllllllllllllllllllllllllllllllllllllllllllllllllllllll",
"llllllllllllllllllllllllllllllllllllllllllllllllllllllllllllllll",
"llllllllllllllllllllllllllllllllllllllllllllllllllllllllllllllll",
"llllllllllllllllllllllllllllllllllllllllllllllllllllllllllllllll",
"llllllllllllllllllllllllllllllllllllllllllllllllllllllllllllllll",
"llllllllllllllllllllllllllllllllllllllllllllllllllllllllllllllll",
"llllllllllllllllllllllllllllllllllllllllllllllllllllllllllllllll",
"llllllllllllllllllllllllllllllllllllllllllllllllllllllllllllllll",
"llllllllllllllllllllllllllllllllllllllllllllllllllllllllllllllll",
"llllllllllllllllllllllllllllllllllllllllllllllllllllllllllllllll",
"llllllllllllllllllllllllllllllllllllllllllllllllllllllllllllllll",
"llllllllllllllllllllllllllllllllllllllllllllllllllllllllllllllll",
"llllllllllllllllllllllllllllllllllllllllllllllllllllllllllllllll",
"llllllllllllllllllllllllllllllllllllllllllllllllllllllllllllllll",
"llllllllllllllllllllllllllllllllllllllllllllllllllllllllllllllll",
"llllllllllllllllllllllllllllllllllllllllllllllllllllllllllllllll",
"llllllllllllllllllllllllllllllllllllllllllllllllllllllllllllllll",
"llllllllllllllllllllllllllllllllllllllllllllllllllllllllllllllll"
};
