/* XPM */
static char *result[] = {
/* columns rows colors chars-per-pixel */
"64 64 56 1 ",
"  c black",
". c #010000",
"X c #000100",
"o c #010100",
"O c #000001",
"+ c #010001",
"@ c #000101",
"# c #010101",
"$ c #796F6E",
"% c #796E6F",
"& c #786F6F",
"* c #796F6F",
"= c #B22E2E",
"- c #B32E2E",
"; c #B32F2E",
": c #B32E2F",
"> c #B32F2F",
", c #F63E3E",
"< c #F73E3E",
"1 c #F73F3E",
"2 c #F63E3F",
"3 c #F73F3F",
"4 c #815515",
"5 c #E26002",
"6 c #E36002",
"7 c #E26102",
"8 c #E26003",
"9 c #E2CC02",
"0 c #E3CC02",
"q c #E2CD02",
"w c #E3CD02",
"e c #E2CC03",
"r c #E3CC03",
"t c #E2CD03",
"y c #F873BC",
"u c #8C8686",
"i c #8D8686",
"p c #8C8786",
"a c #8D8786",
"s c #8C8687",
"d c #8D8687",
"f c #8C8787",
"g c #8D8787",
"h c #F7B28A",
"j c #F7B38A",
"k c #F6BA98",
"l c #F7BA98",
"z c #F6BB98",
"x c #F7BB98",
"c c #F6BA99",
"v c #F7BA99",
"b c #F6BB99",
"n c #F7BB99",
"m c #98D9F0",
"M c #AFDFF0",
"N c None",
/* pixels */
"NNNNNNNNNNNNNNNNNNNNNNNNNNNNNNNNNNNNNNNNNNNNNNNNNNNNNNNNNNNNNNNN",
"NNNNNNNNNNNNNNNNNNNNNNNNNNNNNNNNNNNNNNNNNNNNNNNNNNNNNNNNNNNNNNNN",
"NNNNNNNNNNNNNNNNNNNNNNNNNNNNNNNNNNNNNNNNNNNNNNNNNNNNNNNNNNNNNNNN",
"NNNNNNNNNNNNNNNNNNNNNNNNNNNNNNNNNNNNNNNNNNNNNNNNNNNNNNNNNNNNNNNN",
"NNNNNNNNNNNNNNNNNNNNNNNNNNNNNNNNNNNNNNNNNNNNNNNNNNNNNNNNNNNNNNNN",
"NNNNNNNNNNNNNNNNNNNNNNNNNNNNNNNNNNNNNNNNNNNNNNNNNNNNNNNNNNNNNNNN",
"NNNNNNNNNNNNNNNNNNNNNNNNNNNNNNNNNNNNNNNNNNNNNNNNNNNNNNNNNNNNNNNN",
"NNNNNNNNNNNNNNNNNNNNNNNNNNNNNNNNNNNNNNNNNNNNNNNNNNNNNNNNNNNNNNNN",
"NNNNNNNNNNNNNNNNNNNNNNNNNNNNNNNNNNNNNNNNNNNNNNNNNNNNNNNNNNNNNNNN",
"NNNNNNNNNNNNNNNNNNNNNNNNNNNNNNNNNNNNNNNNNNNNNNNNNNNNNNNNNNNNNNNN",
"NNNNNNNNNNNNNNNNNNNNNNNNNNNNNNNNNNNNNNNNNNNNNNNNNNNNNNNNNNNNNNNN",
"NNNNNNNNNNNNNNNNNNNNNNNNNNNNNNNNNNNNNNNNNNNNNNNNNNNNNNNNNNNNNNNN",
"NNNNNNNNNNNNNNNNNNNNNNNNNNNNNNNNNNNNNNNNNNNNNNNNNNNNNNNNNNNNNNNN",
"NNNNNNNNNNNNNNNNNNNNNNNNNNNNNNNNNNNNNNNNN#++NNNNNNNNNNNNNNNNNNNN",
"NNNNNNNNNNNNNNNNNNNNNNNNNNNNNNNNNNNNNNNN+ffg +NNNNNNNNNNNNNNNNNN",
"NNNNNNNNNNNNNNNNNNNNNNNNNNNNNNNNNNNNNNNN+fgfpd NNNNNNNNNNNNNNNNN",
"NNNNNNNNNNNNNNNNNNNNNNNNNNNNNNNNNNNNNNNNN#ff*ss#NNNNNNNNNNNNNNNN",
"NNNNNNNNNNNNNNNNNNNNNNNNNNNNNNNNNNNN o++.NOuf*gf+NNNNNNNNNNNNNNN",
"NNNNNNNNNNNNNNNNNNNNNNNNNNNNNNNNNN+.zbj55.N+fp*ff+NNNNNNNNNNNNNN",
"NNNNNNNNNNNNNNNNNNNNNNNNNNNNNNNNXXzxzzzzx8.N@ff&ga+NNNNNNNNNNNNN",
"NNNNNNNNNNNNNNNNNNNNNNNNNNNNNNN nvlkzbklxz5X+gfpfsf.NNNNNNNNNNNN",
"NNNNNNNNNNNNNNNNNNNNNNNNNNNNNN.hkzX+kczzzkn+Ossfpfg+NNNNNNNNNNNN",
"NNNNNNNNNNNNNNNNNNNNNNNNNNNNN hxmmkXxxbnzkkx pf*gfsf+NNNNNNNNNNN",
"NNNNNNNNNNNNNNNNNNNNNNNNNNNNN.hkmMmxzzbkkbzn+us*sfff@NNNNNNNNNNN",
"NNNNNNNNNNNNNNNNNNNNNNNNNNNNN.kzxm4xk .xxzkzogp*ffgff#NNNNNNNNNN",
"NNNNNNNNNNNNNNNNNNNNNNNNNN..+Xxlzxxklzobznn  fffdff$gONNNNNNNNNN",
"NNNNNNNNNNNNNNNNNNNNNNNNN.wq9ronxcxxyxxlzz+- ggfffp*f.NNNNNNNNNN",
"NNNNNNNNNNNNNNNNNNNNNNNNo9q9579+xlzzzzzlb.: uffgffs*f+NNNNNNNNNN",
"NNNNNNNNNNNNNNNNNNNNNN + eq6q90e+zzzbzzb.- sfgpgfgf*f.NNNNNNNNNN",
"NNNNNNNNNNNNNNNNNNNNN+.1 qe09 X....bzb+.;-offffffffsf.NNNNNNNNNN",
"NNNNNNNNNNNNNNNNNNNN+iO<<.99o9q9etqX@@--= pfffpfsffpf.NNNNNNNNNN",
"NNNNNNNNNNNNNNNNNNN+pfp <2+.etq906rq#--- sffapff*dpg+NNNNNNNNNNN",
"NNNNNNNNNNNNNNNNNNN#f*fp ,<O99865et9o-= dffpags*fgff+NNNNNNNNNNN",
"NNNNNNNNNNNNNNNNNNNN+f%ffX3+t9tre99q#-Xsfpsfff*ffdf+NNNNNNNNNNNN",
"NNNNNNNNNNNNNNNNNNNN+sf$ff.<.09909eo-.sdpsufgfffgfs+NNNNNNNNNNNN",
"NNNNNNNNNNNNNNNNNNNNN pp*uf - oXO.o:-.fgfffffgfgafONNNNNNNNNNNNN",
"NNNNNNNNNNNNNNNNNNNNNN+ig*sf.:>>-:-- pusfpp*fafff#NNNNNNNNNNNNNN",
"NNNNNNNNNNNNNNNNNNNNNNN+ffppa .o   .pfsfgp%uffpf.NNNNNNNNNNNNNNN",
"NNNNNNNNNNNNNNNNNNNNNNNN+ffssffdsfgpffsfp*ssipf#NNNNNNNNNNNNNNNN",
"NNNNNNNNNNNNNNNNNNNNNNNNN.fffsfffspgpsfidfpfff+NNNNNNNNNNNNNNNNN",
"NNNNNNNNNNNNNNNNNNNNNNNNNN++fffa*******fpggf++NNNNNNNNNNNNNNNNNN",
"NNNNNNNNNNNNNNNNNNNNNNNNNNNN+++dppffffffd +XNNNNNNNNNNNNNNNNNNNN",
"NNNNNNNNNNNNNNNNNNNNNNNNNNNNNNNO@##++++@+NNNNNNNNNNNNNNNNNNNNNNN",
"NNNNNNNNNNNNNNNNNNNNNNNNNNNNNNNNNNNNNNNNNNNNNNNNNNNNNNNNNNNNNNNN",
"NNNNNNNNNNNNNNNNNNNNNNNNNNNNNNNNNNNNNNNNNNNNNNNNNNNNNNNNNNNNNNNN",
"NNNNNNNNNNNNNNNNNNNNNNNNNNNNNNNNNNNNNNNNNNNNNNNNNNNNNNNNNNNNNNNN",
"NNNNNNNNNNNNNNNNNNNNNNNNNNNNNNNNNNNNNNNNNNNNNNNNNNNNNNNNNNNNNNNN",
"NNNNNNNNNNNNNNNNNNNNNNNNNNNNNNNNNNNNNNNNNNNNNNNNNNNNNNNNNNNNNNNN",
"NNNNNNNNNNNNNNNNNNNNNNNNNNNNNNNNNNNNNNNNNNNNNNNNNNNNNNNNNNNNNNNN",
"NNNNNNNNNNNNNNNNNNNNNNNNNNNNNNNNNNNNNNNNNNNNNNNNNNNNNNNNNNNNNNNN",
"NNNNNNNNNNNNNNNNNNNNNNNNNNNNNNNNNNNNNNNNNNNNNNNNNNNNNNNNNNNNNNNN",
"NNNNNNNNNNNNNNNNNNNNNNNNNNNNNNNNNNNNNNNNNNNNNNNNNNNNNNNNNNNNNNNN",
"NNNNNNNNNNNNNNNNNNNNNNNNNNNNNNNNNNNNNNNNNNNNNNNNNNNNNNNNNNNNNNNN",
"NNNNNNNNNNNNNNNNNNNNNNNNNNNNNNNNNNNNNNNNNNNNNNNNNNNNNNNNNNNNNNNN",
"NNNNNNNNNNNNNNNNNNNNNNNNNNNNNNNNNNNNNNNNNNNNNNNNNNNNNNNNNNNNNNNN",
"NNNNNNNNNNNNNNNNNNNNNNNNNNNNNNNNNNNNNNNNNNNNNNNNNNNNNNNNNNNNNNNN",
"NNNNNNNNNNNNNNNNNNNNNNNNNNNNNNNNNNNNNNNNNNNNNNNNNNNNNNNNNNNNNNNN",
"NNNNNNNNNNNNNNNNNNNNNNNNNNNNNNNNNNNNNNNNNNNNNNNNNNNNNNNNNNNNNNNN",
"NNNNNNNNNNNNNNNNNNNNNNNNNNNNNNNNNNNNNNNNNNNNNNNNNNNNNNNNNNNNNNNN",
"NNNNNNNNNNNNNNNNNNNNNNNNNNNNNNNNNNNNNNNNNNNNNNNNNNNNNNNNNNNNNNNN",
"NNNNNNNNNNNNNNNNNNNNNNNNNNNNNNNNNNNNNNNNNNNNNNNNNNNNNNNNNNNNNNNN",
"NNNNNNNNNNNNNNNNNNNNNNNNNNNNNNNNNNNNNNNNNNNNNNNNNNNNNNNNNNNNNNNN",
"NNNNNNNNNNNNNNNNNNNNNNNNNNNNNNNNNNNNNNNNNNNNNNNNNNNNNNNNNNNNNNNN",
"NNNNNNNNNNNNNNNNNNNNNNNNNNNNNNNNNNNNNNNNNNNNNNNNNNNNNNNNNNNNNNNN"
};
