/* XPM */
static char *result[] = {
/* columns rows colors chars-per-pixel */
"64 64 181 2 ",
"   c black",
".  c #010000",
"X  c #000100",
"o  c #010100",
"O  c #000001",
"+  c #010001",
"@  c #000101",
"#  c #010101",
"$  c #1C1D1B",
"%  c #1D1D1B",
"&  c #341C00",
"*  c #351C00",
"=  c #341D00",
"-  c #341D01",
";  c #351D01",
":  c #042212",
">  c #052212",
",  c #042312",
"<  c #052312",
"1  c #042213",
"2  c #052213",
"3  c #042313",
"4  c #052313",
"5  c #08381E",
"6  c #09381E",
"7  c #08391E",
"8  c #08381F",
"9  c #08391F",
"0  c #050324",
"q  c #040325",
"w  c #040234",
"e  c #050234",
"r  c #040334",
"t  c #050334",
"y  c #040235",
"u  c #050235",
"i  c #040335",
"p  c #050335",
"a  c #22222A",
"s  c #23222A",
"d  c #22232A",
"f  c #23232A",
"g  c #22222B",
"h  c #23222B",
"j  c #22232B",
"k  c #23232B",
"l  c #302A28",
"z  c #302B28",
"x  c #312B28",
"c  c #302B29",
"v  c #312B29",
"b  c #3C3634",
"n  c #3D3634",
"m  c #3C3734",
"M  c #3D3734",
"N  c #3C3635",
"B  c #3D3635",
"V  c #3C3735",
"C  c #3D3735",
"Z  c #771A10",
"A  c #52340A",
"S  c #53340A",
"D  c #52350A",
"F  c #53350A",
"G  c #52350B",
"H  c #233277",
"J  c #26377D",
"K  c #27377D",
"L  c #464648",
"P  c #474648",
"I  c #464748",
"U  c #464649",
"Y  c #464749",
"T  c #8C2216",
"R  c #8D2216",
"E  c #8C2316",
"W  c #8D2316",
"Q  c #8C2217",
"!  c #8D2217",
"~  c #8C2317",
"^  c #8D2317",
"/  c #88500C",
"(  c #89500C",
")  c #88510C",
"_  c #89510C",
"`  c #88500D",
"'  c #89500D",
"]  c #88510D",
"[  c #89510D",
"{  c #9A5908",
"}  c #9B5908",
"|  c #9A5809",
" . c #9B5809",
".. c #9A5909",
"X. c #9B5909",
"o. c #9B5C10",
"O. c #9B5D10",
"+. c #AF4C1A",
"@. c #AE4C1B",
"#. c #AF4C1B",
"$. c #AF4D1B",
"%. c #A86210",
"&. c #A86310",
"*. c #A96310",
"=. c #A96311",
"-. c #AD6915",
";. c #E9710A",
":. c #E8B50A",
">. c #C29D64",
",. c #C39D64",
"<. c #C29C65",
"1. c #C29D65",
"2. c #C39D65",
"3. c #D4B078",
"4. c #D5B078",
"5. c #D4B178",
"6. c #D5B178",
"7. c #D5B079",
"8. c #D4B179",
"9. c #D5B179",
"0. c #D0328A",
"q. c #D1328A",
"w. c #D0338A",
"e. c #D1338A",
"r. c #D0328B",
"t. c #D1328B",
"y. c #D0338B",
"u. c #D1338B",
"i. c #E23E98",
"p. c #E23F98",
"a. c #E33F98",
"s. c #E23E99",
"d. c #E23F99",
"f. c #E33F99",
"g. c #A47C92",
"h. c #A57C92",
"j. c #A47D92",
"k. c #A57D92",
"l. c #A47C93",
"z. c #A57C93",
"x. c #A57D93",
"c. c #9B818E",
"v. c #9B808F",
"b. c #9A818F",
"n. c #9B818F",
"m. c #A4A09E",
"M. c #A4A19E",
"N. c #A4A19F",
"B. c #F2CC92",
"V. c #F3CC92",
"C. c #F2CD92",
"Z. c #F3CD92",
"A. c #F2CC93",
"S. c #F3CD93",
"D. c #F6D6A4",
"F. c #F7D6A4",
"G. c #F7D7A4",
"H. c #F6D6A5",
"J. c #F7D6A5",
"K. c #F6D7A5",
"L. c #F7D7A5",
"P. c #E8DED4",
"I. c #E9DED4",
"U. c #E8DFD4",
"Y. c #E9DFD4",
"T. c #E8DED5",
"R. c #E9DED5",
"E. c #E8DFD5",
"W. c #E9DFD5",
"Q. c #FEF4EA",
"!. c #FFF4EA",
"~. c #FEF5EA",
"^. c #FFF5EA",
"/. c #FEF4EB",
"(. c #FFF4EB",
"). c #FEF5EB",
"_. c #FFF5EB",
"`. c #FFFEFE",
"'. c #FFFEFF",
"]. c white",
"[. c None",
/* pixels */
"[.[.[.[.[.[.[.[.[.[.[.[.[.[.[.[.[.[.[.[.O O O [.[.[.[.[.[.[.[.[.[.[.[.[.[.[.[.[.[.[.[.[.[.[.[.[.[.[.[.[.[.[.[.[.[.[.[.[.[.[.[.[.",
"[.[.[.[.[.[.[.[.[.[.[.[.[.[.[.[.[.[.[.[.O ;.O [.[.[.[.[.[.[.[.[.[.[.[.[.[.[.[.[.[.@ X @ [.[.[.[.[.[.[.[.[.[.[.[.[.[.[.[.[.[.[.[.",
"[.[.[.[.[.[.[.[.[.[.[.[.[.[.[.[.[.[.[.[.O :.O [.[.[.[.[.[.[.[.[.[.[.[.[.[.[.[.5 # A.J.A.@ ~ 5 [.[.[.[.[.[.[.[.[.[.[.[.[.[.[.[.[.",
"[.[.[.[.[.[.[.[.[.[.[.[.[.[.[.[.[.[.[.@ M.M.O [.[.[.[.[.[.[.[.[.[.[.[.[.R.m.7 5   J.J.J.X Z 8 [.[.[.[.[.[.[.[.[.[.[.[.[.[.[.[.[.",
"[.[.[.[.[.[.[.[.[.[.[.[.[.[.' ` ' [.+ H.N.M.B.O [.[.[.[.[.. o o o [.[.T.N.[.[.5 X J.J.J.@ Z 5 [.[.[.[.[.[.[.[.[.[.[.[.[.[.[.[.[.",
"[.[.[.[.[.[.[.[.[.[.[.[.[.] %.X.] O J.J.M.B.O [.[.[.[.[.. % % % o o . [.[.[.[.[.[.@ J.@ [.O O X O @ @ [.[.[.[.[.[.[.[.[.[.[.[.[.",
"[.[.[.[.[.[.[.[.[.[.[.[.] %.X.&.` [.X J.J.X [.[.[.[.[.. . o o + # % % . [.[.[.[.O @ @ @ o . w p t w X . [.[.[.[.[.[.[.[.[.[.[.[.",
"[.[.[.[.[.[.[.[.[.[.[.' =.| &.) [.[.. J.L.O [.[.[.[.[.. % o o #   o o X @ [.[.[.@ % o @   w i p w e w .   [.[.[.[.[.[.[.[.[.[.[.",
"[.[.[.[.[.[.[.[.[.[.[ &...&.` [.[.[.O J.O [.[.[.[.[.[.X % # # o O   O O O [.[.[.@ % o X r p y e t r i y + [.[.[.[.[.[.[.[.[.[.[.",
"[.[.[.[.[.[.[.[.[.` &. .%./ [.[.[.[.O O O O [.[.[.[.[.o o o . + F.F.J.J.@ [.[.[.@ % X X t i u e e p o @   [.[.[.[.[.[.[.[.[.[.[.",
"[.[.[.[.[.[.[.[.` *. .*.] [.[.[.[.@ % o o o O [.[.[.[.o o o O ].X H.].@ @ [.[.[.@ o . . r t i p e   F.H.o [.[.[.[.[.[.[.[.[.[.[.",
"[.[.[.[.[.[.[.[.X.&.*.` [.[.[.[.[.O % o o o o O [.[.[.[.o o + J.J.J.J.H.@ [.[.@ o o . X t p w r # ].o F.X [.[.[.[.[.[.[.[.[.[.[.",
"[.[.[.[.[.[.[.X.&.| ` [.[.[.[.[.[.[.O % + o o o O [.O   o o   J.#.#.#.F.X [.@ o X o o   r r w t @ D.F.J.O [.[.[.[.[.[.[.O [.[.[.",
"[.[.[.[.[.[...&...[.[.[.[.[.[.[.[.[.@ % o o o o X   G F . o O F.@.$.#.J.O # # @ X o o . o y e i X G.H.#.+ [.[.[.[.[.[.. _ X [.[.",
"[.[.[.+ . { &...[.[.[.[.[.[.[.[.[.[.O % X . o # @ w.X S A @ .   O   O O o   <.4.,.+ o @ . u u e r X X @ [.[.[.[.[.[.[.. ( . [.[.",
"[.[.. F A A X.@ [.[.[.@ O   +   [.[.[.O % o o O e.w.0.O G O % % # o # o % # 9.3.1.. X o [.o t r u e e i . . [.[.[.[.[.@ ^.. [.[.",
"[.[.O  .A S A O [.[.O e.e.w.e.y.+ O [.[.O % . O e.q.w.q.. o o o % o o % o O 6.4.8.@ o [.X y w i u p r y u t o . + . X !.I.@ [.[.",
"[.[. .%.} A O [.[.[.O u.w.s.d.q.t.u.@ [.[.O % + w.e.u.e.@ o o o X o # X o o . 5.. o [.@ p w i r p w e e t e u i e + ~.Q.Y.Z.A.[.",
"[.X.&. .A + [.[.[.O q.e.w.e.e.e.d.d.w.o [.[.X d.q.u.u.q.X X % o # o o o o @ @ 7.. [.+ e r r u t p e e y i p e e o ~.^.R.U.H.H.[.",
"[.*...e.O i.X [.[.@ w.s.u.e.e.e.r.0.e.q.# O 0.e.q.e.y.e.  % O . + . o o %   , # O O   t p r i y e r e t . p O @ /.(.~./.W.A.Z.[.",
"[.[.# 0.q.a.@ [.[.O e.q.e.w.u.w.O o # +   e.u.e.0.e.e.@ # + < , , > .   o O 1 6 5 + . u y r p t i w r u r X Q././.~.(.^.E.# [.[.",
"[.[.O e.u.e.w.O [.X e.0.t.q.0.+ S S S A # y.u.w.e.w.O % + 4 3 > 2 : , < . : : , < # . w y t w u r r t t # Y.!.(././.(.Q.^.O [.[.",
"[.@ q.w.q.e.q.y.+ [.O q.e.e.o '.o A `.@ X w.e.w.u.d.. % @ > , , , : , < 3   , 3 4 @ . t t # y p e t t p   /.!.).!.!.Q./.R.@ [.[.",
"[.[.O e.w.w.e.w.w.O O O q.e.O A A A A A O u.e.w.d.O % O : 3 < 4 < , < , 1 , + 3 1 O p w t t @ @ # p y X !.Q.Q.).^.).)./.W.@ [.[.",
"[.[.O f.e.e.u.u.y.q.e.q.u.e.  A D +.#.A   e.e.# o o o . 1 4 2 > 3 : 4 @ o + @ 4 > o r w t   H.G.J.S.+ (.!.).(.!.).!.Q.Q.T.  [.[.",
"[.[.[.X O u.u.q.w.w.e.e.q.q.e.X A #.#.  t.q.O [.  o o o 8 , > , : > @ 4.6.9.X > 2 O   t u + K.L.C.B.^.Q.~./._.~.Q./.Q.~.^.+ [.[.",
"[.[.[.[.[.O d.t.e.e.q.u.q.e.e.e.  + O e.u.. [.[.O # % o O > < , < X '.X 4.7.@ : 2 O [.# + o G.A.Z.!.Q.Q.Q.!./._.Q.^./.)./.  [.[.",
"[.[.[.[.[.[.O y.e.y.q.w.e.e.t.w.u.u.e.u.w.X [.[.[.O $ X . 9 2 , < @ 6.6.8.6.+ , , . [.X i w e V._.Q././.^ R T ! P.Q.E.P.!.o [.[.",
"[.[.[.[.[.[.[.O d.w.w.w.q.e.e.q.w.e.w.e.w.e.  [.[.O % o o   1 > : . 4.7.#.#.+ , 1 O [.. p e u X /.Q._.~ ).).(.(.T E./.^.^.O [.[.",
"[.[.[.[.[.[.[.[.+ s.t.q.e.e.u.y.e.e.u.e.u.q.d.+ [.O % o + : 1 3 <   3.6.#.$.+ 3 @ [.[.+ w w o Q.~.!.^.E !.~.!.Y.~ !.!.~.I.X [.[.",
"[.[.[.[.[.[.[.[.. d.e.e.q.e.w.e.w.e.d.e.q.e.p.  [.O o o O 3 , : 1 : X o @ . < 2 + [.[.  u # Q./.Q.Q.~.^ !.!.~.^ ~.Q.^.~.U.@ [.[.",
"[.[.[.[.[.[.[.[.[.# q.e.w.e.q.0.u.w.d.y.y.u.e.  [.O o o o : , 3 , 3 : 1 > > , + K o [.[.O Y.Q.Q.T.~.!.! /._.I.W T Q /.(.T.. [.[.",
"[.[.[.[.[.[.[.[.[.[.. q.w.p.u.w.w.e.e.y.y.e.  [.O o o O 1 : 4 1 1 : 4 1 < 3 O K J H + [.O ).^.W./.~.Q.~.R W.~ )./._.R Q.T.  [.[.",
"[.[.[.[.[.[.[.[.[.[.+ w.t.e.f.p.w.e.u.u.w.  [.[.[.O o   , < 4 3 2 > : 3 3 , 0 o K K H @ ~.Q.^.!.).Q._.(.(.~ /.Q.Q.R ).!.E.. [.[.",
"[.[.[.[.[.[.[.[.[.[.+ e.u.w.e.e.w.e.u.q.y.. [.[.[.[.  2 , 3 , , 3 , , > : , < X K K K X (.!.Q.(.Q ~.Q.^.~.U.E E E /.~._._.. [.[.",
"[.[.[.[.[.[.[.[.[.[.# u.t.0.0.t.q.e.0.e.e.e.+ [.[.[.# 7 , 3 , : : , , , 4 , , . H J   !.^./.(.!.T /.~.).(.T./.^.Q._.(./.  # [.[.",
"[.[.[.[.[.[.[.[.[.  e.u.u.u.e.e.u.e.w.e.q.d.y.@ [.[.o 7 , , 2 3 > , : , 3 , , < @ @ /.(.Q.Q.!.T (.^ Q.~.!.!.Y.(.~./._.O [.[.[.[.",
"[.[.[.[.[.[.[.[.X e.w.e.e.t.e.u.e.e.y.e.d.e.q.+ [.[.X 2 3 : : , 3 4 , 1 < , ,   T.^.~.~.).^.).W (.~ Y.(.(.Q./.Q._.(.. [.[.[.[.[.",
"[.[.[.[.[.[.[.[.. e.0.p.e.u.q.0.q.t.q.e.q.u.+ [.[.[.[.@ < : : # > , : , 1 < X E.!._.).).^.~.^.~.^ W.T T )./.^./.~.@ [.[.[.[.[.[.",
"[.[.[.[.[.[.[.[.X e.u.t.i.f.u.e.w.w.@ o O O [.[.[.[.[.o 3 4 3 > O . . < < O W.E.(.Q.).! Q ~.!.(.W Y.^ Q.E ^.!.Q./.O [.[.[.[.[.[.",
"[.[.[.[.[.[.[.[.[.o O e.w.t.u.. @ O g.g.l.X [.[.[.[.. ,   4 q o 3.2.6.O 4 . E.Q./.!.W E Q.).!./.W.E /.Q.!.Q.).Q.  [.[.[.[.[.[.[.",
"[.[.[.[.[.[.[.[.[.# n.O + X   g.g.l.g.g.x.  [.[.[.[.X < 7 O + 5.4.1.` o 3 . !.~.).Q.~ ).!.~._.W.^.^ Q.~.Q.Q.^.E.  [.[.[.[.[.[.[.",
"[.[.[.[.[.[.[.[.[.O n.g.k.g.g.h.g.z.j.j.g.O [.[.[.. , 3 , 7 @ 6.6.9.` E.. ~._.(.(.~.^ (.^.^.P.^./.^.! Q.Q.(.R.  [.[.[.[.[.[.[.[.",
"[.[.[.[.[.[.[.[.[.+ c.l.g.l.h.g.g.g.g.j.j.g.# [.[.X : : : 3 4   4.>.,.T.^.(.~.(.!.(.W W (.).Q.~ (.~.)._.^.. + [.[.[.[.[.[.[.[.[.",
"[.[.[.[.[.[.[.[.+ n.g.g.h.g.l.g.g.g.j.g.j.g.@ [.[.+ , : : > , 3     _./.Q.!.R /.Q.(.!.W ~ !.~ W ^.(.).!.X [.[.[.[.[.[.[.[.[.[.[.",
"[.[.[.[.[.[.[.[.O g.g.g.h.g.g.O n.j.j.g.g.n.O [.[.[.o : , 2 2 , +   E.Q.^.!.R ~././.Q./.~ ^ ~ ~.!.!.~./.X [.[.[.[.[.[.[.[.[.[.[.",
"[.[.[.[.[.[.[.[.+ g.l.g.g.j.j.O n.g.x.g.n.O [.[.[.[.o   . +   O C X E.~._.T ~.^ !.)./.).Q.Q./.)._.Q._.  [.[.[.[.[.[.[.[.[.[.[.[.",
"[.[.[.[.[.[.[.[.X j.g.g.j.g.h.O g.g.g.j.g.. [.[.[.+ c c N V n C V . P./.!.T Q.W (.^.!.~.~.Q.~.!.!.^.# [.[.[.[.[.[.[.[.[.[.[.[.[.",
"[.[.[.[.[.[.[.[.  z.g.g.g.l.n.O j.g.g.j.k.O [.[.[.  l   m M B M n @ ).Q.Q.^ ~.Q ~ !.(.U.(.!.(.!.@   [.[.[.[.[.[.[.[.[.[.[.[.[.[.",
"[.[.[.[.[.[.[.[.. l.g.j.g.l.b.+ l.g.j.g.g.# [.[.[.# M B + + m V z + Q.Q./.~ T /.(.! E._.Q./.!.P.. [.[.[.[.[.[.[.[.[.[.[.[.[.[.[.",
"[.[.[.[.[.[.[.  n.g.g.j.g.h.# [.O k.j.l.h.. [.[.[.O M C M C M m x # _.)./.E Q.~.!.E.E ~.^.E.T.. [.[.[.[.[.[.[.[.[.[.[.[.[.[.[.[.",
"[.[.[.[.[.[.[.@ n.l.g.g.g.g.@ [.O g.g.h.v.  [.[.O x M N C n C l m O U.^.^.!.W Q.T.Q.!././.R.@ [.[.[.[.[.[.[.[.[.[.[.[.[.[.[.[.[.",
"[.[.[.[.[.[.[.@ g.j.g.g.j.j.# [.O n.n.n.X [.[.[.. x M N M M M C C o T./.^._.W.^ (.!.~.^.P.+ [.[.[.[.[.[.[.[.[.[.[.[.[.[.[.[.[.[.",
"[.[.[.[.[.[.[.O l.l.z.g.h.g.+ [.[.@ O @ [.[.[.[.@ M m C C M V M + . E._.!.E.).!.).~.~./.@ [.[.[.[.[.[.[.[.[.[.[.[.[.[.[.[.[.[.[.",
"[.[.[.[.[.[.[.[.# n.k.g.l.O [.[.[.+ f . [.[.[.[.  C N b C m M M O + I.(.^.^.).).Q.Q.(.. [.[.[.[.[.[.[.[.[.[.[.[.[.[.[.[.[.[.[.[.",
"[.[.[.[.[.[.[.[.[.O n.c.. [.[.[.[.O f P O [.[.[.X M B b M m M o [.@ Q.).~.^.Q.(./.o O [.[.[.[.[.[.[.[.[.[.[.[.[.[.[.[.[.[.[.[.[.",
"[.[.[.[.[.[.[.[.[.  X + [.[.[.[.@ f I k P @ + [.. v x C C V   [.[.O R.!.Q._.(.).  [.[.[.[.[.[.[.[.[.[.[.[.[.[.[.[.[.[.[.[.[.[.[.",
"[.[.[.[.[.[.[.[.  O k O # [.[.[.O f k f O s s @ [.O X . z o [.[.[.X R.!.~.^.).Q.o [.[.[.[.[.[.[.[.[.[.[.[.[.[.[.[.[.[.[.[.[.[.[.",
"[.[.[.[.[.[.[.[.@ k d Y O [.[.[.  Y I j a f d O [.o ' -.@ [.[.[.[.O P.^.W.X X + [.[.[.[.[.[.[.[.[.[.[.[.[.[.[.[.[.[.[.[.[.[.[.[.",
"[.[.[.[.[.[.[.O a f I h I O X [.[.+ O L I U L O . _ _ / O.    X [.# ~.Q.@ [.[.[.[.[.[.[.[.[.[.[.[.[.[.[.[.[.[.[.[.[.[.[.[.[.[.[.",
"[.[.[.[.[.[.[.O U h f f @ f f O [.[.[.# @ O     ] ' / o.. ) / ` X + /.  [.[.[.[.[.[.[.[.[.[.[.[.[.[.[.[.[.[.[.[.[.[.[.[.[.[.[.[.",
"[.[.[.[.[.[.[.[.  L L k d f g O [.[.[.[.[.[.[.@ & = / ' _ _ ` ( O + X [.[.[.[.[.[.[.[.[.[.[.[.[.[.[.[.[.[.[.[.[.[.[.[.[.[.[.[.[.",
"[.[.[.[.[.[.[.[.[.O   L U L   [.[.[.[.[.[.[.[.[.O O - & ; - * ; O + X [.[.[.[.[.[.[.[.[.[.[.[.[.[.[.[.[.[.[.[.[.[.[.[.[.[.[.[.[.",
"[.[.[.[.[.[.[.[.[.[.[.O O . [.[.[.[.[.[.[.[.[.[.[.[.+ #   o X o [.O [.[.[.[.[.[.[.[.[.[.[.[.[.[.[.[.[.[.[.[.[.[.[.[.[.[.[.[.[.[."
};
