/* XPM */
static char *result[] = {
/* columns rows colors chars-per-pixel */
"64 64 188 2 ",
"   c black",
".  c #010000",
"X  c #000100",
"o  c #010100",
"O  c #000001",
"+  c #010001",
"@  c #000101",
"#  c #010101",
"$  c #1C1D1B",
"%  c #1D1D1B",
"&  c #341C00",
"*  c #351C00",
"=  c #341D00",
"-  c #341D01",
";  c #351D01",
":  c #042212",
">  c #052212",
",  c #042312",
"<  c #052312",
"1  c #042213",
"2  c #052213",
"3  c #042313",
"4  c #052313",
"5  c #08381E",
"6  c #09381E",
"7  c #08391E",
"8  c #08381F",
"9  c #09381F",
"0  c #08391F",
"q  c #050324",
"w  c #050325",
"e  c #040234",
"r  c #050234",
"t  c #040334",
"y  c #050334",
"u  c #040235",
"i  c #050235",
"p  c #040335",
"a  c #050335",
"s  c #22222A",
"d  c #23222A",
"f  c #22232A",
"g  c #23232A",
"h  c #22222B",
"j  c #23222B",
"k  c #22232B",
"l  c #23232B",
"z  c #302A28",
"x  c #302B28",
"c  c #312B28",
"v  c #302B29",
"b  c #3C3634",
"n  c #3D3634",
"m  c #3C3734",
"M  c #3D3734",
"N  c #3C3635",
"B  c #3D3635",
"V  c #3C3735",
"C  c #3D3735",
"Z  c #771A10",
"A  c #52340A",
"S  c #53340A",
"D  c #52350A",
"F  c #53350A",
"G  c #52350B",
"H  c #233277",
"J  c #27367D",
"K  c #26377D",
"L  c #27377D",
"P  c #464648",
"I  c #474648",
"U  c #464748",
"Y  c #474748",
"T  c #464649",
"R  c #464749",
"E  c #8C2216",
"W  c #8D2216",
"Q  c #8C2316",
"!  c #8D2316",
"~  c #8C2217",
"^  c #8D2217",
"/  c #8C2317",
"(  c #8D2317",
")  c #88500C",
"_  c #89500C",
"`  c #88510C",
"'  c #89510C",
"]  c #88500D",
"[  c #89500D",
"{  c #88510D",
"}  c #89510D",
"|  c #9A5808",
" . c #9A5908",
".. c #9B5908",
"X. c #9A5809",
"o. c #9B5809",
"O. c #9A5909",
"+. c #9B5909",
"@. c #9B5C10",
"#. c #9B5D10",
"$. c #AF4C1A",
"%. c #AE4C1B",
"&. c #AF4C1B",
"*. c #AE4D1B",
"=. c #AF4D1B",
"-. c #A86210",
";. c #A86310",
":. c #A96310",
">. c #A86311",
",. c #A96311",
"<. c #AD6915",
"1. c #E9710A",
"2. c #E8B50A",
"3. c #C29D64",
"4. c #C39D64",
"5. c #C29C65",
"6. c #C29D65",
"7. c #C39D65",
"8. c #D4B078",
"9. c #D5B078",
"0. c #D4B178",
"q. c #D5B178",
"w. c #D5B079",
"e. c #D4B179",
"r. c #D5B179",
"t. c #D0328A",
"y. c #D1328A",
"u. c #D0338A",
"i. c #D1338A",
"p. c #D0328B",
"a. c #D1328B",
"s. c #D0338B",
"d. c #D1338B",
"f. c #E23E98",
"g. c #E23F98",
"h. c #E33F98",
"j. c #E23E99",
"k. c #E33E99",
"l. c #E23F99",
"z. c #E33F99",
"x. c #A47C92",
"c. c #A57C92",
"v. c #A47D92",
"b. c #A57D92",
"n. c #A47C93",
"m. c #A57C93",
"M. c #A47D93",
"N. c #A57D93",
"B. c #9B818E",
"V. c #9B808F",
"C. c #9A818F",
"Z. c #9B818F",
"A. c #A4A09E",
"S. c #A4A19E",
"D. c #A4A19F",
"F. c #F2CC92",
"G. c #F3CC92",
"H. c #F2CD92",
"J. c #F3CD92",
"K. c #F2CC93",
"L. c #F3CC93",
"P. c #F3CD93",
"I. c #F7D6A4",
"U. c #F7D7A4",
"Y. c #F6D6A5",
"T. c #F7D6A5",
"R. c #F6D7A5",
"E. c #F7D7A5",
"W. c #E8DED4",
"Q. c #E9DED4",
"!. c #E8DFD4",
"~. c #E9DFD4",
"^. c #E8DED5",
"/. c #E9DED5",
"(. c #E8DFD5",
"). c #E9DFD5",
"_. c #FEF4EA",
"`. c #FFF4EA",
"'. c #FEF5EA",
"]. c #FFF5EA",
"[. c #FEF4EB",
"{. c #FFF4EB",
"}. c #FEF5EB",
"|. c #FFF5EB",
" X c #FFFEFE",
".X c #FFFEFF",
"XX c white",
"oX c None",
/* pixels */
"oXoXoXoXoXoXoXoXoXoXoXoXoXoXoXoXoXoXoXoXoXO O O oXoXoXoXoXoXoXoXoXoXoXoXoXoXoXoXoXoXoXoXoXoXoXoXoXoXoXoXoXoXoXoXoXoXoXoXoXoXoXoX",
"oXoXoXoXoXoXoXoXoXoXoXoXoXoXoXoXoXoXoXoXoXO 1.O oXoXoXoXoXoXoXoXoXoXoXoXoXoXoXoXoXoX@ o @ oXoXoXoXoXoXoXoXoXoXoXoXoXoXoXoXoXoXoX",
"oXoXoXoXoXoXoXoXoXoXoXoXoXoXoXoXoXoXoXoXoXO 2.O oXoXoXoXoXoXoXoXoXoXoXoXoXoXoXoX5 # L.T.K.X / 6 oXoXoXoXoXoXoXoXoXoXoXoXoXoXoXoX",
"oXoXoXoXoXoXoXoXoXoXoXoXoXoXoXoXoXoXoXoXO S.S.O oXoXoXoXoXoXoXoXoXoXoXoXoX/.A.7 5   T.T.T.X Z 8 oXoXoXoXoXoXoXoXoXoXoXoXoXoXoXoX",
"oXoXoXoXoXoXoXoXoXoXoXoXoXoXoX[ ] [ oX+ Y.D.S.F.O oXoXoXoXoX. o o o oXoX^.D.oXoX5 X T.T.T.@ Z 5 oXoXoXoXoXoXoXoXoXoXoXoXoXoXoXoX",
"oXoXoXoXoXoXoXoXoXoXoXoXoXoX{ -.+.{ O T.T.S.F.O oXoXoXoXoX. $ % % . o . oXoXoXoXoXoX@ T.@ oXO + X O @ @ oXoXoXoXoXoXoXoXoXoXoXoX",
"oXoXoXoXoXoXoXoXoXoXoXoXoX{ -.+.;.] oXX T.I.X oXoXoXoXoXo . o o + # % % . oXoXoXoX+ @ @ @ o . e a r e X . oXoXoXoXoXoXoXoXoXoXoX",
"oXoXoXoXoXoXoXoXoXoXoXoX[ ,.X.;.` oXoX. T.E.O oXoXoXoXoX. % o o # X o o X @ oXoXoX@ % o @   e a a e e e .   oXoXoXoXoXoXoXoXoXoX",
"oXoXoXoXoXoXoXoXoXoXoX} ;.O.;.) oXoXoXO T.# oXoXoXoXoXoX  % # # o +   O O O oXoXoX@ % o X t y e i y t p u + oXoXoXoXoXoXoXoXoXoX",
"oXoXoXoXoXoXoXoXoXoX] ;.o.-.) oXoXoXoXO O O O oXoXoXoXoXo o o . + I.U.T.T.@ oXoXoX@ % X X y p i r r y o @   oXoXoXoXoXoXoXoXoXoX",
"oXoXoXoXoXoXoXoXoX] :.o.:.{ oXoXoXoX@ % o o o O oXoXoXoXo # o O XXX Y.XX@ @ oXoXoX@ o . . t y p a r   I.Y.X oXoXoXoXoXoXoXoXoXoX",
"oXoXoXoXoXoXoXoXoX+.;.:.] oXoXoXoXoXO % o o o o O oXoXoXoXo o + T.T.T.T.Y.@ oXoX@ o o . X y i e t # XXo I.X oXoXoXoXoXoXoXoXoXoX",
"oXoXoXoXoXoXoXoXo.;.X.] oXoXoXoXoXoXoXO % + o X o O oXO   o o   T.&.&.&.I.X oX@ # X # o   t t e y @ Y.I.T.O oXoXoXoXoXoXoXO oXoX",
"oXoXoXoXoXoXoXO.;.O.oXoXoXoXoXoXoXoXoX# % o o o o X   G F . o   I.%.*.&.T.O @ # @ X o o . o u r p X U.Y.&.+ oXoXoXoXoXoX. ' X oX",
"oXoXoXoX# .  .-.O.oXoXoXoXoXoXoXoXoXoXO % X . o # @ u.X S A @ .   O . O O o   5.9.4.+ o @ . i i r e X X O oXoXoXoXoXoXoX  _ . oX",
"oXoXoX. D A A +.@ oXoXoX@ O   +   oXoXoXO % o o O i.u.t.O G   % % # X # X % # r.8.6.. X # oXo r t u r r p . . oXoXoXoXoX@ ].. oX",
"oXoXoXO o.A A A + oXoXO i.u.u.i.s.+ O oXoXO % . O i.y.u.y.. . o X % o o % o   q.9.e.@ o oXX u e p u a t u i y o . + . X `./.@ oX",
"oXoXoXo.-...A O oXoXoXO s.u.j.l.y.a.d.@ oXoXO % O u.i.d.i.O o o o X o # X o o . 0.. # oX@ a e p t a e r r y r i p r O '._.~.J.K.",
"oXoX+.>.| A + oXoXoXO i.i.u.i.i.i.l.l.u.o oXoXX l.y.a.d.y.X X % o # o o # o @ @ w.. oX+ r t t i y a r r u p a i r o '.]./.!.T.Y.",
"oXoX:.O.y.O f.X oXoX@ u.j.d.i.i.i.p.t.i.y.# O p.i.y.i.s.i.  % O . # . o o %   , # O O . y a t p u r t r y . a O @ [.{.'.[.).K.J.",
"oXoXoX@ p.y.h.@ oXoXO d.y.i.s.d.u.O o # +   i.d.i.u.i.i.@ # + < , , : .   o O 1 9 5 + . i u t a y p e t i t X _.[.[.'.|.].(.# oX",
"oXoXoXO i.d.i.u.O oXX i.t.a.y.t.+ S S S A # s.d.u.i.u.O % + 4 3 > 2 : , < . : : , 4 #   e u y e i t t y y # ~.`.|.[.[.[._.|.O oX",
"oXoX@ y.u.y.i.y.s.+ oXO y.i.i.o .Xo A  X@ X u.i.u.d.l.. % @ > , , , : < 4 3   , 3 4 @ . y t # u a r y y a   [.`.}.`.`._.{./.@ oX",
"oXoXoXO i.u.u.i.u.u.O O O i.i.O A A A A A O d.i.u.l.O % @ : 3 , : < , < , 1 , + 3 1 O a e y y @ @ # i u   `.[._.}.].}.}.[.).@ oX",
"oXoXoXO z.i.u.d.d.s.y.i.y.d.i.  A F $.&.A   i.i.# o o o   1 4 2 > 3 : 4 @ o + @ 4 > o t e y   Y.U.T.P.+ {._.}.{.`.}.`._._./.  oX",
"oXoXoXoXX O d.d.y.u.u.i.i.y.y.i.X A &.&.  a.y.O oX  o # o 8 , > , 1 > @ 9.9.r.X 2 2 O   y i + R.E.H.F.]._.'.[.}.]._.[._.'.].+ oX",
"oXoXoXoXoXoXO l.a.i.i.y.s.y.d.i.i.  + O y.s.. oXoXO # % o + < < , < X .XO 9.w.@ : 2 O oX# + o U.K.J.`._._._.`.[.|._.].[.}.[.  oX",
"oXoXoXoXoXoXoXO s.i.s.y.u.i.i.p.u.d.d.i.d.s.X oXoXoXO $ X . 0 2 , < @ q.q.e.q.+ , , + oXX p e r G.|._.[.[.( W E ^ W._.(.W.`.o oX",
"oXoXoXoXoXoXoXoX  l.u.u.u.y.d.u.y.u.i.u.i.u.i.  oXoXO % o o   1 > : . 9.w.&.&.+ , 1 O oX. a r i X [._.|./ }.}.{.{.E (.[.].].O oX",
"oXoXoXoXoXoXoXoXoX+ j.a.y.i.i.d.s.i.i.d.i.d.y.g.+ oXO % o + : 1 3 <   8.q.&.=.. 3 @ oXoX+ e e o _.'.`.].Q ].'._.~./ {.`.'.Q.X oX",
"oXoXoXoXoXoXoXoXoX. l.i.i.y.i.u.i.u.u.j.i.y.i.g.  oXO o o O 3 , : 1 : X o @ . < 2 + oXoX  i # _.[._._.'.( `.`.'.( '._.].].!.O oX",
"oXoXoXoXoXoXoXoXoXoX# y.i.u.i.y.t.d.u.z.s.s.d.i.+ oXO X o o : , 3 , , : 1 : > , + L o oXoXO !._.[.^.'.`.^ [.|.Q.! E ~ [.`.^.# oX",
"oXoXoXoXoXoXoXoXoXoXoX. t.i.g.d.u.t.i.i.s.s.i.  oXO o o O : : 4 1 1 : 4 1 < 3 O L K H + oXO }.].).[.}._.'.W )./ }.[.|.W _.^.  oX",
"oXoXoXoXoXoXoXoXoXoXoX+ i.a.i.k.g.u.i.d.d.t.  oXoXoXO o   , < 4 3 2 > > 3 3 , q o J L H @ }._.].`.}._.|.{.{./ [._.'.W }.`.(.. oX",
"oXoXoXoXoXoXoXoXoXoXoX+ d.d.u.i.i.t.i.d.y.s.. oXoXoXoX  2 , 3 , , 3 , , > : , < X L L L X {.`.`.{.E '._.`.'.!.Q ! Q [.}.|.|.o oX",
"oXoXoXoXoXoXoXoXoXoXoX# d.a.u.t.a.y.i.y.i.i.i.+ oXoXoX# 7 , 3 , : : , , , 4 , , . H K   `.`.[.{.`.E [.'.}.{.^.[.|._.|.|.[.  # oX",
"oXoXoXoXoXoXoXoXoXoX  i.i.d.d.i.i.d.i.i.i.y.l.p.@ oXoXo 7 , , 2 3 > , : , 3 , , 4 @ @ [.{._.'.`.E {.( _.}.`.`.~.{.'.[.|.O oXoXoX",
"oXoXoXoXoXoXoXoXoXX i.u.i.i.a.i.d.i.y.s.i.l.i.y.+ oXoXX 2 3 : 1 , 3 4 , 1 < , ,   /.'.'.'.}.].}.! {./ ~.{.{._.[._.|.{.. oXoXoXoX",
"oXoXoXoXoXoXoXoXoX  i.t.h.i.d.a.u.y.a.y.y.y.d.+ oXoXoXoXX < : : # > , : , 1 , X (.{.|.}.}.].'.].'.( ).E E }.[.].[.'.@ oXoXoXoXoX",
"oXoXoXoXoXoXoXoXoXX u.d.a.f.z.d.i.t.u.@ o   O oXoXoXoXoXo 3 3 3 > O + . < < O ).(.{._.}.^ ~ '.`.{.! ~.( _.Q ].`.'.[.O oXoXoXoXoX",
"oXoXoXoXoXoXoXoXoXoXo O i.u.a.d.o @ O x.x.n.  oXoXoXoX. <   4 w o 8.7.q.O 4 . (._.[.`.! Q _.}.`.[.).Q [._.{._.}._.  oXoXoXoXoXoX",
"oXoXoXoXoXoXoXoXoXoX# Z.O O X   x.n.n.x.x.N.  oXoXoXoXX < 7 O + 0.9.6.] o 1 . `.'.}._.! }.`.'.|.).|.( _.'._._.].(.  oXoXoXoXoXoX",
"oXoXoXoXoXoXoXoXoXoXO Z.x.b.x.x.b.x.m.v.x.x.O oXoXoX. : 3 , 5 @ q.q.r.] (.+ '.}.{.{.].( {.].`.W.].[.].^ _._.{./.  oXoXoXoXoXoXoX",
"oXoXoXoXoXoXoXoXoXoX+ B.n.x.n.c.x.x.n.x.v.M.c.# oXoXX : : : 3 4   9.3.4.^.].{.'.{.`.{.! ! {.}._.W {.'.}.|.|.. + oXoXoXoXoXoXoXoX",
"oXoXoXoXoXoXoXoXoX+ Z.x.x.c.c.n.x.x.x.v.v.v.x.@ oXoXO , : : > , 3     |.[._.`.W [._.{.`.! / `./ ! ].`.}.{.X oXoXoXoXoXoXoXoXoXoX",
"oXoXoXoXoXoXoXoXoXO x.x.x.c.x.n.@ Z.v.b.x.x.Z.O oXoXoXo : , 2 2 , +   (._.].`.W '.[.[.`.[./ ( / '.`.`.'.[.o oXoXoXoXoXoXoXoXoXoX",
"oXoXoXoXoXoXoXoXoX+ x.n.x.x.v.v.O Z.x.N.x.Z.O oXoXoXoXo   . #   O C X (.'.|.Q '.( `.}._.}._._.[.}.|._.|.  oXoXoXoXoXoXoXoXoXoXoX",
"oXoXoXoXoXoXoXoXoX  v.x.x.v.x.c.O x.x.c.v.x.. oXoXoX+ v v N V n C V . W._.`.E _.! {.].`.].'.[.'.`.`.].# oXoXoXoXoXoXoXoXoXoXoXoX",
"oXoXoXoXoXoXoXoXoX  m.n.x.x.n.Z.O v.x.x.v.b.O oXoXoX  z   m M B M n # }._.[.( '.~ / `.{.!.{.`.{.`.@   oXoXoXoXoXoXoXoXoXoXoXoXoX",
"oXoXoXoXoXoXoXoXoX. n.x.v.x.n.C.+ n.x.v.x.x.# oXoXoX# M B + + m V x + _._.[./ E [.{.W (.|._.[.`.W.. oXoXoXoXoXoXoXoXoXoXoXoXoXoX",
"oXoXoXoXoXoXoXoX  Z.x.x.M.x.c.# oXO b.v.x.c.. oXoXoXO C C M C M V c # |.}.[.Q _.].].(.Q '.].(.^.. oXoXoXoXoXoXoXoXoXoXoXoXoXoXoX",
"oXoXoXoXoXoXoXoX@ Z.M.x.x.x.x.O oXO x.c.m.V.  oXoX  c M N C n C z m O !.].].`.! _.W._.`.[.[./.# oXoXoXoXoXoXoXoXoXoXoXoXoXoXoXoX",
"oXoXoXoXoXoXoXoX@ x.v.x.x.v.v.# oXO Z.Z.Z.X oXoXoX. c M N M M M C B o ^.[.].|.~.( {.`.'.].W.. oXoXoXoXoXoXoXoXoXoXoXoXoXoXoXoXoX",
"oXoXoXoXoXoXoXoXX n.n.m.x.c.v.+ oXoX@ O @ oXoXoXoX@ M m C C M V M + . (.|.`.(.}.`.}._.'.[.@ oXoXoXoXoXoXoXoXoXoXoXoXoXoXoXoXoXoX",
"oXoXoXoXoXoXoXoXoX# Z.b.x.x.O oXoXoX+ g . oXoXoXoX  B N b C m n n O + Q.{.].].}.}._.[.{.. oXoXoXoXoXoXoXoXoXoXoXoXoXoXoXoXoXoXoX",
"oXoXoXoXoXoXoXoXoXoXO Z.B.. oXoXoXoXO g I @ oXoXoXX M B b M b M o oX@ _.}.'.]._.{.[.o O oXoXoXoXoXoXoXoXoXoXoXoXoXoXoXoXoXoXoXoX",
"oXoXoXoXoXoXoXoXoXoX  X o oXoXoXoX@ g U l I @ + oX. c c C B C   oXoXO Q.`._.|.{.}.  oXoXoXoXoXoXoXoXoXoXoXoXoXoXoXoXoXoXoXoXoXoX",
"oXoXoXoXoXoXoXoXoX  @ l O # oXoXoXO g l f O d j @ oXO X . x o oXoXoXX /.`.'.].}._.o oXoXoXoXoXoXoXoXoXoXoXoXoXoXoXoXoXoXoXoXoXoX",
"oXoXoXoXoXoXoXoXoX@ l f R O oXoXoX  R U k s g f O oX# [ <.@ oXoXoXoXO W.].).X X + oXoXoXoXoXoXoXoXoXoXoXoXoXoXoXoXoXoXoXoXoXoXoX",
"oXoXoXoXoXoXoXoXO s g U j Y O X oXoX+ O P U R P O . ' ' ) #.    X oX# '._.@ oXoXoXoXoXoXoXoXoXoXoXoXoXoXoXoXoXoXoXoXoXoXoXoXoXoX",
"oXoXoXoXoXoXoXoXO T j g g @ g g . oXoXoX# @ O     { [ ) @.. ) ) ) X + [.  oXoXoXoXoXoXoXoXoXoXoXoXoXoXoXoXoXoXoXoXoXoXoXoXoXoXoX",
"oXoXoXoXoXoXoXoXoX  P P l f g h O oXoXoXoXoXoXoX@ & = ) [ ' ' ] [ O + @ oXoXoXoXoXoXoXoXoXoXoXoXoXoXoXoXoXoXoXoXoXoXoXoXoXoXoXoX",
"oXoXoXoXoXoXoXoXoXoXO   P T P O oXoXoXoXoXoXoXoXoX  O - & ; - * ; O + X oXoXoXoXoXoXoXoXoXoXoXoXoXoXoXoXoXoXoXoXoXoXoXoXoXoXoXoX",
"oXoXoXoXoXoXoXoXoXoXoXoXO O . oXoXoXoXoXoXoXoXoXoXoXoX+ o X o X o oXO oXoXoXoXoXoXoXoXoXoXoXoXoXoXoXoXoXoXoXoXoXoXoXoXoXoXoXoXoX"
};
