/* XPM */
static char *result[] = {
/* columns rows colors chars-per-pixel */
"64 64 191 2 ",
"   c black",
".  c #010000",
"X  c #000100",
"o  c #010100",
"O  c #000001",
"+  c #010001",
"@  c #000101",
"#  c #010101",
"$  c #1D1D1A",
"%  c #1D1C1B",
"&  c #1C1D1B",
"*  c #1D1D1B",
"=  c #341C00",
"-  c #351C00",
";  c #341D00",
":  c #341D01",
">  c #351D01",
",  c #042212",
"<  c #052212",
"1  c #042312",
"2  c #052312",
"3  c #042213",
"4  c #052213",
"5  c #042313",
"6  c #052313",
"7  c #08381E",
"8  c #09381E",
"9  c #08391E",
"0  c #09391E",
"q  c #08381F",
"w  c #08391F",
"e  c #050324",
"r  c #050325",
"t  c #040234",
"y  c #050234",
"u  c #040334",
"i  c #050334",
"p  c #040235",
"a  c #050235",
"s  c #040335",
"d  c #050335",
"f  c #22222A",
"g  c #23222A",
"h  c #22232A",
"j  c #23232A",
"k  c #22222B",
"l  c #23222B",
"z  c #22232B",
"x  c #23232B",
"c  c #302A28",
"v  c #302B28",
"b  c #312B28",
"n  c #302B29",
"m  c #312B29",
"M  c #3C3634",
"N  c #3D3634",
"B  c #3C3734",
"V  c #3D3734",
"C  c #3C3635",
"Z  c #3D3635",
"A  c #3C3735",
"S  c #3D3735",
"D  c #771A10",
"F  c #52340A",
"G  c #53340A",
"H  c #52350A",
"J  c #53350A",
"K  c #52340B",
"L  c #53340B",
"P  c #52350B",
"I  c #233277",
"U  c #26377D",
"Y  c #27377D",
"T  c #464648",
"R  c #474648",
"E  c #464748",
"W  c #474748",
"Q  c #464649",
"!  c #464749",
"~  c #8C2216",
"^  c #8D2216",
"/  c #8C2316",
"(  c #8D2316",
")  c #8C2217",
"_  c #8D2217",
"`  c #8C2317",
"'  c #8D2317",
"]  c #88500C",
"[  c #89500C",
"{  c #88510C",
"}  c #89510C",
"|  c #88500D",
" . c #89500D",
".. c #88510D",
"X. c #89510D",
"o. c #9A5908",
"O. c #9B5908",
"+. c #9A5809",
"@. c #9B5809",
"#. c #9A5909",
"$. c #9B5909",
"%. c #9B5C10",
"&. c #9B5D10",
"*. c #AF4C1A",
"=. c #AE4C1B",
"-. c #AF4C1B",
";. c #AE4D1B",
":. c #AF4D1B",
">. c #A86210",
",. c #A86310",
"<. c #A96310",
"1. c #A86311",
"2. c #A96311",
"3. c #AD6915",
"4. c #E9710A",
"5. c #E8B50A",
"6. c #C29D64",
"7. c #C39D64",
"8. c #C29C65",
"9. c #C29D65",
"0. c #C39D65",
"q. c #D4B078",
"w. c #D5B078",
"e. c #D4B178",
"r. c #D5B178",
"t. c #D5B079",
"y. c #D4B179",
"u. c #D5B179",
"i. c #D0328A",
"p. c #D1328A",
"a. c #D0338A",
"s. c #D1338A",
"d. c #D0328B",
"f. c #D1328B",
"g. c #D0338B",
"h. c #D1338B",
"j. c #E23E98",
"k. c #E23F98",
"l. c #E33F98",
"z. c #E23E99",
"x. c #E33E99",
"c. c #E23F99",
"v. c #E33F99",
"b. c #A47C92",
"n. c #A57C92",
"m. c #A47D92",
"M. c #A57D92",
"N. c #A47C93",
"B. c #A57C93",
"V. c #A47D93",
"C. c #A57D93",
"Z. c #9B818E",
"A. c #9B808F",
"S. c #9A818F",
"D. c #9B818F",
"F. c #A4A09E",
"G. c #A4A19E",
"H. c #A4A19F",
"J. c #F2CC92",
"K. c #F3CC92",
"L. c #F2CD92",
"P. c #F3CD92",
"I. c #F2CC93",
"U. c #F3CC93",
"Y. c #F3CD93",
"T. c #F7D6A4",
"R. c #F6D7A4",
"E. c #F7D7A4",
"W. c #F6D6A5",
"Q. c #F7D6A5",
"!. c #F7D7A5",
"~. c #E8DED4",
"^. c #E9DED4",
"/. c #E8DFD4",
"(. c #E9DFD4",
"). c #E8DED5",
"_. c #E9DED5",
"`. c #E8DFD5",
"'. c #E9DFD5",
"]. c #FEF4EA",
"[. c #FFF4EA",
"{. c #FEF5EA",
"}. c #FFF5EA",
"|. c #FEF4EB",
" X c #FFF4EB",
".X c #FEF5EB",
"XX c #FFF5EB",
"oX c #FFFEFE",
"OX c #FFFEFF",
"+X c white",
"@X c None",
/* pixels */
"@X@X@X@X@X@X@X@X@X@X@X@X@X@X@X@X@X@X@XO O O @X@X@X@X@X@X@X@X@X@X@X@X@X@X@X@X@X@X@X@X@X@X@X@X@X@X@X@X@X@X@X@X@X@X@X@X@X@X@X@X@X@X",
"@X@X@X@X@X@X@X@X@X@X@X@X@X@X@X@X@X@X@XO 4.O @X@X@X@X@X@X@X@X@X@X@X@X@X@X@X@X@X@X# o @ @X@X@X@X@X@X@X@X@X@X@X@X@X@X@X@X@X@X@X@X@X",
"@X@X@X@X@X@X@X@X@X@X@X@X@X@X@X@X@X@X@XO 5.@ @X@X@X@X@X@X@X@X@X@X@X@X@X@X@X@X7 # U.Q.I.@ ` 7 @X@X@X@X@X@X@X@X@X@X@X@X@X@X@X@X@X@X",
"@X@X@X@X@X@X@X@X@X@X@X@X@X@X@X@X@X@X@ G.G.O @X@X@X@X@X@X@X@X@X@X@X@X@X_.F.9 7   Q.Q.Q.X D q @X@X@X@X@X@X@X@X@X@X@X@X@X@X@X@X@X@X",
"@X@X@X@X@X@X@X@X@X@X@X@X@X .|  .@X+ W.H.G.J.O @X@X@X@X@X. o o o @X@X).H.@X@X7 X Q.Q.Q.@ D 7 @X@X@X@X@X@X@X@X@X@X@X@X@X@X@X@X@X@X",
"@X@X@X@X@X@X@X@X@X@X@X@X..>.$...O Q.Q.G.J.O @X@X@X@X@X. * * * . o . @X@X@X@X@X@X@ Q.# @XO + X O @ O @X@X@X@X@X@X@X@X@X@X@X@X@X@X",
"@X@X@X@X@X@X@X@X@X@X@X..>.$.,.| @XX Q.T.X @X@X@X@X@X. . o o + # * % . @X@X@X@X@ @ @ # o . t d y t X . @X@X@X@X@X@X@X@X@X@X@X@X@X",
"@X@X@X@X@X@X@X@X@X@X .2.+.,.{ @X@X. Q.!.O @X@X@X@X@X. * o X # o o o X @ @X@X@X@ * o @   t s d t t t .   @X@X@X@X@X@X@X@X@X@X@X@X",
"@X@X@X@X@X@X@X@X@XX.,.#.,.] @X@X@XO Q.O @X@X@X@X@X@XX * # # o +   O O O @X@X@X@ * o X u d p y i u s p + @X@X@X@X@X@X@X@X@X@X@X@X",
"@X@X@X@X@X@X@X@X| ,.@.>.] @X@X@X@XO O O @ @X@X@X@X@Xo + o . + T.T.Q.Q.@ @X@X@X@ * X X i s a y y i o @   @X@X@X@X@X@X@X@X@X@X@X@X",
"@X@X@X@X@X@X@X| <.@.<...@X@X@X@X@ * o o o O @X@X@X@Xo # o O +XX W.+X@ @ @X@X@XO o . . u i s d y   T.W.o @X@X@X@X@X@X@X@X@X@X@X@X",
"@X@X@X@X@X@X@X$.,.<.| @X@X@X@X@XO * o o o X O @X@X@X@X. o O Q.Q.Q.Q.W.@ @X@X@ o o . X i d t u # +Xo T.X @X@X@X@X@X@X@X@X@X@X@X@X",
"@X@X@X@X@X@X$.,.+.| @X@X@X@X@X@X@XO * + o X o O @XO   o o   Q.-.-.-.T.X @X@ o X # o   u u t i @ W.T.!.O @X@X@X@X@X@X@XO @X@X@X@X",
"@X@X@X@X@X#.,.#.@X@X@X@X@X@X@X@X@X@ * o o X # X   P J . o O T.=.;.-.Q.O @ # @ X o o . o a t s X E.W.-.+ @X@X@X@X@X@X. } X @X@X@X",
"@X@X+ . o.,.#.@X@X@X@X@X@X@X@X@X@XO $ X . o # @ a.X L F @ .   O . + O     8.w.7.+ o @ o a a y t X X O @X@X@X@X@X@X@X  [ . @X@X@X",
"@X. J F F $.@ @X@X@X@ O   +   @X@X@XO * o o O s.a.i.O P O * * # o # X * # u.q.9.. @ # @Xo i u a y y s . . @X@X@X@X@X@ }.. @X@X@X",
"@XO @.F F F O @X@XO s.s.a.s.g.+ O @X@XO * . O s.p.a.p.. . o X * o o * o O r.r.y.@ o @XX p t u a d u p a i o . + . X [._.@ @X@X@X",
"@X@.>.O.F O @X@X@XO h.a.j.c.p.f.h.@ @X@XO * O a.s.h.s.@ o o o X o # X o o . e.. # @X@ d t s u d t y y i y d s y O {.].(.P.I.@X@X",
"$.1.+.F + @X@X@XO s.s.a.s.s.s.c.c.a.o @X@XX k.p.f.h.p.X X * o # o o # o @ @ t.. @X+ y u u a i d y y p s d a d o {.}._./.W.W.@X@X",
"<.#.s.O j.X @X@X@ a.z.h.s.s.s.d.i.s.p.# O i.s.p.s.g.s.  * O . # . o o * X 1 # O O . i d u s p y u y i . a O @ |. X{.|.'.I.P.@X@X",
"@X# i.p.l.@ @X@XO h.p.s.a.h.a.O o # +   s.h.s.i.s.s.@ # + 2 1 1 < .   o O 3 8 7 + . a p u d i s t u a u X ].|.|.].|.}.`.# @X@X@X",
"@XO s.h.s.a.O @XX s.i.f.p.i.. G G G F # g.h.a.s.a.O * + 6 5 < 6 , 1 2 . , , 1 4 # . t p i y a u u i i # (.[. X|.|.|.].XXO @X@X@X",
"@ p.a.i.s.p.g.+ @XO p.s.s.o OXo F oX@ X a.s.a.h.c.. * @ < 1 1 1 3 2 6 5   1 5 6 @ . d i # p d y i i d . |.[.{. X[.]. X_.@ @X@X@X",
"@XO s.a.a.s.a.g.O O O p.s.O F F F F F O h.s.a.c.O * O , 5 1 6 2 1 2 1 3 1 + 5 3 O d t i i @ @ # a p X [.].]..X}..X.X|.'.@ @X@X@X",
"@XO v.s.a.h.h.g.p.s.p.h.s.. K H *.-.F   s.s.# o o o   3 6 4 < 5 , 6 @ o + @ 6 < o u t i   W.E.Q.Y.+  X[..X X[..X[.].]._.  @X@X@X",
"@X@XX O h.g.p.a.a.s.s.p.p.s.X F -.-.  f.p.O @X  o # o q 1 < 1 3 < @ w.r.u.X 4 < O   y a + R.!.L.J.}.].}.|..X}.].|.].{.}.+ @X@X@X",
"@X@X@X@XO k.f.s.s.p.g.p.h.s.s.  + O p.g.. @X@XO # * o + < 2 1 2 X OXX w.t.@ , 4 O @X# + o E.I.P.[.].].].[.|. X].}.|..X|.  @X@X@X",
"@X@X@X@X@XO g.s.g.p.a.s.s.f.a.h.h.s.h.g.X @X@X@X+ & X   w < 1 2 @ r.r.y.r.+ 1 1 . @XX s t u K.XX].|.|.' ^ ~ _ ~.].`.~.[.o @X@X@X",
"@X@X@X@X@X@XO c.a.a.a.p.s.h.p.a.s.a.s.a.s.  @X@XO * o X   3 < , . w.t.-.=.# 1 3 O @X. d y a X |.].XX` .X.X X X~ `.|.}.}.O @X@X@X",
"@X@X@X@X@X@X@X+ z.f.p.s.s.h.g.p.s.h.s.h.p.c.+ @XO * o + , 3 5 2   q.r.-.:.. 3 @ @X@X+ t t # ].{.[.}./ }.{.].(.`  X[.{.^.X @X@X@X",
"@X@X@X@X@X@X@X. c.s.s.p.s.a.s.a.a.z.s.p.s.k.  @XO o o O 5 1 , 3 , X o O . 2 4 + @X@X  a # ].|.].].{.' [.[.}.' {.].}.{./.@ @X@X@X",
"@X@X@X@X@X@X@X@X# p.s.a.s.p.i.h.a.c.g.g.h.s.O @XO X o o , 1 5 1 5 , 3 < < 1 + Y o @X@XO '.].].).{.[._ |.XX^.( ~ ` |.[.).# @X@X@X",
"@X@X@X@X@X@X@X@X@X. i.s.k.h.a.a.s.s.g.g.s.  @XO o o O , , 6 3 3 , 6 3 2 5 + Y U I + @XO .X}.'.|.{.].{.^ `.` XX|.XX^ ].).  @X@X@X",
"@X@X@X@X@X@X@X@X@X+ a.f.p.x.k.a.s.h.h.i.  @X@X@XO o X 1 1 6 5 4 < , 5 5 1 e o Y Y I @ .X].}.].|.].XX X X` |.].{.^ .X[.`.. @X@X@X",
"@X@X@X@X@X@X@X@X@X+ s.h.a.s.s.a.s.h.p.g.. @X@X@X@XO 4 1 5 1 1 5 1 1 < , 1 2 X Y Y Y X  X[.[. X~ .X].[.{././ ( / |.{.XXXX. @X@X@X",
"@X@X@X@X@X@X@X@X@X# h.f.i.i.h.p.s.p.s.s.s.. @X@X@X# 9 2 5 1 , < 1 1 1 5 , 1 . I U   }.}.|. X[./ |.{..X X).|.}.].XX X|.  # @X@X@X",
"@X@X@X@X@X@X@X@X  s.h.h.h.s.s.h.s.a.s.p.c.d.# @X@Xo 9 1 1 4 5 < 1 , 1 5 1 5 6 @ @ |. X].{.}.~  X' ]..X[.[.(. X{.|.XXO @X@X@X@X@X",
"@X@X@X@X@X@X@XX s.a.s.s.f.s.h.s.s.g.s.c.s.p.+ @X@XX 4 5 , , 1 6 6 , 3 2 1 1   _.{.{.{..X}..X/  X` (. X X].|.].XX X. @X@X@X@X@X@X",
"@X@X@X@X@X@X@X. s.i.l.s.h.p.a.p.f.f.s.p.h.+ @X@X@X@X@ 2 1 , # < 1 , 1 3 1 X `.[.XX.X.X}.{.}.{.' '.~ ~ .X|.XX|.{.@ @X@X@X@X@X@X@X",
"@X@X@X@X@X@X@XX a.f.f.j.v.h.s.i.a.# o   O @X@X@X@X@Xo 5 5 5 < O . . 2 2 O '.`. X|..X_ ) {.[. X( (.' ]./ }.[.].|.  @X@X@X@X@X@X@X",
"@X@X@X@X@X@X@X@Xo O s.a.f.h.o @ O b.b.N.  @X@X@X@X. 1   6 r o q.0.r.O 6 . `.].|.[.( / ]..X[.|.'./ |.]. X]..X].  @X@X@X@X@X@X@X@X",
"@X@X@X@X@X@X@X@X# D.O + X   b.b.N.b.b.C.  @X@X@X@XX 2 7 O + e.w.9.| o 5 . [.{..X].' .X[.{.XX'.XX' [..X].].}.`.  @X@X@X@X@X@X@X@X",
"@X@X@X@X@X@X@X@XO D.b.M.b.b.n.b.B.m.b.b.O @X@X@X. , 5 1 0 @ r.r.u.| `.+ {..X X X}.`  XXX[.~.}. X}._ ].[. X_.. @X@X@X@X@X@X@X@X@X",
"@X@X@X@X@X@X@X@X+ Z.N.b.N.n.N.b.N.b.m.m.b.# @X@XX , 3 , 5 6   t.6.7.).}. X{. X[. X( (  X.X].'  X{..XXXXX. + @X@X@X@X@X@X@X@X@X@X",
"@X@X@X@X@X@X@X# D.b.b.n.n.N.b.b.b.m.b.m.b.@ @X@X+ 1 , , < 1 5     XX|.].[.^ |.]. X[.( ` [.` ( }. X.X XX @X@X@X@X@X@X@X@X@X@X@X@X",
"@X@X@X@X@X@X@XO b.b.b.n.b.N.O D.m.M.b.N.D.@ @X@X@Xo , 5 4 4 1 +   `.].}.[.^ {.|.|.}.|.` ' ) ].}.[.{.|.X @X@X@X@X@X@X@X@X@X@X@X@X",
"@X@X@X@X@X@X@X+ b.N.b.b.m.m.O D.b.C.b.D.O @X@X@X@Xo   . #   O S X `.].XX/ {.' ]..X|..X].].|..XXX].XX  @X@X@X@X@X@X@X@X@X@X@X@X@X",
"@X@X@X@X@X@X@X  m.b.b.m.b.n.O b.b.n.m.b.. @X@X@X+ n n C A N S A . ~.].[.~ ].(  X}.[.{.{.|.{.[.[.}.# @X@X@X@X@X@X@X@X@X@X@X@X@X@X",
"@X@X@X@X@X@X@X  B.N.b.b.N.D.O m.b.b.m.M.O @X@X@X  c   B V Z V N @ .X].|.' {.) ` [. X/. X[. X[.@   @X@X@X@X@X@X@X@X@X@X@X@X@X@X@X",
"@X@X@X@X@X@X@X. N.b.m.b.N.S.+ N.b.m.b.b.# @X@X@X# V Z + + B A v + ].].|.` ~ |. X_ `.XX].|.].~.o @X@X@X@X@X@X@X@X@X@X@X@X@X@X@X@X",
"@X@X@X@X@X@X  D.b.b.V.n.n.# @XO M.m.m.n.. @X@X@XO V S V S V B m # XX.X|./ ].}.[.`./ {.}.`.).. @X@X@X@X@X@X@X@X@X@X@X@X@X@X@X@X@X",
"@X@X@X@X@X@X@ D.b.b.b.b.b.O @XO b.n.n.A.  @X@X  b V A S N S c B O /.}.}.[.( ].~.{.[.|.|._.# @X@X@X@X@X@X@X@X@X@X@X@X@X@X@X@X@X@X",
"@X@X@X@X@X@X@ b.m.b.b.b.m.# @XO D.D.D.o @X@X@X. b V C V S V S Z o ).|.}.XX(.'  X[.{.}.~.  @X@X@X@X@X@X@X@X@X@X@X@X@X@X@X@X@X@X@X",
"@X@X@X@X@X@XO N.N.B.b.n.m.+ @X@X@ O @ @X@X@X@XO V B S S V A V + . `.XX[.`..X[..X{.{.|.@ @X@X@X@X@X@X@X@X@X@X@X@X@X@X@X@X@X@X@X@X",
"@X@X@X@X@X@X@X# D.M.b.N.O @X@X@X+ j . @X@X@X@X  Z A M V B N N O + ^. X}.}..X.X].|.XX. @X@X@X@X@X@X@X@X@X@X@X@X@X@X@X@X@X@X@X@X@X",
"@X@X@X@X@X@X@X@XO D.Z.. @X@X@X@XO g R O @X@X@XX V S M B M V o @X@ ]..X{.}.]. X|.o O @X@X@X@X@X@X@X@X@X@X@X@X@X@X@X@X@X@X@X@X@X@X",
"@X@X@X@X@X@X@X@X  X + @X@X@X@X@ j E x R @ + @X. m b S Z A   @X@XO ^.[.].XX X.X  @X@X@X@X@X@X@X@X@X@X@X@X@X@X@X@X@X@X@X@X@X@X@X@X",
"@X@X@X@X@X@X@X  @ x O o @X@X@XO j x j O g g @ @XO X . v o @X@X@XX _.[.{.}..X].o @X@X@X@X@X@X@X@X@X@X@X@X@X@X@X@X@X@X@X@X@X@X@X@X",
"@X@X@X@X@X@X@X@ x j ! O @X@X@X  ! E x f j h O @Xo  .3.@ @X@X@X@XO ~.}.'.X X + @X@X@X@X@X@X@X@X@X@X@X@X@X@X@X@X@X@X@X@X@X@X@X@X@X",
"@X@X@X@X@X@XO f j E l W O X @X@X+ O T E ! T O . } X.] &.    X @X# {.].@ @X@X@X@X@X@X@X@X@X@X@X@X@X@X@X@X@X@X@X@X@X@X@X@X@X@X@X@X",
"@X@X@X@X@X@XO Q l j j @ j j O @X@X@X# @ O     .. .{ %.. ] ] ] X + |.  @X@X@X@X@X@X@X@X@X@X@X@X@X@X@X@X@X@X@X@X@X@X@X@X@X@X@X@X@X",
"@X@X@X@X@X@X@X. T T x z j k O @X@X@X@X@X@X@X@ = ; ]  .} } |  .O + X @X@X@X@X@X@X@X@X@X@X@X@X@X@X@X@X@X@X@X@X@X@X@X@X@X@X@X@X@X@X",
"@X@X@X@X@X@X@X@XO   T Q R O @X@X@X@X@X@X@X@X@X  O : = > : - > O + X @X@X@X@X@X@X@X@X@X@X@X@X@X@X@X@X@X@X@X@X@X@X@X@X@X@X@X@X@X@X",
"@X@X@X@X@X@X@X@X@X@XO O . @X@X@X@X@X@X@X@X@X@X@X@X+ # X o X o @XO @X@X@X@X@X@X@X@X@X@X@X@X@X@X@X@X@X@X@X@X@X@X@X@X@X@X@X@X@X@X@X"
};
