/* XPM */
static char *result[] = {
/* columns rows colors chars-per-pixel */
"64 64 195 2 ",
"   c black",
".  c #010000",
"X  c #000100",
"o  c #010100",
"O  c #000001",
"+  c #010001",
"@  c #000101",
"#  c #010101",
"$  c #1D1C1A",
"%  c #1D1D1A",
"&  c #1D1C1B",
"*  c #1C1D1B",
"=  c #1D1D1B",
"-  c #341C00",
";  c #351C00",
":  c #341D00",
">  c #341D01",
",  c #351D01",
"<  c #042212",
"1  c #052212",
"2  c #042312",
"3  c #052312",
"4  c #042213",
"5  c #052213",
"6  c #042313",
"7  c #052313",
"8  c #08381E",
"9  c #09381E",
"0  c #08391E",
"q  c #09391E",
"w  c #08381F",
"e  c #08391F",
"r  c #050324",
"t  c #040325",
"y  c #040234",
"u  c #050234",
"i  c #040334",
"p  c #050334",
"a  c #040235",
"s  c #050235",
"d  c #040335",
"f  c #050335",
"g  c #22222A",
"h  c #23222A",
"j  c #22232A",
"k  c #23232A",
"l  c #22222B",
"z  c #23222B",
"x  c #22232B",
"c  c #23232B",
"v  c #302A28",
"b  c #312A28",
"n  c #302B28",
"m  c #312B28",
"M  c #302A29",
"N  c #302B29",
"B  c #312B29",
"V  c #3C3634",
"C  c #3D3634",
"Z  c #3C3734",
"A  c #3D3734",
"S  c #3C3635",
"D  c #3D3635",
"F  c #3C3735",
"G  c #3D3735",
"H  c #771A10",
"J  c #771A11",
"K  c #52340A",
"L  c #53340A",
"P  c #52350A",
"I  c #53350A",
"U  c #52350B",
"Y  c #233277",
"T  c #27377C",
"R  c #27367D",
"E  c #26377D",
"W  c #27377D",
"Q  c #464648",
"!  c #474648",
"~  c #464748",
"^  c #464649",
"/  c #464749",
"(  c #8C2216",
")  c #8D2216",
"_  c #8C2316",
"`  c #8D2316",
"'  c #8C2217",
"]  c #8D2217",
"[  c #8C2317",
"{  c #8D2317",
"}  c #88500C",
"|  c #89500C",
" . c #88510C",
".. c #89510C",
"X. c #88500D",
"o. c #89500D",
"O. c #88510D",
"+. c #89510D",
"@. c #9A5908",
"#. c #9B5908",
"$. c #9A5809",
"%. c #9B5809",
"&. c #9A5909",
"*. c #9B5909",
"=. c #9B5C10",
"-. c #9B5D10",
";. c #AF4C1A",
":. c #AE4C1B",
">. c #AF4C1B",
",. c #AF4D1B",
"<. c #A86210",
"1. c #A96210",
"2. c #A86310",
"3. c #A96310",
"4. c #A96311",
"5. c #AD6915",
"6. c #E9710A",
"7. c #E8B50A",
"8. c #C29D64",
"9. c #C39D64",
"0. c #C29C65",
"q. c #C29D65",
"w. c #C39D65",
"e. c #D4B078",
"r. c #D5B078",
"t. c #D4B178",
"y. c #D5B178",
"u. c #D5B079",
"i. c #D4B179",
"p. c #D5B179",
"a. c #D0328A",
"s. c #D1328A",
"d. c #D0338A",
"f. c #D1338A",
"g. c #D0328B",
"h. c #D1328B",
"j. c #D0338B",
"k. c #D1338B",
"l. c #E23E98",
"z. c #E23F98",
"x. c #E33F98",
"c. c #E23E99",
"v. c #E23F99",
"b. c #E33F99",
"n. c #A47C92",
"m. c #A57C92",
"M. c #A47D92",
"N. c #A57D92",
"B. c #A47C93",
"V. c #A57C93",
"C. c #A47D93",
"Z. c #A57D93",
"A. c #9A808E",
"S. c #9B808E",
"D. c #9B818E",
"F. c #9B808F",
"G. c #9A818F",
"H. c #9B818F",
"J. c #A4A09E",
"K. c #A4A19E",
"L. c #A5A19E",
"P. c #A4A19F",
"I. c #F2CC92",
"U. c #F3CC92",
"Y. c #F2CD92",
"T. c #F3CD92",
"R. c #F2CC93",
"E. c #F3CD93",
"W. c #F7D6A4",
"Q. c #F6D7A4",
"!. c #F7D7A4",
"~. c #F6D6A5",
"^. c #F7D6A5",
"/. c #F6D7A5",
"(. c #F7D7A5",
"). c #E8DED4",
"_. c #E9DED4",
"`. c #E8DFD4",
"'. c #E9DFD4",
"]. c #E8DED5",
"[. c #E9DED5",
"{. c #E8DFD5",
"}. c #E9DFD5",
"|. c #FEF4EA",
" X c #FFF4EA",
".X c #FEF5EA",
"XX c #FFF5EA",
"oX c #FEF4EB",
"OX c #FFF4EB",
"+X c #FEF5EB",
"@X c #FFF5EB",
"#X c #FFFEFE",
"$X c #FFFEFF",
"%X c white",
"&X c None",
/* pixels */
"&X&X&X&X&X&X&X&X&X&X&X&X&X&X&X&X&X&X&X&X&X&X&X&X&X&X&X&X&X&X&X&X&X&X&X&X&X&X&X&X&XO O   &X&X&X&X&X&X&X&X&X&X&X&X&X&X&X&X&X&X&X&X",
"&X&X&X&X&X&X&X&X&X&X&X&X&X&X&X&X&X&X&X&X@ X O &X&X&X&X&X&X&X&X&X&X&X&X&X&X&X&X&X&XO 6.O &X&X&X&X&X&X&X&X&X&X&X&X&X&X&X&X&X&X&X&X",
"&X&X&X&X&X&X&X&X&X&X&X&X&X&X&X&X&X8 [ @ R.^.R.# 8 &X&X&X&X&X&X&X&X&X&X&X&X&X&X&X&XO 7.O &X&X&X&X&X&X&X&X&X&X&X&X&X&X&X&X&X&X&X&X",
"&X&X&X&X&X&X&X&X&X&X&X&X&X&X&X&X&Xw J o ^.^.^.  8 8 J.[.&X&X&X&X&X&X&X&X&X&X&X&X&XO K.L.@ &X&X&X&X&X&X&X&X&X&X&X&X&X&X&X&X&X&X&X",
"&X&X&X&X&X&X&X&X&X&X&X&X&X&X&X&X&X8 H @ ^.~.^.X 8 &X&XP.].&X&X. o o . &X&X&X&X&XO I.K.K.~.+ &Xo.X.o.&X&X&X&X&X&X&X&X&X&X&X&X&X&X",
"&X&X&X&X&X&X&X&X&X&X&X&X&X@ @ O X + O &X@ ^.@ &X&X&X&X&X&X. X # % = * . &X&X&X&X&XO I.K.^.^.O O.*.<.O.&X&X&X&X&X&X&X&X&X&X&X&X&X",
"&X&X&X&X&X&X&X&X&X&X&X&Xo X y p d y . o @ @ @ O &X&X&X&X. = = + + o o .   &X&X&X&X&XX ^.^.X &XX.2.*.1.O.&X&X&X&X&X&X&X&X&X&X&X&X",
"&X&X&X&X&X&X&X&X&X&X&X  . y u i f d y   @ o * @ &X&X&X@ X o o   # o o % . &X&X&X&X&XO (.^.. &X&X .2.$.4.o.&X&X&X&X&X&X&X&X&X&X&X",
"&X&X&X&X&X&X&X&X&X&X&X+ a d i p u a f i @ o $ @ &X&X&XO # O   O o # o = X &X&X&X&X&X&XO ^.O &X&X&XX.2.*.2.+.&X&X&X&X&X&X&X&X&X&X",
"&X&X&X&X&X&X&X&X&X&X&X  @ o f u s s d p @ X = @ &X&X&X@ ^.^.W.W.+ . o o o &X&X&X&X&XO   O O &X&X&X&X} 1.%.2.X.&X&X&X&X&X&X&X&X&X",
"&X&X&X&X&X&X&X&X&X&X&Xo ~.W.  u f d p i .   o @ &X&X&X@ @ %X~.X %XO o o o &X&X&X&X@ o o o = @ &X&X&X&X+.1.%.4.X.&X&X&X&X&X&X&X&X",
"&X&X&X&X&X&X&X&X&X&X&XX W.o %X# i y f p X . o o @ &X&X@ ~.^.^.^.^.+ o # &X&X&X&XO o o . o & O &X&X&X&X&XX.3.2.%.&X&X&X&X&X&X&X&X",
"&X&X&XO &X&X&X&X&X&X&XO ^.W.Q.@ p y i i   o o X o # &XX W.>.>.,.^.X o o . O &XO o o o + = O &X&X&X&X&X&X&XX.$.2.*.&X&X&X&X&X&X&X",
"&X&XX ... &X&X&X&X&X&X+ >.~.!.X d p a o . o o X @ # # O ^.>.,.:.W.O o . I U   X o o o o = @ &X&X&X&X&X&X&X&X&X&.2.&.&X&X&X&X&X&X",
"&X&X. | . &X&X&X&X&X&X&X@ @ X i u s s . @ o + 8.r.0.  o O O   O   . @ L L X f.X # o . X = + &X&X&X&X&X&X&X&X&X&X&.2.@.. + &X&X&X",
"&X&X. XX@ &X&X&X&X&X. . d u u s i p o &Xo X . q.t.p.# = o # X # = % O U @ a.j.f.  o o =   &X&X&X  O   O @ &X&X&X@ %.K K I . &X&X",
"&X&X@ _. Xo . + . o p s a i f s d y a X &X. @ i.r.y.@ o = o o = o o o   s.d.s.f.O . = + &X&XO + j.k.d.f.k.O &X&XO K L K %.  &X&X",
"&XI.T.'.|..X. u d s p p u u y f i d y f @ &Xo . e.. o o X # o X o o o O f.k.f.d.. * O &X&X@ k.h.s.v.c.f.k.O &X&X&XO K #.<.%.&X&X",
"&X~.~.`.[. X.XX u u s d a u u s p s y p u + &X. u.@ @ # o o o # o % X X s.f.k.s.c.@ &X&X+ d.v.v.f.f.f.d.f.s.O &X&X&X+ K %.2.*.&X",
"&XT.R.}.oX.XOXoX@ O f . p u i u a d i f p   O O + 2 . * o o . . . O =   f.j.f.s.f.a.O @ s.f.a.g.f.f.f.k.c.d.@ &X&XX z.O f.&.3.&X",
"&X&X@ {.XXOX.XoXoX|.X i s y y d p f i a s . + 8 9 4 O o   . 1 2 2 6 + # @ f.f.a.f.h.f.  + # o O d.k.d.f.s.f.O &X&X@ x.s.a.o &X&X",
"&X&XO XX|.OXoXoXOX X'.# p p i i s y p a y . # 3 2 < < . 3 2 < 5 5 6 3 + = O d.f.d.k.j.# K L K L + a.s.h.s.f.X &X@ d.f.k.s.O &X&X",
"&X&X@ [.oX|. XXX+X@XoX  f p p u f a # p p . @ 7 6 2   6 2 2 < 2 2 2 1 @ = . v.k.d.f.d.X @ #XK o $Xo f.f.s.@ &X+ j.s.f.a.d.s.@ &X",
"&X&X@ }.oX@X+XXX+X|.|. XX a f # @ @ p p u f O 4 6 + < 4 2 3 2 3 7 7 6 4 O = O v.d.f.k.O K K K K K O f.g.O O O d.d.f.d.d.f.O &X&X",
"&X&X  ].|.|. X+X X@X+X XOX# E.^.!.~.  p y i o 1 7 @ + o @ 7 < 6 1 5 7 4 + o o # # f.f.X K >.;.P L   k.j.s.f.s.j.k.k.f.f.b.O &X&X",
"&X&X+ XX.XoXoX|..X@XoX.X|.XXI.Y.(./.+ s p   O 5 1 X p.y.r.@ < < 2 1 2 w o o o   &XO s.h.  >.>.K X f.s.s.f.f.d.d.s.k.k.O o &X&X&X",
"&X&X  oX+XoXXX|.@XoX X|..X|.XXT.R.!.. + # &XO 5 < @ u.r.  $Xo 3 2 3 3 O o = # O &X&X. k.f.O +   s.f.f.s.k.s.f.k.h.v.O &X&X&X&X&X",
"&X&Xo  X_.{.|.).] ( ) { oXoX|.@XU.u y d X &Xo 2 2 + y.i.y.y.# 1 2 5 e . X * O &X&X&XX d.k.f.k.k.f.g.f.f.f.s.j.f.j.O &X&X&X&X&X&X",
"&X&XO XXXX|.{.( OXOX+X+X[ @XoXoXX s s f . &XO 4 2 + >.>.u.r.. < 1 4   o . = O &X&X  f.d.f.d.f.a.s.f.f.s.d.d.d.v.O &X&X&X&X&X&X&X",
"&X&XX _..X X X[ '. X.X X_ XX X+X|.o i y + &X&X@ 6 + ,.>.y.e.  3 6 4 < + o = O &X+ b.s.k.f.k.f.f.j.k.f.f.s.h.c.+ &X&X&X&X&X&X&X&X",
"&X&X@ `..XXX|..X{ .X X X] .X|.|.oX|.# s X &X&X+ 5 3 . @ # X < 4 < 2 7 O o o O &X  z.f.s.f.v.f.d.f.d.f.s.f.f.v.. &X&X&X&X&X&X&X&X",
"&X&X  ].OXoX' ( ` _.@XoX] .X.X].|.|.'.+ &X&X# W # 2 1 1 4 < 6 < 6 2 < o o o O &X  f.k.j.j.b.d.k.a.s.f.j.f.s.+ &X&X&X&X&X&X&X&X&X",
"&X&X  ).|.) @XoX+X[ }.) .X|..XOX}.XX+XO &X# Y E W O 6 3 4 7 < 4 4 3 < 4 O o o O &X  f.j.j.f.f.d.d.k.z.d.f.. &X&X&X&X&X&X&X&X&X&X",
"&X&X. {. X+X) |.|.oX[  XOX@X|.+X XXX|..X@ Y R E o r 2 6 6 < 1 5 6 7 3 < X o O &X&X&XO d.k.k.k.d.z.x.f.h.d.# &X&X&X&X&X&X&X&X&X&X",
"&X&X. @X@X.XOX_ _ _ `..XXX|..X' OX|. XOXX T W W X 7 2 < 1 2 2 6 2 2 6 2 5   &X&X&X&X. j.s.k.f.d.f.f.d.k.f.+ &X&X&X&X&X&X&X&X&X&X",
"&X&X#   oXOXOX|..XoX].OX+X.XoX(  XOXoXXX X  E Y . 2 2 7 2 2 2 < 2 2 6 2 0 # &X&X&X+ f.f.f.a.f.s.h.a.a.h.k.# &X&X&X&X&X&X&X&X&X&X",
"&X&X&X&XO @XoX.XOX'. X X.X|.) OX_  X|.|.OXoX@ @ 3 2 2 6 2 < 2 1 6 5 2 2 0 # &X&XO j.c.s.f.d.f.k.f.f.k.k.k.f.  &X&X&X&X&X&X&X&X&X",
"&X&X&X&X&X. OX@X|.oX|.OXOX'.[ OX{ +X.X+X.X.XXX].  2 2 3 4 2 7 2 2 < < 6 5 X &X&X+ s.f.v.f.k.f.f.k.f.h.f.f.d.f.X &X&X&X&X&X&X&X&X",
"&X&X&X&X&X&X@ .XoXXXoX+X( ( }.{ .XXX.XXX+X+X@X X{.X 3 4 2 < 2 1 # < < 3 @ &X&X&X&X+ k.s.f.s.h.f.a.s.k.f.z.a.d.. &X&X&X&X&X&X&X&X",
"&X&X&X&X&X&XO oX|. XXX_ |.{ '.` OXXX.X' ] +X XOX{.}.O 3 3 . . O 1 6 7 7 o &X&X&X&X&XO O # @ d.f.f.k.b.l.h.f.d.@ &X&X&X&X&X&X&X&X",
"&X&X&X&X&X&X&X  |.+X|. X|.oX_ }.oX XoX|._ `  X|.oX`.o 7 O y.w.e.o t 7   2 . &X&X&X&XX B.n.n.O @ . k.h.d.s.O o &X&X&X&X&X&X&X&X&X",
"&X&X&X&X&X&X&X  {..X|.|..X|.{ XX}.@X.X X+X[ |.+X.X X. 4 o X.q.r.t.+ O q 3 @ &X&X&X&X  Z.n.m.B.n.n.  X + O H.# &X&X&X&X&X&X&X&X&X",
"&X&X&X&X&X&X&X&X  ].OX|.|.] XXoX@X).XXXXOX{ .XOXOX@X.X. }.X.p.y.y.@ 0 2 6 2 . &X&X&XO n.M.M.V.n.N.V.n.N.n.H.O &X&X&X&X&X&X&X&X&X",
"&X&X&X&X&X&X&X&X&X+ . XX@X+X.XOX[ |.+XOX` ` OX XOX.XOX.X].9.9.r.. 7 6 < < < X &X&X# n.M.M.n.n.n.n.m.B.n.B.D.+ &X&X&X&X&X&X&X&X&X",
"&X&X&X&X&X&X&X&X&X&X&XX  X+XOXXX_ [ |._ `  XOX|.oX)  X|.OXOX    6 2 1 < < 2 + &X&X@ n.M.n.M.n.n.n.B.n.m.n.M.H.O &X&X&X&X&X&X&X&X",
"&X&X&X&X&X&X&X&X&X&X&XX oX.X X|..X[ { [ oX|.oXoX.X)  XXX|.{.  + 2 5 1 2 < o &X&X&XO H.n.M.M.M.G.O n.n.m.n.n.n.O &X&X&X&X&X&X&X&X",
"&X&X&X&X&X&X&X&X&X&X&X&X  @X|.@X+XoX|..X+XoX+X X{ .X( @X.X{.@ G O   + .   o &X&X&X&XO H.n.Z.n.H.O M.M.n.n.B.m.. &X&X&X&X&X&X&X&X",
"&X&X&X&X&X&X&X&X&X&X&X&X&X+ XX X X.X|..X.X XXXOX` |.(  XoX).. F G C F S M N O &X&X&X. n.M.n.n.n.@ m.n.M.n.n.M.X &X&X&X&X&X&X&X&X",
"&X&X&X&X&X&X&X&X&X&X&X&X&X&X  @  XOX XOX`.OX X{ ' .X{ |.|.oX@ V A D A Z   v   &X&X&XO N.M.n.n.N.O H.B.n.n.B.V.  &X&X&X&X&X&X&X&X",
"&X&X&X&X&X&X&X&X&X&X&X&X&X&X&X. ).|.OX|.@X{.] OXoX( [ oX|.oX+ n F V + . D A # &X&X&X# n.n.C.n.B.+ A.B.M.M.n.B.. &X&X&X&X&X&X&X&X",
"&X&X&X&X&X&X&X&X&X&X&X&X&X&X&X&X. ].{.XX.X_ {. X.X|._ oX+X@X# m Z A G A G A O &X&X&X. m.B.M.N.O &X# m.n.M.n.n.H.  &X&X&X&X&X&X&X",
"&X&X&X&X&X&X&X&X&X&X&X&X&X&X&X&X&XX [.oXoX X|.].|.`  XXXXX).O V v G C G S G m O &X&X. F.m.n.n.O &X@ n.n.n.n.B.H.@ &X&X&X&X&X&X&X",
"&X&X&X&X&X&X&X&X&X&X&X&X&X&X&X&X&X&X+ ).XX.X XOX{ }.OXXXoX].o G G Z A A F A m + &X&X&X@ H.H.H.@ &X# M.M.n.n.N.n.@ &X&X&X&X&X&X&X",
"&X&X&X&X&X&X&X&X&X&X&X&X&X&X&X&X&X&X&X@ oX.X.X+X X+X{. X@X].  + G F A G G Z A @ &X&X&X&X@ + @ &X&XO n.m.n.V.B.B.O &X&X&X&X&X&X&X",
"&X&X&X&X&X&X&X&X&X&X&X&X&X&X&X&X&X&X&X&X. OX|.|.+X+XXXXXOX_.+ O A Z Z G V S G   &X&X&X&X. k + &X&X&XO B.m.N.H.# &X&X&X&X&X&X&X&X",
"&X&X&X&X&X&X&X&X&X&X&X&X&X&X&X&X&X&X&X&X&XO o oXOX|.XX.X+X|.@ &Xo A Z A V D A X &X&X&XO ! k O &X&X&X&X. S.H.O &X&X&X&X&X&X&X&X&X",
"&X&X&X&X&X&X&X&X&X&X&X&X&X&X&X&X&X&X&X&X&X&X&X  +XOX@X|. X[.+ &X&X  F G G b B . &X+ @ ! c ~ h @ &X&X&X&X. X   &X&X&X&X&X&X&X&X&X",
"&X&X&X&X&X&X&X&X&X&X&X&X&X&X&X&X&X&X&X&X&X&X&Xo |.+XXX.X X].X &X&X&Xo n . X O &X@ h h O k c k + &X&X&X# O c O   &X&X&X&X&X&X&X&X",
"&X&X&X&X&X&X&X&X&X&X&X&X&X&X&X&X&X&X&X&X&X&X&X&X+ X X }.XX).O &X&X&X&X@ 5.o.o &X@ j k g x ~ /   &X&X&X@ / j x @ &X&X&X&X&X&X&X&X",
"&X&X&X&X&X&X&X&X&X&X&X&X&X&X&X&X&X&X&X&X&X&X&X&X&X&X&X@ |..X# &XX   . -.} ..... O Q ^ ~ Q O + &X&XX O ~ z ~ k k O &X&X&X&X&X&X&X",
"&X&X&X&X&X&X&X&X&X&X&X&X&X&X&X&X&X&X&X&X&X&X&X&X&X&X&X&X  oX+ @ X.}  .. =.} o.O.    O @ # &X&X&XO k k @ k k z ^ @ &X&X&X&X&X&X&X",
"&X&X&X&X&X&X&X&X&X&X&X&X&X&X&X&X&X&X&X&X&X&X&X&X&X&X&X&X&XX + O | X... .o.} : - @ &X&X&X&X&X&X&X@ l k j c Q Q   &X&X&X&X&X&X&X&X",
"&X&X&X&X&X&X&X&X&X&X&X&X&X&X&X&X&X&X&X&X&X&X&X&X&X&X&X&X&XX + O , ; > , - > O O &X&X&X&X&X&X&X&X&X  Q ^ Q   O &X&X&X&X&X&X&X&X&X",
"&X&X&X&X&X&X&X&X&X&X&X&X&X&X&X&X&X&X&X&X&X&X&X&X&X&X&X&X&X&XO &X# X o   # + &X&X&X&X&X&X&X&X&X&X&X&X. O O &X&X&X&X&X&X&X&X&X&X&X"
};
