/* XPM */
static char *result[] = {
/* columns rows colors chars-per-pixel */
"64 64 190 2 ",
"   c black",
".  c #010000",
"X  c #000100",
"o  c #010100",
"O  c #000001",
"+  c #010001",
"@  c #000101",
"#  c #010101",
"$  c #1D1C1B",
"%  c #1C1D1B",
"&  c #1D1D1B",
"*  c #341C00",
"=  c #351C00",
"-  c #341D00",
";  c #341D01",
":  c #351D01",
">  c #042212",
",  c #052212",
"<  c #042312",
"1  c #052312",
"2  c #042213",
"3  c #052213",
"4  c #042313",
"5  c #052313",
"6  c #08381E",
"7  c #09381E",
"8  c #08391E",
"9  c #09391E",
"0  c #08381F",
"q  c #08391F",
"w  c #050324",
"e  c #050325",
"r  c #040234",
"t  c #050234",
"y  c #040334",
"u  c #050334",
"i  c #040235",
"p  c #050235",
"a  c #040335",
"s  c #050335",
"d  c #22222A",
"f  c #23222A",
"g  c #22232A",
"h  c #23232A",
"j  c #22222B",
"k  c #23222B",
"l  c #22232B",
"z  c #23232B",
"x  c #302A28",
"c  c #302B28",
"v  c #312B28",
"b  c #302B29",
"n  c #312B29",
"m  c #3C3634",
"M  c #3D3634",
"N  c #3C3734",
"B  c #3D3734",
"V  c #3C3635",
"C  c #3D3635",
"Z  c #3C3735",
"A  c #3D3735",
"S  c #771A10",
"D  c #52340A",
"F  c #53340A",
"G  c #52350A",
"H  c #53350A",
"J  c #52340B",
"K  c #53340B",
"L  c #52350B",
"P  c #233277",
"I  c #26377D",
"U  c #27377D",
"Y  c #464648",
"T  c #474648",
"R  c #464748",
"E  c #474748",
"W  c #464649",
"Q  c #464749",
"!  c #8C2216",
"~  c #8D2216",
"^  c #8C2316",
"/  c #8D2316",
"(  c #8C2217",
")  c #8D2217",
"_  c #8C2317",
"`  c #8D2317",
"'  c #88500C",
"]  c #89500C",
"[  c #88510C",
"{  c #89510C",
"}  c #88500D",
"|  c #89500D",
" . c #88510D",
".. c #89510D",
"X. c #9A5908",
"o. c #9B5908",
"O. c #9A5809",
"+. c #9B5809",
"@. c #9A5909",
"#. c #9B5909",
"$. c #9B5C10",
"%. c #9B5D10",
"&. c #AF4C1A",
"*. c #AE4C1B",
"=. c #AF4C1B",
"-. c #AE4D1B",
";. c #AF4D1B",
":. c #A86210",
">. c #A86310",
",. c #A96310",
"<. c #A86311",
"1. c #A96311",
"2. c #AD6915",
"3. c #E9710A",
"4. c #E8B50A",
"5. c #C29D64",
"6. c #C39D64",
"7. c #C29C65",
"8. c #C29D65",
"9. c #C39D65",
"0. c #D4B078",
"q. c #D5B078",
"w. c #D4B178",
"e. c #D5B178",
"r. c #D5B079",
"t. c #D4B179",
"y. c #D5B179",
"u. c #D0328A",
"i. c #D1328A",
"p. c #D0338A",
"a. c #D1338A",
"s. c #D0328B",
"d. c #D1328B",
"f. c #D0338B",
"g. c #D1338B",
"h. c #E23E98",
"j. c #E33E98",
"k. c #E23F98",
"l. c #E33F98",
"z. c #E23E99",
"x. c #E23F99",
"c. c #E33F99",
"v. c #A47C92",
"b. c #A57C92",
"n. c #A47D92",
"m. c #A57D92",
"M. c #A47C93",
"N. c #A57C93",
"B. c #A47D93",
"V. c #A57D93",
"C. c #9B818E",
"Z. c #9B808F",
"A. c #9A818F",
"S. c #9B818F",
"D. c #A4A09E",
"F. c #A4A19E",
"G. c #A4A19F",
"H. c #F2CC92",
"J. c #F3CC92",
"K. c #F2CD92",
"L. c #F3CD92",
"P. c #F2CC93",
"I. c #F3CC93",
"U. c #F3CD93",
"Y. c #F7D6A4",
"T. c #F6D7A4",
"R. c #F7D7A4",
"E. c #F6D6A5",
"W. c #F7D6A5",
"Q. c #F7D7A5",
"!. c #E8DED4",
"~. c #E9DED4",
"^. c #E8DFD4",
"/. c #E9DFD4",
"(. c #E8DED5",
"). c #E9DED5",
"_. c #E8DFD5",
"`. c #E9DFD5",
"'. c #FEF4EA",
"]. c #FFF4EA",
"[. c #FEF5EA",
"{. c #FFF5EA",
"}. c #FEF4EB",
"|. c #FFF4EB",
" X c #FEF5EB",
".X c #FFF5EB",
"XX c #FFFEFE",
"oX c #FFFEFF",
"OX c white",
"+X c None",
/* pixels */
"+X+X+X+X+X+X+X+X+X+X+X+X+X+X+X+X+X+X+X+X+X+X+X+X+X+X+X+X+X+X+X+X+X+X+X+X+X+X+X+X+X+XO O O +X+X+X+X+X+X+X+X+X+X+X+X+X+X+X+X+X+X+X",
"+X+X+X+X+X+X+X+X+X+X+X+X+X+X+X+X+X+X+X+X+X@ o # +X+X+X+X+X+X+X+X+X+X+X+X+X+X+X+X+X+XO 3.O +X+X+X+X+X+X+X+X+X+X+X+X+X+X+X+X+X+X+X",
"+X+X+X+X+X+X+X+X+X+X+X+X+X+X+X+X+X+X6 _ @ P.W.I.# 6 +X+X+X+X+X+X+X+X+X+X+X+X+X+X+X+X@ 4.O +X+X+X+X+X+X+X+X+X+X+X+X+X+X+X+X+X+X+X",
"+X+X+X+X+X+X+X+X+X+X+X+X+X+X+X+X+X+X0 S X W.W.W.o 6 8 D.`.+X+X+X+X+X+X+X+X+X+X+X+X+XO F.D.X +X+X+X+X+X+X+X+X+X+X+X+X+X+X+X+X+X+X",
"+X+X+X+X+X+X+X+X+X+X+X+X+X+X+X+X+X+X6 S @ W.R.W.o 6 +X+XG.(.+X+Xo o o . +X+X+X+X+XO H.F.G.E.+ +X| } | +X+X+X+X+X+X+X+X+X+X+X+X+X",
"+X+X+X+X+X+X+X+X+X+X+X+X+X+XO @ O X + O +X# W.@ +X+X+X+X+X+X. o . $ & & . +X+X+X+X+XO H.F.W.W.O  .#.>. .+X+X+X+X+X+X+X+X+X+X+X+X",
"+X+X+X+X+X+X+X+X+X+X+X+X+X. @ r p s r . o # @ @ @ +X+X+X+X. $ & # + o o . . +X+X+X+X+Xo Y.W.X +X} >.#.:. .+X+X+X+X+X+X+X+X+X+X+X",
"+X+X+X+X+X+X+X+X+X+X+X+X  . r r r u a r   @ o & @ +X+X+X@ X o o # # X o & . +X+X+X+X+XO Q.W.. +X+X[ >.O.1.| +X+X+X+X+X+X+X+X+X+X",
"+X+X+X+X+X+X+X+X+X+X+X+X+ i a y u t i s y X o & @ +X+X+XO O O   + o # # & O +X+X+X+X+X+XO W.O +X+X+X' >.@.>...+X+X+X+X+X+X+X+X+X",
"+X+X+X+X+X+X+X+X+X+X+X+X  @ o u u t p a u X X & @ +X+X+X# Q.Y.Y.Y.+ . o + . +X+X+X+X+X@ O + O +X+X+X+X' >.+.>.} +X+X+X+X+X+X+X+X",
"+X+X+X+X+X+X+X+X+X+X+X+Xo E.Y.  t s a u y . . o @ +X+X+X@ @ OXE.X OX  o # o +X+X+X+XO o o o & @ +X+X+X+X .,.+.,.} +X+X+X+X+X+X+X",
"+X+X+X+X+X+X+X+X+X+X+X+XX Y.X OX# y r s u X . o o # +X+X@ E.Y.W.W.W.O # . +X+X+X+X  X o o o & O +X+X+X+X+X} ,.>.#.+X+X+X+X+X+X+X",
"+X+X+X+X@ +X+X+X+X+X+X+XO Q.Y.E.@ u y y y   . # X o @ +XX Y.=.=.=.W.  o o   O +XO o X o + & O +X+X+X+X+X+X+X} O.<.#.+X+X+X+X+X+X",
"+X+X+XX {   +X+X+X+X+X+X+ =.E.T.X a r p o . o o X @ # @ O E.=.-.*.R.O o . H J   X # X o o & @ +X+X+X+X+X+X+X+X+X@.>.@.+X+X+X+X+X",
"+X+X+X. ]   +X+X+X+X+X+X+XO X X r t p p o @ o . 6.q.7.    O + . O   . X D K X f.@ o o . X $ O +X+X+X+X+X+X+X+X+X+X@.>.X.. + +X+X",
"+X+X+X. {.@ +X+X+X+X+X. . a t t p y u o +X# @ . 8.0.y.# & X # o # & & O L O u.p.g.O o o & O +X+X+X  +   O @ +X+X+X@ #.D D H . +X",
"+X+X+X@ ).].# . + . o u p i y s p u r i X +Xo @ t.e.e.# o & o o & X o . . i.p.i.a.O . & O +X+XO + f.a.p.a.a.O +X+XO G D D +.O +X",
"+X+XP.U./.'.[.O t a s t u t t r s y a r s @ +X# . w.. o o X # X X o o o @ a.g.a.p.O & O +X+X@ g.d.d.c.h.p.g.O +X+X+XO D o.:.+.+X",
"+X+XE.E.^.`.{.[.X s p p a i p t u u p y y t + +X. r.@ @ o # o o # o & X X a.g.g.i.k.X +X+Xo p.x.x.a.a.a.p.a.a.O +X+X+X+ D O.<.#.",
"+X+XL.P.`.}.[.|.}.@ O p . u t y u i a y s u . O O # <   & o o . # .   &   a.f.a.i.i.u.O # i.a.u.s.a.a.a.g.z.a.@ +X+XX h.O a.O.,.",
"+X+X+X@ _.{.}.'.}.}.'.X y p y r a s s y i p . + 6 7 2 O o   . , < < 1 + # @ a.a.u.a.g.a.  + # o O p.g.p.a.i.f.O +X+X@ l.i.i.# +X",
"+X+X+XO .X].}.}.}.|.]./.# u u y y p t u i r . # 3 < > > . 1 < > 1 , 4 5 + & O p.a.p.g.f.# D F F K . u.i.d.u.a.X +XO p.a.g.a.O +X",
"+X+X+X@ ).|.'.].|.{.].}.. s u u t s i # u s . @ 3 4 <   4 5 1 2 < < < , @ & . x.g.p.a.p.X @ XXD o oXo a.i.i.O +X+ f.i.a.i.p.i.X ",
"+X+X+X@ `.}. X{.{. X'.}.].  p p # @ @ u u r a O > 4 + < 2 < 1 < 1 5 < 4 > O & O x.p.a.g.+ D D F D D O a.i.O O O f.p.a.p.p.a.O +X",
"+X+X+X  (.'.'.].[.].|.[.].}.+ U.W.T.E.  s r y # , 5 @ + o @ 5 > 4 , 3 5 2 O o o o # a.g.  F =.&.G L . a.g.i.a.i.f.g.g.p.a.c.O +X",
"+X+X+X+ {.[.'.}.'..X X}.{.'.{.H.K.Q.T.+ p t   O 3 3 X e.e.q.@ , 2 < , < 0 o # o   +XO i.i.  =.&.D X a.i.i.a.a.p.p.i.f.g.O X +X+X",
"+X+X+XX }.}.}.{.'.|.}.].}.'.}.].L.P.R.o + # +XO 3 > @ r.q.X oX  < < 1 > + o & # O +X+Xo f.i.+ +   a.a.g.i.f.i.a.a.d.k.O +X+X+X+X",
"+X+X+Xo ].!._.'.!.) ! ` ` '.}.'..XJ.y r a X +X. < < + e.w.w.e.@ 1 < 1 q O X % O +X+X+XX f.g.a.g.g.p.d.g.a.p.i.f.a.f.O +X+X+X+X+X",
"+X+X+XO {.[. X_.! |.|. X X_ {.'.}.X p t s . +XO 2 < # *.&.r.y.. > , 2   @ o & O +X+X  a.f.i.u.a.p.i.g.a.i.p.p.a.z.O +X+X+X+X+X+X",
"+X+X+Xo ~.[.].|._ /.'. X{.! {.].[.'.# r y + +X+X@ 2 . ;.=.e.0.  1 4 2 > + o & O +X+ x.i.g.a.g.p.i.f.g.a.a.d.s.z.+ +X+X+X+X+X+X+X",
"+X+X+X@ ^.[.].'.[.` {.].].` [.'.'.}.].# p   +X+X+ , < . O o X > 2 > < 4 O o o O +X  k.a.i.a.z.p.p.a.p.a.i.a.a.x.. +X+X+X+X+X+X+X",
"+X+X+X# (.].}._ ! / ~..X}.) ].[.(.'.'.`.O +X+X# U + < , , 2 > 4 < 4 < > o o   O +XO a.g.f.f.z.p.g.u.i.a.p.a.i.# +X+X+X+X+X+X+X+X",
"+X+X+X  (.'.~ {.}..X_ _.~ [.'.[.}.`.{. XO +X+ P I U + 4 1 2 5 > 2 2 5 , > + o o O +X  a.s.f.a.a.p.p.g.k.p.u.. +X+X+X+X+X+X+X+X+X",
"+X+X+X. _.]. X~ [.'.}._ .X|..X'.}.'.{.'.[.@ P U U o w < 4 4 > , 3 4 5 < < X o O +X+X+X  u.g.g.a.p.k.j.i.g.p.. +X+X+X+X+X+X+X+X+X",
"+X+X+X.  X.X[.'.^ / ^ ^.[.].'. X( |.].].|.X U U U X 1 < > , < < 4 < < 4 < , O +X+X+X+X. s.i.g.a.p.a.a.p.g.a.# +X+X+X+X+X+X+X+X+X",
"+X+X+X#   }.|..X'.{.}.(.|. X[.}./ '.|.}.{..X  I P . > > 4 < < < , > < 4 1 9 # +X+X+X. a.a.a.i.a.a.g.i.u.d.g.# +X+X+X+X+X+X+X+X+X",
"+X+X+X+X+XO .X}.'.|.`.].]. X'.` }.! ].[.'.|.'.@ @ 5 4 < 4 < > < , 4 3 < < 9 o +X+X# s.x.i.i.f.a.g.a.u.g.g.g.a.  +X+X+X+X+X+X+X+X",
"+X+X+X+X+X+X. |..X'.}.'.|.|./._ |.^  X{. X[.{.[.).  < < , 2 > 5 3 < > > 4 3 X +X+X+ i.a.z.a.f.i.a.d.a.g.a.a.u.a.X +X+X+X+X+X+X+X",
"+X+X+X+X+X+X+X@ [.}..X}. X! ! `.` [.{.'.{. X X.X]._.X < 2 < > < 1 # > < 1 @ +X+X+X+X+ g.i.a.d.d.i.p.i.g.a.l.u.a.. +X+X+X+X+X+X+X",
"+X+X+X+X+X+X+X  }.'.].{.^ '.` /./ |.].[.( ) }.}.|._.`.O 1 1 . . + , 4 4 4 . +X+X+X+X+XO   # # p.u.a.g.c.h.d.d.p.X +X+X+X+X+X+X+X",
"+X+X+X+X+X+X+X+XX '. X'.|.'.}.^ `.}.]. X'.^ / ].}.'._.. 5 @ e.9.0.o e 3   < . +X+X+X+X  M.M.v.O @ o g.d.p.a.O o +X+X+X+X+X+X+X+X",
"+X+X+X+X+X+X+X+X  _.{.'.}. X{.` .X`..X[.]. X` '. X[.].. 4 o } 9.q.w.+ O 6 1 X +X+X+X+XX V.v.B.M.v.v.  @ + O S.# +X+X+X+X+X+X+X+X",
"+X+X+X+X+X+X+X+X+X. ).|.].'.) {.|.{.!.]..X|._ {.|.|. X[.+ _.} y.e.e.@ 9 < 4 > . +X+X+XO v.v.n.N.v.b.v.v.m.v.S.O +X+X+X+X+X+X+X+X",
"+X+X+X+X+X+X+X+X+X+X+ # .X.X[.[.|.` '. X|./ / |.].|.[..X{.(.6.5.r.  5 4 > 2 > X +X+X# v.n.m.v.M.v.M.b.M.v.M.C.+ +X+X+X+X+X+X+X+X",
"+X+X+X+X+X+X+X+X+X+X+X+X@ |. X|.{./ ^ ]._ / ]..X'.}.~ ].'.}..X    4 < , > > < + +X+X@ v.n.v.n.M.v.v.M.b.b.v.v.S.# +X+X+X+X+X+X+X",
"+X+X+X+X+X+X+X+X+X+X+X+XX }.[.].{.'.( ` _ }.{.}.}.[.~ ].{.]._.  + 4 3 3 4 >   +X+X+X@ S.M.v.n.n.S.  M.v.b.v.v.v.O +X+X+X+X+X+X+X",
"+X+X+X+X+X+X+X+X+X+X+X+X+X  .X}..X X|.'.'. X X X[.` [.^ {.]._.X A +   # .   # +X+X+X+XO S.v.V.M.C.  n.n.v.v.M.v.+ +X+X+X+X+X+X+X",
"+X+X+X+X+X+X+X+X+X+X+X+X+X+X# {.].'.[.}.[.[.].{.|./ '.! |.'.!.. Z A M A V b b + +X+X+X  n.m.b.v.v.O m.v.n.v.v.n.  +X+X+X+X+X+X+X",
"+X+X+X+X+X+X+X+X+X+X+X+X+X+X+X. @ ].|.].|.^..X{._ ( [./ }.'. X@ M B C B N   x   +X+X+XO m.n.n.v.n.O S.M.v.v.M.N.  +X+X+X+X+X+X+X",
"+X+X+X+X+X+X+X+X+X+X+X+X+X+X+X+X# !.'.}.'..X_.) |.}.! _ }.'.'.+ c Z N + + C B # +X+X+X# v.v.n.v.M.+ A.M.v.m.v.M.+ +X+X+X+X+X+X+X",
"+X+X+X+X+X+X+X+X+X+X+X+X+X+X+X+X+X. )._.{.[.^ _.].{.'.^ }. X.X# n N B A B A B O +X+X+X. b.n.n.m.  +X# b.b.B.v.v.S.O +X+X+X+X+X+X",
"+X+X+X+X+X+X+X+X+X+X+X+X+X+X+X+X+X+X# ).}.}.|.[.!.'.` ].{..X^.+ N x A M A Z B v   +X+XO Z.b.b.v.O +XO v.v.v.v.v.S.@ +X+X+X+X+X+X",
"+X+X+X+X+X+X+X+X+X+X+X+X+X+X+X+X+X+X+XX (.{.[.|.|._ /.}..X}.(.o C A B A B V B v   +X+X+Xo S.S.S.O +X# n.v.v.n.n.v.@ +X+X+X+X+X+X",
"+X+X+X+X+X+X+X+X+X+X+X+X+X+X+X+X+X+X+X+X@ }.[.[.[.]. X_. X.X_.. + B Z B A C N B O +X+X+X+XX O @ +X+X+ n.b.v.N.v.M.O +X+X+X+X+X+X",
"+X+X+X+X+X+X+X+X+X+X+X+X+X+X+X+X+X+X+X+X+X. .X}.'. X.X{.{.|.~.+ O M M N B m V C   +X+X+X+X. h + +X+X+XO N.v.m.S.# +X+X+X+X+X+X+X",
"+X+X+X+X+X+X+X+X+X+X+X+X+X+X+X+X+X+X+X+X+X+XO o }.].'.{.[. X'.@ +Xo B m N m A B X +X+X+XO T f O +X+X+X+X. C.S.O +X+X+X+X+X+X+X+X",
"+X+X+X+X+X+X+X+X+X+X+X+X+X+X+X+X+X+X+X+X+X+X+X+X  .X}..X'.].~.O +X+X  Z C A v n . +X+ @ T z R g @ +X+X+X+X+ X   +X+X+X+X+X+X+X+X",
"+X+X+X+X+X+X+X+X+X+X+X+X+X+X+X+X+X+X+X+X+X+X+X+Xo '. X].[.}.).X +X+X+Xo c . X + +X@ f f O h z f O +X+X+Xo O z @   +X+X+X+X+X+X+X",
"+X+X+X+X+X+X+X+X+X+X+X+X+X+X+X+X+X+X+X+X+X+X+X+X+X+ X   `.{.!.O +X+X+X+X@ 2.| o +XO d h d z R Q   +X+X+XO Q h z X +X+X+X+X+X+X+X",
"+X+X+X+X+X+X+X+X+X+X+X+X+X+X+X+X+X+X+X+X+X+X+X+X+X+X+X+X@ '.[.# +XX     %.' ..{   O Y Q R Y O + +X+XX O E k R h d O +X+X+X+X+X+X",
"+X+X+X+X+X+X+X+X+X+X+X+X+X+X+X+X+X+X+X+X+X+X+X+X+X+X+X+X+X  }.+ X ' ' } . $.[ |  .    O @ @ +X+X+XO h h @ h h j W O +X+X+X+X+X+X",
"+X+X+X+X+X+X+X+X+X+X+X+X+X+X+X+X+X+X+X+X+X+X+X+X+X+X+X+X+X+XX + O | } { { | ' - * @ +X+X+X+X+X+X+XO j g l z Y Y . +X+X+X+X+X+X+X",
"+X+X+X+X+X+X+X+X+X+X+X+X+X+X+X+X+X+X+X+X+X+X+X+X+X+X+X+X+X+Xo + O : = ; : * ; O   +X+X+X+X+X+X+X+X+X+ T W Y   O +X+X+X+X+X+X+X+X",
"+X+X+X+X+X+X+X+X+X+X+X+X+X+X+X+X+X+X+X+X+X+X+X+X+X+X+X+X+X+X+XO +Xo X o o # + +X+X+X+X+X+X+X+X+X+X+X+X. O O +X+X+X+X+X+X+X+X+X+X"
};
