/* XPM */
static char *result[] = {
/* columns rows colors chars-per-pixel */
"64 64 193 2 ",
"   c black",
".  c #010000",
"X  c #000100",
"o  c #010100",
"O  c #000001",
"+  c #010001",
"@  c #000101",
"#  c #010101",
"$  c #1D1D1A",
"%  c #1C1D1B",
"&  c #1D1D1B",
"*  c #341C00",
"=  c #351C00",
"-  c #341D00",
";  c #341C01",
":  c #341D01",
">  c #351D01",
",  c #042212",
"<  c #052212",
"1  c #042312",
"2  c #052312",
"3  c #042213",
"4  c #052213",
"5  c #042313",
"6  c #052313",
"7  c #08381E",
"8  c #09381E",
"9  c #08391E",
"0  c #08381F",
"q  c #09381F",
"w  c #08391F",
"e  c #050324",
"r  c #050325",
"t  c #040234",
"y  c #050234",
"u  c #040334",
"i  c #050334",
"p  c #040235",
"a  c #050235",
"s  c #040335",
"d  c #050335",
"f  c #22222A",
"g  c #23222A",
"h  c #22232A",
"j  c #23232A",
"k  c #22222B",
"l  c #23222B",
"z  c #22232B",
"x  c #23232B",
"c  c #302A28",
"v  c #302B28",
"b  c #312B28",
"n  c #302B29",
"m  c #3C3634",
"M  c #3D3634",
"N  c #3C3734",
"B  c #3D3734",
"V  c #3C3635",
"C  c #3D3635",
"Z  c #3C3735",
"A  c #3D3735",
"S  c #771A10",
"D  c #52340A",
"F  c #53340A",
"G  c #53350A",
"H  c #52340B",
"J  c #52350B",
"K  c #53350B",
"L  c #233277",
"P  c #27367D",
"I  c #26377D",
"U  c #27377D",
"Y  c #464648",
"T  c #474648",
"R  c #464748",
"E  c #474748",
"W  c #464649",
"Q  c #464749",
"!  c #8C2216",
"~  c #8D2216",
"^  c #8C2316",
"/  c #8D2316",
"(  c #8C2217",
")  c #8D2217",
"_  c #8C2317",
"`  c #8D2317",
"'  c #88500C",
"]  c #89500C",
"[  c #88510C",
"{  c #89510C",
"}  c #88500D",
"|  c #89500D",
" . c #88510D",
".. c #89510D",
"X. c #9A5808",
"o. c #9A5908",
"O. c #9B5908",
"+. c #9A5809",
"@. c #9B5809",
"#. c #9A5909",
"$. c #9B5909",
"%. c #9B5C10",
"&. c #9B5D10",
"*. c #AF4C1A",
"=. c #AE4C1B",
"-. c #AF4C1B",
";. c #AE4D1B",
":. c #AF4D1B",
">. c #A86210",
",. c #A96210",
"<. c #A86310",
"1. c #A96310",
"2. c #A86211",
"3. c #A86311",
"4. c #A96311",
"5. c #AD6915",
"6. c #E8710A",
"7. c #E8B50A",
"8. c #C29D64",
"9. c #C39D64",
"0. c #C29C65",
"q. c #C29D65",
"w. c #C39D65",
"e. c #D4B078",
"r. c #D5B078",
"t. c #D4B178",
"y. c #D5B178",
"u. c #D5B079",
"i. c #D4B179",
"p. c #D5B179",
"a. c #D0328A",
"s. c #D1328A",
"d. c #D0338A",
"f. c #D1338A",
"g. c #D0328B",
"h. c #D1328B",
"j. c #D0338B",
"k. c #D1338B",
"l. c #E23E98",
"z. c #E23F98",
"x. c #E33F98",
"c. c #E23E99",
"v. c #E33E99",
"b. c #E23F99",
"n. c #E33F99",
"m. c #A47C92",
"M. c #A57C92",
"N. c #A47D92",
"B. c #A57D92",
"V. c #A47C93",
"C. c #A57C93",
"Z. c #A47D93",
"A. c #A57D93",
"S. c #9B818E",
"D. c #9B808F",
"F. c #9A818F",
"G. c #9B818F",
"H. c #A4A19E",
"J. c #A4A19F",
"K. c #F2CC92",
"L. c #F3CC92",
"P. c #F2CD92",
"I. c #F3CD92",
"U. c #F2CC93",
"Y. c #F3CC93",
"T. c #F2CD93",
"R. c #F3CD93",
"E. c #F7D6A4",
"W. c #F7D7A4",
"Q. c #F6D6A5",
"!. c #F7D6A5",
"~. c #F6D7A5",
"^. c #F7D7A5",
"/. c #E8DED4",
"(. c #E9DED4",
"). c #E8DFD4",
"_. c #E9DFD4",
"`. c #E8DED5",
"'. c #E9DED5",
"]. c #E8DFD5",
"[. c #E9DFD5",
"{. c #FEF4EA",
"}. c #FFF4EA",
"|. c #FEF5EA",
" X c #FFF5EA",
".X c #FEF4EB",
"XX c #FFF4EB",
"oX c #FEF5EB",
"OX c #FFF5EB",
"+X c #FFFEFE",
"@X c #FEFEFF",
"#X c white",
"$X c None",
/* pixels */
"$X$X$X$X$X$X$X$X$X$X$X$X$X$X$X$X$X$X$X$X$X$X$X$X$X$X$X$X$X$X$X$X$X$X$X$X$X$X$X$XO O O $X$X$X$X$X$X$X$X$X$X$X$X$X$X$X$X$X$X$X$X$X",
"$X$X$X$X$X$X$X$X$X$X$X$X$X$X$X$X$X$X$X@ o @ $X$X$X$X$X$X$X$X$X$X$X$X$X$X$X$X$X$XO 6.O $X$X$X$X$X$X$X$X$X$X$X$X$X$X$X$X$X$X$X$X$X",
"$X$X$X$X$X$X$X$X$X$X$X$X$X$X$X$X8 _ o U.!.Y.# 7 $X$X$X$X$X$X$X$X$X$X$X$X$X$X$X$XO 7.O $X$X$X$X$X$X$X$X$X$X$X$X$X$X$X$X$X$X$X$X$X",
"$X$X$X$X$X$X$X$X$X$X$X$X$X$X$X$X0 S X !.!.^.  7 9 H.'.$X$X$X$X$X$X$X$X$X$X$X$X$XO H.H.O $X$X$X$X$X$X$X$X$X$X$X$X$X$X$X$X$X$X$X$X",
"$X$X$X$X$X$X$X$X$X$X$X$X$X$X$X$X7 S @ !.!.!.X 7 $X$XJ.`.$X$Xo o o . $X$X$X$X$XO K.H.J.Q.+ $X| } | $X$X$X$X$X$X$X$X$X$X$X$X$X$X$X",
"$X$X$X$X$X$X$X$X$X$X$X$X@ O O X + O $X@ ^.@ $X$X$X$X$X$X. o X & & % . $X$X$X$X$XO K.H.!.!.O [ #.,. .$X$X$X$X$X$X$X$X$X$X$X$X$X$X",
"$X$X$X$X$X$X$X$X$X$X$X. X t y d t . o @ @ @ + $X$X$X$X. & % # + o o . o $X$X$X$X$XX E.!.X $X} <.$.>. .$X$X$X$X$X$X$X$X$X$X$X$X$X",
"$X$X$X$X$X$X$X$X$X$X  . t t t d d t   @ o % @ $X$X$X@ X . o X # o X & . $X$X$X$X$XO ^.^.. $X$X[ <.$.4.| $X$X$X$X$X$X$X$X$X$X$X$X",
"$X$X$X$X$X$X$X$X$X$X+ p s u i a t i u @ o & @ $X$X$X+ O O   O o o # &   $X$X$X$X$X$X# E.O $X$X$X' <.#.<...$X$X$X$X$X$X$X$X$X$X$X",
"$X$X$X$X$X$X$X$X$X$X  @ o i y t a s i X X & @ $X$X$X@ !.!.W.E.+ o o . o $X$X$X$X$XO O + . $X$X$X$X' >.@.<.} $X$X$X$X$X$X$X$X$X$X",
"$X$X$X$X$X$X$X$X$X$X  Q.E.X y d d i u . . o @ $X$X$X@ X #X~.  #XO o # o $X$X$X$XO o o o & @ $X$X$X$X .1.@.1.} $X$X$X$X$X$X$X$X$X",
"$X$X$X$X$X$X$X$X$X$XX E.o #X# u t a i X . o o @ $X$X@ Q.!.!.!.!.O # o $X$X$X$XO X o o o & O $X$X$X$X$X} 1.<.$.$X$X$X$X$X$X$X$X$X",
"$X$XO $X$X$X$X$X$X$XO !.E.Q.@ i t u i   o # X # @ $XX E.-.-.-.!.  o o   O $XO o X o + % O $X$X$X$X$X$X$X} +.<.@.$X$X$X$X$X$X$X$X",
"$XX { + $X$X$X$X$X$X+ -.Q.W.X s y p o o o o X @ # @ O !.-.;.=.E.  o . G K   X # o o o & # $X$X$X$X$X$X$X$X$X#.<.#.$X$X$X$X$X$X$X",
"$X. ]   $X$X$X$X$X$X$XO X X a y p a . @ o + 9.u.0.  o O O . O   . @ D F X k.@ # o . X % O $X$X$X$X$X$X$X$X$X$X#.2.o.. # $X$X$X$X",
"$X.  X@ $X$X$X$X$X. . d y y p u y o $X# X . 8.e.p.# & X # X # & &   H O a.d.f.O o o & O $X$X$X. .   O @ $X$X$X@ $.D D J . $X$X$X",
"$X@ '.}.X + + . X i a p u d t s t p X $Xo @ i.r.y.  o & o o & X o . . s.d.s.f.X . & O $X$XO + j.d.j.d.f.  $X$X+ D D D @.  $X$X$X",
"U.I._.{.|.O y s a y i y y p d u s t d @ $X# o t.. o o X # o X o o o O f.h.f.d.O & O $X$X@ k.h.s.z.c.d.j.O $X$X$XO D O.>.@.$X$X$X",
"!.!.).'.|.|.o y a d s p y y d i a i u t + $X. u.@ # o # o o # o & X X s.k.h.s.b.X $X$Xo d.b.b.f.f.f.d.f.f.O $X$X$X. D X.3.$.$X$X",
"I.U.[..X|..X.XX + d . i y u y p s u d i . O + o 1 . & . o . # . O &   f.j.f.s.f.g.@ # s.f.a.g.f.f.f.k.c.d.# $X$XX l.@ s.#.1.$X$X",
"$X# ]. XoX|..X.X{.X t a t t s i d u p a . + 7 q 3 O .   . , 1 1 2 + # O f.s.d.f.k.f.  + # o O a.k.j.k.h.k.O $X$X@ x.s.h.@ $X$X$X",
"$XO OX{..X.X.XOX}._.# u i u u a t i p t   # 6 1 , , . 2 1 3 4 < 5 6 + & O d.f.d.k.j.# F F F F + a.s.h.a.f.X $XO a.k.k.s.  $X$X$X",
"$X@ '.XX{.}.}.oX}..X  i i y y d t # u i . @ 6 5 1   5 6 2 , 1 1 1 < @ & . b.k.d.f.d.X X +XH o @Xo f.s.s.O $X+ j.a.f.f.d.s.@ $X$X",
"$X@ [.XXoXoX XoX{..X}.  p d # @ @ i i t d O 3 5 + 1 3 1 2 1 2 , < 5 , X & O b.f.f.k.O H D D D D O f.f.O O @ d.d.s.d.d.d.O $X$X$X",
"$X  '.{.{.}..X}.XXoX{.XX+ R.!.W.Q.  i t u o < 6 @ + o @ 6 , 5 , < 6 4   o o o # f.k.  D -.*.G D   f.k.s.f.h.k.k.k.d.f.n.O $X$X$X",
"$X+ |.|.{.XX{.}.oX.X|.{.}.K.P.^.~.+ a i   O 4 4 X p.r.r.@ < 3 1 < 1 0 o # o   $XO s.h.. -.-.D X f.s.h.f.f.d.d.s.k.k.O X $X$X$X$X",
"$X  oXoX.X X{.XX.X}.{.{.{.}.I.T.W.o + # $XO 4 , @ u.r.O #XX 2 1 2 2 + X & # O $X$X. j.s.O +   f.f.k.s.g.s.f.f.h.b.O $X$X$X$X$X$X",
"$Xo }./.].{.`.) ! / ` .X.X{.OXL.y t s X $X+ 1 1 + y.i.y.t.@ 2 1 4 w . X % O $X$X$XX j.k.f.k.k.d.g.f.f.d.s.k.f.j.O $X$X$X$X$X$X$X",
"$XO  X X.X].! XXXXoXOX^ OX|..XX a y d . $XO 3 1 + -.-.u.r.o , < 3   o o & O $X$X  f.d.d.d.f.j.s.d.k.s.d.d.d.b.O $X$X$X$X$X$X$X$X",
"$XX /.|.}.XX_ _.{.|. X!  X}.|.{.o t t + $X$X@ 3 . :.-.p.r.  2 5 3 , + o $ O $X+ z.s.k.f.k.f.f.j.h.f.f.s.h.c.+ $X$X$X$X$X$X$X$X$X",
"$XO ). X X{.|.` |.}.}.` |.{.{..X{.# a   $X$X+ 4 2 . @ o O , 3 , 1 5 O o o   $X  z.f.s.f.c.d.d.f.d.f.s.f.f.b.  $X$X$X$X$X$X$X$X$X",
"$X# `.}..X( ! / (.OX.X~ }.|.`.XX{.).@ $X$Xo U + 1 4 , 3 , , 2 5 1 3 o o X O $X+ f.k.j.j.n.d.k.a.s.f.d.f.h.# $X$X$X$X$X$X$X$X$X$X",
"$X  `.{.~ OX.XoX_ [.~ |.{.oX.X[. XoXO $X+ L I U @ 5 2 3 6 , , 3 4 , , @ o o O $XO f.j.j.f.f.a.d.k.z.f.a.. $X$X$X$X$X$X$X$X$X$X$X",
"$X+ ].}.oX~ |.{..X_ XXXXoX{.oX}. X{.oX@ L U P o e 1 5 6 < < 6 5 6 2 1   X O $X$X$X  a.k.k.f.d.z.v.f.h.f.+ $X$X$X$X$X$X$X$X$X$X$X",
"$XX OXOXoX.X^ ~ / ).|.{.{.|.! XX}.{.XXX U U U X 2 1 , < 1 1 5 1 5 5 1 4   $X$X$X$X. j.s.k.k.a.f.f.d.k.k.+ $X$X$X$X$X$X$X$X$X$X$X",
"$X#   .XOXOX{.OX.X`.XXoX|..X! }..X.X}.}.O U L . 2 1 6 , 1 1 , , 1 5 1 9 # $X$X$X+ f.f.f.h.f.f.h.a.d.h.k.@ $X$X$X$X$X$X$X$X$X$X$X",
"$X$X$XO OX.X|.XX_. X}..X{.` .X! |.|.{.XX.XO # 6 1 1 5 1 , , < 5 4 1 1 9 o $X$X@ g.b.s.f.f.f.k.f.f.k.f.f.f.. $X$X$X$X$X$X$X$X$X$X",
"$X$X$X$X. XXOX{.XX{.XXXX_._ XX/ oX XoX|.|.|.'.  1 1 2 3 1 6 5 1 3 , 1 4 X $X$X+ s.f.b.f.k.s.s.k.k.h.f.f.d.f.X $X$X$X$X$X$X$X$X$X",
"$X$X$X$X$X@ |..X X.XoX! ! [.` |. X{. X.XoXOXXX].X 1 3 1 1 1 4 # , , 2 X $X$X$X$X+ k.s.s.h.h.s.d.h.k.f.x.a.f.  $X$X$X$X$X$X$X$X$X",
"$X$X$X$X$XO .X{.{. X^ {.` _./ XX}.|.( ) oX{.XX].[.O 2 2 . # O < 5 5 5 o $X$X$X$X$XO   o @ d.g.f.k.n.l.h.k.d.X $X$X$X$X$X$X$X$X$X",
"$X$X$X$X$X$X  {.|.{.XX{..X^ [..X}.oX{.^ / }..X{.).. 6 O y.w.e.o r 6   2 . $X$X$X$X  V.m.m.O @ o k.h.d.f.O # $X$X$X$X$X$X$X$X$X$X",
"$X$X$X$X$X$X  ]. X}.{.|.{.` OX[.OX|.}.oX/ {.oX|.}.. 3 o ' q.u.t.+ O w 2 X $X$X$X$X  A.m.N.V.V.m.  X O O G.# $X$X$X$X$X$X$X$X$X$X",
"$X$X$X$X$X$X$X  '.XX{.{.)  X.X X/.}. XXX`  XXXXXoX{.+ ].} i.y.y.@ 0 1 5 ,   $X$X$XO m.m.N.C.m.B.m.m.M.M.G.O $X$X$X$X$X$X$X$X$X$X",
"$X$X$X$X$X$X$X$X# . OXOX|.|.XX~ {.oXXX/ / OX}.XX|.XX X`.9.q.r.  6 5 , , , X $X$X# M.Z.m.m.V.m.m.M.V.m.V.S.+ $X$X$X$X$X$X$X$X$X$X",
"$X$X$X$X$X$X$X$X$X$XX XXoX}. X/ _ }._ / }.XX{.{.~ }.|..XOX    5 1 < , , 1 O $X$X@ m.N.N.N.m.m.m.V.M.M.m.m.G.+ $X$X$X$X$X$X$X$X$X",
"$X$X$X$X$X$X$X$X$X$Xo .X|.}.}.|._ ` _ .X}..XoX|.~ }. X{.].  O 1 4 4 1 , o $X$X$XO G.m.m.B.N.G.@ C.m.M.m.m.m.O $X$X$X$X$X$X$X$X$X",
"$X$X$X$X$X$X$X$X$X$X$X  OX{.OXoX.X{.{.oX{.OX}.` |.^ OXoX].X A O   # .   o $X$X$X$XO G.m.A.m.G.O N.N.m.V.V.m.+ $X$X$X$X$X$X$X$X$X",
"$X$X$X$X$X$X$X$X$X$X$X$X+  X}.}.|..X|. X}.}.OX/ {.! }.{./.. Z A M Z V n n + $X$X$Xo m.N.M.m.V.O M.M.N.m.m.N.  $X$X$X$X$X$X$X$X$X",
"$X$X$X$X$X$X$X$X$X$X$X$X$X  @ }.XX}.XX).OXXX` ( |.` .X{.oX# M B C B N   c   $X$X$XO N.B.m.m.N.  G.V.V.m.V.C.  $X$X$X$X$X$X$X$X$X",
"$X$X$X$X$X$X$X$X$X$X$X$X$X$X. /.}..X.XOX].~ XX.X! _ .X{.{.+ v Z N + + C M # $X$X$X# m.m.B.m.Z.+ F.V.m.N.m.m.. $X$X$X$X$X$X$X$X$X",
"$X$X$X$X$X$X$X$X$X$X$X$X$X$X$X. `.]. X|./ ]. X X{./ .XoXOX# b Z B A B A A @ $X$X$X. M.N.N.B.O $X# M.m.Z.m.m.G.  $X$X$X$X$X$X$X$X",
"$X$X$X$X$X$X$X$X$X$X$X$X$X$X$X$X# '..X.X}.{./.{./ }. X X).O m c A M A C N b   $X$X  D.C.M.m.O $XO m.m.m.m.Z.G.@ $X$X$X$X$X$X$X$X",
"$X$X$X$X$X$X$X$X$X$X$X$X$X$X$X$X$X. /. X|.}.XX` _.OX XXX`.o C A B N B V B b . $X$X$XX G.S.G.+ $X# N.N.m.m.N.m.@ $X$X$X$X$X$X$X$X",
"$X$X$X$X$X$X$X$X$X$X$X$X$X$X$X$X$X$X# .X|.{.oX}.oX[.}.OX].. O M Z B A C N B @ $X$X$X$XX O @ $X$X+ N.M.m.C.V.V.X $X$X$X$X$X$X$X$X",
"$X$X$X$X$X$X$X$X$X$X$X$X$X$X$X$X$X$X$X. XX.X{.oXoX X XXX(.+ O M M N A m V C   $X$X$X$X. x + $X$X$XO m.m.B.G.# $X$X$X$X$X$X$X$X$X",
"$X$X$X$X$X$X$X$X$X$X$X$X$X$X$X$X$X$X$X$XO o .X}.{. X|.oX{.@ $Xo B m B m C B X $X$X$XX T j O $X$X$X$X. S.G.O $X$X$X$X$X$X$X$X$X$X",
"$X$X$X$X$X$X$X$X$X$X$X$X$X$X$X$X$X$X$X$X$X$X. oX}.oX{.}.(.O $X$X  A C A b b . $X+ X T x R j @ $X$X$X$Xo X . $X$X$X$X$X$X$X$X$X$X",
"$X$X$X$X$X$X$X$X$X$X$X$X$X$X$X$X$X$X$X$X$X$Xo {.oX X|.}.'.  $X$X$Xo v . X O $X@ l g O h x j O $X$X$X#   z X   $X$X$X$X$X$X$X$X$X",
"$X$X$X$X$X$X$X$X$X$X$X$X$X$X$X$X$X$X$X$X$X$X$XO X X [. X`.O $X$X$X$X@ 5.| # $X+ h x f z R Q   $X$X$XO Q h l O $X$X$X$X$X$X$X$X$X",
"$X$X$X$X$X$X$X$X$X$X$X$X$X$X$X$X$X$X$X$X$X$X$X$X$X$X@ {.|.# $XX     &.' { { . O Y R R Y O + $X$XX O E l R j f @ $X$X$X$X$X$X$X$X",
"$X$X$X$X$X$X$X$X$X$X$X$X$X$X$X$X$X$X$X$X$X$X$X$X$X$X$X  .X+ X ' ' ' . %.' |  .    O @ # $X$X$X. j j @ j j l W O $X$X$X$X$X$X$X$X",
"$X$X$X$X$X$X$X$X$X$X$X$X$X$X$X$X$X$X$X$X$X$X$X$X$X$X$X$X@ + O | } { { | ' - * @ $X$X$X$X$X$X$XO k j h z Y Y   $X$X$X$X$X$X$X$X$X",
"$X$X$X$X$X$X$X$X$X$X$X$X$X$X$X$X$X$X$X$X$X$X$X$X$X$X$X$XX + O > = : > * ; O   $X$X$X$X$X$X$X$X$XO Y W Y   O $X$X$X$X$X$X$X$X$X$X",
"$X$X$X$X$X$X$X$X$X$X$X$X$X$X$X$X$X$X$X$X$X$X$X$X$X$X$X$X$XO $XX X o X o + $X$X$X$X$X$X$X$X$X$X$X$X. O O $X$X$X$X$X$X$X$X$X$X$X$X"
};
