/* XPM */
static char *result[] = {
/* columns rows colors chars-per-pixel */
"64 64 178 2 ",
"   c black",
".  c #010000",
"X  c #000100",
"o  c #010100",
"O  c #000001",
"+  c #010001",
"@  c #000101",
"#  c #010101",
"$  c #020000",
"%  c #030000",
"&  c #020100",
"*  c #030100",
"=  c #020001",
"-  c #030001",
";  c #020101",
":  c #030101",
">  c #022808",
",  c #032808",
"<  c #022908",
"1  c #032908",
"2  c #022809",
"3  c #032809",
"4  c #022909",
"5  c #032909",
"6  c #02310A",
"7  c #03310A",
"8  c #302100",
"9  c #312100",
"0  c #302101",
"q  c #312101",
"w  c #382604",
"e  c #392604",
"r  c #382704",
"t  c #392704",
"y  c #382605",
"u  c #392605",
"i  c #382705",
"p  c #4B1C10",
"a  c #4A1D10",
"s  c #4B1C11",
"d  c #4A1D11",
"f  c #4B1D11",
"g  c #630302",
"h  c #620203",
"j  c #630203",
"k  c #620303",
"l  c #630303",
"z  c #690A0A",
"x  c #680A0B",
"c  c #690A0B",
"v  c #690B0B",
"b  c #781616",
"n  c #791616",
"m  c #781716",
"M  c #791716",
"N  c #781617",
"B  c #791617",
"V  c #781717",
"C  c #791717",
"Z  c #422D02",
"A  c #432D02",
"S  c #543802",
"D  c #553802",
"F  c #543902",
"G  c #553902",
"H  c #543803",
"J  c #553803",
"K  c #543903",
"L  c #553903",
"P  c #604202",
"I  c #614202",
"U  c #604302",
"Y  c #614302",
"T  c #604203",
"R  c #614203",
"E  c #464242",
"W  c #474242",
"Q  c #464342",
"!  c #474342",
"~  c #464243",
"^  c #474243",
"/  c #464343",
"(  c #474343",
")  c #545352",
"_  c #545353",
"`  c #555353",
"'  c #676666",
"]  c #676766",
"[  c #666667",
"{  c #676667",
"}  c #666767",
"|  c #676767",
" . c #787474",
".. c #797474",
"X. c #7D7474",
"o. c #7C7574",
"O. c #7C7475",
"+. c #7D7475",
"@. c #7C7575",
"#. c #7D7575",
"$. c #832E2E",
"%. c #822F2E",
"&. c #832F2E",
"*. c #822E2F",
"=. c #832E2F",
"-. c #822F2F",
";. c #832F2F",
":. c #944028",
">. c #954028",
",. c #944128",
"<. c #954128",
"1. c #944029",
"2. c #954029",
"3. c #944129",
"4. c #954129",
"5. c #B66149",
"6. c #B26756",
"7. c #B26757",
"8. c #B69000",
"9. c #B79000",
"0. c #B69100",
"q. c #B79100",
"w. c #AB8028",
"e. c #AB8128",
"r. c #AB8129",
"t. c #BE8E2C",
"y. c #BF8E2C",
"u. c #BE8F2C",
"i. c #BF8F2C",
"p. c #BE8E2D",
"a. c #FECA00",
"s. c #FFCA00",
"d. c #FFCB00",
"f. c #FECA01",
"g. c #FFCA01",
"h. c #FFCB01",
"j. c #C59D70",
"k. c #C59C71",
"l. c #C49D71",
"z. c #C59D71",
"x. c #CFA67C",
"c. c #CEA77C",
"v. c #CFA77C",
"b. c #CFA67D",
"n. c #CEA77D",
"m. c #CFA77D",
"M. c #828080",
"N. c #838080",
"B. c #828180",
"V. c #838180",
"C. c #828081",
"Z. c #838081",
"A. c #828181",
"S. c #838181",
"D. c #ACACAC",
"F. c #DAA297",
"G. c #C6C4C4",
"H. c #C7C4C4",
"J. c #C6C5C4",
"K. c #C6C4C5",
"L. c #C7C4C5",
"P. c #D2CECE",
"I. c #D3CECE",
"U. c #D2CFCE",
"Y. c #D3CFCE",
"T. c #D2CECF",
"R. c #D2CFCF",
"E. c #D3CFCF",
"W. c #E3E3E2",
"Q. c #E2E3E3",
"!. c gray89",
"~. c #F6F4F4",
"^. c #F7F4F4",
"/. c #F6F5F4",
"(. c #F7F5F4",
"). c #F6F4F5",
"_. c #F7F4F5",
"`. c #F7F5F5",
/* pixels */
"^.^.U.U.U.P.U.U.U.U.P.U.U.U.U.R.U.I.U.R.U.R.U.U.U.U.U.U.U.U.y.t.p.t.U.R.U.U.I.U.U.U.Y.Y.U.U.U.U.U.U.R.Y.U.U.U.R.U.U.U.U.P.U.(.^.",
"~.^.U.Y.U.P.P.U.U.U.U.U.U.U.Y.U.U.U.U.U.P.U.U.U.U.U.U.U.R.U.t.t.t.t.U.U.U.U.U.Y.U.U.P.U.U.Y.U.U.U.U.U.U.U.U.U.U.U.Y.U.Y.U.Y._.^.",
"^.(.U.U.U.U.Y.Y.U.U.P.U.U.R.Y.U.U.U.U.U.U.U.Y.U.U.R.U.P.U.Y.t.t.t.t.Y.U.U.U.U.U.P.E.U.U.U.Y.U.U.P.U.U.U.U.U.U.P.U.U.U.U.U.U._.^.",
").~.U.Y.U.U.U.U.U.U.U.U.U.U.U.Y.U.U.U.Y.U.R.U.U.U.E.U.U.U.Y.t.t.t.t.U.U.U.U.U.U.U.R.U.U.P.U.U.U.R.U.U.U.U.Y.Y.U.P.U.R.U.U.U.~.^.",
"^.^.U.Y.U.U.Y.U.U.U.U.U.U.U.U.U.U.U.U.R.P.Y.U.P.U.U.Y.U.P.Y.U.U.U.U.U.U.U.Y.U.U.U.U.U.U.U.U.U.U.U.U.Y.U.U.Y.R.U.U.R.U.U.R.U.^.^.",
"^.~.U.T.U.U.U.U.U.P.G.Y.U.U.U.@     U.U.U.U.U.U.G.U.U.U.U.U.: ; U.U.E.U.; ; ; U.G.U.R.R.; ; = U.Y.U.U.P.U.U.U.G.U.U.U.U.U.U.^.(.",
"^.~.E.U.U.U.U.U.R.H.U.U.U.    V N m   o U.U.U.K.U.U.U.U.U.U.- * ; U.U.; N g l = ; R.Y.; B V m ; U.P.U.U.Y.U.G.U.U.U.Y.Y.U.U.^.^.",
"(.^.U.U.U.U.U.U.U.U.U.U.  m V M M b M B o U.U.U.U.Y.U.U.Y.U.& & B ; & l V b C V l - ; V V V V l : U.U.U.R.P.U.U.U.U.U.U.U.U.^./.",
"^./.U.U.U.U.P.T.R.U.R.+ N N m V M V V M N @   X   O U.U.U.U.& ; B l l l C V C V l l M V V V g l l ; U.U.R.U.U.U.E.U.U.U.U.U.^.^.",
"^.^.U.U.U.U.R.U.U.U.O N m B N N V C M N c c c v c c O U.U.U.; ; V 8.8.8.s.V g.d.8.8.N g.s.8.8.9.k = U.P.U.U.U.U.P.U.U.U.U.U.^.^.",
"^.^.Y.Y.U.U.R.U.U.@ N.+ C m V M m V V O + .     X X +   U.U.= = l q.g m B V s.B j l B V V 8.l l k : U.U.P.P.U.U.U.U.U.R.U.U._.(.",
"^.^.U.U.R.I.U.U.U..  .. c V V M C V . F.  m.O U.U.U.U.U.Y.Y.: * l 0.j b C m h.V 0.8.f.V l 8.l l l & U.U.U.U.U.U.U.U.Y.Y.U.U._.^.",
"^.^.U.U.T.P.U.U.U.U.   .  c z c x   m.z.z.c.x.+ U.U.U.U.Y.U.= ; l 8.j V C b d.V l 0.C C l 8.l j l : U.U.U.P.Y.U.U.R.U.U.U.Y.^.(.",
"^.^.U.U.Y.U.R.U.U.  Z.B. .O   . @   b.c.n.c.n.6.O P.U.I.U.U.; = V 8.8.0.a.N a.8.8.8.B V N 8.j l l ; U.U.U.U.U.U.R.U.U.U.U.U.^.^.",
"^.^.U.U.P.U.U.U.U.Y.  A.S.V...  c.c.c.v.} X 7.6.  U.U.U.Y.U.; : V l l l V V V l l g V b V m j l l ; R.U.U.U.U.U.Y.U.U.U.U.P.^._.",
"^.^.Y.P.U.P.Y.U.U.R.o X S.X M. .. O x._ [ |   # P.U.R.U.U.U.- ; V l l l V C M V l l V V B V V l l & I.Y.U.U.I.U.U.U.U.Y.U.U.).^.",
"^.^.U.Y.U.R.U.U.Y.; K . + @ S.A.V.O _ } | | { |   U.U.U.U.U.- : V l l l % - ; l j l b l ; : & l h ; U.Y.U.U.U.U.U.U.U.U.U.U._.`.",
"^.~.U.U.U.U.U.U.: D K H H F   S.@ ) } { | ] ] )   U.Y.U.Y.U.- = ; k l ; U.U.U.; ; l k * U.U.U.; j ; R.U.Y.U.U.U.U.U.U.P.U.U.^.^.",
"_.^.U.U.U.U.U.& K F K K K H F O J o _ ' } ` | O U.U.Y.U.U.U.= ; t.p.; T.U.R.P.U.U.$ - U.P.U.U.U.* U.U.U.U.U.U.U.U.R.U.R.U.P.~.^.",
"^.(.U.U.U.U.$ H K K K S : : : K K L   _ _ O O U.U.U.U.U.U.U.; = p.t.U.U.P.R.U.U.U.U.U.R.U.U.U.U.U.T.U.P.U.U.U.U.U.U.R.U.Y.U.^.^.",
"^.^.U.U.U.Y.& L K K K ; U I K ; K S J . . U.U.U.U.U.P.R.U.U.; ; U.R.U.U.U.R.U.U.Y.Y.U.U.U.U.R.R.Y.U.U.R.R.R.U.R.U.P.U.U.U.U.^.(.",
"^.^.U.U.U.& F K J G G J K K F K F K K ; U.U.U.U.G.P.U.I.U.U.% ; U.U.U.U.U.U.U.U.G.Y.Y.R.Y.P.U.U.U.U.U.U.U.U.U.K.R.U.U.Y.U.U.^.~.",
"`.^.U.U.U.: K K L K I I K K F K H ; K H & U.U.G.U.P.U.U.U.U.= & U.U.P.U.Y.U.U.G.U.U.R.U.U.Y.U.U.U.U.U.U.U.U.G.U.U.U.U.U.U.U.^._.",
"^._.U.R.U.- F H F K I K K F K K K H = K K & U.U.U.U.U.R.P.P.= ; U.Y.U.P.U.U.U.U.P.U.U.P.U.U.U.U.R.U.T.R.U.Y.U.R.Y.U.U.U.U.Y.^.^.",
"(.(.E.U.P.& F K H K D K G H K H K K K ; K % U.U.U.U.U.U.U.; $ & = p.U.G.G.G.U.I.U.U.U.P.P.U.U.T.U.P.U.U.Y.U.U.U.G.G.U.G.R.G.!.^.",
"^.^.U.U.U.% F K L F ; H K F K L H F H F & ; U.U.U.U.U.& - z.z.j.k.$ G.G.J.G.G.U.Y.U.U.X + X O O X .   # U.R.P.G.G.G.G.G.G.G.!.Q.",
"~.(.U.U.U.- K K H F : L K L K K K H F G L ; U.U.* $ * K ; z.j.c.c.; G.G.G.G.  X     . W S.( o.! A.( <.1.X +     O G.G.G.G.G.!.!.",
"^.^.U.U.U.& K K K H J = F H H L K L K H K F $ * H K K K ; z.l.k.j.; G.G.G.G.> O A.^ o.,.<.W +.( o.1.:.4.B.! X.@ 4   G.G.G.G.!.!.",
"^.(.U.R.R.; K H H K K H H K K K K L L L H F K H F F K L = z.z.n.n.- G.G.. 2 O ^ O.! o.s f :.4.2.:.>.d E o.~ V.^ O 5   G.G.G.Q.!.",
"^.^.U.P.U.: L K L L J K G J H K K K K K F K F H H H K K : ; = : ; w.G.G.X 7 + ( A.%.O.;.Z.3.,.f p a #.*.@.-.o.E . 7 X J.G.G.W.!.",
"^.^.U.U.U.; H K G K F F K K H F F K K K K K F K K K H G & G.- & w.w.G.G.  7   =.X.%.N.4.2.V C.m S.n 4.>.S.$.X.$.X 7 . G.G.G.!.!.",
"_.^.U.U.U.& L F K K L K H L K H K K F K H K K K H H K K ; G.; : w.w.G.G.G.@ 7   V.-.S.f 1.3.5.,.<.,.4.a S.;.V.o > o J.G.G.G.!.!.",
"^.^.U.U.U.; L K K F K K K K F K K K & P I I K H K F Y : G.K.* & w.w.G.G.G.O 4 6 # .   &.V.s ,.s f d S.=.X @ X 4 7 o G.G.G.G.!.!.",
"(.^.U.U.U.; K K L K K L K F K J K K D - & I I H Y ; = G.G.G.; ; r.w.G.G.G.X < 4 2 1 4 X o o @ .   # .   7 7 7 4 7 @ G.G.G.G.!.!.",
"^.~.U.U.R.: J L K F K K H ; I I G D G K R ; = ; $ G.G.G.K.G.; ; e.e.G.G.G.G.+ 1 7 3 2 5 7 1 < 5 1 < 2 7 7 4 4 2 X G.H.G.G.G.!.!.",
"^.^.U.U.P.: K K L K L K F L = ; ; K F F T ; G.G.G.G.G.G.G.G.& ; w.w.G.G.G.G.o < 4 7 > > , 7 2 > > < 5 7 1 5 7 6 . G.G.G.G.G.!.!.",
"(.^.U.R.P.; K L K F F F J K K L K K K K K = G.G.G.J.G.G.G.G.: = G.G.G.G.G.G.G.O 1 > 4 5 > 7 2 < 7 2 1 < < 7 7 # G.G.G.G.G.G.!.!.",
"^._.U.P.U.; K H G K F K H F K K L K K G S ; G.G.D.G.G.G.G.G.- = G.G.G.G.G.G.K.G.@ 7 7 5 > 2 5 > 5 7 1 4 4 7   G.G.G.G.G.G.G.!.!.",
"^.^.R.U.U.; K L H F K L L H K L K F K K L I = D.G.G.G.G.G.G.: & G.U.L.G.G.H.U.G.U.  O   > 1 4 5 4 4 5 + # o G.G.K.G.G.G.G.G.!.^.",
"^._.U.P.P.; H L H L K K J H K H L H K K K P ; G.G.G.G.G.G.G.= - U.R.U.U.U.U.U.U.R.G.X A.@ . # # O @ o A.  G.G.J.G.G.G.G.G.G._.^.",
"^.^.P.U.U.; K K K K H K K K K L H K K K H G K = K.G.G.G.G.G.= & u.u.U.U.U.U.U.P.G.G.o A.. U.. N.. G.  Z.  K.G.G.G.G.G.G.G.G.^.^.",
"^.^.U.U.U.= K K L G H L K H L L F F J G K K I ; G.G.G.G.G.G.; ; y.t.U.I.U.U.P.G.J.U.X S.+   X V.. O   A.  G.G.G.G.K.G.G.G.U._.^.",
"^.^.U.U.U.& H K K K K K K K L F F H K G S S P = G.G.G.K.G.U.& : t.u.U.U.U.U.G.G.U.P.O Z.# B.  S.O Z.@ Z.O G.G.G.G.G.G.G.P.U.`.^.",
"_.^.U.U.U.: I K H F L F K K K K K L F K K L I = G.G.G.G.G.R.; ; t.t.U.U.U.G.J.U.U.U.  S.  o O A.  @ @ V.+ G.G.G.J.G.U.U.U.U.^.^.",
"^.~.U.U.U.: I I F H K K K L K K L G K K K H R & G.G.G.G.U.U.; - y.t.U.U.G.G.Y.U.U.+ M.  U.G.X S.# G.G.  S.X G.G.G.U.P.U.U.Y.^.^.",
"^.^.U.U.U.U.& I K L K K K K J K K J L L L K J * G.G.G.P.P.U.* ; u.t.U.G.G.R.U.U.U.O C.+ O + . A.  O O . Z.. G.U.G.Y.I.U.U.U.(._.",
"^.^.U.U.P.U.P.= I K F J H L K L K F L K R ; = G.G.G.H.R.U.U.: & t.t.K.G.U.U.U.U.U.. Z.  S.A.  B.# S.A.. A.O G.K.U.U.U.U.U.R.^.(.",
"^._.U.U.U.R.U.$ ; I I K K K K L K L I ; ; G.G.G.G.G.U.U.U.U.; ; u.w.G.U.U.R.P.U.U.X A.X       N.O X + O B.# G.U.U.U.U.R.P.U.^.^.",
"^.~.U.U.T.U.; r y - & H R P H H Y ; - G.J.G.G.G.G.U.U.U.U.U.& : w.w.U.U.U.U.U.U.U.. V.. S.    S.  X N.X C.  R.Y.U.U.U.U.U.U.^.~.",
"(.^.Y.U.Y.E.; q i r e : ; = = * % i Z = = G.G.G.G.U.U.Y.U.U.: ; w.t.U.P.U.U.U.U.O . + Q X A.X A.O C.@ G.. o o U.U.U.U.U.U.R.^.(.",
"^.^.U.U.U.U.P.; 0 q 0 ; i r r r q i Z r A ; G.G.Y.Y.U.U.U.U.: ; p.t.U.U.U.U.U.U.  E @ G.U..   V.O o G.G.o Q o U.U.U.U.U.U.U.(.(.",
"^.^.Y.U.U.U.R.P.; ; ; ; 9 r t r r i w r Z r ; R.P.U.U.P.U.U.t.t.t.t.P.U.U.P.U.U.  ^ O U.U.U.O A.  G.G.U.@ / O U.U.U.U.R.R.U.^.^.",
"^.^.Y.U.U.U.U.U.U.Y.U.; 8 q u q y w 9 t i i ; U.U.P.U.U.U.U.U.U.R.U.P.U.U.U.U.U.+ X U.U.U.U.O   o G.G.U.(   O U.P.U.U.U.U.U.~.^.",
"^.^.U.R.U.U.U.Y.U.G.U.U.; ; = & ; : ; ; ; ; R.U.G.Y.U.U.Y.U.U.U.P.U.U.U.R.U.U.Y.G.U.U.U.R.R.. Q O G.U.U.U.U.U.G.U.U.U.U.U.R.^.^.",
"(.^.U.U.U.U.U.U.G.U.U.I.U.U.U.Y.Y.U.U.U.U.U.U.K.P.U.U.U.P.P.U.U.Y.I.U.U.Y.U.P.G.U.U.P.U.U.R.o ~   U.U.U.U.U.G.U.U.U.U.U.T.U.^.^.",
"^.^.U.R.Y.Y.U.Y.U.U.U.U.U.U.U.U.U.U.Y.U.U.U.U.U.U.I.U.U.U.U.U.U.R.U.P.U.U.Y.U.U.U.U.U.U.U.U.O O X U.U.U.U.U.U.U.U.U.Y.U.Y.U.(._.",
"^.^.P.U.U.U.R.R.P.U.E.U.U.U.U.U.U.U.U.U.U.U.P.P.U.Y.U.R.U.U.i.t.t.t.E.U.R.U.Y.U.Y.U.U.P.U.U.P.U.U.U.U.U.U.U.U.U.U.U.U.U.U.P.^.^.",
"~.^.U.Y.Y.U.U.U.U.U.U.P.Y.U.U.U.U.U.U.U.U.U.U.I.R.U.U.U.U.U.t.p.t.t.U.U.Y.U.U.U.R.U.U.Y.P.U.U.U.U.U.U.U.U.U.U.U.U.U.U.U.U.Y.^.^.",
"^.(.R.U.U.U.U.R.U.U.U.U.U.U.U.U.U.Y.U.U.U.U.U.Y.U.U.U.U.U.U.t.t.t.t.U.U.U.U.U.I.U.R.P.U.U.U.R.U.E.U.U.U.Y.U.U.R.U.U.U.U.U.U.(.^.",
"_.^.U.U.U.Y.R.P.U.Y.U.U.U.U.T.Y.P.U.U.U.U.U.U.U.U.U.U.U.Y.U.y.t.t.u.U.P.U.U.P.U.U.R.R.U.U.U.U.U.U.P.U.U.U.R.U.U.U.U.U.U.U.U._.^.",
"^.^.U.U.U.U.U.Y.U.U.U.U.P.U.R.U.U.R.Y.U.R.R.U.U.U.U.U.P.U.U.t.t.t.y.U.U.U.U.R.U.U.U.U.Y.P.U.U.U.U.R.U.U.U.U.P.U.Y.U.U.U.U.U.^.^.",
"~.~.U.U.U.P.R.U.U.U.U.U.U.U.U.U.U.U.U.R.R.Y.U.U.U.U.R.R.U.R.t.t.t.t.U.P.U.U.Y.U.Y.U.U.R.U.U.U.U.U.R.U.R.U.Y.U.U.Y.U.U.U.U.U.^.(.",
"^.^.U.U.U.I.U.U.U.U.P.U.U.U.U.U.U.U.U.P.U.R.U.U.R.U.U.U.U.P.u.t.t.t.U.U.U.R.U.U.U.U.U.U.U.U.U.P.U.U.U.U.Y.P.P.P.U.U.Y.U.U.U.^.~.",
"^.^.U.R.P.U.U.U.R.U.U.R.R.U.U.U.U.U.U.U.U.P.R.E.U.U.U.I.U.R.t.t.t.t.I.U.U.U.U.U.U.U.U.Y.U.U.U.U.U.R.U.U.U.Y.U.U.U.U.Y.U.U.U.(._."
};
