/* XPM */
static char *result[] = {
/* columns rows colors chars-per-pixel */
"64 64 208 2 ",
"   c black",
".  c #010000",
"X  c #000100",
"o  c #010100",
"O  c #000001",
"+  c #010001",
"@  c #000101",
"#  c #010101",
"$  c #020000",
"%  c #030000",
"&  c #020100",
"*  c #030100",
"=  c #020001",
"-  c #030001",
";  c #020101",
":  c #030101",
">  c #022808",
",  c #032808",
"<  c #022908",
"1  c #032908",
"2  c #022809",
"3  c #032809",
"4  c #022909",
"5  c #032909",
"6  c #02300A",
"7  c #03300A",
"8  c #02310A",
"9  c #03310A",
"0  c #03310B",
"q  c #302100",
"w  c #312100",
"e  c #302101",
"r  c #312101",
"t  c #382604",
"y  c #392604",
"u  c #382704",
"i  c #392704",
"p  c #382605",
"a  c #382705",
"s  c #392705",
"d  c #4B1C10",
"f  c #4A1D10",
"g  c #4A1C11",
"h  c #4B1C11",
"j  c #4A1D11",
"k  c #4B1D11",
"l  c #630202",
"z  c #620302",
"x  c #630302",
"c  c #630303",
"v  c #690A0A",
"b  c #690B0A",
"n  c #680A0B",
"m  c #690A0B",
"M  c #690B0B",
"N  c #781616",
"B  c #791616",
"V  c #781716",
"C  c #791716",
"Z  c #781617",
"A  c #791617",
"S  c #781717",
"D  c #791717",
"F  c #422C02",
"G  c #422D02",
"H  c #432D02",
"J  c #542C00",
"K  c #552C00",
"L  c #542D00",
"P  c #542C01",
"I  c #543802",
"U  c #553802",
"Y  c #543902",
"T  c #553902",
"R  c #543803",
"E  c #553803",
"W  c #543903",
"Q  c #553903",
"!  c #604202",
"~  c #614202",
"^  c #604302",
"/  c #614302",
"(  c #614203",
")  c #604303",
"_  c #784000",
"`  c #784100",
"'  c #464242",
"]  c #474242",
"[  c #464342",
"{  c #474342",
"}  c #464243",
"|  c #474243",
" . c #464343",
".. c #474343",
"X. c #545252",
"o. c #555252",
"O. c #545352",
"+. c #555253",
"@. c #545353",
"#. c #555353",
"$. c gray40",
"%. c #676666",
"&. c #676766",
"*. c #666667",
"=. c #676667",
"-. c #666767",
";. c #676767",
":. c #787474",
">. c #787574",
",. c #797475",
"<. c #7D7474",
"1. c #7C7574",
"2. c #7D7574",
"3. c #7C7475",
"4. c #7D7475",
"5. c #7C7575",
"6. c #7D7575",
"7. c #832E2E",
"8. c #822F2E",
"9. c #822E2F",
"0. c #832E2F",
"q. c #822F2F",
"w. c #832F2F",
"e. c #944028",
"r. c #954028",
"t. c #944128",
"y. c #954128",
"u. c #944029",
"i. c #954029",
"p. c #944129",
"a. c #954129",
"s. c #B66149",
"d. c #B36656",
"f. c #B26756",
"g. c #B26757",
"h. c #B69000",
"j. c #B79000",
"k. c #AA8028",
"l. c #AB8028",
"z. c #AA8128",
"x. c #AB8128",
"c. c #AB8029",
"v. c #AB8129",
"b. c #BE8E2C",
"n. c #BF8E2C",
"m. c #BE8F2C",
"M. c #BF8F2C",
"N. c #BE8E2D",
"B. c #BF8E2D",
"V. c #BE8F2D",
"C. c #BF8F2D",
"Z. c #FECB01",
"A. c #C49C70",
"S. c #C59C70",
"D. c #C49D70",
"F. c #C49C71",
"G. c #C59C71",
"H. c #C49D71",
"J. c #C59D71",
"K. c #CEA67C",
"L. c #CFA67C",
"P. c #CEA77C",
"I. c #CFA77C",
"U. c #CEA67D",
"Y. c #CFA67D",
"T. c #CEA77D",
"R. c #CFA77D",
"E. c #828080",
"W. c #838080",
"Q. c #828180",
"!. c #838180",
"~. c #828081",
"^. c #838081",
"/. c #828181",
"(. c #838181",
"). c #ACACAC",
"_. c #ACACAD",
"`. c #DAA296",
"'. c #C6C4C4",
"]. c #C7C4C4",
"[. c #C6C5C4",
"{. c #C7C5C4",
"}. c #C6C4C5",
"|. c #C7C4C5",
" X c #C6C5C5",
".X c #C7C5C5",
"XX c #D2CECE",
"oX c #D3CECE",
"OX c #D2CFCE",
"+X c #D3CFCE",
"@X c #D2CECF",
"#X c #D3CECF",
"$X c #D2CFCF",
"%X c #D3CFCF",
"&X c #E3E2E2",
"*X c #E2E3E2",
"=X c #E3E3E2",
"-X c #E3E2E3",
";X c #E2E3E3",
":X c gray89",
">X c #F6F4F4",
",X c #F7F4F4",
"<X c #F6F5F4",
"1X c #F7F5F4",
"2X c #F6F4F5",
"3X c #F7F4F5",
"4X c #F6F5F5",
"5X c #F7F5F5",
/* pixels */
",X3X%X#X+XOX$XOX+XOX$X%X%XOX+X$X+XXXXXOXOX$X+X$XXXXXOXXX$XOXB.B.N.b.OX$X%XOXoXOXOXOX+X+X+XOXXXOXOXOX$X%XOXOXOX$XXX$XOXOXXXOX1X5X",
"4X>X$X+X+XXXXXOXOXXXOXOXOX$X+XOXOXOX$XOXXXOXOX+X+XOXOX+X$XOXb.b.b.m.$XXXOXOX$XXXOX$XXXOXOXoXOXOXOX@XOXOXOXOX$XOXOX@XOX+XOX+X5X,X",
"3X1XOX#XOXOX+X+XOXOX+XXXOX%X+XOXOXOX+XOXOX%X+XOXOX$XOXXX$X+Xb.b.n.b.+X$XOXOXOXOXXX+XOXOX$X+XOX@X@XOXOXOXOX$X+X+X$XOX+XOX$X+X,X1X",
"3X>X$X+X%X+X$X+X+XOXOXOXOXOX@X+XXXOXOXoXOX$XXXOX$X#XXX$X+X+Xb.m.N.N.OXoX$X$XXX+X+X$XOXOXoXOXOXOX@XOXOX$XOX+X%XOXOXOX@XOXOXOX>X,X",
",X,X+X+XOXXXXXOXXX$XOX$XOXOXXXOXOX$X+XXX$X+XOXoX$XXX+XXXXX+XOXOXOX+X+XOXOXOXOXOXOX+XOXOXOXOXOXOXOX  OX%XOX#X$XOX+X$XOXOX$XXX,X,X",
">X1XoX@X$XXXOXOX$XOX.X+XOXOXoX@ @ O %XXXOX+XOXOX[.OXOXOXOXOX% ; OX    OXOXOXOXOXOX    OXOXOX+XOX    XXoXOXOXOX[.OXOXOXOX+XOX2X1X",
">X>X%X%XXX+X+XOX+X].$X+X+X. o Z Z Z   o OXOXOX|.OXXX$XOX+X$X% *   Z Z   OXOXOX    Z Z O OX$XOX  Z   XX@XoXOX'.OXOXOX+XoXOXOX3X1X",
"1X,XOX+X$XXXOX+X$X%X$XOXX S Z B C V C A o XXOXOXOXXXOXOX+XOX; % N Z Z Z       Z Z Z Z Z       Z Z   OXOX$XXXXXOXOXOXXXOXOXOX>X>X",
",X<XOXXXOX+XXX@X$XOX$X+ S Z Z S C D S C Z @   @   @ OXOXOXOX; ; S Z Z Z x x x Z Z Z Z l x x x Z Z   OXXX%XOXOXOX%XOX$XOXOX$X,X,X",
",X,X$XOX+XOX$XOXXXOX. N C A Z S S S V S m m m b m n O OX@XXX; ; Z Z.Z.Z.h.x h.Z.Z.Z.Z Z.j.h.h.Z.Z   OXXXOXXXOXOXoXOXOXOXOXXX,X,X",
",X,X+X+XOX@XOX$X$XO W.+ D C S B V Z N O o o +   . X .   $X+X= = Z Z.Z Z x l h.Z Z Z A Z x h.x Z Z   OXOXXX+X$XOXOXOXXX$XXXOX,X,X",
",X,XOXoX$X+X+XOX#X. :.. m S S C D S o `.  R.  OXOX$X$X@XoXoX: * Z Z.Z x x x h.Z Z.Z.Z.Z x h.x Z Z   OX$X+XOXOXXXOXXX+X%XOXOX5X1X",
"<X,X+XOX@XXXXXXXXXXXO :.  n v M n   R.J.F.P.L.+ +X$XOXXXoXOX= : Z Z.Z Z x x h.Z Z Z.S Z x h.x Z N   OX@XOX$X+XOXOX%X+XOX+X#X,X1X",
",X,XXX$XOXOX$XXX$X  ~./.:.+ . . @   K.T.T.I.Y.f.O XXOXoX+XOX= & Z Z.Z.h.j.x Z.Z.Z.Z.Z Z x h.x Z Z   OXOXOXOXOXOX@XOXOXOXOXXX,X1X",
",X,X%X@XXX$X+XOXOX+X  /.!.!.>.  P.U.R.L.;.@ g.d.  XXOXXXOXOX: : Z Z Z Z x c Z Z N Z Z Z x x Z Z Z   OXOXOXOXOXOX+XOX$X%XOXXX,X4X",
"5X3X#XXXXXoX+XXX$X$Xo . /.o /.,.. @ R.@.$.-.O . XX+X$XXX#XXX% ; Z Z Z Z x x x Z Z Z Z Z x x Z Z S   +X#XXX$XoX+XOX%XOX+XOXOX2X3X",
",X3X$X%XOX$XXX+X+X; W . . @ (./.^.O @.-.;.$.=.;.@ +XOXXXXX$X- : Z     Z S x x Z Z     x x x l Z   $XOX+XOXOXOXOX$X$XOXXXXXOX3X4X",
"1X,XOX$X%XOXoXOX- E Q E R Y   (.o O.=.;.%.&.&.o.X +X+XOXoX%X% ;   N.OX  x z x .   OXOX  x l x   OXOX$XOX+XXXOX+XOX$X+X$X@XXX3X,X",
"3X3XOXOXOXOXOX% Q I Q W W R T O E X #.%.$.+.*.+ +XOXOXOXOXOX= : b.N.+X+X      +XOX+XOX$X      OXXXOX+X$XOX+XXX$X$X$XOXOXOXXX>X,X",
">X1XOXOXOXOX% R W Y W I - ; * W W E   X.+.O O * % % % % OXOX; = B.b.OXOXXX$X+XOX+XOXOXOXOXOXOXOX+X@X+X#XXXOXOXXXOXOX@XOXXXOX,X,X",
"3X,XOXOXOXOX& Q W Y Y ; ^ ~ W & R U Q . + I E R W ~ ~ ~ % - ; * % % OXXX$X$XXX%XoX+XOXOX+XXX$X$X+XOXOX$X%X@XXX$X+X#X$XOX+X+X,X1X",
"1X>X$XOXOX* Y W Q T Y E W R Y W Y W R ; W T W R I R R R E R : = I R % - $X$ % % % OX%X$XOXXXOXOXOXOXOX$XOXOXOX}.OXOXOX#X+XXX,X<X",
"5X3XXXXXOX- W R Q W ~ ( R E Y W E & W R ; W Q R R R R E R U = * E W R ~ % F.G.K.T.& $X$X+X+XOXOXOXOXOX@X+X@X[.$X+X+XOX@XOXOX,X3X",
">X3X$X$XOX: W I Y W ! W W Y W W W W - I W * E E E R E R R R = - I R R ~ % F.H.F.% _ _ XX+XOX@XXX$X[.[.'.OX+XOX$XXXOXOX$X$X%X1X,X",
"1X,X%XOXXX& Y W R W U W U I Q R W W Y & R * R ! R R W W R & ; * = R R R % A.F.K.$ ` J XXOXOX}.'.[.[.'.'.'.XX+X$X].'.+X'.$X'.;X,X",
",X1XOXOX$X% I Y Q Y & R Q Y W Q R Y R I $ ; % : ~ R E * % D.J.J.G.$ R E % G.A.F.% % XXL + X + X X +   o '.%X@X'.].[.[.|.'.'.:X;X",
">X1XXXXX$X- W W U Y : Q W Q W W R R W T Q ; XX+X* $ : W & J.D.T.L.; R R : * .     O . ] K ] L { /...y.u.o O   O O '.}.].'.'.&X*X",
",X1XXXOX+X& T W Y W E = Y R E Q E U W I R W $ & I E W I ; J.H.S.J.& I I * '.> O /.| 1.t.t.L L L 1.i.e.p.Q.{ 4.@ 4 . '.'.'.[.&X-X",
",X1XXX$XOX; R R R W R E R W W W Y T Q Q R I W E Y T W E * J.J.T.T.- % * + 2 O } 6.{ 1.h L P L p.e.r.g } 2.} Q.| + 5   }.}.].*X:X",
",X1XOXXXOX: Y W Q Q E W T E E R W W W Q I W Y R R Q W W : = : - ; l.{.'.o 7 + ..~.q.3.w.^.L t.j d f 6.9.5.q.2.] . 0 X [.'.'.=X:X",
",X>XOXoXXX; R I U R T W W Y W Y Y W W W W W T R W T U T * '.% & k.k.].].  0   0.2.8.W.i.i.S /.S /.B a.i.(.7.<.9.  9 . '.[.[.:X:X",
"5X,XOXOXOX; Q I W T E R R T W R R I Y W R W W R W R R W ; }.= ; l.c.'.'.'.@ 8 O !.q.(.f u.p.s.e.t.y.p.f (.q.(.o 2 # [.'.'.'.=X-X",
"2X,XOXOXXX; Q Y W I W W W Q Y R I R * ! ~ ~ T W W Y / % '.}.* & x.l.'.'.'.O 4 8 @ X O 8.!.h p.h j k (.9.X @ @ 5 0 # }.'.}.'.:X:X",
"1X,XOXOXOX: Q W T W R E W W Y E W R U = ; ~ ~ R / - : '.[.|.; : v.l.].[.'.X < 1 2 < 4   o o # .   # o O 9 9 9 5 9 @ '.'.'.[.:X-X",
"3X>X$X+X@X- E Q Y W Q R R & ~ ~ U I T W / ; = - & ].'.'.}.'.* ; z.v.].[.[.].. 1 0 3 3 5 8 1 < 3 5 1 2 9 9 4 4 2 X ].{.'.'.'.:X;X",
",X,X+XOXXX: Q T T W T R Y Q = ; ; R I T ) ; '.[.{..X[.[.'.}.& % x.l.[.'.].].. 3 4 9 > 2 , 9 3 > > < 5 8 1 2 7 9 + [.}.'.].}.:X:X",
"1X3X+X%XXX* W Q W I Y Y R W Y Q Q W W W Q - '.[.'.{.'.}.'.{.* $ [.'.'.'.'.{.'.O , > 4 5 > 9 2 < 8 2 1 1 4 9 7 # [.'.'.'.'.'.:X=X",
",X3X$XXX$X; Q W T W Y W I W Q U Q R R T U $ ]. X).].[.[.[.'.- ;  X].'.'.{.'..X}.O 7 6 4 3 4 1 > 5 0 1 2 4 9 . |.'. X'.'.'.'.=X=X",
"3X,X$X$XOX; Y Q I Y Y T W E I Q W Y Q Y U ~ = _.[.'.'.'.'.'.* & '.XX|.|.[.].+X'.OX  O + < 1 4 1 4 > 5 . @ o [.'.|. X'.'.'.'.:X,X",
"3X<XXXXXOX: R T I T W W I Y W W Q R Y R W ! = [.'.'.'.'.'.'.= - OX$XOX%XXXoXXX$X#X].o E.O . . # O @ X ~.X '.'.[.}.].[.'. X'.3X,X",
"1X<XXXXXOX= W W I R T W Q Y W T R Q E W I T R = |.'.}.'.'.'.; = V.b.OX+X$X+XOXXX[.[.o /.. OX. W.. ].. (.  |.'.'. X'.'.[.}.|.3X5X",
"1X,XOX+XOX$ W Q Q T R E W R W T Y E Q Y I W ~ ; }.[.|.'.'.'.; ; n.b.$X#X+XOXXX[.[.oXX !.# . @ !.. O   ^.. [.'.'.'. X X].'.OX5X,X",
",X,XOXOX+X* E W Q W I Q W W W Y W R W Q T I ) = '.}.[.'.'.OX; : b.m.OXXX$XOX}.'.$XXXO W.O Q.  !.@ ^.# ^.@ '.|.}.].[.}.'.XX$X1X>X",
"3X3XOXOXOX: ~ W R W U Q W Y W E W Q I W R E ~ : '.'.}.}.'.OX; ; b.b.OXOXOX[.[.OXOXOX  ~.X # + /.o # @ !.@ '.}.'.{.'.OXOX+X%X3X,X",
",X>X+XOXOX* ( ~ Y W W Q W Q W W Q T Y T W R ( $ }.[.'.].XXOX; - B.m.XX$X'.'.OX$XOX+ ~.  OX[.  (.# |.'.  (.o }.'.}.@XXXOX+X+X>X3X",
"3X1XOXOXOXXX$ ! Q Q Q E W Q E W W E Q R T W E * '.'.'.XXoX+X* ; M.b.OX'.'.$X+XOX+X@ ~.+ @ + . /.  + o . ^.o [.OX'.OXoXXXXX$X1X,X",
"3X3XoXOXXX+XXX= / W I Q R Q Y Q W W Q Q ( ; ; '.'.|.].%XOX+X: & b.m.}.'.OX+X+X+XOX  ^.. W.~.  Q.# (.E.. Q.O '.[.OXXXOXXXOX$X,X<X",
",X3X+X$X+X$XOX& ; ~ / W I Y I Q Q E ~ ; ; '.'.'.].[.OX@X$XXX; ; m.l.'.OXOX@XXXOXOXX /.o O O   W.O X + O Q.+ '.OXoXOX+X$XOXOX,X<X",
"2X2XOXOXXXOX; s t : & E ( ! R R / = - '.{.].'.[.].OXXXXXXX+X% : l.x.$X+XXXOXXXXXOX. !.. (.X   (.+ X W.  ~.O $XOXOXOXOXXXOXOX,X>X",
"1X,XOXOXOX%X& r a t i - ; = = * $ u G = & }.}.'.'.OXOX+XOXOX: ; l.B.OX@XoXOXOX+XO o + [ X ~.  ~.O (.# }.. o o OXOX%XOXOXOX$X,X1X",
",X>XOX$XXXOXXX- e w q ; p t u y r a G a H ; '.}.oX%X%XOXOXOX: = N.b.OXOX$X%XXX$X. ' X [.OX.   !.O o }.'.@ ' o XXOXOXOX+X$XOX1X,X",
",X,X+XOXOXOXXXXX; ; : : w u u u u a t i F u = @XoXOXOXXX%XOXV.n.b.b.oXOXOXXX@X+XX ' O OXXXOXO /.. '.'.OX@ ' O +XXX$XXX$X@X@X,X,X",
",X3X$XOXXX$XXXOXOX+XOX& q r s q p s q u a a ; OXOX@X+XOX$X%X@XOX$X$XXX+XOXXXOXOX  o $X+X+X$XO   o '.'.+X .X + OXXXOXOXOXOXXX>X3X",
"3X1XOX$XOXOXOX%X$X'.@XXX; - = * ; : ; ; ; = $XOX'.OXOXXX+XOXOXXXXX+XOXOX$XOXXXOX].XXOXXX$X$X+ [ O '.@XOX+X#XOX}.$XOX$XOXOXXX>X5X",
"1X,XOX@XOXOXOXOX'.OX$XoX$XoXXX%X+XOXOX$XOXOXXX'.OXOXOXOX$X@X@X$X+X#XOXoXoXOXXX}.XXOXoXOXOX$Xo } . $XOX+XOXOX'.%X$XOXOXXXXXOX,X,X",
"1X5XOX$X+X+XOXoXOX$XOX@XOXOXOXOX+XOX+X+XOX+XOXOXOXoXoX$X$XOXOXOX$XOXOXOXOX+X+X+X$XOXOXXXOXOX+ X X +XOXOXOX+XOX+XOXXX+XOXoX$X<X3X",
",X,XXXoX+X+X@X$XoX$X+XOXoX$X+XOXOXOXOX+XOXOX+XXX%X%XOX$XOXOXn.m.N.b.+X$X$XOXXXOX+X$XoXOXXXOXXXXXOXOXOXXX+XOX$XOX$X%XOX$X$XXX1X,X",
">X3X$XOX+XOX$X%X+XOXOX#X+XOX$X+XOXoX+XOX%X+X@X+X#XoXOX$XOXOXB.N.n.b.OX%XoX$X$XOX@XXXOX%XoXOXOXOX+XXXXXOX$X+XXXXXXX+XXXXXOX+X3X,X",
",X<X$XOXOX+XOXXXoXOX+X+XOX$XOXoXOX+XOXOX+XOXOX+XOXOX$XOXOXOXN.b.b.b.OXOXOXOX+XXXOX$XXXOX$XOX$XOX%X$XOX#XOXOXOXOXOX+X+XXX%X+X1X3X",
"5X,XOXOXXXOX$X@XOX+X+XXXOX$X@X%X$X+XOXOXOXOXOXOX+XOXOXOX#XXXC.N.N.V.OXXXOX$XXXOX+X$X$XoXOX+X+XOX$XOX$X$XOXOX$X+XXXOXOXXXOXXX3X,X",
",X3XOXOXOX+X$XoXXX+XOXOXOXOXOX%XOXoX+X%XOX$XXXOXOX$XOXOXoXXXn.b.B.n.XXOXOXOXOXXXOX$XOXXX%XOXOXXXOX@XOXOX@XOXXXOXOX+XOXOXOX$X,X3X",
">X>X$XOX$X@X$XXXOXOX#X$XOXOXOXOXOXOXOX@X$X+X+XXXOXOXOX$X$X+Xb.V.N.m.@XXXOXOX+X$XoXOX+X$XOXXX#XOX@X$XOX$XXXOXOXOXOX+XOXXX$XOX,X1X",
"3X,XOXOX$XoXXX$XOXOXXXOX$XXXOXOXOXOXOXXXOXOX+XOX$XOX$XOXXXXXV.N.b.n.oXXXOX@XOXOXOXOXOXOXOXXXXX+XOX%XXXOX#XXXXX@XOXOXoXOX+XOX,X4X",
",X,XOXOXXXOXOXXXOXOX$X$X%X$X+X@XOXXXOXOXOXXX%X#XOXOXOX#XOXoXN.n.b.b.oXoXOXOXOXOX+XOXOXOXXXXX$XOXOX$XOXOXOX+XOX$X$XXX+X+X@X+X,X4X"
};
