/* XPM */
static char *result[] = {
/* columns rows colors chars-per-pixel */
"64 64 193 2 ",
"   c black",
".  c #010000",
"X  c #000100",
"o  c #010100",
"O  c #000001",
"+  c #010001",
"@  c #000101",
"#  c #010101",
"$  c #020000",
"%  c #030000",
"&  c #020100",
"*  c #030100",
"=  c #020001",
"-  c #030001",
";  c #020101",
":  c #030101",
">  c #022808",
",  c #032808",
"<  c #022908",
"1  c #032908",
"2  c #022809",
"3  c #032809",
"4  c #022909",
"5  c #032909",
"6  c #02300A",
"7  c #02310A",
"8  c #03310A",
"9  c #03310B",
"0  c #302100",
"q  c #312100",
"w  c #302101",
"e  c #312101",
"r  c #382604",
"t  c #392604",
"y  c #382704",
"u  c #392704",
"i  c #382605",
"p  c #392605",
"a  c #382705",
"s  c #4A1D10",
"d  c #4B1D10",
"f  c #4B1C11",
"g  c #4A1D11",
"h  c #4B1D11",
"j  c #630203",
"k  c #620303",
"l  c #630303",
"z  c #690A0A",
"x  c #690A0B",
"c  c #690B0B",
"v  c #6B0F0E",
"b  c #6B0F0F",
"n  c #781616",
"m  c #791616",
"M  c #781716",
"N  c #791716",
"B  c #781617",
"V  c #791617",
"C  c #781717",
"Z  c #791717",
"A  c #422D02",
"S  c #432D02",
"D  c #543802",
"F  c #553802",
"G  c #543902",
"H  c #553902",
"J  c #543803",
"K  c #553803",
"L  c #543903",
"P  c #553903",
"I  c #743902",
"U  c #753902",
"Y  c #743903",
"T  c #604202",
"R  c #614202",
"E  c #604302",
"W  c #614302",
"Q  c #604203",
"!  c #614203",
"~  c #464242",
"^  c #474242",
"/  c #464342",
"(  c #474342",
")  c #464243",
"_  c #474243",
"`  c #464343",
"'  c #474343",
"]  c #545352",
"[  c #555352",
"{  c #555253",
"}  c #545353",
"|  c #555353",
" . c #676666",
".. c #676766",
"X. c #666667",
"o. c #676667",
"O. c #666767",
"+. c #676767",
"@. c #787474",
"#. c #797474",
"$. c #797574",
"%. c #7C7474",
"&. c #7D7474",
"*. c #7C7574",
"=. c #7C7475",
"-. c #7D7475",
";. c #7C7575",
":. c #832E2E",
">. c #822F2E",
",. c #832F2E",
"<. c #822E2F",
"1. c #832E2F",
"2. c #822F2F",
"3. c #832F2F",
"4. c #944028",
"5. c #954028",
"6. c #944128",
"7. c #954128",
"8. c #944029",
"9. c #954029",
"0. c #944129",
"q. c #954129",
"w. c #B66149",
"e. c #B26756",
"r. c #B26757",
"t. c #AA8028",
"y. c #AB8028",
"u. c #AB8128",
"i. c #AB8029",
"p. c #AB8129",
"a. c #BE8E2C",
"s. c #BF8E2C",
"d. c #BE8F2C",
"f. c #BF8F2C",
"g. c #BE8E2D",
"h. c #BF8E2D",
"j. c #BE8F2D",
"k. c #CEA200",
"l. c #CEA300",
"z. c #CEA301",
"x. c #FECA00",
"c. c #FFCA00",
"v. c #FFCB00",
"b. c #FECA01",
"n. c #FFCA01",
"m. c #C59D70",
"M. c #C59C71",
"N. c #C49D71",
"B. c #C59D71",
"V. c #CEA67C",
"C. c #CFA67C",
"Z. c #CEA77C",
"A. c #CFA77C",
"S. c #CEA67D",
"D. c #CEA77D",
"F. c #CFA77D",
"G. c #828080",
"H. c #838080",
"J. c #828180",
"K. c #838180",
"L. c #828081",
"P. c #838081",
"I. c #828181",
"U. c #838181",
"Y. c #ACACAC",
"T. c #ADACAC",
"R. c #DBA297",
"E. c #C6C4C4",
"W. c #C7C4C4",
"Q. c #C6C5C4",
"!. c #C7C5C4",
"~. c #C6C4C5",
"^. c #C7C4C5",
"/. c #C6C5C5",
"(. c #D2CECE",
"). c #D3CECE",
"_. c #D2CFCE",
"`. c #D3CFCE",
"'. c #D2CECF",
"]. c #D3CECF",
"[. c #D2CFCF",
"{. c #D3CFCF",
"}. c #E3E3E2",
"|. c #E3E2E3",
" X c #E2E3E3",
".X c gray89",
"XX c #F6F4F4",
"oX c #F7F4F4",
"OX c #F6F5F4",
"+X c #F7F5F4",
"@X c #F6F4F5",
"#X c #F7F4F5",
"$X c #F7F5F5",
/* pixels */
"oXoX_._._.(._._._._.(.`._._._.[._.)._.[._.[._._._._._._._.[.s.a.g.d._.[._._.`._._._.`.`._.`._._._._.[.`._._._.[._._.[._.)._.+XoX",
"XXoX_.{.`.(.(._._._._._.`._.`._._._._._.(._._._._._._._.[._.a.a.a.a.`._._._._.`._._.)._._.`._._._.(._._._._._.`._.`.[._.(.`.#XoX",
"oX+X_._._._.).{._.(.)._.[.[.`.[._._.[._._._.`._.[.[._.(.(.`.a.a.a.s.`._._._._.`.(.{._._._.`._._.(._._.`._._.(.(.`._._._.[._.#XoX",
"@XXX_.`.(.`._._.`._._._._._._.`._.`.`.`.`.[.[._._.{._.[._.`.g.a.a.a._.[._._._._._.[.`._.(.(.(.).[.(._._.(.`.`.(.(._.[.(._._.XXoX",
"oXoX_.`._._.`._._._.[._.(._.(._._._._.[.'.`._.(.(._.`.[.(.`._._._._._._._.`._.(._._._._.[.[._._._.'.`._.`.`.{._._.[._._.[._.oXoX",
"#XXX_.].`._._._._.(.E.`._.`.`.O     _.(._._._._.E.)._.(._._.: ; _._.)._.: ; ; _.E._.[._.; ; = _._._._.(.`._._.E._._._._._._.oX+X",
"oXXX{._._._._._.{.E._._._.    B B n   o [._._.~._._._._._._.- * ; ; & = B n n = ; = = ; B C M ; = '._._.)._.E._._._.`.`._._.oXoX",
"+XoX[.(._.`._.[.(._._._.  M C N Z M M V # _._._._.`.[._.`._.; & V v n n C n Z C n b b M C C C m b = _.`.[.(._.`.`._._.[._._.oXOX",
"oXOX_._.`._.(.'.]._.[.+ n B M C N B C N B O   X   + `._._.[.& ; V b b M Z C Z C M b N C Z C n b b * _._.'._.'._.{._._._._._.oXoX",
"oXoX_._.`._.[._.[.(.O B M V B V Z Z N B x x x c c x O (._._.; ; C l.l.c.c.C n.v.l.l.B n.n.c.l.l.b - (.(._._._.[.(._._._._._.oXoX",
"oXoX`.`._._.[.)._.O H.+ Z M C N M C C O + o     X X # + _.`.= ; n l.b M V C c.B b b V C C c.k l b : '._.(.(._._._._._.[.(.`.#X+X",
"oXoX_._.'.)._._._.. @.. x C C N N C . R.  A.O [._._._.(.`._.: * m l.b n Z C v.C l.l.b.C n c.C b b & _.(._._._._._._.[.`._._.#XoX",
"oXoX{._.(._._._._._.  #.  z z x z   F.N.B.V.C.+ _.[.(._.`._.; : n l.b C Z n v.C b z.N Z n c.C b b : _.(._.(.`._._.[._._._.`.oX+X",
"oXoX_._.`._.[._._.  P.J.@.+   o @   S.C.D.Z.D.e.O (._.`._._.; = C l.l.c.b.B x.l.k.c.V C C c.n b b ; _._._._._._.[._._._._._.oXoX",
"oXoX(._.)._._.`._.`.O I.U.K.$.. S.Z.Z.Z.O.X r.e.  (._._.`._.; : C n b n C C C l j n Z n B M n n b ; [._._._._.'.`._._.(.`.(.oXoX",
"oXoX_.(.(.(.`._._.[.o X U.O G.@.. O C.{ X.+.  # (._.[._._._.- ; C B b b C C b b b n C M B C C n b & ).`.`._.).[._._.(.`._._.@XoX",
"oXoX_.`._.[._._.`.; L . + @ I.U.K.O } O.+.+.o.+.X _._._.[._.= : C n b b % - ; b n n M n ; : & n n & [.`._.[._._._._._.(.`._.#X$X",
"+XXX[.[._._._._.: D L J L H   U.@ [ O.+.+...+.] . _.`._.`._.- = ; ; & ; _.[._.; ; = = * _.(._.; $ & [._.{._._._._.[._.(._._.+XoX",
"#XoX_.`._._._.& H G L L J L G O K   }  .O.| +.O _._.`._._._.= $ a.j._.'.Y [.]._._._._._.(._._._._._._._.(.(._.`.(.[._.[._.(.XXoX",
"#X+X(._.[.[.$ K L P L D * : : L P P   | } O O _._.{._._._._.; = g.a._.U (.I _.(._._._.'._._._._._.'._.(._.(._._._.(._.(.`.`.oXoX",
"#XoX_.`._.`.& L L L L ; E R L = J D K . . _._._._._.(.[.'._.; ; (.[._.I I [._._.`.`.)._._._.'.[._._._.[.'.[.).[._._._._._._.oXOX",
"oXoX[._._.& G G K H H K L L G L G L L ; G   _._.E._._.)._.(.% ; _._.I _._.(._._.E.`.`.[.`.(.`._._._.`._.(._._.~.[.`.[.`._.`.oXXX",
"$XoX_._._.: L L P L R R L L G L K ; L J & G   E._.(._._._._.- & _.I (._.)._._.E._.[.]._._.`._._._._._._.[._.~._._._._._.`._.oX#X",
"oX$X_.[._.: G J H L R L L G L L L L - L L & G   _._._.[.    = ; I `._.(._._._._._._._.'._.`._.`.[.`.'.[.`.`._.[.`.(._._._.`.oXoX",
"+X+X{._.(.& G L J G F L H J L J L L L ; L % G G       X B.; $ & - a.(.E.E.E._.).(.`.(.(._._._.'._.'._._.)._._._.E.~._.W.[.E..X+X",
"oXoX_._._.% G L P G ; J L G P P K G K G * ; G D G G D & - N.B.m.M.$ E.E.Q.~.E._.`.[.`.X + X O O X .   # _.[.(.E.E.~.Q.E.E.E..X X",
"XX+X_.`._.- G L J G : P L P L L L J L H P ; G D % $ * L ; B.m.Z.Z.; E.E.E.E.        . ^ U.' *.^ I.' 5.8.o +   . O ~.E.E.E.E..X.X",
"oXoX_._._.$ L P L J K ; H J J P G P L J L G $ & D J J J ; B.N.M.m.& E.E.E.E.> @ I._ *.6.q.^ -.' *.8.4.q.J.( &.@ 4   E.E.E.E..X.X",
"oX+X_.[.[.; L J J L L J J L L G L P P P J G L L G G L P ; B.B.D.Z.% E.E.. 2   ' =.( *.f h 6.q.9.0.7.g ~ *.) K._ O 3   ~.E.E. X.X",
"oXoX_.(._.: P G P F F J H K J G L P L L G L G J K K L L : ; = : ; y.E.E.X 8 + ` I.>.;.3.H.0.8.h d s -.1.;.<.*.~   8 X Q.E.Q.}.|.",
"oX#X_.[.[.; J L H L G G J L J G G L L L L L D L L P J K & E.- & y.y.E.E.  8   1.&.>.H.q.9.M L.M P.N q.5.U.:.%.:.X 8 . E.~.E..X|.",
"#XoX_._._.$ P H L G H L D P L J L L G L K L L L L L L L ; E.; : t.u.E.E.W.@ 8   K.2.K.h 8.0.w.6.q.6.7.s U.3.K.o > o Q.E.E.E..X.X",
"oXoX_._._.: P L L G P L L L G L P L & Q R R L J L G W : E.~.: & y.y.E.E.~.O 4 7 # +   ,.K.f 6.f d s U.1.X @ X 4 8 o E.E.E.E.|..X",
"+XoX_._._.; P L K P L L L G L K D L F - & R R J W ; = E.E.E.: : p.y.Q.E.E.X < 4 4 1 4 X o . @ .   # .   8 8 8 4 7 @ Q.E.E.~..X.X",
"oXoX_._.`.: P P L G L J J ; W R H F H P ! ; ; ; = E.~.W.~.E.; ; u.u.~.E.E.Q.+ 1 8 , 2 5 6 5 < 5 1 1 2 8 8 4 4 2 X E.E.W.E.W..X X",
"+XoX_._.(.; L L P L L L G P = ; ; L L G Q ; E.E.E.E.E.E.E.E.& ; y.u.E.E.~.E.o < 4 9 > > , 8 2 > 2 < 5 8 1 5 8 7 . ~.E.E.!.E..X.X",
"+XoX_.[.(.; L P L G G H K L L P L G L G G = E.E.E.Q.E.E.E.E.: = E.E.Q.Q.E.E.E.  1 > 4 5 > 7 2 < 8 2 1 < < 9 8 @ Q.E.E.E.E.E..X X",
"oX$X_.(.`.; L J F L L L J H L P P G L H D ; E.W.Y.E.E.E.E.E.- = E.E.E.Q.E.E.~.E.O 8 6 5 > > 4 > 5 7 5 2 5 8   Q.E.E.E.E.E.E..X.X",
"oX#X[.(._.& L P J G L K K J L H L D L P P T = T.E.~.W.E.E.E.: & E._.^.E.E.W.`.W._.. O   > 1 4 5 4 4 < + # o E.E.~.W.E.W.E.E..XoX",
"oX$X_.(.(.; J K J L L L P J L J P L L L L T & E.E.E.E.W.E.E.= % `.[._.[._._._._.[.E.X I.@ . # #   @ X I.  !.~.Q.E.E.E.E.E.Q.#X#X",
"oXoX(._._.; L K L L J L J L H L J L L L D H L $ ~.E.E.Q.E.Q.$ & d.f._._._.[._.(.E.W.o L.. _.. H.. E.  P.  ~.E.E.~.E.W.E.E.E.oXoX",
"oXXX_._._.= L L P H J J L G P P G G J F G G R ; E.E.Q.E.W.W.; ; f.a._.]._.[.(.E.Q.`.X K.+   X K.. @   L.  Q.E.E.W.~.~.E.E.`.#X+X",
"oXXX_._._.& J L L L L L L L L H L L L F J J T = W.E.E.~.E._.& : a.d._._._._.E.E._.(.O P.# J.  U.O P.O P.O E.E.E.E.~.Q.E.(._.$XoX",
"#XoX_._._.: R L J G J G L P L L L P G L L K R ; E.E.E.E.~.[.& ; a.a._._._.E.Q._._.`.  K.  o O I.  @ @ K.. Q.E.Q.Q.E._._.`._.oXoX",
"oXXX_._._.: R R G J L L L P L L P H G L L J ! * E.E.E.E.[._.; - s.d._.(.E.E.`.`.`.. G.. _.~.o U.# E.Q.  U.  E.E.E._.'._._.`.oXoX",
"oXoX_._._._.& R L L L L G L F L L K P P K L K & E.E.E.(.(.(.* $ d.a._.E.E.[.{._._.O L.# O + . I.    O . P.. E._.E.).)._._._.+X#X",
"oXoX(._.'._.(.= R L D K J P L P L D P P ! ; = W.Q.E.W.[._._.: & a.a.~.E.[._._.[.[.. P.  U.I.  J.# U.I.. I.O W.~.[._._._._.{.#XOX",
"#X#X_.[._.[._.$ ; R ! G L L L H G P R ; = ~.E.~.~.E._.`._.`.; ; d.y.~.(._.[.(._._.X I.X       H.+ X . O J.@ E._.(._._.[.'._.oXoX",
"oXXX_._.'.[.; a p % & K ! T J J W ; = W.Q.E./.E.E._.(._._._.& * y.y._.`.[._._._._.. K.. U.    L.  X H.X L.  [.`._._._.{._._.oXXX",
"+X+X`._.`.{.; q a y t * ; = = * % a A = = ~.Q.E.E._._.`._._.: = i.a._._._._._.`.  + + / X L.X I.+ L.@ E.. o o _.(._._.(._.[.#X+X",
"oXoX`._._._._.: w e w ; p a y y e a A a S ; E.E.`.)._._.{._.: ; h.a.[._._.`.[.(.O ~ @ E._..   J.O o E.E.o / o _._._._.`._._.+X+X",
"XXoX`.[._.(.{.(.; ; ; = q y u r y a r r A y ; [.(._.`.'._._.a.a.a.a.(._._.(._._.. _ O _._.[.O I.  E.E._.@ ` O _.(._.`.[.[._.oX#X",
"oXoX`.(._._._._._.`.`.= 0 e p e i r q u i a ; _._.(._._._._._.[.[._.(._._.[._._.+ # _._._._.O   o E.E._.'   O _.(.[.(._.`.[.XXoX",
"oXoX_.[.(.(._.`._.E._._.; ; $ & ; : ; = ; ; [.(.E.`._._.`._._.`.(._._._.[.[.`.`.E.(.[._.[.[.. ~ O E._.(._._.`.E._._.`.(.(.'.+XoX",
"+XoX_._._.(._._.E._._.]._._.`.`.`.[._._._._._.~.`._._._.(.(._._.`.)._._.`._.(.Q._._.(._._.[.X )   `.(.(._.[.~._.[._._.`.'._.oXoX",
"oXoX{.[.`._._.`._._._.(._._.[._._._.`.[._._._._._.]._.`._._._._.{.(.(.[._.`._._._._.(.[._._.O O X _.(._._._._._.).`.`._.`._.OX#X",
"oXoX(._.[._.[.[.(._.{._._._._.[._.`.)._._._.(.(._.`.`.[._.).f.g.a.a.{._.[._.`._.`._._.(._._.(.`.(._._._._._.[._.{._._._.[.(.XXoX",
"XXoX_.).)._._._.(.(._.(._._.[.`._.`._._._._._.]._._.(._._._.a.a.g.d._.{._.[._._.[._._.`.(.'._._._._._._._._._.[._._._._._.{.oX#X",
"oX$X[._._.[._.[._._._._._._.(.[._.`._._.[.(.[.`._._._._._._.d.d.a.a.(.(._._._.)._.[.(._._._.[.(.{.(._.`.`.`._.[._._._._._.[.+XoX",
"#XoX_.(._.{.[.(.[.`.[._._._.].`.(._._._._.[._.(._._._._.).`.s.a.a.d._.(._._.(._._.[.'._._._._._.[.(._._._.'._._._._._.[.[._.$XoX",
"oX+X`._._._._.{._.[._._.(._.[._._.[.`.`.[.[._.[.[._.`._._._.a.s.a.s._._.`._.[._.(._._.`.(._._._._.[._._._._._.[.`._._._.`._.oX#X",
"XXXX_._._.(.[._._._.`.(._._.`._._.[._.[.[.`._._._._.[.[._.[.s.g.a.s._.(.(._.`._.`._._.{._._._._._.[._.[._.`._._.).(._._._._.OX+X",
"oXoX'._._.)._.(._._.(.[._._.[._._.(.`.(.[.[._._.[._._._._.`.d.g.a.a._._._.[._._.`._._._._._._.].[._._._.`.).(.(._._.`._._.(.oXXX",
"oXoX_.{.(._._.(.{._._.[.[._.`._.`._._.`._.(.[.{._.[._.)._.[.a.g.a.a.)._._._._._._._._.`._._._._._.[._._._.`._._._.`.`._._._.+X#X"
};
