/* XPM */
static char *_7007884f07f4b91ac1cc6fb4a3655e1geZN4hCzQ3f6NYxU[] = {
/* columns rows colors chars-per-pixel */
"64 64 47 1 ",
"  c #464242",
". c #474242",
"X c #464342",
"o c #474342",
"O c #464243",
"+ c #474243",
"@ c #474343",
"# c #525652",
"$ c #535652",
"% c gray40",
"& c #676766",
"* c #676667",
"= c #A02000",
"- c #A02100",
"; c #FF0808",
": c #FE0908",
"> c #FF0909",
", c #22AB12",
"< c #22AA13",
"1 c #23AA13",
"2 c #22AB13",
"3 c #348022",
"4 c #358022",
"5 c #348122",
"6 c #358122",
"7 c #348023",
"8 c #358023",
"9 c #358123",
"0 c #3CE22A",
"q c #3DE22A",
"w c #3CE32A",
"e c #3CE22B",
"r c #3DE22B",
"t c #3DE32B",
"y c #FAFF08",
"u c #FBFE09",
"i c #94908E",
"p c #94918F",
"a c #95918F",
"s c #A8A4A4",
"d c #A9A4A4",
"f c #A8A5A4",
"g c #A9A5A4",
"h c #A8A4A5",
"j c #A9A4A5",
"k c #F2EEEF",
"l c #F2EFEF",
/* pixels */
"66376888<7888868r988766r963+oooOhihso+++  O      OoOO  OoO      ",
"66rr78<88688888r3989869r6867+$+oisfio+++oO  OoOo oo oOoooO  oOo ",
"77r6687889<898r689<989r<37++++$oss%sOOOOOo   O  oXO oOooOOO o Oo",
"689916r989<999r<88<9rr<677o++++oss%sXoOOoOo  ooOo   OOOooo  O  O",
"714414r87<6r77<888<8r818773ooossss%sssoOOOO #+ +oo oO  oOo   O  ",
"714719677<9e88<888<r6818ee7oohsiss%sissXO+OO++ ooOOO X  o   o#  ",
"1677188>167e36<888<86818676ooissss%sssio +   +++OO oX   O OO#o  ",
"177719>+>39r78<898r9894777ooohssis%ssiso      ++OOXo    X OOooo ",
"<888<86>138888189r<888671ooo.sssff%fhhsoo+++ooooo o oXOO    oX  ",
"8973<6r9778849189r<917773<o+.sisff&fffsoo+++oo$+  o oXXO    OXo ",
"8898<8r87778961996k917773+1o+jsifsfffiho+ooooo..o   OOoOoO  OoO ",
"ee888<r877748u186kyk17717+++.issjshffhi+OOooooo. oXXXXooOo XooX ",
"3eee81888889uou688k6137<7o3oohhssissifjoOO....oo   .oOXo++++oo+O",
"7re668888818ru<689r<333<773o+ ssi%jfsjo+OOXX..oo  o.XXXX+====oOO",
"7733198887187r888r9<783<33oo   of*fsooo OXXXoooo   .oOoOO==+=-OO",
"733318867186r7778r8<883<33++o   f*jjoo  XXXXoooo.oo.OOoOO=+oo-XO",
"7r4881879187r6888r7177163eo   oos%siOO   ooooooo.oo oo==o+-o=ooo",
"6r778147r887r786967177173eo   +oi%siOO   ooooooo.ooooo==o+=====o",
"76r99814r647r99188817717333O.++os&ssOO  o oooooooooooo=o=o=oo =o",
"77r688196r86r49198<7761>3o3o.$+os%ssX    o-==ooooo==oo=o-o=ooo=o",
"889rr8717r6778<8671774>o:3oO#oOOs&si+ + +==o=ooooo=ooo=o===+o==+",
"8884r94177r77816761747r;33oOooOOssssooo o=ooo=oooo=oooo==+====++",
"88771477178868<877779r6833 oOOhhspffss+++=oooo=ooo=ooo==OO==o+++",
"888817447<<8818847869r6713  Osffpfffshh++=oooo=ooo=oooo=oOooo+++",
"944r1888898<8<888988r49871..Osifsss&sifo+=+OOo-==o=oooo=ooooo+++",
"77r6188897r811888r88r99877+.ossss&s&ssfo++=Oo---ooo=oo=oooo-=o++",
"6r9816896e99<8<89r74r97889++ossis&s&shpo++-=-ooo=oo==-=oo---+o+O",
"6r881776e889<9889r81r8486+.+ossss&s&shf++o=ooooo=ooooooo-oooO===",
"7r9918r9r788<893r981r988ooOOOisif%sjiff++Oo=oooo=ooooo==XOo-=oOo",
"r6r9186r998<8889r8941788<oooosisj%sffihoooO=oooo=oooo=ooo--XOo++",
"rr99818rrr9y9833988714986++oOssss%sishho+Oo=ooooooo=-oo--oXXOO+O",
"6r99818r97y+y9831988r1883+o+OOssf%sssh+oOoo=+ooooo=ooo-ooo OoOOO",
"r4776717899y89681874r188333oOOOoj%ff++++ o      ==oo =  oo+ooooO",
"r4477717888r899<8844r8143oo oOoojjfa++++oo  .  oo oo=   oooo++OO",
"r4771787389r889<877r7717333OoOOOssif+++o   o.oooooooOoo o o+ OOO",
"69771788839r88<6477r77173e   OOoss%f+++oo   ooo +++oOOO o ++ o O",
"6877<8988k6r881844r6881833o O#Ooss%s+OOO  # OOOo+oXXXoo o+.  Xoo",
"986rr888kyk9881877r7441833  $oOOsi%s++OOOoX OOO+oo Xooo + o XXoo",
"887r<8869k6861188648771731  +o ois%soOO XoX XX +OOOOo   o    $  ",
"96r6<8889r93<<<98r887717711.++ oss%soOooXXX XXoOOoOOo   oo  $   ",
"77r61888r9988718rr44841933oo++ssfs&fjfooo+++oooojfjjfisj       +",
"6r761978r4987718774411883ooo hssss&sfjf+o+++oo hjisjissfh     ++",
"8r87177r877741847777947477eO+hhsfffffajooo++ooosjsifffjih o   oo",
"r9<6176r8419818776749rr7773O hisf%ffijjshihjsssssssjjjjfhshsihji",
"r818744r4818819488198r77133oosssf%fjjjjsihhhsssiffjs&%&%%%shjjss",
"9816779r471818846919r984<7+oosssf%%%%%sjss%%%%ssjfssssjfssshj%%s",
"8818989r77171877881r998u<+  ohisjjhffffjihhishshf&%%%&%%ssihhhsi",
"8818989177181889919rr4u.y++ooissfahhfij.o+oooooijfffsssssooo ooo",
"7716868<88<<8988<8rkr98y+++++jjsffifsss.Oo++o+ojijsijsiffo++ooOo",
"7718988<88<1888<89kyk99r6+++o+jsfijfss..OOOoooo+jjifjjif++oo$o +",
"9r8173<788<<88<<336k68r977++++++o+oo....OO#o#o++++o++.oo++++OOOO",
"9r8186<988<888<8899r98r977+o+++.++o++... OO#Oo++++++.  o+#++73OO",
"88r<9<88>7173888666r77r677o63o+1++o+7441   o67..++o+o+7ooooo7331",
"88r<<86>o>7778886ke698<83336r78877e36741 XX77rr677o73777o7763311",
"88r8<897>677<873kyk898<83666677666e6773333338r6777y6363677r76733",
"88r<<999r77<88886k<893<83,7667676ee6766e033388987yoy3ee677r76177",
"899r118r677148747r<66<98618877113r88>38r91889rr976y79<r8176r6167",
"<99r18r977174488r8<66<96818471776r3>+>r948189r8871r8<9r8177r6r77",
"<89r18r177169888r8187<89881771776888>r9888719r981r88<68r147r9r76",
"779r6r471177789r81866<rr7817178<9838e8889477r981r786188914rr1r47",
"77716r66818848898<8781r876118<881799e6686r67r89r6877<3881867r998",
"7717r777191498478<8781r877<<9<76178r<6886r87611r88773<881187r681",
"7767r677867147186<999r887777<8996rr<88866r78911488746<3318<61616",
"766r67667789861788896r48467188696r3<3698777961888847336688<68889"
};
