/* XPM */
static char *a9142d00b78b410cf0e5c3752143fcc1HGY3c7GlHezUOQQt[] = {
/* columns rows colors chars-per-pixel */
"64 64 47 1 ",
"  c #464242",
". c #474242",
"X c #464342",
"o c #474342",
"O c #464243",
"+ c #474243",
"@ c #474343",
"# c #525652",
"$ c #535652",
"% c gray40",
"& c #676667",
"* c #FE0908",
"= c #FF0908",
"- c #A66504",
"; c #A66405",
": c #A66505",
"> c #22AA12",
", c #23AA12",
"< c #22AA13",
"1 c #23AA13",
"2 c #22AB13",
"3 c #23AB13",
"4 c #348022",
"5 c #358022",
"6 c #348122",
"7 c #348023",
"8 c #358023",
"9 c #348123",
"0 c #358123",
"q c #3DE22A",
"w c #3CE32A",
"e c #3CE22B",
"r c #3DE22B",
"t c #3CE32B",
"y c #3DE32B",
"u c #FAFE08",
"i c #FAFF08",
"p c #FBFF08",
"a c #94918E",
"s c #94908F",
"d c #95918F",
"f c #A8A4A4",
"g c #A9A4A4",
"h c #A8A5A4",
"j c #A9A4A5",
"k c #F3EFEE",
"l c #F2EFEF",
/* pixels */
"55590555559444555555555505505094444455775y555u5<5595555555504740",
"555e555055t5445555525550<555p594440535555y55pou95q555w9555054043",
"995e5505555t5yq5r5553555<55p+p50444374335y555p095r555q5594<55534",
"955e5505505t555y0r5525255555p5<5744r5443<y555q555q55<e55k9<55434",
"994q4515555t525t00q553359e55e520553q55555y55<qq555t205rlpk5355r5",
"4444r5p5t55e5250t5q55ttt5e50t<555535r55r5<<355r555te05r0k5553r5<",
"4444rp+pt5555<59y05ty55t25t55255*355r050t555q541<5t055<0r555t552",
"444455p15t550<47t5t5355t55t5<55*+*q50844t555q<<4255t55<55t5tt5<0",
"555555y25t05551055q1555t555y4444*5r<5<<55tt44q4<554q44<550t445<5",
"95<555y25t0t051555q1555r555q544455y555<599444t4<544449<555t44q55",
"55<555t25t5t55105r41597r5555q5 925<5555<+  49t5555 444<9+95955q5",
"55<995w5550t55100r14554r55+55+ <++  595<o+++55o +++   9O++ +55y5",
"555<55w55555q5554q14559955ooXXX ++++OO +oo.#    +   o+oX #+ 55  ",
"55t<55952500y55544,4559<55+o++ +o+++XX o o#+$ o   oo++oo XOXoo+ ",
"555t55553505t5554,4495>99+oo++ffhaffhh     + o offafffsf  oX#o+@",
"5555w595y355t555,44449>9Xoo+ fggffafhhf       ofaffaffsff o o++@",
"5505t5553q505555<5745535+    shffsfffsg   XX+  sfffffffff@@@+@++",
"5555<y55345r555*55745355<+ + gsfffffffhfsffsgfhff&&&&&&&ffsffffa",
"505025w54074q5*@*944555514  +gfgf&&&&&gfff&&&&ffhhggffffffffg&&f",
"0555255w3444t05*004455qr144 +gfff&ffffffafffffhsfhhg&&&&&&ffgfff",
"9555355y3550w55w555555t5444 +fsff&fhshfhfaffggghffffffffffhhaffa",
"95552555535555e555055r5544t +fffhffhhsf   ++   hhfahfffaf  X  ++",
"4l5525555<555t555<55q5059 Xo hffff&fgghXoo+  + ffshfaffff oO+  o",
"kpl555555255tt95550t555599  ++ffjf&fhh+XXoo +   ffffgaff   X+ooo",
"7k44555551555555594r5355533+    jj%f@@++       +XOO+    +   #++ ",
"44r40r555155555909r55<5552++    dj%goo++XXo      XX+    +  o+#+ ",
"55r55r7405p5555<55055355>9++# oogd%gOO ++X       +++        o+  ",
"55t50r545p+p555<0555535599X+ #o+gh&gXOO+++#       ++  ++   oo+  ",
"55r02t7495ut44<5555550259t    ++ff&fXXX XXX                Xooo ",
"55r453405595q5<q55555535449  +++ffafXX+ OX         +     O Xoo  ",
"50r453<5<559t4<5rt2550524     o+fffa  o oo+      o    +   XX    ",
"550055<55<995t<505255552444  o  f&ff+   o++          +          ",
"555955555<5595e5535y55519 XO  ggf&ffff           +oooXX o +++   ",
"959553555<5559e95355qq55<  X+hgfh&faffg+oo   o   +  o+      oX  ",
"555553555255552053555555< XX+hafh&fhfsg+            ++    o OO  ",
"5555w<555355552555555551  ++ sfaf&ffsff+            #       XO+ ",
"5995w5<553555255559944455    ffff&f&hhh oOX XXOO  OXX#        o ",
"95955y<55555*5553593444559   ffaf&f&hha ++XXXOOO  ++#o       o  ",
"49555y35555*@*556393444955   fhhf&f&hhf+   XXXOO    o#          ",
"49995y<55555*555635944495<   fagfff&fsh+   XOXO+    X #   oo+   ",
"44444q165555t5556616655q,4.  fggagggfff+++X     O+    #o +      ",
"4k6<454,55055t50441155y,44..  ggfahgff+oo   +++ X++   # ++      ",
"kuk<5551555<t0r5451155y544  +..+ffhf  o   +o +  :::   XXOX      ",
"4kqq55512555t05t45145w5y44+ #+  f&hs   X     :::XX :  XoXX      ",
"555t155525502t5r55<55w5t4o4 +#  f&gh  oo   +::--;;X;+++o  XX +OO",
"559t155552502q050535w555q44o+  oh%ff  o    ::---:;;O   + XO+++XO",
"5555y5555205<5r504<5e9594too++oos&ha ++  +::;u-u--;;      oo  OO",
"49593y555<50,5r4442555554tooo+o+h&fa +    :-u;u-u:;;:     +  XXX",
"4441rr455374355r5155555505 ++   f&ff Xoo+ -:u:::u--- oo         ",
"445555475341444q55555505<5++++  f&ff Xo + ;;;:-:--:   o   oo+X  ",
"555555543751754r04455515<95+@@ffs&ffhh  XXOXXX+oO@ +       + o  ",
"1555555p34535554r54455159 9+@fffhsfhshh XXXXOO++OO++       + o  ",
"154474p@p7555553<44455<59 oX sffhfffffs XXXX   +OOo          ++O",
"5,40347p57555543>4445l355 <o hfsfhfffsf OX     +OO X          XX",
"53553453r4557434<499lpl55<oo fsffh%fhhg     +o# OXXX   o     oX ",
"52004377r54734379<995l55<    ffffh%fhgg++     o OOXX  ++     +  ",
"5<5052505r55151502055<5549   gfhsh&ffaf         oo+   XX        ",
"5<9555255r551515535550<w499o sfhff&fffa o+    o+X++   XX++  #   ",
"5935t5355tt05155535559e5tt5o+ffsff&faff      +        OO+OOX+#  ",
"55<0t525t500515552555r<5445  +hhff&fff      #         +++XXXo++ ",
"54<5t50<5w555<555550y15qq4+ XOX ff&f+ +     XOOO        XOXO    ",
"9451r0055w55555y555t555q44  X+# ff&f+       XXXO        XXO+    ",
"0555t55005t5555y555555qq4454+#  shhsXooo   oXX+O++    XXXX      ",
"4555t555505w555y55555555544+ +  hshh ++o Xo+  +++      + X      "
};
