/* XPM */
static char *c5a954f80fa14e8197e1fb9a4261d092lwfkeif1jvjtA6XA[] = {
/* columns rows colors chars-per-pixel */
"64 64 43 1 ",
"  c #464242",
". c #474242",
"X c #464342",
"o c #464243",
"O c #474243",
"+ c #464343",
"@ c #474343",
"# c #535652",
"$ c #535653",
"% c #676666",
"& c #666766",
"* c #666667",
"= c #676667",
"- c #FE0808",
"; c #22AA13",
": c #23AA13",
"> c #23AB13",
", c #358022",
"< c #348023",
"1 c #358023",
"2 c #358123",
"3 c #3DE22A",
"4 c #3CE22B",
"5 c #3DE32B",
"6 c #9CFE00",
"7 c #9CFF01",
"8 c #D4FE00",
"9 c #D5FF01",
"0 c #FBFE08",
"q c #FBFF08",
"w c #FBFE09",
"e c #A9B762",
"r c #94908E",
"t c #95918E",
"y c #94908F",
"u c #94918F",
"i c #A8A4A4",
"p c #A9A4A4",
"a c #A8A4A5",
"s c #A8A5A5",
"d c #E4EFAC",
"f c #F2EEEE",
"g c #F3EFEE",
/* pixels */
"XXXX..... ooXoXoXooo.Xoo.Xo.ppyiXXXXo,,,5<<<22<5,<<<<22:,,1111<<",
"XXOX....  oXoo o.X.oXXX...X.riirXX#O,,,,5<2222<15,22<<221:1,55,<",
"OOXO..oo  ooXXXX.Xooo....oXXi&iiX#XOOX1,:5<<2:21,5,,<:<<111,25<<",
"XXXX.ooX oXXXXXXX..X.....oXop&iiXXXXXX,1<:552:,,:511<:<<15<:22<<",
"OOOooXXX....XoooXo.#Xooo..iii&piiiXOX,1,<:<51:111:,,51;<15,:22:,",
"OX#XOXXX....Xoo..oXooo.X iiyi&ppyiiXO,44<;<<5;111:<<51:<,,,:2,:,",
"XOo#Xooo....o..ooo.ooo.o yiii=ipiiyOX1,11;<<1;111:1<5<1;-11:<<1:",
"OXoXoXoo  ..o...oXoooooX iyii&iriiiOXX,,111<1511<:1151<-X-2:<11:",
"XXXo .XX  XXXXXoX..XOo..@iiip=iiiiiOOXX;,<112:51<:<<111;-11;111;",
"XX.X ooXo XXXX..X$XX.XoX@piip=iiiyiOXX;,,11;<:51<><<11<1151;<<11",
"Xooo  XX o X..XXOXX.o..X@irippiiypiOO;O,<1<;,g22<><<111115,;<<1<",
"XXXX  XX o  ..oXX.X.o..XXriippiiaiyOXXO,;11;gwg<2:w11111<5:,<<55",
"XXoooooX.oX.........XoXXXaayiiripapXX,X,;1<;<f<<2wOw111<<2:<555,",
"Xooooo  .XXXX....88.oXXXXXppii=rppOXX,,,;111:5<<2:w31;<<2<<<<55,",
"oXX888....XXX...8..8o.XXXX@@ii&pOO@XXX,,;<<<:<5<<<3,1:,111<:<,,,",
"oX8X888...XXXXX.8...8.XXXX@@ii=i@OXXOO,,;<<<:<5<<<<511:111<:<,,,",
"o8Xo.888++@@+OOXX8XO8XOOoooorp&pOOXOXX5<1:11:<51<22311:1<1:11<51",
"o8XXoe86++++@+XXX868eXOXoXooyi&rXXOXOX3,1:11:<1,222312,511:1115<",
"XX8oO688666O@@@6668e6OOXXXXXii&iXXOXX,,,1;11:22,:123<2,51:,115<<",
"oXX866888666666668866OXOXXXXip&i.X#XX,O,-;,,,:22:113<,5<1:,115<,",
"OOXX68888866666688866XXXXX@Xyp=pXo.#@.,-O-111:1<1:211151;<155111",
"OOXX88888886666888868XOO@@XXpppaoo.oOO,,-5<1<:<<1:221311;1151111",
"XOXOf888888666688888dOOX@@iipiyaipooOO<<<<5<1111<:<21,1:,1,:<<11",
"XOXXdd8888e66668888ffXXO@siipipyippXO@<><,5<1111<2:21::111,:<<11",
"ooo.8fd888e6666888ff8XXXOaya=iiiiypXXX;,11,511,1<<:,;11111<:5<<<",
"oo..88888886666888888XXOXaaa=i=iiipXoo,,11151151<,::15<111<:<52<",
"....8888888666688e888O.O@yap=i&priiXXX,,1,,5115<2:<:1<5,1,<:223<",
"...o8888888666888888dXOO@iip&i&ppiiXoXX,,2<5:1512<<:<<,51<<:2232",
".XoXd888888e6688888fdOXX@iiypp&pypro.ooX1115:<<5,11:11<515,:2232",
"XX oddf88888668888dd8@XXXiyipp&iirpXooo;11<:<<<51111;1115<<:1323",
"Xoo 88f88886688888f88@OXXiiiri&piipXooo,,11:<2,,<<11w1555,:21135",
"Xo..X8888886688888888@@XXXiiap&pipooooo,2<:322,:,<<wXw1151:<<132",
"oXXX.8888e8oX88888888XXXXX@@pp&aXXooX,,,1<;5,,1;1111w2221:1111<5",
"oXOXOX8888ooXXXX888oXXXXXXX@ypaaXXo.ooo,1;,5<<11;1113222,:1111,5",
".XXXXXo.oXooXOOOXXoooo.X@@@@pypp....X,,,<;115111;1115<2<,11:<<15",
"ooXOOXooXXOOXOXXXXoooo..Xo@@a&paX.XXoo3,1;1151111;11322<,11:<11<",
"Xo.X.XXXXXXXOOXXoXXXX#o.oXXXa=ppoo#Xoo,,1;11<4,,1;<<5<g<111:<<<2",
"oo....XoXXoXXXXXoXXXX...XXXXa&ypooo#oo,,1;<115,,1;<<<fwg11155,11",
"..#o..ooXoooXXOXooXXo.XoXoXXa&pyoo.Xoo;,1;1111,,1;:<<2g2111:5111",
"o.o#.ooXooooXXOX.oooooooooXXa&pp..o.o:;,1;11115,1;;;<25<111:1312",
"o.XXo.ooipypipssooX.XXo.O@ppp&papioXoX,11:1111551;1111,511<:<5<<",
"..oXooXpipiyiiripooXX..X@pppp&papppoXX.,11::11,,1;11111511,:<<3<",
"XXXoXoopypiisrispooXoXXX@pyapppaiiioX3,,1,111111<<:1,1215<<:225<",
"rpprpiipiipippippipppprpaaaypp&iiyioX,,,144111<1<<:11:<<51<:2:<3",
"iiiiii&=====ipppyiiipiiyiiiaii&iiiiXX,,;115<<:<1<1:,1;1<31112:,5",
"i%=iiiiippiiipppii==%%iiii===&&iiipXXX,;11<5<:1121,:1:<<51122:1,",
"yiiiiyii&&&&&&&ppippyiiyiiiiiiiiiyiXoXo;w,115:<<<11:1:115122,:1<",
"..o.XX.iippiippproXooXXXOiyiiiyiiirXo.o0Xw145<:<<11:1:11:12<<:<<",
"X..XoXXiiriiriptiXXXXoooopppiyiippp.OOOOw<,5g52><<22;:1<;1222:<<",
".XX#OOooiriiiripXXXXXX.oXoiiiiyiipOXOOO,511fwg22:<11;;11;<<<2:22",
"o.oXXO.XOOOXX@OO@@@$o#o.oooXooOXXXXXXX<2<5,,f2<<::11;;<1<:<<:,52",
"oX,,.O$XXXXOX@@O@@@X#XoooooXOOOOXXXXX.<<,5,232<<,:,,1;11<:<<:232",
";,,,XoXXX,XXXXXXOO,,OOOO;,,,XXXO:XX,,O,1<5,,5<<<,1111;1-<<;1:5,,",
";;,,,,,.111,,X,,,53,,OOO:,,,,3,,,,,51,,1<:<<<5g<111111-O-11;:511",
",,,,,41111,,,w,,<<5,,,1<,,,,,5,,11,,1122<:<<<gwf111:111-<<1;141<",
",,;,,4,,145,wXw,<<,,,,153,,,,53,1,,,,2:2<:22,:g<1111;,15<<1;;511",
"<<:<3<<;14;11w<,<55<<2:1511-2232::<<<1;111:,,:511111:2<<5,::5111",
"<<5<5<<;141;15;1<<5,2:1115-O-2321<:<<<;122:,,:1511122:2<<5,:511;",
"225<5<,:311;115;1<5,:111<15-11<211:<1;,,<<:2,:151122,:<<:52:5<1;",
"225>53,:111;,,,5;,,5,111111511<<:<<:1;,155:211;131<<<,::<<525<11",
"2223<<<:<<1;11,15115225<1115<<2:11;<;;,123:<11;12111<<:<2232:<<<",
":223<<::11;<11115:;12252<1<;3,2><1;1;;1123:<<1;12112<:<:2<23,;<<",
"1:2:<:,:11;111111::,2232<<<<:55<<<1;<111<25<<<;,1:12:,,,2,2322<<",
"1,,,,:,<<<,,1111,,:,,,<2<<<<>25<<<11;111,,5<<<111:2111,,,,2<52<<"
};
