/* XPM */
static char *_ac949944b2b4b0f864f20385e5445bclLTPu724dZVhPW4y[] = {
/* columns rows colors chars-per-pixel */
"64 64 52 1 ",
"  c #010100",
". c #573606",
"X c #7E4C03",
"o c #7E4D03",
"O c #464242",
"+ c #474242",
"@ c #464342",
"# c #474342",
"$ c #464243",
"% c #474243",
"& c #464343",
"* c #525652",
"= c #535652",
"- c #676666",
"; c #666766",
": c #FF0808",
"> c #FF0908",
", c #A66405",
"< c #A66505",
"1 c #23AA12",
"2 c #22AB12",
"3 c #22AA13",
"4 c #23AA13",
"5 c #22AB13",
"6 c #23AB13",
"7 c #348022",
"8 c #358022",
"9 c #358122",
"0 c #348023",
"q c #358023",
"w c #358123",
"e c #3DE22A",
"r c #3CE32A",
"t c #3DE32A",
"y c #3DE22B",
"u c #3CE32B",
"i c #3DE32B",
"p c #FAFE08",
"a c #FBFE08",
"s c #FBFF08",
"d c #D3B277",
"f c #94918E",
"g c #94908F",
"h c #95918F",
"j c #A8A4A4",
"k c #A9A4A4",
"l c #A8A5A4",
"z c #A8A4A5",
"x c #A9A4A5",
"c c #F2EEEE",
"v c #F2EFEE",
"b c #F3EFEF",
/* pixels */
"997700088990870047a707i9qqq97qqqq79777770000899009088q0999099900",
"3907900800e988e87a%a79i9790497q7qq9a97940090108880888i089009e008",
"0190910090e999e877a977i9449q4999q0a+a7749093090t8tt8t8000889e888",
"9309930b99e199e877y777i44977i777q49a9q79939388e0t009t0090889e808",
"0e9q49babi093e009ie499e97709e379q49e77eq03309e99t84qi9999188e999",
"10i4999bqe09ee007e993339y70i9199991e7qeqiie99iqe8849e09e9a8e9999",
"100e000eq4998t81499i777e077i091:90300iq4i99ii09i8818900ea+ae8809",
"919ee9e99488t881944e999e97q70e:%:0039e99e9010e8i884w00e93a000000",
"73798r779490e00027r77eu993303e7:0000e997eqqq1t8894qq09e83e000000",
"79e78r779409090037r8787701009u779000e797e9qq1t8894q9e9e01u090180",
"9e77877O93009+8077u77+++100093738+0e7777e9qq10e89488e0e91u999380",
"9e77++OO%0+++++++&77++++1097+++%1++07+77u9qq01e0948qt8099e999188",
"+%99&&*&&&%++++++&&+*+O@+++++%%+#++++#779q0001e9900e99009e881990",
"+++%&&++&$%+++++&+&*+=O@++++++%%++++##7739000100900e990109981e90",
"+++*++&&jfjjjfxx++++++@@++jjjjhljj%+&++791990910999e99910000e090",
"%++++++jjfjjfjjfz+++++@&+jjjlhlljjj#&&++93998801099e991e889e0800",
"++&++&+jzzzlljjjh+%%%%%+%jhjjjhljzf+$$%%01090803009097e3999e9990",
"fzjjjfjj-------jjjjjhjzfjjjxjjkxjfz++$%489180009:909e89309e30088",
"z;;jjjjjzjxxjlljjj-;;;zjjj--;;;xjjz++$748888000:+:0e88000e930090",
"jjjjjj;;----zljjhjjjlzjfjjjjxj;jjjz++774tt888800:99e8883e9038000",
"fjjfjzzjjjjjjjjjjjjjlzhzzjzhzj-jjfj&+9978t888889e90e0001e0918899",
"&+&&+++jgjjjjgjjj+++++++%xhjzjjjjjj&+e9988t888999e00991009918880",
"OO&&&++jjjjfjjgjj&+&&+++%zxxz;jjjjj&+++8098t003099e90910088100b9",
"OO&&&+++jjfjjjjj&+&+&+++%%jxj;jjjj&&++088998e00009ii001088808bab",
"+++*++&OOOOOOOOO&&OO+&&OOOOOj;jx&+++&3378010e99900009939880099b8",
"++*+++OOOOOOOOOO+&OO+&&&OOOOj-jg+&&&OO3709199e988099991888e09e98",
"&++&OO&&OOOOOO+OOOOO@@@@&&OOj-fj+++*++039010088838990a8877e00e99",
"&++&OOO&OOOO&&+OOOOO+*+@O&&+j-jj&+*+++00001080883899a+a879e08e00",
"OOOOOO&OOOOOOOOOO&OOOO++OOOOj;jjO+OO++u7010909998388ea8809e18e88",
"OOOO+O&+OOOOOO&&O&OOOO++++OOjfjj+OOO+07791990009e38e008809498e98",
"OOO&++++O&&OO++&OOOOOOO++OOOfjjj%O&O+++7109003ee918t000101190e99",
"OOO&++++OO&&++++OO@OO@+++&OOjj;j%++&&7771009919992t8001091880009",
"OO&+OOOOOO&&OOOO+&OOO&&+++jjjj-jxx$$$+$73979e9399e9q881888999997",
"&OOOO&&OOO&&OOOO++OO&&+++jjjgl-xjjj%+++477ee99379eq9001888399979",
"OOOO&OO&&O&&OOOO&OOOOO+++zhjlj-xjfj+&&+3997977390100091088399070",
"OOOOOOOO$O&@OOOOOOOOOOOO+jlhjx-jfjf+&&&+2978999993999910881e0000",
"OOOOOOOO$$*$++&OOOOO&+&O%zzl-l-jjjxO&&O77888999900399939918e9888",
"OO$$&OOO$$$*&.OOOOO.&+&O%fjj-j-jgjjOOO7777884994009:770091e80888",
"OO$$OOOO&&*&.X.<XX.X.&&%+jjj;j;jjjjOOO770809404q08:+:77993e88888",
"%%O$OOO&&*&&&.X X X.++&++jhj;jjjjgjOOO3790090019888:799793e88888",
"OO&OOOOOO=OOOOXXdXX&&OOOOlljjjjhjjj+++73e9990390099e008893e87787",
"OO&&OOOOO*@OOOXXX<X&OO&OOOlljjfjjj%+++003e09119909e90980397838v9",
"O++&O&OOO@OOOOOX.X++OO&&O@&+jjjj++++++778e0011080t9e199039983vav",
"++++O++OOOOOOOXXXXXXOO&&&+&&fj;j+%+*++77e8e89180t80e90933900eev9",
"OO+OOOO+@@@O&XX.XX.XXOOO+++&jj-l++*OO7+7e9e99300t0t499039991e999",
"O&+O$$&+@@&OXX.XXXX.XXOO+++&jj-j&&OOO77r999e030088e499199991e900",
"OOOO+O&O@@++XX..XXX.XXOO++%+hj;h&&+OOOr7970e9100qi019910009e8800",
"OO&&&OOO@++++X,,.X.,,OOO+%%+hj;z&+&&OOr7979001090e94991080e18000",
"O+++++&+&OOOO,dd,X,dd,@@@+&@jz;z++++&+770980q918t8q4901009ee3009",
"+++&OO&OOOOOO,dd,X,dd,O@@+O@lj;z+++&&+738880q998i898104000889080",
"OO+&&OOOOO&OOO,,++O,,OO@+@jjjj;fzj+++773q490q908e000199100980800",
"OO&&&&OOOOOOOOOO++OO&OOO+jjfjjfjjjj++7+78400098t90981991a9088001",
"OO&&OOOO++OOO++++++&++OO&fjjjjjjjjf&++&7848808841900000a+a008881",
"+O&+++OO&++&OO&+OO&&+++O+jfjjjjjfjj&+1&884b8008419098009a8010819",
"&OO+&OOOOOOO&@++O=OO++OO+jjjj;jjzfj&++100bsb0094949q880e19010910",
"OOO+&OOOOOO&&@+@&&O&++OO+jjjj;jjjjj&+++109b90948q494908e99100910",
"&&OOOOOOOOOOOOOOOOOOOOOO%jhjj-jhjjz&+&79994000189494q8t899100010",
"OOO*O&&OOOOOOOOO&+OOOOOO%hjjj-jljjf&+777i19080109494q8t001990019",
"O+=OO@OOOOOOOOOO++&&O&&O%zjhj-jjhjj%+7ue9e998q4000488tt8019e0190",
"++OOOOOOOOOO+OOO+&&*O&OO%+jjj;jljj&++99991e98q4880488q8t019e0100",
"+&OO+&OOOO&&++++@OO+OOOO++%+j;zl+++&%+7ee91e0009881000t8109e0100",
"+&OO+OOOO&&&++++OOOOOOOO++&+j;ll+*&+++97e099e089t80098t8990e1988",
"OOOOOO&&OO+&+&++OO++O&OOOO&&fjjf++*%7977ee888889t8088t90000e9880",
"@OOOOOO&&O&+++&+&+++O&OOO&&&jjfz+&%%%77799980988t800t800009e9888"
};
