/* XPM */
static char *eb02b3121be940bfff90273d3e47847b2IbxwwLL0DR1E01k[] = {
/* columns rows colors chars-per-pixel */
"64 64 37 1 ",
"  c #010000",
". c #464242",
"X c #474242",
"o c #464342",
"O c #474342",
"+ c #464343",
"@ c #474343",
"# c #525752",
"$ c #535752",
"% c gray40",
"& c #676666",
"* c #666667",
"= c #FF0908",
"- c #FF0909",
"; c #22AA12",
": c #22AA13",
"> c #23AA13",
", c #22AB13",
"< c #348022",
"1 c #358022",
"2 c #358023",
"3 c #3CE22A",
"4 c #3DE22A",
"5 c #3CE32A",
"6 c #3DE32A",
"7 c #3CE22B",
"8 c #3DE22B",
"9 c #FAFE08",
"0 c #94908F",
"q c #94918F",
"w c #95918F",
"e c #A8A4A4",
"r c #A9A4A4",
"t c #A8A4A5",
"y c #A8A5A5",
"u c #F2EEEE",
"i c #F3EEEE",
/* pixels */
"XXX#@@@@@@XXXX@@OOO@@oXXXXXXt0ty@@XXXXX2<<<<<<11111122<111111<<1",
"XXX#XX@XooXXXXooOXXXXXX$OXXX0t*yXX#XXX22<=<<><11><1122<111<2>>11",
"XX#XXXX@oXXXXXXXXXXOXXXOOOOO0t*tXXXXX>>2= =2<>>1<>1162116222>111",
"XXXXXXXXooXXXXXXXXXXXXOXOOOOee*e@XXXX2>>6=22<1<<1<>16111622<>111",
"XXXXXXXXXXXXXXXXXXXXXOOOOOyyyy*eerXXX2>2622>11111116<1116<<<6<<<",
"XXX@XXXXXXXXXXXXXXXXXOOO@reqey*eeweXXX:7112>181111<>11112<>>6<11",
"@XXXXXXXXXXXXXXXXOXXXOOOorreye*eeerXXX3211<;<1111<11><112><<1111",
"XXXXXXXXXXXXXXXXXXXXXOo@OrwrqeeeewrXXXX<11;111<68611><11>22=1111",
"XXXXXX#XXXXXXX@XXXXXXXOO@tetttwtee0@X>>><<22<<16<>11<><<>2= =<<<",
"XXXXXXXXXXXXXXX@$XXXXOOO@tetttteeye@XXX<<<:<<<6<>111111><<6=<<><",
"XXX@XX@XXXXXXoXXX$XXOOOO@ewt*e*e0ye@XXX<22<:<<<<><1<11><<13><<><",
"XXXXXXXXXXXXXoo@XXXo@oOO@ete*t*e0eeXXXX<:222:=<<><11<1>1<3131<<<",
"XXXXXXXXXXXXXXXXXXX@oo@@@eee*eeeyeeXXX<<:111= =<><<1<1>161<>8111",
"XXXX@XXXXXXXXXo@XXOOo@X@@@eeeeewteXXXX<<;:11:=<<><1111<8<<<>8811",
"XXX#XXXXXXoXXXXXOXXOOO@@X@@@eeyy@XXXX>><2:11<3<<>1181119111>1111",
"XXX#XXXXXX@XXXXOOOOOOO@XX@@@e*yy@@XX#X>>11<1<<<<>1<1119 91<>1111",
"XXXXXXXXXXOOXOXXXO@@oOXOOO$Or*ywXXXXoo11111122>>><11<1>9811>11>1",
"XXXXXXXXXXXXXXXXOOXXXXXXO#XOw*yyXXX$Xo1111,1>><1<<111;<1181;11>1",
"XXXXXXX#XXOOXoOXXOO@XXOXXX@@r*eeXXXXXX4<,1>122111<111;11181;6>11",
"XXX@XXX#XOOOX@XXXXXOXXX@@X@@r*qeXXXXXX41,12>221111<61111181;6>11",
"XX@@XXXXOOOOXXo@OOXOXoXXXXX+t*twXXXXoX431111><<1113<11111811<<<<",
"XXoXXXXXOOOOXXXXOXOOX@XOXXXXt*ttXXXXoo141111><1166<<11811811<<11",
"XX@@X@XXOXooXXXX@o@oXOX@@@ttt*ttrrXXo<111>111>11622<1>3811111611",
"ooX@XXXXOOX@@XXOXXOOXXOo@ttte*ttrrrXooo11,11<>112622><1811118111",
"oXXXXXXXXXOXXXXXOXXOXXOOOrwre*werweXXXX21><11><1<3<<;<;811118111",
"XX@@OXXXXXXXXXXXXXXXXXXXOreettweerwXXXX2<>11<i>1<66>111;11113111",
"oo@oXXXXXXXXXXXXXXXX@o@XXqyqtteeeeeXXX2211><i9i111<><11;11111118",
"XoooXXXXXXXXXo@XXXXXXXoXXyyyteeeqeeXX<<2<<><<i<<111><111;11;1111",
"XXX@oXXXXXXXXXXX$XXXOOXXXyee*e*eteeXXX>2111>131111111111>11>1111",
"XXXXXXXXXXXXXXX$XXXOOXXXXywy*e*eteeXXXX>111>13><11111181>11>1111",
"XXXXXXXXXXOXXX$X$XXOOXXXXwry*w*etweXXXX>>1>111<><>1111811>;11111",
"XXXXXXXXXXXXXXXXXX@oOOOXXXqyee*rteXXXX<<<><111<>>111181111;118;;",
"XXX$XXXXXXXXXXXXXXOO@XXXX@@@we*e@@XXXX22>131111>1=<<62<111><<i<<",
"XXXXXXXXXXXXXXXXXOOOoXXXXX@Xte*eX@XXXX3>>131>>1>= =<111111>1i9i1",
"XXXXXXXXXXXoXXXXX@XOOOooX@@@tw*eXX#XXXX21111>1112=2<111111>11i<1",
"XXOOOXOXXXXXXXXXOoOOOOooXX@@ttttXXX#XXX3111;1111<6<<1<>111<11811",
"XXO@XOOOXXXXXXXXOXOOXX@@@@@@ttttXXXXXXX2><18111162<<<>1111111811",
"XXOoXOOOXXXXXXXOOXXOXX@@@@oottwtXXXXXXX>111111;12><<<>1181111811",
"XXOOXXOOXXXXXXXXXOXXXXo@OOoOwetwXXXXXX>2111111;<2><<<<1111118111",
"XXOOo@OOXXXXXXXX@OXX$XO@@OOOttwtXXXXX222111<2>11<><<9<1111118111",
"XXOOXOXXoOXXXXXXoXXXXXX@@@eetttteeXXX2X<<<<<11111<>9 911;1;8;111",
"XXOXXXOO@XXXXXXXOOXXXXXo@eee*tttweeXXXX2<<>>11111<><91111;18>111",
"XX@OXXOOOXXXXXXOOOXXXXXX@ewe*t*eeee@XXX2<<<>111111><811111;>1>11",
"XXoXXo@OXXXXXX@oOOXXXXXX@tte*e*eewe@XXX>1<<<111111>8113111;>11>1",
"XXXoXXOXXXXXXoOXo@XX@XXX@0ee*t*tet0@#X>211<<><1881881111<<1;111>",
"XOX@XXXXXXXXXOOoOXXXoXXO@eee*tet0te@XXX311<>>11811111111<16;1111",
"XXXXXXXXOXXXXOOOoXXXXXXO@e0e*etttt0@XX<3111><11311111181<<161111",
"XXXXXXXXXXXXXXOOOXXXXXXX@0yeyytett0@XX<31111118>111118111<181111",
"XXXXXXXXXXXXXXX@@@XXXX@X@eqreqeewrrXXX<66<<<111>11111112<1311111",
"XXXXX$XXXXXXXXX@XXXXXXX@XXeeeeeerrXXX<><<<<<>1119;81111>113>1111",
"XXXXXX$$X@oXooX@@XXXXXoXo#@@yyyy@XXX18><11<<>119 9;11111><8>1111",
"XXXXXXXX$XXXooo@XXXXXX@##@@@ye*yXXXXX8><11<1>111911>1111><;11111",
"XXXXXXXXXXXXXXXXXXXXXX+XooX@rr%yXXXXX>><1111>11162<>2<11><>11111",
"XXXXXXXXXXXXXXXXXXXXXX@XooXXqr%yXXXX$1><1111113162<i>><;><>111>1",
"XXXX@XXX@XXXXXXXXXXXXXXXXorrey%yeeXXX$11111>131>6<i9i<1><>111<><",
"XXXXoXXX@XXXXXXXXXXXXXXXXrrrqr%rwreXX$X<111<331>21<i<<><<>111>1<",
"XXo@XXXXooXXXXXXX+XXXX@X@ttwee*teywXX6+21;111>1>1181<<i<><111><<",
"XXXXXXXXXXXX$XXXXXXXXXXX@ttt*e*ewew@XX661;11111>11811i9i><11>211",
"XXXXXXXXXXXXXXXXXXXXXXX#@wtt*e*ettt@XX>71;111611181111i<><<1>111",
"XXXXXXXXXXXXXXXX@XXXXXXX#yte*e*ettt@XX>71111611116111811><<1>111",
"XXXXXXXXXXXXXXXXXXXXXX@XXwyy*y*eeweXXXX>111181111;111811>1>><<11",
"XXXX$XXXXXXXXXXXXXXXXXX@Xe0e*tyeeeeXXX22111181111;1<1811><<1><11",
"XXXXXXXXXXXX@XXXXXXXXXX@@eeett0teeyXXX22111;;1111;11181<<>11<>11",
"XXXXXXXXXXXooX@XXXXXXXX@@@tttwetweXX<<X2811111111;11111<<>11<>11"
};
