/* XPM */
static char *_69e40f64b7842a3e162b595726a26a8ZsspStZTiQmuUXTL[] = {
/* columns rows colors chars-per-pixel */
"64 64 55 1 ",
"  c #464242",
". c #464342",
"X c #474342",
"o c #474243",
"O c #464343",
"+ c #474343",
"@ c #535652",
"# c #676666",
"$ c #676766",
"% c #676667",
"& c #FF0908",
"* c #FE0909",
"= c #22AB12",
"- c #22AA13",
"; c #22AB13",
": c #23AB13",
"> c #348122",
", c #358122",
"< c #358023",
"1 c #348123",
"2 c #358123",
"3 c #3CE32A",
"4 c #3DE32A",
"5 c #3CE32B",
"6 c #3DE32B",
"7 c #BE8E2C",
"8 c #BF8E2C",
"9 c #BF8E2D",
"0 c #BE8F2D",
"q c #BF8F2D",
"w c #FBFF08",
"e c #FBFF09",
"r c #94908E",
"t c #94918E",
"y c #94908F",
"u c #95918F",
"i c #A8A4A4",
"p c #A9A4A4",
"a c #A9A5A4",
"s c #A8A4A5",
"d c #A9A4A5",
"f c #A8A5A5",
"g c #C7C4C4",
"h c #D2CECE",
"j c #D2CFCE",
"k c #D2CECF",
"l c #D3CECF",
"z c #D2CFCF",
"x c #D3CFCF",
"c c #F2EEEE",
"v c #F6F4F4",
"b c #F7F4F4",
"n c #F6F5F4",
"m c #F7F5F4",
"M c #F7F4F5",
/* pixels */
"Mmjjjjlzzjzzzzxxlzzxxjljllzzzz0088zzllzzzzzzzzzzzllzzzzzzzzzzjnn",
"MMjjjkjlljlzzzxxzzxxjljjljzzzz0009zzzljjzzzzzzzzzzljzzzlllzzkkvv",
"MMjllkzzlljzzlxjjlzzlljzlzjlzz8889lljzlljlxzzzzzzzjljjllzjjzljvv",
"mMllzzzzzjlzzljjzzzzzjlzzzzzll8889zzjzllzjjllzzzlzljkklzkjlzllvv",
"mmzzzzzzzzzzzzjjzzzzljzlzzzlzz0800lllzzzjjjjljzllzzlzzlzjzzzjzMM",
"MMllkklzzzzzzzjlzjzzljzjjzzlzl7700jjlzzzjlxzzzzlzzzzjzzzlzzlllMM",
"mmjjkjjzzzzzljljjzzzjlzzljlzkk0077zzllzzzjzzzzjllzlzlzzzzzlljjnn",
"mmjjkjzzkkzzzzllzzzzzzzzjllzjz7708lljjjjzzzzzxjlkjzzzzjlljlljjMM",
"MMzlzlzzkjkkkjjzzzzzzzlzzzzzlzlljllzjjlkjlzzjljjxxjljjzzzzzzzzMM",
"mMzlzlzlzgkzkkzzzzzzzzjjgllkzzljlljzjlllglzzzzjljjxjjzzgljjlzzMM",
"mmjjzzjlgzzzklzlzzzzjllgkkzzzzlllzlzlljgljzzzlzzjjjzjlgzzzjjjjmm",
"mMjzljjlzzzzkzjkzzzzjjjjkkzlzzjjzzzzljjjljkkzljlljlljlzzzzlzljvm",
".mmkzzkjzzzzjlzlllzxzlzzjzkjzzzjzzzzzzzxzzljjlzjllljzzzzzzzzzMMO",
".Mvkzzkjllzljjzljjjlzjzzjzljlz0800zzzzzzzzjzljzzjjjljlzzzljllMv.",
".Mvjzzkkjjzzzzzzxxzljllzjklzll8808jlzzzzzlzzzzzzjjlzzjxxzxlllvvO",
"..MMzzjzllljkjkzzzzjzzzzzzlzjj8870lzzzzlzjzzzzzzljljxxxljxllMv.O",
"..MMjlllzjlzzzzzzzzjjzjljxjzjl0800zljzlzkkzzzzzzlzzzzkklzkkjMM..",
".O.MMlxlzzzzljzzjjzzzzzzxxjjxj0070zzlzzzjzzzjzzzlzzzljjjljkMm ..",
"OOOMMjjjjljjzlzzlllzzzzzzzzjzz0088zzzzlzjzjllzjlzzzjzzjklzzMMoOO",
"OOoOMMjjzjjzzjzzjjlzlzzzzzzkzz00q8zlzzzzzzlljjljzzzlzzjklzMM.oOO",
"O@oo.MMjzjlzjzzljjljjjjjzkjljj80q8zzzzlzzjlzxzjzzzzzzzlkjMM..o++",
"Oo@O.MMjzljllzzjlzzljjjkzlzzlj80q8zzljzlzkkzxxlzzzljljzzxMM+o+++",
"oo.@..Mmzjljzzllljlljlljlzzzll0088zzzkllzzjlxxlzzzzlzjlzMM++.o+.",
"ooOO...mMzzzzzlljjljjllljzlzll00q0lzzzljjzljxxzzzzzzzzzMM..oo++o",
"..o+o.++MMMjjjllzjzzjjzzzzzzjl00qqzzzlzjzzzzjlzzlljjjmMMXX++++.+",
"oo++O+.++Mmmjjjjjzzzjkzzkjzzljjjlzlzzzzlzzjlzzzzljjjmmm+++.+o+$+",
"o+++++++++XMmmjjzzzjjkzzzzzzzzjjzzzzjlzzllljzzzlllMMv.+.++++O+.$",
"+o++++++ooXXmmmMzzzlkkzjzzljzjjjlllzljljljllzzzjvvMMoOo.++++o.+.",
"++++++++++.oo.MMnnlllljjjljzzjjjljljlllzjjjjjjMMvMooX+++o+o+++o+",
"o..+.+..+++++o++vvMMMlkkjkjjzzxlzzzllzzzjllMMmmMOOoo++++++ooOo+.",
"o..o+..+o.+.o.++OOvvMMmmMkjjjjjlzxjjjjzMvmMMmm.o++o+++o.o++.+o++",
"++.@oo+++o++.+.+.OOO.MmmMMMmMMvMMMMMMMMMmvmoXXoO+++.+++oo++++O++",
"Xo..oo+.+.+o.o++o++++o.+.MMMMMMMmmMMMMM.oo.oo.++o++o++X+X@+++o++",
".+o++o.+.++o...++.+o.++o.+..Xo.+..oo..oX.+.o.+oo+..+++X@@X+.oo++",
"+o++++oX+++..@+@++.++.o+o+.+++.+@....+oooo+.+o+.++.+++..@+..o++X",
".o.X+++++++o+@@++++++++o++.+++@...Xoo+o.+o+o++o.o+.+.+.+oo+o+..+",
".++++.+++++o++o+++.+..+++++.o.o.++o.++++.o+o.ooo...++++X+.++oo++",
".+.++++o+.++++.o.o++o+++++++o.++.+.o++.+oo..Oo.o.o++oo++++.+++++",
".+o.++++o.o.o+o.+++.oo.+.+OO..o.++++..++..oooo.oo++..++o.+.o+oXX",
"+++.+o+o.++ooo.o+o..O.O++++ooooo.++o..+++++o++oo+.+oo+o+.+..X++X",
"+aypdpayp....Ooo++iyipptdy.X.ooo+++OppypppapOOO.+ooo..apaudyad..",
"aadyppydpd..oOoXoaydptaaypd.o.O.o..adyddyiatd..O.ooo.pspdaaadyd.",
"aydppdpdyp..OXo.+aaddaddddd.XX.....udaaadssad...++.OOadydppdppd.",
"adddpppddpppydduaaaaa$$$$dadyddpyaaayda$$$$dayypaayaday$$$$$dddd",
"$$$$$ipydspddydpsapsdsaadaddaapuadadddppddadddddaudddppaspidpddy",
"ddddadyp$$$$$$$$$$ppysydda$$$$$$%%%adaap$$$$$$$$adpdydppa$$$$$dp",
"ddptppiddiddddppsddddypaddaaayffadaadyppsssddpsppdpupppyddadpppp",
"pppiypipdd.......ddtsdapyaa.++++..Xdppuuaastd........ipppdppydd.",
"aydpuaudpp..o.ooXaaaaayaaadO++++++.atpppaauaaO.<X<o.+ssataayadd.",
".dypaaayp..2o.<..XayaaaayaOO..++<o.XppipuaaaO.22<<<o++itaaaaddO.",
"..........<222<<....OOoooo..2..<<<.X..2.>Oo+o<2226<<++O.OOoo.oOo",
".<<.X2..<<<<266<2.2<<<O<<oo<222<<<22.2225<.<<<24;:2<<<<1O<o<<<<o",
"<<<<<<22222352242<22255><<e<<:<16222<422<5223222;222:2:>22224<<<",
"4<54<<26<43222&22242225><eOe<-<<2256<422<<52322:2624:2::424>44:2",
"4<32<:<633>22&.&422:2225<<e<<:<<c2254422;22532242224::>::26c<<:>",
"3352<:<<::2222&22>2:2422<<4<<:;cwc224<<3:22532w2<2442>>:22cec<4<",
":<<4<e22::<<<255>-<;66>22262<-->c62<2222:1;11w.w422222:642<c><<<",
":44<eXe21>;<62>5>:<;222;2262;3->23<22:2&:1;122w244222:22:2<4<<;<",
"::<<<e2:1<<;;>>532::;66;2262;<:>2332:2&.&1;2;2622::2:2,,3:><6:5;",
">:::<42;<-<<6;;>>>::;6>;24<<;1::2222:44&11;2;662:22:24444:141;11",
">-<-662;4;22255;222:>:2:2222:>3:22<<:>34<<;2>:4>:26::14,61;62;22",
">1<-6>2;24;222252224>:342222:224:<<>=>42<;2<<>:>:262::1111;2;2;>",
"<<<;6>>>>>;,222522<<>1>42<>>2<24::<:2222<<44><2:2222,,6616<;>>;;",
"22<;;>6>>2;222226<<111222222<34433<:<222114<><::2222,,1111<;>>>5"
};
