/* XPM */
static char *_24309b590734ef0e9ed2550af9c9e98icxWDKB0tkjzxriJ[] = {
/* columns rows colors chars-per-pixel */
"64 64 61 1 ",
"  c #464242",
". c #474242",
"X c #464342",
"o c #474342",
"O c #464243",
"+ c #474243",
"@ c #474343",
"# c #535652",
"$ c #676766",
"% c #666667",
"& c #666767",
"* c #676767",
"= c #FF0908",
"- c #22AA12",
"; c #22AB12",
": c #23AA13",
"> c #22AB13",
", c #23AB13",
"< c #348122",
"1 c #358122",
"2 c #348023",
"3 c #358023",
"4 c #348123",
"5 c #358123",
"6 c #3CE22A",
"7 c #3DE22A",
"8 c #3CE32A",
"9 c #3DE32A",
"0 c #3DE22B",
"q c #3CE32B",
"w c #3DE32B",
"e c #BF8E2C",
"r c #BE8F2C",
"t c #BF8E2D",
"y c #BE8F2D",
"u c #FBFF08",
"i c #94908E",
"p c #94918E",
"a c #94908F",
"s c #95908F",
"d c #95918F",
"f c #A8A4A4",
"g c #A9A4A4",
"h c #A8A5A4",
"j c #A9A5A4",
"k c #A8A4A5",
"l c #A9A4A5",
"z c #C7C4C4",
"x c #C7C4C5",
"c c #D2CFCE",
"v c #D2CECF",
"b c #D3CECF",
"n c #D2CFCF",
"m c #D3CFCF",
"M c #F2EEEE",
"N c #F2EEEF",
"B c #F6F4F4",
"V c #F7F4F4",
"C c #F7F5F4",
"Z c #F6F4F5",
"A c #F7F4F5",
/* pixels */
"8555,33555555555>>1118555555,3qwwqq55555<<55555q<5555>55581::555",
">>55,3q5qq555555>51188335553,5;,q5555555q<555553q<555>555517:555",
"5>5>3:5551;;5q5:5>5513:3<q5,553,q55;5555qq,<q555q5555>85:558>555",
"55>58:585q5;:q5:58>53:33qq4,5555:q5:5555,5,<><55;qq555:8>588>5>5",
"5<>585>8qqq3;11,588>5>55=qq><5<5;;5:5585><q>,,555;;q55>5:381>>>5",
">8>855:8555,1;,5585>5>5=o=5,<qq53:5:5855>qq>,,5wq55;;555:1u155>>",
"5>55855>55,551qq5u555>5>=<,553q<3,8:1755,5<<><,<q5585:553uou188>",
"5555N558q;55511qu.u55>5><<5535qM3,:118555<qq,<,5qq5555>>33u1855>",
"581NuM55:155qq115u3qq55>855855NuM,,53w3555q5,3553=553<>>33>55888",
"5>15Nq5>;1,,q155w55qq55>5588855N55>33u33w355,55w=o=55<qqq3>55q58",
"5>qq5q3q:;5,q5q1,53w5q555585885555>5uOu3<q555q533=553qq<q5558858",
"555q55335:5,155,533w55855585551q55>53u33<qq55553w3<qq<3355555555",
".5555o5O335515,,83335o5q555.555555<<3oo25@3333@33qq<3333oo5o@55.",
".oooooooOOoo55q3553oooo5.5XXoo555oo<oooO@@OOooOO33<<3<Oooooo@@..",
"oofjfflldjooo55555o@jjgpgfff@.@5oooooofsjkjjdjO@@3@o<oogplgfgsf@",
"ogllsllsljjooo5o5@@ljpgggffpf..@ooooofflkdjjjjjOo@o@oolglsgsggsg",
"olfpfllljlfooooooo@lsfffppjll@@@@@@@oglsglllslkooo@@oojjlffpgggg",
"glffjjggigffikffljljggfffgplglljjjpjgggjglsglfjjkkjkffjjjfffsggl",
"gl%%%%%jgggsjllf&&%%$$$%glglg%%$**$$%%fjgsgslg%%%&&&%%%%jplfjflg",
"sgggfljllggljlsklljljjjjggglglfjslffffffffggggjkjjdjfjfgslg%$%%%",
"flgl$%%$&dllldkkkiigl&&&%ffplllslllsllg%%%%jkffjdllslllljfggjlll",
"oglljjjjalloooooooolljjlglffioo@@@ooolggfjjjjkfoooo@oolslflgjlsg",
"ofplggllllj@oO@@ooolpljsflaffooO@OooollpgldjkakXooO@oOjllpggsggl",
"ooflplsljjoOOO@ooooollljlsffoo@@ooOOooslplljakX@ooOOoOofplglgsgo",
"oooo@@@@@OoooO@@O@oOo@@@@oo@@@@@@oo@@@X@O@@O@OXXoOoo@@@@oo@@o@@@",
"ooOoOo@oo@oO@@o@Ooo@@@o@@o@o@O@@oOo@@@@@XX@X@@@@OOOo@OO@ooOOoOo@",
"@@ooO@@@Oooo@@OooX@@@@Oo@@@@@oooO@@@@@@@@@@O@@@@O@oO@@@@oOOo@@oO",
"@OOOOoo@@oOO@@@OOo@@OOO@@@@@Ooo@@@o@@@@@@@@@@@@X@@@oO@@@OOoO@@@@",
"@@@@@oO@@@OoOOoOOo@ooOOOX@o@@@@@o#Oo@@@@@@@@@@@@@##@OXO@OO@oo@@@",
"oo@@OoO#@@oO@@o@oO@@oOo@@XOOOo@#@oOX@@@@@X@Xo@o@#o#@@XO@oX@oO@@o",
"O@@@@@o##ooo@oO@OO@@Oo@OOoooOoo@@@XXXX@@@@@@X@@o@@@oo@@@O@@@@@o@",
"@@@@@@#o@ooo@@@@@oo@o@ooOZZZZZZZZZZZZZZO@X@@@X@@@@@@@o@@@@@@@@oo",
"@@+@@@@+@O++oOoooooooBVVVVBCBCVVZCBCCVVVBBBoooOoo@@@@@@oO@oO#o@@",
"@@@@@@@@@+oooOOoooBCBCCVVbnnnbbnccnnnbbVBBBVBCooOOo@@@oO@@OOO@@o",
"@@oOoO@@@oooO@ooBBVVBnnnbbnnnnnnmnnnccbbnnnBBBBBo@@@@@Oo@@oo@@@@",
"@@@@++@+@OOo@@VBBBbbbbnnnbnnbbnnmnnncccbncccmmBAZZ@O@@Oo@@oo@@o@",
"@@oo@@@@@O@@VVVBmbnnnnnnnncnnbbbnnnnnnnnnnbcnncnZZBVooooOOo@@@O@",
"%@oo+@@@@o@BVVbbmbnncnnnnncbnnnnbnnnnnnnbnbcbnnnmmBVZooooOo@@o@O",
"@&oo@@++@BBBnnnnnnnnccnnncncnnnnbbcnnnnnnnbncnncmbnnZVVoOOOO@@o@",
"@OOo@@@@VABmnnnnnnnnbnncbbcbnnyyeencnncnncbnnnnnmnnbbZCZOo@@@@@O",
"@@OOO@oZBbnnnbnnnbbnnnnbnmmmvmyeerccnnnbbnncbcnnnnnnnnnZA@oO@oO@",
"o@OoO@BVnccnbcnnnbnnbbbcnnmmnveeerncnnnnbnbcccnnnnnnnnnnVVoo#@@@",
"O@@o@AVmnbnnnnnnbnnbcbbcnnmnnnyyyymmnnncccbcbbnncncnnnnncAZo@#@@",
"@@@ooBVmcbcccnnnnbnnnnncnnvnmvyyyymmnnccbcbccncnnnncnnncmZVo@@#@",
"@@@OBAmmcnnbnnnnnnccnbcbvvmnmmeeyybbbnccbnvnncccnnncmvvcmmAV@oO@",
"@@@BZmmmbncnnnnnnccbnbncvmvnmmeeyybbnncnbbvcncnnnnnnmmvcmmmBVo@@",
"@@oBBnnnnnbcbbnnnnnbcbnnvvmvmmyeyenbnnnbcncccccnnnbcnnvvmmmVBo@o",
"@@BBbbbncccbbbnnnnnnccbbvmmvmmeeyennnnnbbvbvnnnnnnnnnnvvvvmmVVOO",
"oOBBbnbbbccbnbbcnnnnbcnnbbbbnnyyeeccncnnnncnbcnnnbbcvccnnnnbBBo ",
"oBVmnnnnnnccbbccnnnnncnnbbccnnyeeenbncbnnnnccbbnnnncvvnncnnnnBBo",
"OBAmcnncnnncbnbbccbnnnnncnnccnreeennnnnnnnbccnnncnbbvvbvncnnnZB ",
"@BVmnnnncnnbbnccbbbnnnnncnnncccnnnccbbnnnnnnnnnnnnnbvcvbnnbbnZB ",
"AAnnnnbcnnnccnbcbbcncnbncccbnncnnnnncncnnbbnbcnnnncbcbnnnnbcnnBB",
"AAnnbbnnczcbbcbbbnnnnnnbznbcnnccnnnnbbnczbcccccnnnbbbcbznncnnnVB",
"AVbnbncnznbccncnnnbbnnbznnncnncnnnnnbbnznncnbbnnnnnbnbznnnnnnnVA",
"AZbbnnnnnnbnncncccbbnnnbbcbbnbbnnnnnnnnnnnccnnnnnnnnnncbnnnbnnVA",
"VBnnnbnnnbbnnnccnbcbcnbcbnnnnbyyeebnnbbbnnnbbcnnbbnnnnnnnnnbcnCC",
"VBnncnnnbbccnnnncccncnbnnnnbnbeeeennnbnbnnnbcnnnnbbnnnbnbncbnnCC",
"BVnncccbbcnbnnnnccnnnbnnnnbbnneyeennbbnbnncbnncnccnnnnbbnbbnbnCC",
"BCnccbbbcbbbnnnncbbbnnnnbnbnnbyyeybnbbnncccbbcnnnnnnnnbbnnbcbnCB",
"CBbbnnbbnnncbncbnnnbcbnnbnnbnnyeyyvmbbbbcnnbnnnnnbbcnnnbncccbnBB",
"BBbbnnbbbnnnbbcnncnncbnnbbnbnneeyyvmbbvvccnnnnncnnncnnnbncccnnVV",
"VVnnnnnncnnnbnnnnnnnnnnnbcbcnneeeynnccvvbccbnnnnnnnnnnmmnnccbbVV",
"CVbbnnnnnnnncnnnbnnbnnncccbcnnyeyenccvvvbbncbbncbcbbnnnmmnccbbVZ"
};
