/* XPM */
static char *result[] = {
/* columns rows colors chars-per-pixel */
"64 64 61 1 ",
"  c black",
". c #010000",
"X c #000100",
"o c #000001",
"O c #010001",
"+ c #080600",
"@ c #090600",
"# c #080700",
"$ c #090700",
"% c #080601",
"& c #090601",
"* c #080701",
"= c #090701",
"- c #382402",
"; c #392402",
": c #382502",
"> c #392502",
", c #382403",
"< c #392403",
"1 c #382503",
"2 c #4C3004",
"3 c #4D3004",
"4 c #4C3104",
"5 c #4D3104",
"6 c #4C3005",
"7 c #4D3005",
"8 c #4C3105",
"9 c #4D3105",
"0 c #5C5A57",
"q c #805002",
"w c #815002",
"e c #805102",
"r c #815102",
"t c #805003",
"y c #815003",
"u c #805103",
"i c #815103",
"p c #F67A04",
"a c #F77A04",
"s c #F67B04",
"d c #F77B04",
"f c #F77A05",
"g c #F77B05",
"h c #837F76",
"j c #837E77",
"k c #837F77",
"l c #F6B00A",
"z c #F6B10A",
"x c #F7B10A",
"c c #F6B00B",
"v c #F7B00B",
"b c #F6B10B",
"n c #F7B10B",
"m c #F6D00A",
"M c #F7D10A",
"N c #F6D00B",
"B c #F7D00B",
"V c #F6D10B",
"C c #C8A366",
"Z c #C9A366",
"A c None",
/* pixels */
"AAAAAAAAAAAAAAAAAAAAAAAAAAAAAAAAAAAAAAAAAAAAAAAAAAAAAAAAAAAAAAAA",
"AAAAAAAAAAAAAAAAAAAAAAAAAAAAAAAAAAAAAAAAAAAAAAAAAAAAAAAAAAAAAAAA",
"AAAAAAAAAAAAAAAAAAAAAAAAAAAAAAAAAAAAAAAAAAAAAAAAAAAAAAAAAAAAAAAA",
"AAAAAAAAAAAAAAAAAAAAAAAAAAAAAAAAAAAAAAqAAAAAAAAAAAAAAAAAAAAAAAAA",
"AAAAAAAAAAAAAAAAAAAAAAAAAAAAAAAAAAAArrrAAAAAAAAAAAAAAAAAAAAAAAAA",
"AAAAAAAAAAAAeAAAAAAAAAAAAAAAAAAAAAirr5rrAAAAAiAAAAAAAAAAArAArAAA",
"AAAAAAAAAiAAAAAAAAAAAAAAAAAAAAAAAr39555rwAAAAArAAAAAAAAAAAAAAAAA",
"AAAAAAAAAAAAAAAAAAAAAAAAAAAAAAAAr5559553rAAAAArAAAAAAAAAAAAAAAAA",
"AAAAAAAAAAAAAAAAAAAAAAArAAAAAAAAr555-955rAAAAArAAAAAAAAAAAAAAAAA",
"AAAAAAAAAAAAAAAAAAAAAwAAAAAAAAAAr3557459rAAAAAAAAAAAAAAAAAAAAAAA",
"AAAAAAAAAAAAAAwAAAAAAAAAAAAAAAAre5555599rAAAAAAAAAAAAAAArrAAAAAA",
"AAAAAAAAAAAArrreAAAAAAAAAAAAAAri54551-85rAAAAAAAAArrrwAAe5rtAAAA",
"AAAAAAAAAAAAAr55wrAAAAAAAAAAAr93555->--3rAAAAAAAArq555wrr55rwAAA",
"AAAAAAAAAAAAAr3595rrurwAAAAAww55-55----4rrAAAAAArw5959553554eAAA",
"AAAArAAAAAAAArw5555558qrrAA5355-33-----55wAAAAAie545955533-5rqAA",
"AAAAArAAAAAAAAr3-5554555rwr595545--,--;45erAAArr55---5555-555rAA",
"AAAAAAAAAAAAAAr5555--:4555855554,;@@#9-535rwrw455--55--553459rAA",
"AAAAAAAAAAAAAAr554-----:-93959-:;@@@$@@-553353955-5-;-545545iAAA",
"AAAAAAAAAAAAAAr5555--;----:-----@@aad&&@-5555455-;,-5555575rrAAA",
"AAAAAAAAAAAAAAw5554--@@@@@@---+@@Xabba@@@---5,-:--;55-,55riAAAAA",
"AAAAAAAAAAAAAAAr555>--@   @@&@@@Xacbba@@   --:--;---4349rrAAAAAA",
"AAAAAAAAAAAAAAAi555--:$@o $@@g@@abbNnba@@o   %@@-:--5394rAAAAAAA",
"AAAAAAAAAAAAAAAr955----% a afa@abcNNmbaa#@@   @@=-3-555eAAAAAAAA",
"AAAAAAAAAAAAAAir555,--3*paaaza@aabNNNbba@+aaa$@@@;5-358rAAAAAAAA",
"AAAAAAAAAAAAAAr999,---@*abbbbf@@fvbNNbaa@aaba@$@@---555eAAAArAAA",
"AAAAAAAAAAAAAe755----,@@afbbcaf@@aNNcba@@abbaf@@=3-5545eAAAAAAAA",
"AAAAAAAAAAAAAr555,;--;@@@abBbbaa@apana+@pabbcp@+$:-5554eAAAAAAAA",
"AAAAAAAAAAAir935----:@@=@dbNMbzfpO aap*aabbNbaa@+-:55-5yAAAAAAAA",
"AAAAAAAAAwrr955;--3--&@ apbmmzbba@ +@@osbBmNbxs$@4:5335rrAAAAAAA",
"AAAAAAAri595555-9->-@@@aabNNmmbda@.a OdabNNmNbaa@@;-4955rriAAAAA",
"AAAAAArr595555--;,--@@@pbbBNNNza@@da@@aacbNNNnba+@---955435irAAA",
"AAAAArr4554-52-----4@@@acbNVVbba$@pa+@+albNNNbba@@-,---55555rAAA",
"AAAAAAr5555355------$&@aaaNNVbaa@abbaa@aabNmbbda&@@-;4-54955wAAA",
"AAAAAAAei584535;:;--@@@$aaafap@o@pbNnpa paaaad@@@@@<9--3-99rwAAA",
"AAAAAAAArrr355455---;$@$    .o@ acbNcbf@@@ @@@&@@+----4958rAAAAA",
"AAAAAAAAAAArr55,55--:-@@@     =aabNNbxf$+@@@@@&$@---549329rAAAAA",
"AAAAAAAAAAAAwr3535:;;;:$+ =.  @dabVNNa@@@@@-7-,---;535539rAAAAAA",
"AAAAAAAAAAAAArr55335--1,ZCZ.o $XabNNa$@@@-1-;---35585545rrAAAAAA",
"AAAAAAAAAAAAAAr29552--CZ@@@@  @  aadO@@&-3-,-955555wr39eeAAAAAAA",
"AAAAAAAAAAAAAArr555ZZZ-9,-@$ @&@. .  @:--;-555457irAererAAAAAAAA",
"AAAAAAAAAAAAAAArZZZ535--;-@@ @@@ . $--<--5555555wrAAAAAAAAAAAAAA",
"AAAAAAAAAAAAAAAZr555455;----,-4@@$--3----955547rAAAAAAAAAAAAAAAA",
"AAAAAAAAAAAAAAZAAirr955---,-------:---9--555wrrAAAAAAAAAAAAAAAAA",
"AAAAAAAAAAAAAZAAAAr5599--;---------:,---5357rAAAAAAAAAAAAAAAAAAA",
"AAAAAAAAAAArZAAAAAr5544-,--:--5557-;-:-;-555rrAAAAAAAAAArAAAAAAA",
"kkkhAAAAAArrrAAAAir45553-:-525593555,6-:,5554rrAAAAAAAAAAAAAAAAA",
"k00kkAAAAAAeAAAAAe52593>,--355555355:--,--5555eeAAAAAAAAAAAAAAAA",
"k000kkAAAAAAAAAAr955558--;554rrrr55-59----55925rAAAAAAAAAAAAAAAA",
"jk000kkAAAAAAAAre554955--545erAAyr45555----49545rAAAAAAAAAAAAAAA",
"Akk00kAAAAAAAAAr555555553555rAAAAAr53554-:555555rAAAAArAAAAAAAAA",
"AAkkkr5AAAAAAAAr5345-5595955eAAAAArr554555434355rAAAAqAAAAAAAAAA",
"AAAhA5r4AAAAAAAAr95954355555rAAAAAArr33553498545rAAAAAAAAAAAAAAA",
"AAAAAA5r5AAAAAAAir5-5555555wAAAAAAAAi55555,535-rAAAAAAAAAAAAAAAA",
"AAAAAAA5q5AAAAAAAw5555559rirAAAAAAAAq5595955555wAAAAAAAAAAAAAAAA",
"AAAAAAAA5r5AAAAAAe55535uerAAAAAAAAAAir55545545iAAAAAAAAAAAAAAAAA",
"AAAAAAAAA9r5AAAAAAw59rrAAAAAAAAAAAAAAir555553ruAAAAAAAAAAAAAAAAA",
"AAAAAAAAAA5r5AAAAAwrrrAAAAAAAAAAAAAAAAree955reAAAAAAAAAAAAAAAAAA",
"AAAAAAAAAAA5r5AAAAAAAAAAAAAAAAAAAAAAAAAArwrirAAAAAAAAAAArAAAAAAA",
"AAAAAAAAAAAA5r5AAAAAAAAAAAAAAAAAAAAAAAAAAArAAAAAAAAAAAAAAAAAAAAA",
"AAAAAAAAAAAAA9r5AAAAAAAAAAAAAAAAAAAAAAAAAAAAAAAAAAAAAArAAAAAAAAA",
"AAAAAAAAAAAAAA5rAAAAAAAAAAAAAAAAAAAAAAAAAAAAAAAAAAAAAAAAAAAAAAAA",
"AAAAAAAAAAAAAAAAAAAAAAAAAAAAAAAAAAAAAAAAAAAAAAAAAAAAAAAAAAAAAAAA",
"AAAAAAAAAAAAAAAAAAAAAAAAAAAAAAAAAAAAAAAAAAAAAAAAAAAAAAAAAAAAAAAA",
"AAAAAAAAAAAAAAAAAAAAAAAAAAAAAAAAAAAAAAAAAAAAAAAAAAAAAAAAAAAAAAAA"
};
