/* XPM */
static char *result[] = {
/* columns rows colors chars-per-pixel */
"64 64 62 1 ",
"  c black",
". c #010000",
"X c #000100",
"o c #000001",
"O c #010001",
"+ c #080600",
"@ c #090600",
"# c #080700",
"$ c #090700",
"% c #080601",
"& c #090601",
"* c #090701",
"= c #382402",
"- c #392402",
"; c #382502",
": c #392502",
"> c #382403",
", c #392403",
"< c #382503",
"1 c #4C3004",
"2 c #4D3004",
"3 c #4C3104",
"4 c #4D3104",
"5 c #4C3005",
"6 c #4D3005",
"7 c #4C3105",
"8 c #4D3105",
"9 c #5C5A57",
"0 c #5D5A57",
"q c #805002",
"w c #815002",
"e c #805102",
"r c #815102",
"t c #805003",
"y c #815003",
"u c #805103",
"i c #815103",
"p c #F67A04",
"a c #F77A04",
"s c #F77B04",
"d c #F67A05",
"f c #F77A05",
"g c #837F76",
"h c #837E77",
"j c #837F77",
"k c #F7B00A",
"l c #F6B10A",
"z c #F7B10A",
"x c #F6B00B",
"c c #F7B00B",
"v c #F6B10B",
"b c #F7B10B",
"n c #F6D00A",
"m c #F7D00A",
"M c #F6D10A",
"N c #F6D00B",
"B c #F7D00B",
"V c #F6D10B",
"C c #F7D10B",
"Z c #C8A366",
"A c #C9A366",
"S c None",
/* pixels */
"SSSSSSSSSSSSSSSSSSSSSSSSSSSSSSSSSSSSSSSSSSSSSSSSSSSSSSSSSSSSSSSS",
"SSSSSSSSSSSSSSSSSSSSSSSSSSSSSSSSSSSSSSSSSSSSSSSSSSSSSSSSSSSSSSSS",
"SSSSSSSSSSSSSSSSSSSSSSSSSSSSSSSSSSSSSSSSSSSSSSSSSSSSSSSSSSSSSSSS",
"SSSSSSSSSSSSSSSSSSSSSSSSSSSSSSSSSSSSSStSSSSSSSSSSSSSSSSSSSSSSSSS",
"SSSSSSSSSSSSSSSSSSSSSSSSSSSSSSSSSSSSrrwSSSSSSSSSSSSSSSSSSSSSSSSS",
"SSSSSSSSSSSSeSSSSSSSSSSSSSSSSSSSSSirr4rrSSSSSiSSSSSSSSSSSrSSrSSS",
"SSSSSSSSSiSSSSSSSSSSSSSSSSSSSSSSSr28444iwSSSSSrSSSSSSSSSSSSSSSSS",
"SSSSSSSSSSSSSSSSSSSSSSSSSSSSSSSSr4448442rSSSSSrSSSSSSSSSSSSSSSSS",
"SSSSSSSSSSSSSSSSSSSSSSSrSSSSSSSSi444=844rSSSSSeSSSSSSSSSSSSSSSSS",
"SSSSSSSSSSSSSSSSSSSSSwSSSSSSSSSSr2446348rSSSSSSSSSSSSSSSSSSSSSSS",
"SSSSSSSSSSSSSSwSSSSSSSSSSSSSSSSre4444484rSSSSSSSSSSSSSSSrrSSSSSS",
"SSSSSSSSSSSSrrreSSSSSSSSSSSSSSii4344<=73rSSSSSSSSSrrrqSSe4rtSSSS",
"SSSSSSSSSSSSSr44wrSSSSSSSSSSSr82444=:==2rSSSSSSSSrq444wrr24rwSSS",
"SSSSSSSSSSSSSr2474rrurwSSSSSww48=44====3ruSSSSSSrr4848442443eSSS",
"SSSSrSSSSSSSSrw4444447qriSS4244=22=====44wSSSSSie424843462=8rqSS",
"SSSSSrSSSSSSSSr2=4443444ryr484433==>=a-34urSSSre44=;=4444=444rSS",
"SSSSSSSSSSSSSSr4444==;324474a443>-@@ava424rwrr344;=44==442338rSS",
"SSSSSSSSSSSSSSr443=====;=82aa8=;-@@avvf=442244844=4=-=434434iSSS",
"SSSSSSSSSSSSSSr4244==-=>==faaa==@@aavvva=3444444=->=4444464rrSSS",
"SSSSSSSSSSSSSSw4443==@@@+asvvaa@@aaxvvva@===4>=;==-44=>83ruSSSSS",
"SSSSSSSSSSSSSSSr444:>=@ aavvvaa@aaxvxvvvao =p<=;-===3238rrSSSSSS",
"SSSSSSSSSSSSSSSr444==;$aavvvvvvaabbCbvvvao pp%@@=;==4283rSSSSSSS",
"SSSSSSSSSSSSSSSr844====avvvvvvvvasNNnvvvvapzzp@@*=2-444eSSSSSSSS",
"SSSSSSSSSSSSSSyr441>==2axvbvvvvvvavNNvvvvpzzzp$@@-4=247rSSSSSSSS",
"SSSSSSSSSSSSSSr888====aavvvnNvvvvcNNNnvvapzbzzpp@===448eSSSSrSSS",
"SSSSSSSSSSSSSe644====>avvvvnnvvvvsNNNNvpzzzvzzzzp2;3434eSSSSSSSS",
"SSSSSSSSSSSSSr444<->=avvvvnnnnvvvaNaNvvpzzvvxzzzp;=4343qSSSSSSSS",
"SSSSSSSSSSSir824=>=;;avbvnnnnnnvvvavapapzzvNvzzzzp=44=4ySSSSSSSS",
"SSSSSSSSSwrr844-==2==&avvnnnnmnnvavvavvzzmMNvzzzzp;4214irSSSSSSS",
"SSSSSSSri882444=8=:=@@@avnnNnnnnvaxxabvxvNnnnNzlkzp=3844rriSSSSS",
"SSSSSSrw484424==->==@@@pvnnNNNnnvaxxxavvxNNNNNvzzzp>=844724irSSS",
"SSSSSrr3443=41====>3@@@annnnnnnvapxxxxfNNBNNNNbzzp=>===44444rSSS",
"SSSSSSr4444444======$&@aanVNVnnaaxxxxxaNNNnNNNbzpp@=-3>41844wSSS",
"SSSSSSSei473424-;-==@@@$aaaaap@axxvnbxxapaNNNpppp@@,8==6=88rwSSS",
"SSSSSSSSrrr244344===-#@@ . X.o@axxvNxxxa@@ppd@&&@+====3847rSSSSS",
"SSSSSSSSSSSrr34>42=>;-$@@ X   axxvNNvzaa+@@@&@&$@===438218rSSSSS",
"SSSSSSSSSSSSqw2424:--=;$+ *.  @sxvVNNaa@@@$=6=>>==-421828rSSSSSS",
"SSSSSSSSSSSSSwr44264==<,AZA o $XavNNaa@@@=<=:==;24438434rrSSSSSS",
"SSSSSSSSSSSSSSe18441==ZA@@@@  @  aasO@@@-2=>=848444wi28eeSSSSSSS",
"SSSSSSSSSSSSSSrr444AAA=8>=@$ $&@. .  @;==-=484345irSererSSSSSSSS",
"SSSSSSSSSSSSSSSrAAA424>=-=@@ @@@ . $==,==8444444wrSSSSSSSSSSSSSS",
"SSSSSSSSSSSSSSSAr444344-====>=3@@$==2====844436rSSSSSSSSSSSSSSSS",
"SSSSSSSSSSSSSSASSirr844===>=======;>==8==444wrrSSSSSSSSSSSSSSSSS",
"SSSSSSSSSSSSSASSSSr4488==-===:=====;>-==4446rSSSSSSSSSSSSSSSSSSS",
"SSSSSSSSSSSrASSSSSw4433=>=;;-=4446=-;==-=448rrSSSSSSSSSSrSSSSSSS",
"jjjgSSSSSSrrrSSSSir34422=;=314282844>6=;>4443rrSSSSSSSSSSSSSSSSS",
"j90jjSSSSSSeSSSSSe41482:>==144444248;==>==4444eeSSSSSSSSSSSSSSSS",
"j999jjSSSSSSSSSSr644445-=-441rrrr44=48==;=44814rSSSSSSSSSSSSSSSS",
"hj999jjSSSSSSSSre343844==432erSSyr14344====38434rSSSSSSSSSSSSSSS",
"Sjj99jSSSSSSSSSr448444442444rSSSSSr41443=;344444iSSSSSrSSSSSSSSS",
"SSjgjr4SSSSSSSSr4273=4444844eSSSSSrr447444321244rSSSSqSSSSSSSSSS",
"SSSgS4r4SSSSSSSSr84831244444eSSSSSSir62242388434rSSSSSSSSSSSSSSS",
"SSSSSS4r4SSSSSSSir4=4444434wSSSSSSSSr44444>424=iSSSSSSSSSSSSSSSS",
"SSSSSSS4q4SSSSSSSr4444448eirSSSSSSSSq4483844444wSSSSSSSSSSSSSSSS",
"SSSSSSSS4r4SSSSSSe84444uerSSSSSSSSSSir43434833uSSSSSSSSSSSSSSSSS",
"SSSSSSSSS8r4SSSSSSw48rrSSSSSSSSSSSSSSrr444441euSSSSSSSSSSSSSSSSS",
"SSSSSSSSSS4r4SSSSSwrrrSSSSSSSSSSSSSSSSwee844reSSSSSSSSSSSSSSSSSS",
"SSSSSSSSSSS4r4SSSSSSSSSSSSSSSSSSSSSSSSSSrwrirSSSSSSSSSSSrSSSSSSS",
"SSSSSSSSSSSS2r4SSSSSSSSSSSSSSSSSSSSSSSSSSSrSSSSSSSSSSSSSSSSSSSSS",
"SSSSSSSSSSSSS4e4SSSSSSSSSSSSSSSSSSSSSSSSSSSSSSSSSSSSSSrSSSSSSSSS",
"SSSSSSSSSSSSSS4rSSSSSSSSSSSSSSSSSSSSSSSSSSSSSSSSSSSSSSSSSSSSSSSS",
"SSSSSSSSSSSSSSSSSSSSSSSSSSSSSSSSSSSSSSSSSSSSSSSSSSSSSSSSSSSSSSSS",
"SSSSSSSSSSSSSSSSSSSSSSSSSSSSSSSSSSSSSSSSSSSSSSSSSSSSSSSSSSSSSSSS",
"SSSSSSSSSSSSSSSSSSSSSSSSSSSSSSSSSSSSSSSSSSSSSSSSSSSSSSSSSSSSSSSS"
};
