/* XPM */
static char *ecb2023743a84fd0b38b67b62730142beXLqxv7joaVosbXx[] = {
/* columns rows colors chars-per-pixel */
"64 64 102 2 ",
"   c #000001",
".  c #000101",
"X  c #030100",
"o  c #020001",
"O  c #030001",
"+  c #020101",
"@  c #030101",
"#  c #022808",
"$  c #022908",
"%  c #022909",
"&  c #032909",
"*  c #302101",
"=  c #382704",
"-  c #392704",
";  c #382705",
":  c #4A1D10",
">  c #4B1D10",
",  c #4B1C11",
"<  c #4B1D11",
"1  c #630203",
"2  c #620303",
"3  c #630303",
"4  c #690A0A",
"5  c #690A0B",
"6  c #781716",
"7  c #781617",
"8  c #781717",
"9  c #791717",
"0  c #422D02",
"q  c #432D02",
"w  c #543802",
"e  c #543803",
"r  c #553803",
"t  c #543903",
"y  c #553903",
"u  c #604202",
"i  c #614302",
"p  c #474242",
"a  c #464342",
"s  c #474342",
"d  c #464243",
"f  c #474243",
"g  c #464343",
"h  c #474343",
"j  c #545352",
"k  c #545253",
"l  c #545353",
"z  c #535652",
"x  c #535752",
"c  c #535753",
"v  c #666767",
"b  c #676767",
"n  c #787474",
"m  c #7C7474",
"M  c #7D7474",
"N  c #7C7574",
"B  c #7D7575",
"V  c #832E2E",
"C  c #822F2E",
"Z  c #822F2F",
"A  c #832F2F",
"S  c #944028",
"D  c #954028",
"F  c #954128",
"G  c #944129",
"H  c #B66149",
"J  c #B26756",
"K  c #B26757",
"L  c #B69000",
"P  c #B79100",
"I  c #BF8E2C",
"U  c #BE8F2C",
"Y  c #BF8F2C",
"T  c #BF8E2D",
"R  c #FFCB00",
"E  c #FECA01",
"W  c #C49D70",
"Q  c #C59D71",
"!  c #CEA77C",
"~  c #CFA77D",
"^  c #828180",
"/  c #838180",
"(  c #828181",
")  c #838181",
"_  c #DAA297",
"`  c #D2CECE",
"'  c #D3CFCE",
"]  c #D3CECF",
"[  c #D2CFCF",
"{  c #D3CFCF",
"}  c #F6EEEE",
"|  c #F7EEEE",
" . c #F7EFEE",
".. c #F6EEEF",
"X. c #F7EEEF",
"o. c #F6EFEF",
"O. c #F6F4F4",
"+. c #F7F4F4",
"@. c #F6F5F4",
"#. c #F7F5F4",
"$. c #F7F4F5",
"%. c #F6F5F5",
/* pixels */
"+.+.+.+.O.+.` ` ' ` { ` { { { { { ` { ` { { ' ` ` ` ` ` ' ' I I I I { ` [ ` { { ` ' ` ` ` ` { ' ' ` { { ` ` ` ` ` `  . ..... ...",
"+.+.+.+.O.O.` ` ' ' ` ' { ` { { { { { { ' ` ' ` ` ` { [ ' ` I I U U { ` { [ { [ ` ` ` ` ' ' ` ` ` { { { ` ` ` ` ` ` +.+..... ...",
"g g g g p p +.+.+.+. .+. .O.` ' ` { ' ` ` ' ' { ` { { ` ` ` ' ' ` ` ` ` { ` { [ ' ` ` ` ` ` ` ' { { +.+.+.+.$. . . .g g g g g g ",
"g g g g g g +.+. .O.+.+.O.O.{ { ' ' ` ` ` { ` ` { { [ ` ` ` ` ` ` ` ` { ' ` ` [ ` ` ` ` ' ' ` ' ` { +.+.+.$.$.$.+.+.g g j p p p ",
"g g p p g p p g g p g g g g +.+.+.+.+.+.+.+.O.O.O.o. . . ...} }  .} } o.O.o.} }  . . ...o. . . .o. .p p p g g p p g p z g p p g ",
"g g g g p p p g p p p a g g +.+.+.+.+.+. .+.O.O.+.+. . ... .}  . .o.o.o.o.o.} o. . . ...o. . . .....p g g p p p z z a g g p p p ",
"g p a g p p p p g p p a a a g g p p g p g g g p h h h g g g d g g p a a p p g p g p g d g g g g g g p g p g p p g g p g g g p p ",
"g p g p p p p g p a g p g p p g p p g p g p g g a h h p x x x g p p p p p p p p p g d g g g g h g p g p p p g g a p g p p p p p ",
"g p g p p g g p p g p p g g p g h a a o o o g g g p a p p p a a p p o o h h g g o o o g h h h h o o o h h p p g p a p g p p h h ",
"p g p g p p z p p p a p g p p p h o o 6 6 6 o o p a a g a p g a p a o o o h g o 6 2 2 o o h h o 6 6 6 o h p p h p g p p p p g h ",
"p p p g p x g g p g p a g p p g o 8 7 6 7 8 8 6 o h g g p g h a h g o o 7 o o 3 8 6 7 7 3 o o 7 6 8 6 3 o h p h g g p p p p g g ",
"p g g p g g p a p a p a p p g o 8 8 8 6 7 8 8 8 6 o o o o o h h g h o o 7 3 3 3 8 6 6 6 3 3 8 7 8 8 3 3 3 o g h p p p p g g p g ",
"g g g g g p g p a a a a g g o 7 6 6 7 6 7 7 6 6 4 4 4 4 4 4 o h p p o o 6 P P P R 8 E R P P 7 E R P P P 3 o p h g g p g p p p p ",
"p p g p p p p p g p g a p o / o 6 8 6 6 8 7 6 o o o o o o o o o s p o o 3 P 3 8 8 8 E 8 3 3 7 8 8 P 3 3 3 o p p g p p p g p p p ",
"p p g p p p p p p g a a g o n o 5 8 8 7 8 8 o _ o ! o g p p p a p a o @ 3 P 3 6 8 6 E 8 P P E 7 3 P 3 3 3 o p p p g p g h p g p ",
"p g p p p p g p p g p g g g o n o 5 4 5 5 o ! W W ! ! o p p g p h p o o 3 P 3 6 8 8 R 6 3 P 7 7 2 P 3 3 3 o p g p p g x x p g g ",
"p p p p p g p p g p g a p o / ^ n o o o o o ! ! ! ! ! J o g g p g g o o 7 P P P E 8 E P P P 8 6 8 L 3 3 3 o g h h g p a p p h h ",
"g p p g g p p g p p p p a h o / ^ / n o ! ! ! ! v o J J o g p p s g @ o 6 3 3 3 7 6 7 3 3 3 8 6 8 7 3 3 3 o p h p g s a p p a p ",
"p g g p g p p g a p p p g g o o ^ o / n o o ! k v v o o g g g a h s o o 6 3 3 3 6 8 7 6 3 3 8 8 6 8 7 3 3 o p p g g p h p p g g ",
"g p p g p g p p p p a g g o w o o o ^ ^ / o k v v v v v o g p a h h o o 6 3 3 3 o o o 3 3 3 6 3 o o o 3 3 o g p p p p p g p g p ",
"g p g g g p g p a a h h o y w y t t o / o k v v v v v j o p g p h h o o o 2 3 o h g p o @ 3 3 @ g g p o 3 o g p p p p p g p p a ",
"g g g p p p g p h h a o y w w y t t t o t o l v v j v o h g h a h g o o g o o g p f h s s @ @ s g g p g o g p p p g g p p g p g ",
"p p p g p p p p h h o t w t y y o o o t t t o x x o o p a a z p s s o o p p g h g h f g s s s s g g p p p p h g p g p p p p g p ",
"p p p g g p g p h h o t t t y @ i u t o t t t o o g g g g g a p x s o o p p g h p x p h s s s s g g g p p p h g p p p g p g g p ",
"p g g j p p g p p o y y t t t y t t t t t t t o g g g g p p p p h h @ o s s p p f f f h h h s X . . . . @ @ X X p f g g g g g g ",
"p p p g z z p g p o y y t t i i t t t t t o t t o g g g p h a a g g o o s s p p f f . O o o X s ( g B g ) s F F o o o o o g p p ",
"g g p p p p g p g o w w t t i t t t t t t t o t y o p p a h a h p p o o p g h h f . % . / h N A G g K g K j A F / g N o $ o p p ",
"p g g g p p g g g o w w t t t t t t t t t t t o y o p p h a a h p o o o o g h h . % . g N h N , < G F F F F , p B g / g o $ o a ",
"g p p g g p p p g o t t t t o t t t t t e y w t o o h h h g h o @ Q W W W o g g . % . g ) A K A ( G G < : : B C N C n g o # o g ",
"p g g p p p p g h o w w t t o t t t t t w w y y y o h g o o o t @ W W ~ ~ o p g @ % . A K h ( G G 8 ( 8 / 7 G G / C N C o $ o g ",
"p p p p g p p p h o y y t t t o t y t t t t t y y w o o y w w t o W W W W o g p g @ % @ ( A ( < Z G H G G G G : / C / o $ o g g ",
"g g g p p p p p h o y y t t t t t t t t t t t t y y w w y y w t @ W W ! ! o g g l @ % % @ @ @ Z ( < G < : : / C o o o $ $ o p g ",
"g p p g g p p g s @ t t t t t t t t y t t t t t t t t t y e y e @ @ o @ o g g s p o $ $ $ $ # o o @ o o o @ o o $ $ # # # o g g ",
"p p p a g p g p h @ t t y t t t t w y t t t t t t t t t y y e y @ f @ o g g g h p g o $ # # # % # # $ % & & & $ $ $ # % @ s h g ",
"a p p a g p a g h o t t t t t t t t t t t t t t t t w t y y y y @ f o @ h h g p g p o # # # # # # # $ $ # & # # $ % $ # o g h h ",
"p p p p p p a p s o y t t t t t t t t t t t o i i i w w w w u o f h @ o g p p p g g g o % # % % # # # # # % & % % $ # o g g g h ",
"p p p g p p a h h o y y t t t t t y w t t t t o o i i t u o o g p g o o g p p p p p g p o % % % # # & # & & % % $ $ o a g p p a ",
"g g g p p p p a g @ y y t t t t y o i i t t t t i o o o o g g g h g o o g p p p p p g g h o o o # # # # # % % o o o g a p z p a ",
"p p p p p a p h h o y y t t t t t t o o o t t t i o h h g g h h g p o o g p a g g p g g g g o / @ @ o o o @ o ) o g h p h h z p ",
"g g g p p p a h h o y y t t t t t t t t t t t w w o a h g g g h p p o o p p a p g g g g g g o ^ @ h o / o g o ) o g p p a p p p ",
"p p p g g p p p a o w w t t t t t t t t t t t t t @ h g g g j h s h o o p p p a g g p g a a o ^ O . . / . . . ^ o g a a g g g p ",
"p g p g g p g p h o w w t t t t t t t t t t t t t i o h g p g j p h o o g a p h p p p p a a o / O ( O ) O ( . ^ o g a a g g g p ",
"g g g g g p p p h o y t t t t t y y y t t t t t t u o g g p p p h h o @ p a z p a p p a a a o / . O . ) . O o / o g g p p p p g ",
"p p p p g p p p h o y t t t t t y y w t t t t t t t t o p g g p h h o o a p p p a z a p h o / o h f O ) . f h o / o g g p p p g ",
"p g g g g p p p h o t t t t t t y y t t t t t t e e u o g p a p h a o o s s a p a p p p p o / o . . O ) o o o o / o g p g p p p ",
"p p p h g p p g h o t t t t t t y t y t t t t t w w u o p p g g h a o @ h h h p p g g g h o / o ) ( . / o / / o / o p p g p p g ",
"p g p j p p p g h o i t t t t t y y t t t y t t w w i o p p a a h p o o h h a a g g p p h o / o O . O / o o o o / o p g p p p p ",
"p p p g g p g g h o i i t w t t w y t t y t t t y y i o a p p g a a o o h h p a p a g p h o ^ o ) O . ( o o / o / o g p p p g p ",
"g p g p p p p g g g o u y y y y t t t t t y t t t t t @ g g p a s s o o p p p p p p a a o o o g . ( . ) o / o h o o o h a a a a ",
"p p j p p g p h p p g o i y y y t t t t t t t t i @ @ h h s p p h s o o g g p p g a a a o g o g f O o ) o o h h o h o a a a g a ",
"p g g p p p p p p p p o o i i y t t t t t t i o o p h h p p g h g s o o p g p g g p g p o g o g h h o / o h p g o h o a p p g p ",
"p g g h p p g p g p o = ; o o w i i t t i O O h g g g h g p p p h s o o p p p g p p g g o o g g g h O . o p g a h o o h p p g p ",
"p g g s s s p g h h o * ; ; ; o O O O O o = 0 o o g p p g g p p g p o o p p p p p a a p h g g g g g o g o g z a d g p p g p g p ",
"p g h p h g p g a h h o * * * o ; - = = * = 0 = q o p p g p p p p z o o g g p p p p g g h h g g g g o g o p p z j g g p g p g p ",
"g p f f g p p g g p h h o o o o * = = = = = = = q = o p p p g g h h x s g g g p p z g g h h f p g g o o o g p g g p p p p p p g ",
"p p s x p g g p g p h h h h h o * * = * ; = * = = = o g g g p h g h h h p p g g p g p z h h h g g g g p g g g p p p p p g g g p ",
"p g p g z g a g g g g p p g g p o o o o o o o o o o h h g g p g g p h a a a a a h h h h h a g p g g g g g g p g p p p p p p g p ",
"g p g g p g a h p p p p g p p g h h h h h h h h h h h h g g p g p p h h a p a a h h h h a a g h g g p g p p g g g g g g g g g g ",
"g p p a g g h a p g p p p g O.O.$.+.@.@.O.+.+.O.O.O.+.+.O.+.O.O.+.+.+.+.+.$.O.O.O.+.O.O.O.O.O.+.+.+.p p p g p p p p g p p p p p ",
"p g p g p p h h g g p p a g O.O.@.@.@.@.O.O.+.+.O.O.+.+.O.O.O.O.+.+.+.+.$.$.+.O.O.O.O.O.O.O.O.+.+.+.g p p g g h p g p p p g g g ",
"g p p g a a O.O.+.+.+.O.O.+.` ` { { ` ` { { ` { { ' ` { { { { ` ` ` ` { ` ` ` { [ ` ` ` ` { { ` ` ` +.+.O.O.O.O.+.+.p p p p p a ",
"p p g p a h O.O.+.O.+.O.O.+.` ` ` ` ` ` ` { ` { { { ' ` ` { { { { { { { ` ` { { ` { ` ` { { { { ` ` +.+.O.O.O.O.+.+.h p p p p g ",
"+.+.+.+.O.O.{ { { { { ` { ' ' ' ` { ` { ` ` ` ` ` ` ' ' ` ` ` Y U Y I ` ` { { ` { { ' ' ` { { ` ` ` ` ` [ [ { { { { O.+.+.+.O.O.",
"+.+.+.+.O.@.{ { { { { ` ` ' ' ` ` ' ' { { ` ` ` ` { ` ` { { ` Y U U I ` ` { ` ` ` ' ' ' { { ` ` ' ` ` ` [ { { { { ` +.+.+.O.O.O."
};
