/* XPM */
static char *result[] = {
/* columns rows colors chars-per-pixel */
"64 64 41 1 ",
"  c black",
". c #010000",
"X c #000100",
"o c #010100",
"O c #000001",
"+ c #010001",
"@ c #000101",
"# c #010101",
"$ c #2A2C3E",
"% c #2B2C3E",
"& c #2A2D3E",
"* c #2B2D3E",
"= c #2A2C3F",
"- c #2B2C3F",
"; c #2B2D3F",
": c #31324C",
"> c #31324D",
", c #AA0000",
"< c #AB0000",
"1 c #AA0001",
"2 c #D89852",
"3 c #D89952",
"4 c #D89853",
"5 c #D89953",
"6 c #D99953",
"7 c gray76",
"8 c #C3C2C2",
"9 c #C2C3C2",
"0 c #C3C3C2",
"q c #C2C2C3",
"w c #C3C2C3",
"e c #C3C3C3",
"r c gray84",
"t c #D7D6D6",
"y c #D6D7D6",
"u c #D7D7D6",
"i c #D6D6D7",
"p c #D7D6D7",
"a c #D6D7D7",
"s c #F6F2F2",
"d c None",
/* pixels */
"dddddddddddddddddddddddddddddddddddddddddddddddddddddddddddddddd",
"dddddddddddddddddddddddddddddddddddddddddddddddddddddddddddddddd",
"dddddddddddddddddddddddddddddddddddddddddddddddddddddddddddddddd",
"dddddddddddddddddddddddddddddd   O ..#dddddddddddddddddddddddddd",
"dddddddddddddddddddddddddddd  %*#-%%*$   ddddddddddddddddddddddd",
"dddddddddddddddddddddddddddO%%-%%XX%%%%%%OX  + @ ddddddddddddddd",
"ddddddddddddddddddddddddddO%%$%%%,s+%%-%%%%%%%$*%+dddddddddddddd",
"ddddddddddddddddddddddddd $%%%%%*,,%*%%;%%*%%-%%>.dddddddddddddd",
"ddddddddddddddddddddddddd -->%%-*-*%%%-%%%-%%%>  ddddddddddddddd",
"dddddddddddddddddddddddd %%%%%%%$-%-%%%%%*>>o .ddddddddddddddddd",
"ddddddddddddddddddddddddO%%%*%%$%%-%->;--OX dddddddddddddddddddd",
"ddddddddddddddddddddddd %;%-%*&%*>-=-%%% ddddddddddddddddddddddd",
"ddddddddddddddddddddddd $%%%%-%%%--%%%* dddddddddddddddddddddddd",
"dddddddddddddddddddddddX%%%%-%%%%-%*%> ddddddddddddddddddddddddd",
"ddddddddddddddddddddddd.%%%%*-%%%;%%> dddddddddddddddddddddddddd",
"dddddddddddddddddddddddX%%%%%%-----% ddddddddddddddddddddddddddd",
"ddddddddddddddddddddddd *%%%%%%%%%% dddddddddddddddddddddddddddd",
"ddddddddddddddddddddddd -%%-%-%%%%% dddddddddddddddddddddddddddd",
"ddddddddddddddddddddddd.>-**$*%%%%%Xdddddddddddddddddddddddddddd",
"ddddddddddddddddddddddddX%%%%%%$%%%.dddddddddddddddddddddddddddd",
"dddddddddddddddddddddddd %--*%%%%%->Xddddddddddddddddddddddddddd",
"dddddddddddddddddddddddd.%*-%%%-%%%> ddddddddddddddddddddddddddd",
"dddddddddddddddddddddddd#=%-%%*%%%%-% dddddddddddddddddddddddddd",
"dddddddddddddddddddddddd %%--%*%-$%%%y ddddddddddddddddddddddddd",
"dddddddddddddddddddddddd %-;%%$%$$-:rrr dddddddddddddddddddddddd",
"ddddddddddddddddddddddddO>--%%%%=>%rriyrXddddddddddddddddddddddd",
"dddddddddddddddddd+X O  X ;>-$%$%=%rrrrrr dddddddddddddddddddddd",
"ddddddddddddd   O %--%%%%-   OX >%rrrrrrty ddddddddddddddddddddd",
"ddddddddddd. %%-%%8808888e%;%%%%   rrrrrtrr.dddddddddddddddddddd",
"ddddddddddO%%8788w8088888888w009iyttirrrrrrr ddddddddddddddddddd",
"ddddddddd.%88888078888888w8788rratritrrriirrr dddddddddddddddddd",
"dddddddd %q08880w887887808988rrrryrtiiyrrryrrr ddddddddddddddddd",
"ddddddd $7808ww8887888880w80yrrrriryrtrtrrirtr ddddddddddddddddd",
"dddddddd  +  X. . 888w8888w8rrrrrrrirrrrryirrrr dddddddddddddddd",
"dddddddddddddddddd O   888888rrrrarrrrrrrrrrut< dddddddddddddddd",
"ddddddddddddddddddddddd . 988rtrrryrrrrr,,rrr1rr ddddddddddddddd",
"dddddddddddddddddddddddd   8rrrryrrtrrr,rrirr<rr ddddddddddddddd",
"dddddddddddddddddddddddd *-X  rrr ryrr,rrrrrr,rur dddddddddddddd",
"dddddddddddddddddddddddd *%$$>  .rirrr,r,,rrr,r,, dddddddddddddd",
"dddddddddddddddddddddddd *=%%-%-$rrir,r,rr,rrr,rr dddddddddddddd",
"dddddddddddddddddddddddd ***-%$=rrtyr,rrtrd,rr,rrXdddddddddddddd",
"dddddddddddddddddddddddd *%%%*%%ttirr,rrrrr,rru, ddddddddddddddd",
"dddddddddddddddddddddddd *>-%*;rrirrrr,rrr,yrrii ddddddddddddddd",
"ddddddddddddddddddddddd *>%*%%>uryrrrrr,,,trrrrOdddddddddddddddd",
"ddddddddddddddddddddddd *-$%$%trirrrrrrrrriritr dddddddddddddddd",
"ddddddddddddddddddddddd &%$%%%rrritrrryrrrrrrr ddddddddddddddddd",
"dddddddddddddddddddddd *%%%%*rrrrrrryryrtyrryt ddddddddddddddddd",
"dddddddddddddddddddddd -%$%%-rrtrrrpyrrrrrprr dddddddddddddddddd",
"ddddddddddddddddddddd *$%$%%rrirrrtrrrrrrirr ddddddddddddddddddd",
"ddddddddddddddddddddd *%%-*artrrirrrrrrrrrr dddddddddddddddddddd",
"dddddddddddddddddddd *-%%%>tyrrrrirrirrira ddddddddddddddddddddd",
"dddddddddddddddddddd *%%-%yrrrirrrrrrrirr dddddddddddddddddddddd",
"ddddddddddddddddddd *-%-%%ittrryirrrry8XX   dddddddddddddddddddd",
"ddddddddddddddddddd *%%*>rtryryrrrryrr % 556 ddddddddddddddddddd",
"ddddddddddddddddd  >%%%%%rtrrrrrrrrr8 - 5352.ddddddddddddddddddd",
"dddddddddddddd   -;%--%*>trttrrrrrr8 % 5455 dddddddddddddddddddd",
"ddddddddddddd >>--%%-%&%8rrtrrrro  XdX5565 ddddddddddddddddddddd",
"ddddddddddddd %%%%%-%%%-rrrtr  Xddddd 455Odddddddddddddddddddddd",
"ddddddddddddd.X%%%%$%*->> X  O .@dddddO5 ddddddddddddddddddddddd",
"dddddddddddddd +Oo  .  > 52353665Oddddd .ddddddddddddddddddddddd",
"ddddddddddddddddddddddd 55533463 ddddddddddddddddddddddddddddddd",
"dddddddddddddddddddddddd .    X dddddddddddddddddddddddddddddddd",
"dddddddddddddddddddddddddddddddddddddddddddddddddddddddddddddddd",
"dddddddddddddddddddddddddddddddddddddddddddddddddddddddddddddddd"
};
