/* XPM */
static char *result[] = {
/* columns rows colors chars-per-pixel */
"64 64 47 1 ",
"  c black",
". c #010000",
"X c #000100",
"o c #010100",
"O c #000001",
"+ c #010001",
"@ c #000101",
"# c #010101",
"$ c #2A2C3E",
"% c #2B2C3E",
"& c #2A2D3E",
"* c #2B2D3E",
"= c #2A2C3F",
"- c #2B2C3F",
"; c #2A2D3F",
": c #2B2D3F",
"> c #31324C",
", c #30324D",
"< c #31324D",
"1 c #30334D",
"2 c #31334D",
"3 c #AA0000",
"4 c #AB0000",
"5 c #AA0100",
"6 c #AB0100",
"7 c #AB0001",
"8 c #D89852",
"9 c #D89952",
"0 c #D89853",
"q c #D99853",
"w c #D89953",
"e c #D99953",
"r c gray76",
"t c #C3C2C2",
"y c #C3C3C2",
"u c #C2C2C3",
"i c #C3C2C3",
"p c #C3C3C3",
"a c gray84",
"s c #D7D6D6",
"d c #D6D7D6",
"f c #D7D7D6",
"g c #D6D6D7",
"h c #D7D6D7",
"j c #D6D7D7",
"k c #F6F2F2",
"l c None",
/* pixels */
"llllllllllllllllllllllllllllllllllllllllllllllllllllllllllllllll",
"llllllllllllllllllllllllllllllllllllllllllllllllllllllllllllllll",
"llllllllllllllllllllllllllllllllllllllllllllllllllllllllllllllll",
"llllllllllllllllllllllllllllll.  +X@.#llllllllllllllllllllllllll",
"llllllllllllllllllllllllllll@X%*#:%%:%X  lllllllllllllllllllllll",
"lllllllllllllllllllllllllllO*%-%%XX%%%&%=@X  +XO lllllllllllllll",
"llllllllllllllllllllllllllO<%$%%$5k#%%--*%-%$%=:*.llllllllllllll",
"lllllllllllllllllllllllll.%%%%%%%33%:%--%%%%%*%%<.llllllllllllll",
"lllllllllllllllllllllllll --*%%:*-;*$:=%%;%%%%2@ lllllllllllllll",
"llllllllllllllllllllllll %%*%%%%$-%-%%%:$*<<o .lllllllllllllllll",
"llllllllllllllllllllllll+%%$*%%%$%-%%-*-%O. llllllllllllllllllll",
"lllllllllllllllllllllll %=--%*$%*%-=-%%- lllllllllllllllllllllll",
"llllllllllllgllllllllll $:*$%-$*-%-%%*- llllllllllllllllllllllll",
"lllllllllllllllllllllllX$%%%-%%%%-%*%< lllllllllllllllllllllllll",
"lllllllllllllllllllllll.%$%%*-%$%:%-< llllllllllllllllllllllllll",
"lllllllllllllllllllllllo%*%%%*--%--% lllllllllllllllllllllllllll",
"lllllllllllllllllllllll.*%$%%%$*%%% llllllllllllllllllllllllllll",
"lllllllllllllllllllllll <$%-:-%%%%% llllllllllllllllllllllllllll",
"lllllllllllllllllllllll.<-*%$-%%%$%ollllllllllllllllllllllllllll",
"llllllllllllllllllllllll %%**$*%-%%.llllllllllllllllllllllllllll",
"llllllllllllllllllllllll %--*%*-*:<2Xlllllllllllllllllllllllllll",
"llllllllllllllllllllllll+%*-%%%----< lllllllllllllllllllllllllll",
"llllllllllllllllllllllll.=%-%%&%%%%=% llllllllllllllllllllllllll",
"llllllllllllllllllllllll %-=%**%-%%$%d lllllllllllllllllllllllll",
"llllllllllllllllllllllll $--%%$%%$->saa.llllllllllllllllllllllll",
"llllllllllllllllllllllllO<<%%%%%%<*aagda lllllllllllllllllllllll",
"llllllllllllllllllllllll %%%%%%%%$%dagahaOllllllllllllllllllllll",
"llllllllllllllllllllllll %%%%%%%%%%gaaassa lllllllllllllllllllll",
"llllllllllllllllllllllll %%%%%%%%%%aaaadfaa.llllllllllllllllllll",
"llllllllllllllllllllllll %%%%<%% . sgaaaaaah lllllllllllllllllll",
"llllllllllllllllllllllll <X .   %%agsassahaaa llllllllllllllllll",
"llllllllllllllllll   .    %*%%-%tfgsgsjaaaaada lllllllllllllllll",
"lllllllllllptX    %%%%%%%%ytttttagadasaaaasdsaXlllllllllllllllll",
"lllllllllll X%%%%%rttitttritttttgasgaasaadgghaf.llllllllllllllll",
"llllllllll %tttttttttttttttitrtadghah34aaasads6 llllllllllllllll",
"lllllllll %ttttttttttttttttttttaaagadaa4aagsada4Olllllllllllllll",
"llllllll %rtttytttttytttttttttttggasdgaa4aggadaa lllllllllllllll",
"lllllll %tttttttttttttyttttttttttg dajasf4aaahad4 llllllllllllll",
"llllllll          tttttttttttyttt agaaadga7asaa4aXllllllllllllll",
"llllllllllllllllll     X  tttt.O aajag34gs4aaa4aa llllllllllllll",
"llllllllllllllllllllllll * X  %=aasda7ga7a4da4aaaXllllllllllllll",
"llllllllllllllllllllllll **%%*%&aaaa7aaas36sg4aa.lllllllllllllll",
"llllllllllllllllllllllll *;%%:*adgaa6gdasg7aa4gg lllllllllllllll",
"lllllllllllllllllllllll *&%*%%<fddafa4daa4aaaa4Ollllllllllllllll",
"lllllllllllllllllllllllX*-&%$%aagddasa464aghhsa llllllllllllllll",
"lllllllllllllllllllllll *%&%%%aaagsasaaaaaaaaa lllllllllllllllll",
"llllllllllllllllllllll %%%%*-aaasaaafadahjaadsOlllllllllllllllll",
"llllllllllllllllllllll %*$%->aahaaahddgfhahag llllllllllllllllll",
"lllllllllllllllllllll.:-*=%%adjasahaasadaaaaXlllllllllllllllllll",
"lllllllllllllllllllll *%%:&dadadgsaaaadasah llllllllllllllllllll",
"llllllllllllllllllll &-$%%2saaaasghagaagaj lllllllllllllllllllll",
"llllllllllllllllllll *%%-%daaaggsasaaajst llllllllllllllllllllll",
"lllllllllllllllllll -%%:%*gassddgaaagdyXX   llllllllllllllllllll",
"lllllllllllllllllllO*%%*%afassdagadaai % wwe lllllllllllllllllll",
"lllllllllllllllll  <%%%%%sadaaassaaat % 0www lllllllllllllllllll",
"llllllllllllll   <<%%-%%%fassaagaddt %Xw0ww llllllllllllllllllll",
"lllllllllllll 2<1-%%-%&%tagsdaaao   l w0qw lllllllllllllllllllll",
"lllllllllllll %$%%%=%%%-uissa OXlllll qww llllllllllllllllllllll",
"llllllllllllloo%%*%%%*-2< @O  Oo@lllll.e lllllllllllllllllllllll",
"llllllllllllll +OoX..  , 099w9eeeOlllll +lllllllllllllllllllllll",
"lllllllllllllllllllllll www89we9 lllllllllllllllllllllllllllllll",
"llllllllllllllllllllllll   O .XOllllllllllllllllllllllllllllllll",
"llllllllllllllllllllllllllllllllllllllllllllllllllllllllllllllll",
"llllllllllllllllllllllllllllllllllllllllllllllllllllllllllllllll"
};
