/* XPM */
static char *result[] = {
/* columns rows colors chars-per-pixel */
"64 64 50 1 ",
"  c black",
". c #010000",
"X c #000100",
"o c #010100",
"O c #000001",
"+ c #010001",
"@ c #000101",
"# c #010101",
"$ c #2A2C3E",
"% c #2B2C3E",
"& c #2A2D3E",
"* c #2B2D3E",
"= c #2A2C3F",
"- c #2B2C3F",
"; c #2A2D3F",
": c #2B2D3F",
"> c #31324C",
", c #30324D",
"< c #31324D",
"1 c #30334D",
"2 c #31334D",
"3 c #AA0000",
"4 c #AB0000",
"5 c #AA0100",
"6 c #AB0100",
"7 c #AA0001",
"8 c #AB0001",
"9 c #AB0101",
"0 c #D89852",
"q c #D89952",
"w c #D89853",
"e c #D99853",
"r c #D89953",
"t c #D99953",
"y c gray76",
"u c #C3C2C2",
"i c #C3C3C2",
"p c #C2C2C3",
"a c #C3C2C3",
"s c #C3C3C3",
"d c gray84",
"f c #D7D6D6",
"g c #D6D7D6",
"h c #D7D7D6",
"j c #D6D6D7",
"k c #D7D6D7",
"l c #D6D7D7",
"z c #D7D7D7",
"x c #F6F2F2",
"c c None",
/* pixels */
"cccccccccccccccccccccccccccccccccccccccccccccccccccccccccccccccc",
"cccccccccccccccccccccccccccccccccccccccccccccccccccccccccccccccc",
"cccccccccccccccccccccccccccccccccccccccccccccccccccccccccccccccc",
"cccccccccccccccccccccccccc#.OX+  .cccccccccccccccccccccccccccccc",
"ccccccccccccccccccccccc  X%*%%:#*%X@cccccccccccccccccccccccccccc",
"ccccccccccccccc OX+  X@=%%%%%XX%%-%*Occccccccccccccccccccccccccc",
"cccccccccccccc+*:=%%%%%*--%%#x5$%%$%<Occcccccccccccccccccccccccc",
"cccccccccccccc.<%-**%*%%:-%:%37%%%%%%%.ccccccccccccccccccccccccc",
"ccccccccccccccc #2%%%%:%%=:$*;-*:%%%-- ccccccccccccccccccccccccc",
"ccccccccccccccccc. o<<%&-%%%-%-&%%%%*%$ cccccccccccccccccccccccc",
"cccccccccccccccccccc .O%-*-%%-%$%%%*$%%Occcccccccccccccccccccccc",
"ccccccccccccccccccccccc -%%-=-%*%$*$--=% ccccccccccccccccccccccc",
"cccccccccccccccccccccccc -*%%-%-*%-%$$:$ ccccccccccccccccccccccc",
"ccccccccccccccccccccccccc <%*$-%%%%-%%%%Xccccccccccccccccccccccc",
"ccccccccccccccccccccccccccO<$%:%$%-*%-%%.ccccccccccccccccccccccc",
"ccccccccccccccccccccccccccc %--%:-*%%%**Xccccccccccccccccccccccc",
"cccccccccccccccccccccccccccc %%%*$%%%$%*.ccccccccccccccccccccccc",
"cccccccccccccccccccccccccccc $-%%%-:-%$< ccccccccccccccccccccccc",
"cccccccccccccccccccccccccccco%%%%%-%%*-<.ccccccccccccccccccccccc",
"cccccccccccccccccccccccccccc.%%-%*$**%%Xcccccccccccccccccccccccc",
"ccccccccccccccccccccccccccco2<-*-*%*=-% cccccccccccccccccccccccc",
"ccccccccccccccccccccccccccc >=---%%%-*%+cccccccccccccccccccccccc",
"cccccccccccccccccccccccccc %=%%%%&%%-%=#cccccccccccccccccccccccc",
"ccccccccccccccccccccccccc g%$%%-%**-=-% cccccccccccccccccccccccc",
"cccccccccccccccccccccccc dgf>-$%%$%%--$ cccccccccccccccccccccccc",
"ccccccccccccccccccccccc dgjdd*<-%%%%%<<Occcccccccccccccccccccccc",
"ccccccccccccccccccccccOdkdjdg%=%%%%%%%%Occcccccccccccccccccccccc",
"ccccccccccccccccccccc ddfdddj%%%%%%%%%% cccccccccccccccccccccccc",
"cccccccccccccccccccc.ddhdjdfd%%%%%%%$%% cccccccccccccccccccccccc",
"cccccccccccccccccccXkddddddjf   %=<%%%% cccccccccccccccccccccccc",
"cccccccccccccccccc ddddddfdfdd%%     @< cccccccccccccccccccccccc",
"ccccccccccccccccc dgddddglfjfjhu%%%%*%    .   cccccccccccccccccc",
"cccccccccccccccccXdfgfdgddfdgdjduuuuuu%%%%%%%%     usccccccccccc",
"cccccccccccccccc.hdkjjgddfddjddkuuuuuayuuuaiuu%%%%%  ccccccccccc",
"cccccccccccccccc 6fldfddd83jdzjgduuupuuuuuuuuuuuuuuu% cccccccccc",
"cccccccccccccccO4dgdfjdf4djgdjjgduuuuuuuuuuuuuuiuuuuu% ccccccccc",
"ccccccccccccccc ddgdjjd4fdjgfjjkuuuuuuuuuuuauuuyuuuuay% cccccccc",
"cccccccccccccc 4gdkddd4ffdlfg juuuuuuuuuuuuuuuuiuuuuuuu% ccccccc",
"ccccccccccccccXd4ddfd8djddjddd uuuuuuuuuuuiuuu          cccccccc",
"cccccccccccccc dd4ddd4fj43jdldd  .uuuu  X     cccccccccccccccccc",
"ccccccccccccccXddd4dg4d8dj8dgkdd=%  o * cccccccccccccccccccccccc",
"ccccccccccccccc.df4jf64fddd8ddfd$%%%%** cccccccccccccccccccccccc",
"ccccccccccccccc jj4dd8jfddj6ldjdd*:%%;* cccccccccccccccccccccccc",
"ccccccccccccccccO4ddfd4ddg4dzdhgh<%%*%&& ccccccccccccccccccccccc",
"cccccccccccccccc dfkkjd494dfdgdjdd%&%&-* ccccccccccccccccccccccc",
"ccccccccccccccccc djddddddffddjgdd%%%&%* ccccccccccccccccccccccc",
"cccccccccccccccccOfgddlkdgdfdddfddd=*%%%% cccccccccccccccccccccc",
"cccccccccccccccccc jdkjkhjggkdddkdd>--$*$ cccccccccccccccccccccc",
"ccccccccccccccccccc ddddgdfddkdfdlgd%%=*%:.ccccccccccccccccccccc",
"cccccccccccccccccccc kdfdgddddfjgdddg&-%%* ccccccccccccccccccccc",
"cccccccccccccccccccccXlglddjdkjfddddf2%%$-* cccccccccccccccccccc",
"cccccccccccccccccccccc ufldddfddjjddgg%-%%* cccccccccccccccccccc",
"cccccccccccccccccccc   oXigldddjggffdj*%-%%- ccccccccccccccccccc",
"ccccccccccccccccccc trr.% addddjdgfkdhd%*%-* ccccccccccccccccccc",
"ccccccccccccccccccc.rrrw % udddffdddgdf%%%%%<O ccccccccccccccccc",
"cccccccccccccccccccc rrwwX% udgdkddffdh%%%-%%<<   cccccccccccccc",
"cccccccccccccccccccccXrewr.c   odddgfjdi%&%-%%-1<<.ccccccccccccc",
"cccccccccccccccccccccc rte cccccXO dfdap-%%%=%%%%$ ccccccccccccc",
"cccccccccccccccccccccccXt.ccccc@o   O@ ,2-*%%%*%%.occccccccccccc",
"ccccccccccccccccccccccc+ cccccOrttqrqqw ,  ..XoO+ cccccccccccccc",
"ccccccccccccccccccccccccccccccc qtrq0rrr ccccccccccccccccccccccc",
"ccccccccccccccccccccccccccccccccOXO O   cccccccccccccccccccccccc",
"cccccccccccccccccccccccccccccccccccccccccccccccccccccccccccccccc",
"cccccccccccccccccccccccccccccccccccccccccccccccccccccccccccccccc"
};
