/* XPM */
static char *result[] = {
/* columns rows colors chars-per-pixel */
"64 64 39 1 ",
"  c black",
". c #010000",
"X c #000100",
"o c #010100",
"O c #000001",
"+ c #010001",
"@ c #000101",
"# c #010101",
"$ c #2A2C3E",
"% c #2B2C3E",
"& c #2B2D3E",
"* c #2A2C3F",
"= c #2B2C3F",
"- c #2B2D3F",
"; c #AA0000",
": c #AB0000",
"> c #AB0100",
", c #AB0001",
"< c #B80000",
"1 c #B80100",
"2 c #B80001",
"3 c #D89852",
"4 c #D99852",
"5 c #D89952",
"6 c #D99952",
"7 c #D89853",
"8 c gray76",
"9 c #C3C2C2",
"0 c #C3C3C2",
"q c #C3C2C3",
"w c gray84",
"e c #D7D6D6",
"r c #D6D7D6",
"t c #D7D7D6",
"y c #D6D6D7",
"u c #D7D6D7",
"i c #D6D7D7",
"p c #F4F0F0",
"a c None",
/* pixels */
"aaaaaaaaaaaaaaaaaaaaaaaaaaXoXXaaaaaaaaaaaaaaaaaaaaaaaaaaaaaaaaaa",
"aaaaaaaaaaaaaaaaaaaaaaaaaO%%%%Xaaaaaaaaaaaaaaaaaaaaaaaaaaaaaaaaa",
"aaaaaaaaaaaaaaaaaaaaaaaa %&%%%% aaaaaaaaaaaaaaaaaaaaaaaaaaaaaaaa",
"aaaaaaaaaaaaaaaaaaaaaaa &%%%%%% aaaaaaaaaaaaaaaaaaaaaaaaaaaaaaaa",
"aaaaaaaaaaaaaaaaaaaaaa %%%%%%%%%Oaaaaaaaaaaaaaaaaaaaaaaaaaaaaaaa",
"aaaaaaaaaaaaaaaaaaaaaa %&%%%%%%%Oaaaaaaaaaaaaaaaaaaaaaaaaaaaaaaa",
"aaaaaaaaaaaaaaaaaaaaaaXXO %%$    aaaaaaaaaaaaaaaaaaaaaaaaaaaaaaa",
"aaaaaaaaaaaaaaaaaaaaaaX%<2%%%%1<% aaaaaaaaaaaaaaaaaaaaaaaaaaaaaa",
"aaaaaaaaaaaaaaaaaaaaaaX%<p=%%%p<%Oaaaaaaaaaaaaaaaaaaaaaaaaaaaaaa",
"aaaaaaaaaaaaaaaaaaaaaa %*%- O%%%% aaaaaaaaaaaaaaaaaaaaaaaaaaaaaa",
"aaaaaaaaaaaaaaaaaaaaaaX%%%O== %%= aaaaaaaaaaaaaaaaaaaaaaaaaaaaaa",
"aaaaaaaaaaaaaaaaaaaaaa %%.     =$oaaaaaaaaaaaaaaaaaaaaaaaaaaaaaa",
"aaaaaaaaaaaaaaaaaaaaaaO%%%%  %%%$ aaaaaaaaaaaaaaaaaaaaaaaaaaaaaa",
"aaaaaaaaaaaaaaaaaaaaaa %%%%=%%%%%Xaaaaaaaaaaaaaaaaaaaaaaaaaaaaaa",
"aaaaaaaaaaaaaaaaaaaaaa %%%=&$%$&% aaaaaaaaaaaaaaaaaaaaaaaaaaaaaa",
"aaaaaaaaaaaaaaaaaaaaaa %%$%%&%%&%.aaaaaaaaaaaaaaaaaaaaaaaaaaaaaa",
"aaaaaaaaaaaaaaaaaaaaaa@%%%%%%$%% aaaaaaaaaaaaaaaaaaaaaaaaaaaaaaa",
"aaaaaaaaaaaaaaaaaaaaaaX%%=%%*%%$Xaaaaaaaaaaaaaaaaaaaaaaaaaaaaaaa",
"aaaaaaaaaaaaaaaaaaaaaaX= %%%%-X% aaaaaaaaaaaaaaaaaaaaaaaaaaaaaaa",
"aaaaaaaaaaaaaaaaaaaaaaO%+%%%$% % aaaaaaaaaaaaaaaaaaaaaaaaaaaaaaa",
"aaaaaaaaaaaaaaaaaaaaaa %w &%%&O%Xaaaaaaaaaaaaaaaaaaaaaaaaaaaaaaa",
"aaaaaaaaaaaaaaaaaaaaaaX%wa %%Xww% aaaaaaaaaaaaaaaaaaaaaaaaaaaaaa",
"aaaaaaaaaaaaaaaaaaaaaaX%ww.&Orwy%% aaaaaaaaaaaaaaaaaaaaaaaaaaaaa",
"aaaaaaaaaaaaaaaaaaaaaaO%www wywaw%$ aaaaaaaaaaaaaaaaaaaaaaaaaaaa",
"aaaaaaaaaaaaaaaaaaaaa .%wwwewwwwwtw%+aaaaaaaaaaaaaaaaaaaaaaaaaaa",
"aaaaaaaaaaaaaaaaaaaa %%wwrwrrwwwwwy% aaaaaaaaaaaaaaaaaaaaaaaaaaa",
"aaaaaaaaaaaaaaaaaaa.%awwywrwwwewwrwy%Xaaaaaaaaaaaaaaaaaaaaaaaaaa",
"aaaaaaaaaaaaaaaaaa %wwwwwwwwwwwwwwew% aaaaaaaaaaaaaaaaaaaaaaaaaa",
"aaaaaaaaaaaaaaaaa.%uwwwwwwwwwwwwwwyww% aaaaaaaaaaaaaaaaaaaaaaaaa",
"aaaaaaaaaaaaaaaaaX%wwwwwwwwwwwwwwwwwa% aaaaaaaaaaaaaaaaaaaaaaaaa",
"aaaaaaaaaaaaaaaa %wrwwwwwwwwwwwwwwwwww% aaaaaaaaaaaaaaaaaaaaaaaa",
"aaaaaaaaaaaaaaaa %wwwwwwwwwwwwwwwwwwww% aaaaaaaaaaaaaaaaaaaaaaaa",
"aaaaaaaaaaaaaaaa %wwwwwwwwwwrwwwwwwwyww%O aaaaaaaaaaaaaaaaaaaaaa",
"aaaaaaaaaaaaaaaa %wwwwwwwwwwwuwwwwwwwwry%.    aaaaaaaaaaaaaaaaaa",
"aaaaaaaaaaaaaaa =wwww:wwweww1wwwwwww:ewwy%%%=%    Oaaaaaaaaaaaaa",
"aaaaaaaaaaaaaaa %wrw:;wwwww11wwwwww::wwrwwwwww%%%%% Oaaaaaaaaaaa",
"aaaaaaaaaaaaaaa =ww:wwwwww:wwwwrww:wwwwwwwww9999999%%. aaaaaaaaa",
"aaaaaaaaaaaaaaaO%yy:wwwwwy:wwwwwwy:wwwwrwww9999999999%%Oaaaaaaaa",
"aaaaaaaaaaaaaaO%aw::wwwww::wwwwww::wwwwywrw999999999999%XOaaaaaa",
"aaaaaaaaaaaaa.%wrw:::::ww:::::www:::::wwrwew999899999999%% aaaaa",
"aaaaaaaaaaaa %wwww:www::w:www:,ww:www::wwtwwww99q999999999%Oaaaa",
"aaaaaaaaaaa %ww9ww:wrw::w:www:,ww:www::wrwwrwwa909999899999$Xaaa",
"aaaaaaaaaa %ww99www:::>www::::wwww:::>wywwww    999999989999% aa",
"aaaaaaaaaO%rr9999wwwwwwwwwwwwwwwwwwwwwww%o  aaaa  O . 9999999% a",
"aaaaaaaa.%wr99999wrwywrwwewwwwwwwwweweww%Oaaaaaaaaaaaa  999999& ",
"aaaaaaa %yr999999wwwwwwwwwwwwwwywwwwwwww% aaaaaaaaaaaaaa o9099% ",
"aaaaaaX%wr999999wywwwwwwwwwwwwwwwwrwwwww% aaaaaaaaaaaaaaaa  99% ",
"aaaaa %ww9999999 %wwwwwwewwwywwwwwwwwwwy% aaaaaaaaaaaaaaaaaaO9% ",
"aaaaaO%w9999990 a %wwwwwwwwwwwwwwwwwwwww% aaaaaaaaaaaaaaaaaaa  a",
"aaaa.=ww999909Xaa %wwewwwwewwwwwwwwwwwr% aaaaaaaaaaaaaaaaaaaaaaa",
"aaaa %w999999Xaaa#%weewwwwewwewwwywwwyw% aaaaaaaaaaaaaaaaaaaaaaa",
"aaa %ww999999 aaaO$wwwwwwwwwwrwwwwwwiyw% aaaaaaaaaaaaaaaaaaaaaaa",
"aaa %r999999 aaaa %wrwywrwwwwwwwwwwuww9% aaaaaaaaaaaaaaaaaaaaaaa",
"aaa %w99999 aaaaa =ywwwwwwwrwwwwwwwww9% aaaaaaaaaaaaaaaaaaaaaaaa",
"aa@%ww999 .aaaaaa %9wwwwwwwwwwwwye . 9% aaaaaaaaaaaaaaaaaaaaaaaa",
"aaO%e999 aaaaaaaaa %wwwwwwwwwwwwe 555 % aaaaaaaaaaaaaaaaaaaaaaaa",
"aa %a9 Xaaaaaaaaaao%9rwywwwwwwew 56655X aaaaaaaaaaaaaaaaaaaaaaaa",
"aaa X aaaaaaaaaaaaa.%wwwwwwwwwwe 55535.aaaaaaaaaaaaaaaaaaaaaaaaa",
"aaaaaaaaaaaaaaaaaaa  O 9wwwwwy9= 55535 aaaaaaaaaaaaaaaaaaaaaaaaa",
"aaaaaaaaaaaaaaaaaa 5545 9wwww9%%.65557 aaaaaaaaaaaaaaaaaaaaaaaaa",
"aaaaaaaaaaaaaaaaa 555555 .%%%%%%% 555Xaaaaaaaaaaaaaaaaaaaaaaaaaa",
"aaaaaaaaaaaaaaaa 565555 aa %%%%$ a O aaaaaaaaaaaaaaaaaaaaaaaaaaa",
"aaaaaaaaaaaaaaaaa 5355 aaaa.    aaaaaaaaaaaaaaaaaaaaaaaaaaaaaaaa",
"aaaaaaaaaaaaaaaaaaX   aaaaaaaaaaaaaaaaaaaaaaaaaaaaaaaaaaaaaaaaaa"
};
