/* XPM */
static char *result[] = {
/* columns rows colors chars-per-pixel */
"64 64 39 1 ",
"  c black",
". c #010000",
"X c #000100",
"o c #010100",
"O c #000001",
"+ c #010001",
"@ c #000101",
"# c #010101",
"$ c #20213A",
"% c #20213B",
"& c #2A2C3E",
"* c #2B2C3E",
"= c #2A2D3E",
"- c #2B2D3E",
"; c #2A2C3F",
": c #2B2C3F",
"> c #2A2D3F",
", c #2B2D3F",
"< c #242542",
"1 c #282840",
"2 c #282940",
"3 c #292940",
"4 c #282941",
"5 c #292B43",
"6 c #2F3044",
"7 c #2E3045",
"8 c #2F3045",
"9 c #2F3145",
"0 c #313247",
"q c #D89852",
"w c #D99852",
"e c #D89952",
"r c #D99952",
"t c #D89953",
"y c gray76",
"u c #C3C2C2",
"i c #C3C3C2",
"p c #C3C2C3",
"a c None",
/* pixels */
"aaaaaaaaaaaaaaaaaaaaaaaaaaaaaaaaaaaaaaaaaaaaaaaaaaaaaaaaaaaaaaaa",
"aaaaaaaaaaaaaaaaaaaaaaaaaaaaaaaaaaaaaaaaaaaaaaaaaaaaaaaaaaaaaaaa",
"aaaaaaaaaaaaaaaaaaaaaaaaaaaaaaaaaaaaaaaaaaaaaaaaaaaaaaaaaaaaaaaa",
"aaaaaaaaaaaaaaaaaaaaaaaaaaaaaaaaaaaaaaaaaaaaaaaaaaaaaaaaaaaaaaaa",
"aaaaaaaaaaaaaaaaaaaaaaaaaaaaaaaaaaaaaaaaaaaaaaaaaaaaaaaaaaaaaaaa",
"aaaaaaaaaaaaaaaaaaaaaaaaaaaaaaaaaaaaaaaaaaaaaaaaaaaaaaaaaaaaaaaa",
"aaaaaaaaaaaaaaaaaaaaaaaaaaaaaaaaaaaaaaaaaaaaaaaaaaaaaaaaaaaaaaaa",
"aaaaaaaaaaaaaaaaaaaaaaaaaaaaaaaaaaaaaaaaaaaaaaaaaaaaaaaaaaaaaaaa",
"aaaaaaaaaaaaaaaaaaaaaaaaaaaaaaaaaaaaaaaaaaaaaaaaaaaaaaaaaaaaaaaa",
"aaaaaaaaaaaaaaaaaaaaaaaaaaaaaaaaaaaaaaaaaaaaaaaaaaaaaaaaaaaaaaaa",
"aaaaaaaaaaaaaaaaaaaaaaaaaaaaaaaaaaaaaaaaaaaaaaaaaaaaaaaaaaaaaaaa",
"aaaaaaaaaaaaaaaaaaaaaaaaaaaaa    X  aaaaaaaaaaaaaaaaaaaaaaaaaaaa",
"aaaaaaaaaaaaaaaaaaaaaaaaaaaa ***:*** aaaaaaaaaaaaaaaaaaaaaaaaaaa",
"aaaaaaaaaaaaaaaaaaaaaaaaaaa *&-**:*:; aaaaaaaaaaaaaaaaaaaaaaaaaa",
"aaaaaaaaaaaaaaaaaaaaaaaaaao*****-:2*& aaaaaaaaaaaaaaaaaaaaaaaaaa",
"aaaaaaaaaaaaaaaaaaaaaaaaaaX*21-2::22** aaaaaaaaaaaaaaaaaaaaaaaaa",
"aaaaaaaaaaaaaaaaaaaaaaaaaa *2&22**&2*& aaaaaaaaaaaaaaaaaaaaaaaaa",
"aaaaaaaaaaaaaaaaaaaaaaaaa ***&:**-;4*: aaaaaaaaaaaaaaaaaaaaaaaaa",
"aaaaaaaaaaaaaaaaaaaaaaaa.*:2:&****->** aaaaaaaaaaaaaaaaaaaaaaaaa",
"aaaaaaaaaaaaaaaaaaaaaaaa *24;***2**-2* aaaaaaaaaaaaaaaaaaaaaaaaa",
"aaaaaaaaaaaaaaaaaaaaaa..******-*2****2 aaaaaaaaaaaaaaaaaaaaaaaaa",
"aaaaaaaaaaaaaaaaaaaaaX**2*:*****2&***2 aaaaaaaaaaaaaaaaaaaaaaaaa",
"aaaaaaaaaaaaaaaaaaaa &*--**;:-:**&-,*2.aaaaaaaaaaaaaaaaaaaaaaaaa",
"aaaaaaaaaaaaaaaaaaaX**-=**,**;******&** aaaaaaaaaaaaaaaaaaaaaaaa",
"aaaaaaaaaaaaaaaa.O ***&**32*22*22*-**;:* aaaaaaaaaaaaaaaaaaaaaaa",
"aaaaaaaaaaaa    *-;**:&3*2*-*-::***,**;- aaaaaaaaaaaaaaaaaaaaaaa",
"aaaaaaaaa . -**,*&*2**&1--&***-&******2* aaaaaaaaaaaaaaaaaaaaaaa",
"aaaaaaaO *****2&*&*-**2&=*****:*22****2-*  aaaaaaaaaaaaaaaaaaaaa",
"aaaaa@X-&*322********2-****5&:***2***:****:O.aaaaaaaaaaaaaaaaaaa",
"aaa  ***122*****88***4*:**1*-*:*:*****,**--:*  aaaaaaaaaaaaaaaaa",
"aa ::***:8868***  9*:****:*2*&***&*******&-*:&: Xaaaaaaaaaaaaaaa",
"a **&*88* .O... aO8*:**:*5*&**-2,********2-,:***- aaaaaaaaaaaaaa",
" **7* X  aaaaaaa <**:&**5&**,:,2*:*&-:**&**:*2*-** aaaaaaaaaaaaa",
"*:*  aaaaaaaaaaa ;&*****5**&**--****&1***8*****:*;; aaaaaaaaaaaa",
"**.aaaaaaaaaaaa *-*&**:*&*42-********2*:*8 89*&***-* aaaaaaaaaaa",
"*oaaaaaaaaaaaaaO*:***&***2***:***:***:-;6 aOXX*:*2*-&@aaaaaaaaaa",
"Oaaaaaaaaaaaaaa -*2*:*5*2********&*,;*2-Oaaaaa O*,*&&*Oaaaaaaaaa",
"aaaaaaaaaaaaaa ***4*:*5::::*&2&&:****&1* aaaaaaa o*:&** aaaaaaaa",
"aaaaaaaaaaaaaa *-*3**&**2:***2*&**-*:***.aaaaaaaaaO***:*.aaaaaaa",
"aaaaaaaaaaaaaa.***&-*&**22***2&2-**:*::*Oaaaaaaaaaa.**&* aaaaaaa",
"aaaaaaaaaaaaaa *&2****&,:*&&***22***2-**Xaaaaaaaaaaa **- aaaaaaa",
"aaaaaaaaaaaaaa *****2*,***-2-**,2***4,&:.aaaaaaaaaaaa ** aaaaaaa",
"aaaaaaaaaaaaaa ,*****-*&***2*=**&:*:&**:OaaaaaaaaaaaaaO aaaaaaaa",
"aaaaaaaaaaaaaa *&*******-&****--*&2*-**$Oaaaaaaaaaaaaaaaaaaaaaaa",
"aaaaaaaaaaaaaa *&*-****-*&-,-:&*&*-*&**y aaaaaaaaaaaaaaaaaaaaaaa",
"aaaaaaaaaaaaaa :***22*:***2-**=*:*-*-*0poaaaaaaaaaaaaaaaaaaaaaaa",
"aaaaaaaaaaaaaa u***=***-*&:*&:&:******u aaaaaaaaaaaaaaaaaaaaaaaa",
"aaaaaaaaaaaaaaaOu&&*&**2*:*;***-&**-*7u aaaaaaaaaaaaaaaaaaaaaaaa",
"aaaaaaaaaaaaaaa p8&****2&*142*:4:***87 aaaaaaaaaaaaaaaaaaaaaaaaa",
"aaaaaaaaaaaaaaaa i8-=&-*-*&**&=*****8y aaaaaaaaaaaaaaaaaaaaaaaaa",
"aaaaaaaaaaaaaaaaa 8::**:*-*12&***&*7u.aaaaaaaaaaaaaaaaaaaaaaaaaa",
"aaaaaaaaaaaaaaaaaou8:**-*-*:-**2**97 aaaaaaaaaaaaaaaaaaaaaaaaaaa",
"aaaaaaaaaaaaaaaa.ti888*,***=***:*88u+aaaaaaaaaaaaaaaaaaaaaaaaaaa",
"aaaaaaaaaaaaaaaaa eeuo ..&0%*. #i9uqe.aaaaaaaaaaaaaaaaaaaaaaaaaa",
"aaaaaaaaaaaaaaaaaa  +aaaa $ Xaa+wetre aaaaaaaaaaaaaaaaaaaaaaaaaa",
"aaaaaaaaaaaaaaaaaaaaaaaaaa.aaaaao  ooaaaaaaaaaaaaaaaaaaaaaaaaaaa",
"aaaaaaaaaaaaaaaaaaaaaaaaaaaaaaaaaaaaaaaaaaaaaaaaaaaaaaaaaaaaaaaa",
"aaaaaaaaaaaaaaaaaaaaaaaaaaaaaaaaaaaaaaaaaaaaaaaaaaaaaaaaaaaaaaaa",
"aaaaaaaaaaaaaaaaaaaaaaaaaaaaaaaaaaaaaaaaaaaaaaaaaaaaaaaaaaaaaaaa",
"aaaaaaaaaaaaaaaaaaaaaaaaaaaaaaaaaaaaaaaaaaaaaaaaaaaaaaaaaaaaaaaa",
"aaaaaaaaaaaaaaaaaaaaaaaaaaaaaaaaaaaaaaaaaaaaaaaaaaaaaaaaaaaaaaaa",
"aaaaaaaaaaaaaaaaaaaaaaaaaaaaaaaaaaaaaaaaaaaaaaaaaaaaaaaaaaaaaaaa",
"aaaaaaaaaaaaaaaaaaaaaaaaaaaaaaaaaaaaaaaaaaaaaaaaaaaaaaaaaaaaaaaa",
"aaaaaaaaaaaaaaaaaaaaaaaaaaaaaaaaaaaaaaaaaaaaaaaaaaaaaaaaaaaaaaaa"
};
