/* XPM */
static char *result[] = {
/* columns rows colors chars-per-pixel */
"64 64 44 1 ",
"  c black",
". c #010000",
"X c #000100",
"o c #010100",
"O c #000001",
"+ c #010001",
"@ c #000101",
"# c #010101",
"$ c #2A2C3E",
"% c #2B2C3E",
"& c #2A2D3E",
"* c #2B2D3E",
"= c #2A2C3F",
"- c #2B2C3F",
"; c #2A2D3F",
": c #2B2D3F",
"> c #31334C",
", c #30324D",
"< c #31324D",
"1 c #31334D",
"2 c #AA0000",
"3 c #AB0000",
"4 c #AA0100",
"5 c #AB0100",
"6 c #D89952",
"7 c #D99952",
"8 c #D89953",
"9 c #D99953",
"0 c gray76",
"q c #C3C2C2",
"w c #C2C3C2",
"e c #C3C3C2",
"r c #C2C2C3",
"t c #C3C2C3",
"y c #C3C3C3",
"u c gray84",
"i c #D7D6D6",
"p c #D6D7D6",
"a c #D7D7D6",
"s c #D6D6D7",
"d c #D7D6D7",
"f c #D6D7D7",
"g c #F6F2F2",
"h c None",
/* pixels */
"hhhhhhhhhhhhhhhhhhhhhhhhhhhhhhhhhhhhhhhhhhhhhhhhhhhhhhhhhhhhhhhh",
"hhhhhhhhhhhhhhhhhhhhhhhhhhhhhhhhhhhhhhhhhhhhhhhhhhhhhhhhhhhhhhhh",
"hhhhhhhhhhhhhhhhhhhhhhhhhhhhhhhhhhhhhhhhhhhhhhhhhhhhhhhhhhhhhhhh",
"hhhhhhhhhhhhhhhhhhhhhhhhhh@.+ O   hhhhhhhhhhhhhhhhhhhhhhhhhhhhhh",
"hhhhhhhhhhhhhhhhhhhhhhh   %*%%;#*%  hhhhhhhhhhhhhhhhhhhhhhhhhhhh",
"hhhhhhhhhhhhhhh O #. XO%%%%%%XX*%-%%Ohhhhhhhhhhhhhhhhhhhhhhhhhhh",
"hhhhhhhhhhhhhh+%%=%%%%%%%-%%Og2%%%$%%Ohhhhhhhhhhhhhhhhhhhhhhhhhh",
"hhhhhhhhhhhhhh.<%%-%%%%%;%%*%22%%%%%%$ hhhhhhhhhhhhhhhhhhhhhhhhh",
"hhhhhhhhhhhhhhh X1%%%-%*%-%%%*-*:%-<-: hhhhhhhhhhhhhhhhhhhhhhhhh",
"hhhhhhhhhhhhhhhhh..o<<*%$%*%-%%=%%%%%%% hhhhhhhhhhhhhhhhhhhhhhhh",
"hhhhhhhhhhhhhhhhhhhh XO$-:<-%-%%%*%*%%%Ohhhhhhhhhhhhhhhhhhhhhhhh",
"hhhhhhhhhhhhhhhhhhhhhhh $%%-=-<%%=*%%%%= hhhhhhhhhhhhhhhhhhhhhhh",
"hhhhhhhhhhhhhhhhhhhhhhhh *%%%--%%%-%%%%$ hhhhhhhhhhhhhhhhhhhhhhh",
"hhhhhhhhhhhhhhhhhhhhhhhhh <%*%-%%%%-%$%%Xhhhhhhhhhhhhhhhhhhhhhhh",
"hhhhhhhhhhhhhhhhhhhhhhhhhh ,%%:%%%-*%$%%.hhhhhhhhhhhhhhhhhhhhhhh",
"hhhhhhhhhhhhhhhhhhhhhhhhhhhO%-----%%%$%*Xhhhhhhhhhhhhhhhhhhhhhhh",
"hhhhhhhhhhhhhhhhhhhhhhhhhhhh %&%%%%%%%%* hhhhhhhhhhhhhhhhhhhhhhh",
"hhhhhhhhhhhhhhhhhhhhhhhhhhhh %*%%%%%:%$- hhhhhhhhhhhhhhhhhhhhhhh",
"hhhhhhhhhhhhhhhhhhhhhhhhhhhhX%%*%%%$%*-1.hhhhhhhhhhhhhhhhhhhhhhh",
"hhhhhhhhhhhhhhhhhhhhhhhhhhhh.&%%%%%-$%%Xhhhhhhhhhhhhhhhhhhhhhhhh",
"hhhhhhhhhhhhhhhhhhhhhhhhhhhX<-%-%%%*=%% hhhhhhhhhhhhhhhhhhhhhhhh",
"hhhhhhhhhhhhhhhhhhhhhhhhhhh <%%--%$%::%.hhhhhhhhhhhhhhhhhhhhhhhh",
"hhhhhhhhhhhhhhhhhhhhhhhhhh.%%%%%%&-%-%=#hhhhhhhhhhhhhhhhhhhhhhhh",
"hhhhhhhhhhhhhhhhhhhhhhhhh p%%%$-%*%---% hhhhhhhhhhhhhhhhhhhhhhhh",
"hhhhhhhhhhhhhhhhhhhhhhhh uuu>:$%%%%%--% hhhhhhhhhhhhhhhhhhhhhhhh",
"hhhhhhhhhhhhhhhhhhhhhhh upfuu%<:%%%%--<Ohhhhhhhhhhhhhhhhhhhhhhhh",
"hhhhhhhhhhhhhhhhhhhhhh.uuuuui%=%&%$%1-  X O X+hhhhhhhhhhhhhhhhhh",
"hhhhhhhhhhhhhhhhhhhhh piuuuuuu%,XXO   -%%%%%=% O   hhhhhhhhhhhhh",
"hhhhhhhhhhhhhhhhhhhh.uupuuuuu   -$%%-%eqqqqeqq%%-%% .hhhhhhhhhhh",
"hhhhhhhhhhhhhhhhhhh uiiuuuusiuusweqtqqqqqqqqqqtqq0q-$Ohhhhhhhhhh",
"hhhhhhhhhhhhhhhhhhXuuusuuuuisuifuuqq0qtqqeqqqt0eqqqqq% hhhhhhhhh",
"hhhhhhhhhhhhhhhhh uuupupupufiupuuuuqqqeeq0qywqqtqqqqqr$ hhhhhhhh",
"hhhhhhhhhhhhhhhhh siuspuiuippusuuuupqqqyqqqqq00tqqtqyqe$ hhhhhhh",
"hhhhhhhhhhhhhhhh iuuufpuuuuisupuuuuuqtqqqqt0qq .  X  +  hhhhhhhh",
"hhhhhhhhhhhhhhhh 3iauuuiuuuuuupupuuq0qqqq   O hhhhhhhhhhhhhhhhhh",
"hhhhhhhhhhhhhhh up2usu22upuuupuuuapqq0 . hhhhhhhhhhhhhhhhhhhhhhh",
"hhhhhhhhhhhhhhh uu2uduuu2isuiusuuupuq   hhhhhhhhhhhhhhhhhhhhhhhh",
"hhhhhhhhhhhhhh upu2puuiuu4uuus uuu  X%* hhhhhhhhhhhhhhhhhhhhhhhh",
"hhhhhhhhhhhhhh 22u2uup22u2uuuuu. O<&$%* hhhhhhhhhhhhhhhhhhhhhhhh",
"hhhhhhhhhhhhhh uu2uuu2uu2u2uuiu%%$-%%** hhhhhhhhhhhhhhhhhhhhhhhh",
"hhhhhhhhhhhhhhXau2uu2huuuu2upiuu=*%%*%* hhhhhhhhhhhhhhhhhhhhhhhh",
"hhhhhhhhhhhhhhh 5iuu2uuudu2uuuiu%%*$%%* hhhhhhhhhhhhhhhhhhhhhhhh",
"hhhhhhhhhhhhhhh sssup2uuu2piusfup**%$<* hhhhhhhhhhhhhhhhhhhhhhhh",
"hhhhhhhhhhhhhhhhOuuuuu222uuuuupui<%%*%,* hhhhhhhhhhhhhhhhhhhhhhh",
"hhhhhhhhhhhhhhhh uisusuuuusuuuusui%%-=-* hhhhhhhhhhhhhhhhhhhhhhh",
"hhhhhhhhhhhhhhhhhXupuuuuuuuiuissuu%%$$%:.hhhhhhhhhhhhhhhhhhhhhhh",
"hhhhhhhhhhhhhhhhh+iuuufiuaiuuuuuusu*%%%%* hhhhhhhhhhhhhhhhhhhhhh",
"hhhhhhhhhhhhhhhhhh uuduuuuupduuiipu-%%&%%Ohhhhhhhhhhhhhhhhhhhhhh",
"hhhhhhhhhhhhhhhhhhh uusuuuuuuiuupsss%-$-%& hhhhhhhhhhhhhhhhhhhhh",
"hhhhhhhhhhhhhhhhhhhh uuuusuuuuuiuiius*-%%* hhhhhhhhhhhhhhhhhhhhh",
"hhhhhhhhhhhhhhhhhhhhhOfusuusuusuuuupi<%%%:* hhhhhhhhhhhhhhhhhhhh",
"hhhhhhhhhhhhhhhhhhhhhh uisuupuuuuuuuup%-%%* hhhhhhhhhhhhhhhhhhhh",
"hhhhhhhhhhhhhhhhhhhhhh XXqpuuuuspuuiis%%-%-*.hhhhhhhhhhhhhhhhhhh",
"hhhhhhhhhhhhhhhhhhhhhhh - uupuusupusiuu<*%%*.hhhhhhhhhhhhhhhhhhh",
"hhhhhhhhhhhhhhhhhhhhhhhh -Oquussuuuuiuu%$%$%<X hhhhhhhhhhhhhhhhh",
"hhhhhhhhhhhhhhhhhhhhhhhhh % quuuuuuiiui<%%--%--   hhhhhhhhhhhhhh",
"hhhhhhhhhhhhhhhhhhhh   O 6$% O .uuuuiiue%&%-%%-:<< hhhhhhhhhhhhh",
"hhhhhhhhhhhhhhhhhhh 67666666 hhhX .uipus-%%%-%&%%% hhhhhhhhhhhhh",
"hhhhhhhhhhhhhhhhhhhh  66666 hhh@. O  X@<<-*%%%%%%@+hhhhhhhhhhhhh",
"hhhhhhhhhhhhhhhhhhhhhh      hh 89968668 <  .O oO+ hhhhhhhhhhhhhh",
"hhhhhhhhhhhhhhhhhhhhhhhhhhhhhhhO69886888 hhhhhhhhhhhhhhhhhhhhhhh",
"hhhhhhhhhhhhhhhhhhhhhhhhhhhhhhhh X  O   hhhhhhhhhhhhhhhhhhhhhhhh",
"hhhhhhhhhhhhhhhhhhhhhhhhhhhhhhhhhhhhhhhhhhhhhhhhhhhhhhhhhhhhhhhh",
"hhhhhhhhhhhhhhhhhhhhhhhhhhhhhhhhhhhhhhhhhhhhhhhhhhhhhhhhhhhhhhhh"
};
