/* XPM */
static char *result[] = {
/* columns rows colors chars-per-pixel */
"64 64 38 1 ",
"  c black",
". c #010000",
"X c #000100",
"o c #010100",
"O c #000001",
"+ c #010001",
"@ c #000101",
"# c #010101",
"$ c #2A2C3E",
"% c #2B2C3E",
"& c #2B2D3E",
"* c #2A2C3F",
"= c #2B2C3F",
"- c #2B2D3F",
"; c #AA0000",
": c #AB0000",
"> c #AB0100",
", c #AB0001",
"< c #B80000",
"1 c #B80100",
"2 c #B80001",
"3 c #D89852",
"4 c #D99852",
"5 c #D89952",
"6 c #D99952",
"7 c gray76",
"8 c #C3C2C2",
"9 c #C3C3C2",
"0 c #C3C2C3",
"q c gray84",
"w c #D7D6D6",
"e c #D6D7D6",
"r c #D7D7D6",
"t c #D6D6D7",
"y c #D7D6D7",
"u c #D6D7D7",
"i c #F4F0F0",
"p c None",
/* pixels */
"ppppppppppppppppppppppppppXXXXpppppppppppppppppppppppppppppppppp",
"pppppppppppppppppppppppppO%%%%@ppppppppppppppppppppppppppppppppp",
"pppppppppppppppppppppppp %&%%%% pppppppppppppppppppppppppppppppp",
"ppppppppppppppppppppppp &%%%%%$ pppppppppppppppppppppppppppppppp",
"pppppppppppppppppppppp %%%&=%%%%Oppppppppppppppppppppppppppppppp",
"pppppppppppppppppppppp %&%%%=%%%Oppppppppppppppppppppppppppppppp",
"ppppppppppppppppppppppXXO %%$    ppppppppppppppppppppppppppppppp",
"ppppppppppppppppppppppX%<2%&%%1<% pppppppppppppppppppppppppppppp",
"ppppppppppppppppppppppX%<i=%%%i<% pppppppppppppppppppppppppppppp",
"pppppppppppppppppppppp %*%- O%%%% pppppppppppppppppppppppppppppp",
"ppppppppppppppppppppppX%%%O== %%- pppppppppppppppppppppppppppppp",
"pppppppppppppppppppppp %%. O   =%opppppppppppppppppppppppppppppp",
"ppppppppppppppppppppppO%%%%  %%%$ pppppppppppppppppppppppppppppp",
"pppppppppppppppppppppp %%$%=%%%%%Xpppppppppppppppppppppppppppppp",
"pppppppppppppppppppppp %%%=&%%%&% pppppppppppppppppppppppppppppp",
"pppppppppppppppppppppp %%%&%&%%%%.pppppppppppppppppppppppppppppp",
"pppppppppppppppppppppp@%%%%%%&%% ppppppppppppppppppppppppppppppp",
"ppppppppppppppppppppppX%%=%%=%%$ ppppppppppppppppppppppppppppppp",
"ppppppppppppppppppppppX= %%%=-X% ppppppppppppppppppppppppppppppp",
"pppppppppppppppppppppp %+%%=$% % ppppppppppppppppppppppppppppppp",
"pppppppppppppppppppppp %q %=%%O%Xppppppppppppppppppppppppppppppp",
"ppppppppppppppppppppppX%qp %%Xqq% pppppppppppppppppppppppppppppp",
"ppppppppppppppppppppppX%qq.&Oeqt%% ppppppppppppppppppppppppppppp",
"ppppppppppppppppppppppO%qqq etqpq%$ pppppppppppppppppppppppppppp",
"ppppppppppppppppppppp .%qqqqqqqqqrq%+ppppppppppppppppppppppppppp",
"pppppppppppppppppppp %%qqeqeewtqqqq% ppppppppppppppppppppppppppp",
"ppppppppppppppppppp.%pqqtqqqqqqqqeqt%Xpppppppppppppppppppppppppp",
"pppppppppppppppppp %qqqqtqqqeqqqqqwq% pppppppppppppppppppppppppp",
"ppppppppppppppppp.%wqyqqqqqwqqqqqqtqq% ppppppppppppppppppppppppp",
"pppppppppppppppppX%qqqqqqqqqqqqqqqqqp% ppppppppppppppppppppppppp",
"pppppppppppppppp %qqqqtqqqqqqqqqqqqqqq% pppppppppppppppppppppppp",
"pppppppppppppppp %qqqqqqqqqqqqqqqqqqqq% pppppppppppppppppppppppp",
"pppppppppppppppp %qqqqeyqqqqqqqqqqqeqqq%  pppppppppppppppppppppp",
"pppppppppppppppp %qqqqqqqqttqwqqqqqqqqqt%.    pppppppppppppppppp",
"ppppppppppppppp =qqqq:qqqqqw1qqqqqqq:qqqt%%%=%+   Oppppppppppppp",
"ppppppppppppppp %qqq::tqtqw11qqwqqq::qqqqqqqqq%%%%% Oppppppppppp",
"ppppppppppppppp %qq:qqqqqq:qqqqeqq:qqqqqqqqq9888887%%  ppppppppp",
"pppppppppppppppO=qt:qqqqqt:qeqeqwt:eqqqeeqq8888888888%%Opppppppp",
"ppppppppppppppO%pq::qqqqq::qqqqqq::qqqqtqeq898888888888=XOpppppp",
"ppppppppppppp.%qqq:::::qq:::::qqq:::::qqeqwq898888988888%% ppppp",
"pppppppppppp %qqqq:qqq::q;qqq::qq:qqq:;qqqqqqq887888888088%Opppp",
"ppppppppppp =qq8qq>qqq:,q:qqq::qq:qqq::qeqqqqqp888888888888%Xppp",
"pppppppppp %qq88qqq::::qqq::::qqqq::::qqqqqq    888888888888% pp",
"pppppppppO%ee8888qqqqqqqqwqqqqqqqqqwqqqq%.  pppp  O . 8888888% p",
"pppppppp.%qe88888qeqqqqqqqqqqqqqqqqwqqqq%Opppppppppppp  888888& ",
"ppppppp %te888888qqqqqqqqqqqqqqqqqqqqqqq= pppppppppppppp .8888% ",
"ppppppX%qq088788qtqqqqtqqqqqwqqqqtqqqwqq% pppppppppppppppp  88&X",
"ppppp %qq8888888 %qqqqqqqqqqqqqqtqqqqqqt% ppppppppppppppppppO8% ",
"pppppO%q8888888 pO%qqqqqqqqqtqqqqqqqwqeq% ppppppppppppppppppp  p",
"pppp.=qq888888Xpp %qqqqwqqqqqtqqqqqqqqe% ppppppppppppppppppppppp",
"pppp %q888888Xppp#%qqweqqqqqqqqqqqqqqtq% ppppppppppppppppppppppp",
"ppp %qq888888 pppO$qqqqqqqqqqeqqqquqtqq% ppppppppppppppppppppppp",
"ppp %e888889Xpppp %qqqqqqqqqqqqqqqqwqq8% ppppppppppppppppppppppp",
"ppp %q88888 ppppp %qqqqqqqqqqqqeqqqqqq$ pppppppppppppppppppppppp",
"pp#&qq888  pppppp %0qqqqqqqqqqqqtrqqq8% pppppppppppppppppppppppp",
"ppO%q788 ppppppppp %qqqqqqqqqqqqwqqqqq% pppppppppppppppppppppppp",
"pp %p9 Xpppppppppp#%8eqqqqqqqqwqqqqqqp  pppppppppppppppppppppppp",
"ppp X ppppppppppppp.%qqqqqqqqqqqqqq   pppppppppppppppppppppppppp",
"ppppppppppppppppppp  O 8qqqqqqqqq8 555 ppppppppppppppppppppppppp",
"pppppppppppppppppp 5546 8qqqqqqq8 53555 pppppppppppppppppppppppp",
"ppppppppppppppppp 555555 .%%qq%=% 555555 ppppppppppppppppppppppp",
"pppppppppppppppp 565555 pp %%%%$ p 55555.ppppppppppppppppppppppp",
"ppppppppppppppppp 5355 pppp.    ppp 555 pppppppppppppppppppppppp",
"ppppppppppppppppppX   pppppppppppppp   ppppppppppppppppppppppppp"
};
