/* XPM */
static char *result[] = {
/* columns rows colors chars-per-pixel */
"64 64 44 1 ",
"  c black",
". c #010000",
"X c #000100",
"o c #010100",
"O c #000001",
"+ c #010001",
"@ c #000101",
"# c #010101",
"$ c #2A2C3E",
"% c #2B2C3E",
"& c #2A2D3E",
"* c #2B2D3E",
"= c #2A2C3F",
"- c #2B2C3F",
"; c #2A2D3F",
": c #2B2D3F",
"> c #31324C",
", c #30324D",
"< c #31324D",
"1 c #31334D",
"2 c #AA0000",
"3 c #AB0000",
"4 c #AB0100",
"5 c #AA0001",
"6 c #D89852",
"7 c #D89952",
"8 c #D89953",
"9 c #D99953",
"0 c gray76",
"q c #C3C2C2",
"w c #C2C3C2",
"e c #C3C3C2",
"r c #C2C2C3",
"t c #C3C2C3",
"y c #C3C3C3",
"u c gray84",
"i c #D7D6D6",
"p c #D6D7D6",
"a c #D7D7D6",
"s c #D6D6D7",
"d c #D7D6D7",
"f c #D6D7D7",
"g c #F6F3F2",
"h c None",
/* pixels */
"hhhhhhhhhhhhhhhhhhhhhhhhhhhhhhhhhhhhhhhhhhhhhhhhhhhhhhhhhhhhhhhh",
"hhhhhhhhhhhhhhhhhhhhhhhhhhhhhhhhhhhhhhhhhhhhhhhhhhhhhhhhhhhhhhhh",
"hhhhhhhhhhhhhhhhhhhhhhhhhhhhhhhhhhhhhhhhhhhhhhhhhhhhhhhhhhhhhhhh",
"hhhhhhhhhhhhhhhhhhhhhhhhhhhhhh   O +.#hhhhhhhhhhhhhhhhhhhhhhhhhh",
"hhhhhhhhhhhhhhhhhhhhhhhhhhhh  %*#=%%*%X  hhhhhhhhhhhhhhhhhhhhhhh",
"hhhhhhhhhhhhhhhhhhhhhhhhhhhO%%%%*XX%%%%%%+X .# O hhhhhhhhhhhhhhh",
"hhhhhhhhhhhhhhhhhhhhhhhhhhO%%$-%%2g+%%-%%%%%-%$%%+hhhhhhhhhhhhhh",
"hhhhhhhhhhhhhhhhhhhhhhhhh $%%%%%%22-*%%;%%%%%-%%<ohhhhhhhhhhhhhh",
"hhhhhhhhhhhhhhhhhhhhhhhhhO:-<%%:*=*%%--%*$-%%%1X hhhhhhhhhhhhhhh",
"hhhhhhhhhhhhhhhhhhhhhhhh %%%-%*%$%%-%*%$%*<<o..hhhhhhhhhhhhhhhhh",
"hhhhhhhhhhhhhhhhhhhhhhhhO%%%*%*%%%=%-<:-=OX hhhhhhhhhhhhhhhhhhhh",
"hhhhhhhhhhhhhhhhhhhhhhh $-%%%*$%*<-=-%%$ hhhhhhhhhhhhhhhhhhhhhhh",
"hhhhhhhhhhhhhhhhhhhhhhh $%%%%-%%%--%%%* hhhhhhhhhhhhhhhhhhhhhhhh",
"hhhhhhhhhhhhhhhhhhhhhhhX%%$%-%%%%-%*%< hhhhhhhhhhhhhhhhhhhhhhhhh",
"hhhhhhhhhhhhhhhhhhhhhhh.%%$%*-%%%:*%, hhhhhhhhhhhhhhhhhhhhhhhhhh",
"hhhhhhhhhhhhhhhhhhhhhhhX*%$%%%-----% hhhhhhhhhhhhhhhhhhhhhhhhhhh",
"hhhhhhhhhhhhhhhhhhhhhhh *%%%%%%%%*% hhhhhhhhhhhhhhhhhhhhhhhhhhhh",
"hhhhhhhhhhhhhhhhhhhhhhh -$%-%%%%%%% hhhhhhhhhhhhhhhhhhhhhhhhhhhh",
"hhhhhhhhhhhhhhhhhhhhhhh.1-*%$%%%*%%Xhhhhhhhhhhhhhhhhhhhhhhhhhhhh",
"hhhhhhhhhhhhhhhhhhhhhhhhX%%$-%%%%%&.hhhhhhhhhhhhhhhhhhhhhhhhhhhh",
"hhhhhhhhhhhhhhhhhhhhhhhh %%-&%%%-%-<Xhhhhhhhhhhhhhhhhhhhhhhhhhhh",
"hhhhhhhhhhhhhhhhhhhhhhhh.**-%$%-%%%< hhhhhhhhhhhhhhhhhhhhhhhhhhh",
"hhhhhhhhhhhhhhhhhhhhhhhh#=%-%-&%%%%%%.hhhhhhhhhhhhhhhhhhhhhhhhhh",
"hhhhhhhhhhhhhhhhhhhhhhhh %---%*%-$%%*p hhhhhhhhhhhhhhhhhhhhhhhhh",
"hhhhhhhhhhhhhhhhhhhhhhhh %--%%%%%$:>uuu hhhhhhhhhhhhhhhhhhhhhhhh",
"hhhhhhhhhhhhhhhhhhhhhhhh+<--%%%%:<%uuspu hhhhhhhhhhhhhhhhhhhhhhh",
"hhhhhhhhhhhhhhhhhh+X O @  -1%$%$%=%iuuuuu.hhhhhhhhhhhhhhhhhhhhhh",
"hhhhhhhhhhhhh   O %-%%%%%- . OXX,%uuiuuuip hhhhhhhhhhhhhhhhhhhhh",
"hhhhhhhhhhh. %%-%%qqeqqtqe%-%%$- X uuuuuauu.hhhhhhhhhhhhhhhhhhhh",
"hhhhhhhhhhO$-q0eqtqqqqqqqqqqtqewsuuisuuuiuiu hhhhhhhhhhhhhhhhhhh",
"hhhhhhhhh %qqtqqe0q0qqeqqtq0q0uufiusiuuuusuuuXhhhhhhhhhhhhhhhhhh",
"hhhhhhhh %rqqqqqtqqweq0qeeeqquuuupsifufuuupuuu hhhhhhhhhhhhhhhhh",
"hhhhhhh $qeyqtqqtq0qqqtqyqqqpuduissppiuiupsuid hhhhhhhhhhhhhhhhh",
"hhhhhhhh  +  X O. qqqtqqqqtquuuusuusuusuupsuuui hhhhhhhhhhhhhhhh",
"hhhhhhhhhhhhhhhhhh O   rqqe0quuuufuuuuuuuuuuai3 hhhhhhhhhhhhhhhh",
"hhhhhhhhhhhhhhhhhhhhhhh . 0qquauuupuuupu22uuu2puOhhhhhhhhhhhhhhh",
"hhhhhhhhhhhhhhhhhhhhhhhh   quuuuuspiusu2uuuiu2uu hhhhhhhhhhhhhhh",
"hhhhhhhhhhhhhhhhhhhhhhhh %-X  uuu suuu2uuuuup2ups hhhhhhhhhhhhhh",
"hhhhhhhhhhhhhhhhhhhhhhhh *%$&<O..iuuuu2u22puu2i22 hhhhhhhhhhhhhh",
"hhhhhhhhhhhhhhhhhhhhhhhh **%%-%-%uisu2u2ui2uuu2uu hhhhhhhhhhhhhh",
"hhhhhhhhhhhhhhhhhhhhhhhh *:*%%*=uuipu2uuuuh2uu2upXhhhhhhhhhhhhhh",
"hhhhhhhhhhhhhhhhhhhhhhhh *%%$*%%uiuuu2uduuu2uui4 hhhhhhhhhhhhhhh",
"hhhhhhhhhhhhhhhhhhhhhhhh *<$%**pufsuip2uuu2puuss hhhhhhhhhhhhhhh",
"hhhhhhhhhhhhhhhhhhhhhhh *,%*%%<iupsuuuu225uuuuuOhhhhhhhhhhhhhhhh",
"hhhhhhhhhhhhhhhhhhhhhhh *-=-$%iusuuuisuuuufusiu hhhhhhhhhhhhhhhh",
"hhhhhhhhhhhhhhhhhhhhhhh.*%$$%%uussiuiuuuuuuupu hhhhhhhhhhhhhhhhh",
"hhhhhhhhhhhhhhhhhhhhhh *%%%%*usuuuuupiaiifuuuiOhhhhhhhhhhhhhhhhh",
"hhhhhhhhhhhhhhhhhhhhhhO:%$%%-uuiiuudpuuuuuduu hhhhhhhhhhhhhhhhhh",
"hhhhhhhhhhhhhhhhhhhhhO&%-$-%uuspuuiuuuuuusuu hhhhhhhhhhhhhhhhhhh",
"hhhhhhhhhhhhhhhhhhhhh *%%-*suiiuuuuuuusupuu.hhhhhhhhhhhhhhhhhhhh",
"hhhhhhhhhhhhhhhhhhhh %-%%%<iauuuusuusuussfOhhhhhhhhhhhhhhhhhhhhh",
"hhhhhhhhhhhhhhhhhhhh *%$-%puuuuuuuupuusii hhhhhhhhhhhhhhhhhhhhhh",
"hhhhhhhhhhhhhhhhhhh.*-%-%%siiuupsuuuupqXX hhhhhhhhhhhhhhhhhhhhhh",
"hhhhhhhhhhhhhhhhhhh.*%%*<uiusupusuupuu - hhhhhhhhhhhhhhhhhhhhhhh",
"hhhhhhhhhhhhhhhhh X<%$%%%uuuuuuussuuq - hhhhhhhhhhhhhhhhhhhhhhhh",
"hhhhhhhhhhhhhh   --%--%%<iuiiuuuuuuq % hhhhhhhhhhhhhhhhhhhhhhhhh",
"hhhhhhhhhhhhh <<--%%-%&%esiiuuuu. O %%7     hhhhhhhhhhhhhhhhhhhh",
"hhhhhhhhhhhhh -%%$%-%%%-suuiu. Xhhh 77777776 hhhhhhhhhhhhhhhhhhh",
"hhhhhhhhhhhhh.@%%%%%%:-<<@X  O .@hhh 77777  hhhhhhhhhhhhhhhhhhhh",
"hhhhhhhhhhhhhh +O. O.  < 87787998 hh      hhhhhhhhhhhhhhhhhhhhhh",
"hhhhhhhhhhhhhhhhhhhhhhh 88878897Ohhhhhhhhhhhhhhhhhhhhhhhhhhhhhhh",
"hhhhhhhhhhhhhhhhhhhhhhhh   O OX hhhhhhhhhhhhhhhhhhhhhhhhhhhhhhhh",
"hhhhhhhhhhhhhhhhhhhhhhhhhhhhhhhhhhhhhhhhhhhhhhhhhhhhhhhhhhhhhhhh",
"hhhhhhhhhhhhhhhhhhhhhhhhhhhhhhhhhhhhhhhhhhhhhhhhhhhhhhhhhhhhhhhh"
};
