/* XPM */
static char *result[] = {
/* columns rows colors chars-per-pixel */
"64 64 44 1 ",
"  c black",
". c #010000",
"X c #000100",
"o c #010100",
"O c #000001",
"+ c #010001",
"@ c #000101",
"# c #010101",
"$ c #2A2C3E",
"% c #2B2C3E",
"& c #2A2D3E",
"* c #2B2D3E",
"= c #2A2C3F",
"- c #2B2C3F",
"; c #2A2D3F",
": c #2B2D3F",
"> c #AA0000",
", c #AB0000",
"< c #AB0100",
"1 c #AB0001",
"2 c #AB0101",
"3 c #B80000",
"4 c #B80100",
"5 c #B80001",
"6 c #B80101",
"7 c #D89852",
"8 c #D99852",
"9 c #D89952",
"0 c #D99952",
"q c #D89853",
"w c #D89953",
"e c gray76",
"r c #C3C2C2",
"t c #C3C3C2",
"y c #C2C2C3",
"u c #C3C2C3",
"i c gray84",
"p c #D7D6D6",
"a c #D6D7D6",
"s c #D7D7D6",
"d c #D6D6D7",
"f c #D6D7D7",
"g c #F4F0F0",
"h c None",
/* pixels */
"hhhhhhhhhhhhhhhhhhhhhhhhhhhhhhhhhh@XX@hhhhhhhhhhhhhhhhhhhhhhhhhh",
"hhhhhhhhhhhhhhhhhhhhhhhhhhhhhhhhhX%%%%Ohhhhhhhhhhhhhhhhhhhhhhhhh",
"hhhhhhhhhhhhhhhhhhhhhhhhhhhhhhhh %%%%*%Xhhhhhhhhhhhhhhhhhhhhhhhh",
"hhhhhhhhhhhhhhhhhhhhhhhhhhhhhhhh $%-%%$* hhhhhhhhhhhhhhhhhhhhhhh",
"hhhhhhhhhhhhhhhhhhhhhhhhhhhhhhhO%%%%%*%%% hhhhhhhhhhhhhhhhhhhhhh",
"hhhhhhhhhhhhhhhhhhhhhhhhhhhhhhhO*%%%=%%&% hhhhhhhhhhhhhhhhhhhhhh",
"hhhhhhhhhhhhhhhhhhhhhhhhhhhhhhh    $%% OXXhhhhhhhhhhhhhhhhhhhhhh",
"hhhhhhhhhhhhhhhhhhhhhhhhhhhhhh %36%%%%53%Xhhhhhhhhhhhhhhhhhhhhhh",
"hhhhhhhhhhhhhhhhhhhhhhhhhhhhhh %3g%%%-g3%Xhhhhhhhhhhhhhhhhhhhhhh",
"hhhhhhhhhhhhhhhhhhhhhhhhhhhhhh %%%$@ :$=* hhhhhhhhhhhhhhhhhhhhhh",
"hhhhhhhhhhhhhhhhhhhhhhhhhhhhhh =%% --O%%-Xhhhhhhhhhhhhhhhhhhhhhh",
"hhhhhhhhhhhhhhhhhhhhhhhhhhhhhho%-     .%% hhhhhhhhhhhhhhhhhhhhhh",
"hhhhhhhhhhhhhhhhhhhhhhhhhhhhhh $-%*  %%%%Ohhhhhhhhhhhhhhhhhhhhhh",
"hhhhhhhhhhhhhhhhhhhhhhhhhhhhhhX%%%*%%%%%% hhhhhhhhhhhhhhhhhhhhhh",
"hhhhhhhhhhhhhhhhhhhhhhhhhhhhhh %*%%%*-%%% hhhhhhhhhhhhhhhhhhhhhh",
"hhhhhhhhhhhhhhhhhhhhhhhhhhhhhh.%*%%*%%%$$ hhhhhhhhhhhhhhhhhhhhhh",
"hhhhhhhhhhhhhhhhhhhhhhhhhhhhhhh %%%%%%%%%@hhhhhhhhhhhhhhhhhhhhhh",
"hhhhhhhhhhhhhhhhhhhhhhhhhhhhhhh $%%-%%-%%Xhhhhhhhhhhhhhhhhhhhhhh",
"hhhhhhhhhhhhhhhhhhhhhhhhhhhhhhh %X;%%*% -@hhhhhhhhhhhhhhhhhhhhhh",
"hhhhhhhhhhhhhhhhhhhhhhhhhhhhhhh % %$%%=+% hhhhhhhhhhhhhhhhhhhhhh",
"hhhhhhhhhhhhhhhhhhhhhhhhhhhhhhhX%O%%%% d- hhhhhhhhhhhhhhhhhhhhhh",
"hhhhhhhhhhhhhhhhhhhhhhhhhhhhhh %iiX%% hi%Xhhhhhhhhhhhhhhhhhhhhhh",
"hhhhhhhhhhhhhhhhhhhhhhhhhhhhh %%ddaO*.di%Xhhhhhhhhhhhhhhhhhhhhhh",
"hhhhhhhhhhhhhhhhhhhhhhhhhhhh $%ihifiOiii%@hhhhhhhhhhhhhhhhhhhhhh",
"hhhhhhhhhhhhhhhhhhhhhhhhhhh#%isiaiiiiiii%.Ohhhhhhhhhhhhhhhhhhhhh",
"hhhhhhhhhhhhhhhhhhhhhhhhhhh %iiiipifaiiii%%Xhhhhhhhhhhhhhhhhhhhh",
"hhhhhhhhhhhhhhhhhhhhhhhhhhX%daaiiiiidiidiih%.hhhhhhhhhhhhhhhhhhh",
"hhhhhhhhhhhhhhhhhhhhhhhhhh %ipiidiiiiiiiiiii% hhhhhhhhhhhhhhhhhh",
"hhhhhhhhhhhhhhhhhhhhhhhhh %iidiiiipiiiiiiaiip%.hhhhhhhhhhhhhhhhh",
"hhhhhhhhhhhhhhhhhhhhhhhhh %hiiiipsiiipiiiiiii%Xhhhhhhhhhhhhhhhhh",
"hhhhhhhhhhhhhhhhhhhhhhhh %iipsiiiiiiiaiiiiidii%.hhhhhhhhhhhhhhhh",
"hhhhhhhhhhhhhhhhhhhhhhhh %aiidiiiiiiipiiipiiii% hhhhhhhhhhhhhhhh",
"hhhhhhhhhhhhhhhhhhhhhh  %iiiiiiiiiiiiaiiiiiiia% hhhhhhhhhhhhhhhh",
"hhhhhhhhhhhhhhhhhh     %diiiiiiiiipiiidiipiiii% hhhhhhhhhhhhhhhh",
"hhhhhhhhhhhhhOO   %-%%%daii,ipidii6iiiipii<iiii-Ohhhhhhhhhhhhhhh",
"hhhhhhhhhhhO %$%%%iiiiiiii,,iiddi44iaiiii,,iiii% hhhhhhhhhhhhhhh",
"hhhhhhhhh  %%rurrrreiiiii<iiiiii,iiiiaii,piipip% hhhhhhhhhhhhhhh",
"hhhhhhhhO%*urrrrrrrrtpiid,idiidd,iiiiiid,diiiai%Ohhhhhhhhhhhhhhh",
"hhhhhhOX-rrrrrrrrrrrriai1,iiiii,<iiiiii,,iiiiddh- hhhhhhhhhhhhhh",
"hhhhh %%rrrrruuurrrripia,,,,,pi,,,,,iii,,,,,iiiii%.hhhhhhhhhhhhh",
"hhhhO%rrrrrrrrrrrriiiiii,dii,,i,iii,<ii<iii<1iaiii% hhhhhhhhhhhh",
"hhhX%rrrrrrrrrrrrhiiiids,iii,1i,idi,,ii,iii,,iidrii% hhhhhhhhhhh",
"hh %rrrrrrrrrurr    iiiii,,,,iii,,,2iiii>,1,iiiirrii% hhhhhhhhhh",
"h *rrrurrr O O  hhhh  .%diiiiiiiiiiiipiaiiipiiirrtraa%Ohhhhhhhhh",
" *ryrrrt  hhhhhhhhhhhhO%iiiipiiiiiiiiiiiiiiiiiirertrai%.hhhhhhhh",
" %urrr. hhhhhhhhhhhhhh %iiiiiiiiiiipiiiiiiiiiiirrrrrrad% hhhhhhh",
" %rr  hhhhhhhhhhhhhhhh %iiiiiiiaiiiiiiiiidiiaidirerrrrii%Xhhhhhh",
"X%rOhhhhhhhhhhhhhhhhhh %daiiiidiiiiiiiiiiiiiia$ rrrrrerpi* hhhhh",
"hOXhhhhhhhhhhhhhhhhhhh %iiiiiiiiiiiiiiaidiiii% h rrrrrrti%Ohhhhh",
"hhhhhhhhhhhhhhhhhhhhhhh *aiiaiiiiiaiiiiaiiiii% hhXrrrrruii-.hhhh",
"hhhhhhhhhhhhhhhhhhhhhhhO-idipiiiiiiiiiiiiipii%#hhhXrururra% hhhh",
"hhhhhhhhhhhhhhhhhhhhhhh %iiiiiiaiiaiiiiaiiiii$Ohhh rtrrurii% hhh",
"hhhhhhhhhhhhhhhhhhhhhhhO%riipiiiaiiiiiiiipiii% hhhh rrrrrra%Xhhh",
"hhhhhhhhhhhhhhhhhhhhhhhh %eiiiiiiiiaiiiipiiii% hhhhh rrrrri* hhh",
"hhhhhhhhhhhhhhhhhhhhhhhh %r .Opdiiidiaaiiiiir% hhhhhh  rtrii%@hh",
"hhhhhhhhhhhhhhhhhhhhhhhh % 9w0 siiiiipipdiii% hhhhhhhhh rrri%Ohh",
"hhhhhhhhhhhhhhhhhhhhhhhh  99099 ipiiiiiiiifr-ohhhhhhhhhhX rh% hh",
"hhhhhhhhhhhhhhhhhhhhhhhhh.07999 iiiiiiiiiii%.hhhhhhhhhhhhh X hhh",
"hhhhhhhhhhhhhhhhhhhhhhhhh 97999 %riiiiiir O  hhhhhhhhhhhhhhhhhhh",
"hhhhhhhhhhhhhhhhhhhhhhhhh q9990.%%riiiit 9899 hhhhhhhhhhhhhhhhhh",
"hhhhhhhhhhhhhhhhhhhhhhhhhhX999X-*%%%%%o 999999 hhhhhhhhhhhhhhhhh",
"hhhhhhhhhhhhhhhhhhhhhhhhhhh   h $%%%% hh 999909 hhhhhhhhhhhhhhhh",
"hhhhhhhhhhhhhhhhhhhhhhhhhhhhhhhh    .hhhh 9979 hhhhhhhhhhhhhhhhh",
"hhhhhhhhhhhhhhhhhhhhhhhhhhhhhhhhhhhhhhhhhh   @hhhhhhhhhhhhhhhhhh"
};
