/* XPM */
static char *result[] = {
/* columns rows colors chars-per-pixel */
"64 64 44 1 ",
"  c black",
". c #010000",
"X c #000100",
"o c #010100",
"O c #000001",
"+ c #010001",
"@ c #000101",
"# c #010101",
"$ c #2A2C3E",
"% c #2B2C3E",
"& c #2A2D3E",
"* c #2B2D3E",
"= c #2A2C3F",
"- c #2B2C3F",
"; c #2A2D3F",
": c #2B2D3F",
"> c #31324C",
", c #31324D",
"< c #31334D",
"1 c #AA0000",
"2 c #AB0000",
"3 c #AB0100",
"4 c #AB0001",
"5 c #D89852",
"6 c #D89952",
"7 c #D89853",
"8 c #D89953",
"9 c #D99953",
"0 c gray76",
"q c #C3C2C2",
"w c #C2C3C2",
"e c #C3C3C2",
"r c #C2C2C3",
"t c #C3C2C3",
"y c #C3C3C3",
"u c gray84",
"i c #D7D6D6",
"p c #D6D7D6",
"a c #D7D7D6",
"s c #D6D6D7",
"d c #D7D6D7",
"f c #D6D7D7",
"g c #F6F2F2",
"h c None",
/* pixels */
"hhhhhhhhhhhhhhhhhhhhhhhhhhhhhhhhhhhhhhhhhhhhhhhhhhhhhhhhhhhhhhhh",
"hhhhhhhhhhhhhhhhhhhhhhhhhhhhhhhhhhhhhhhhhhhhhhhhhhhhhhhhhhhhhhhh",
"hhhhhhhhhhhhhhhhhhhhhhhhhhhhhhhhhhhhhhhhhhhhhhhhhhhhhhhhhhhhhhhh",
"hhhhhhhhhhhhhhhhhhhhhhhhhh#.+ O   hhhhhhhhhhhhhhhhhhhhhhhhhhhhhh",
"hhhhhhhhhhhhhhhhhhhhhhh  X%*%%:#*%X hhhhhhhhhhhhhhhhhhhhhhhhhhhh",
"hhhhhhhhhhhhhhh O +  XO=%%%%%XX%%-%%Ohhhhhhhhhhhhhhhhhhhhhhhhhhh",
"hhhhhhhhhhhhhh+%*=%%%%%%--%%+g1%%%$%%Ohhhhhhhhhhhhhhhhhhhhhhhhhh",
"hhhhhhhhhhhhhh.,%%-%%%%%:--*%11%%%%%%%.hhhhhhhhhhhhhhhhhhhhhhhhh",
"hhhhhhhhhhhhhhh  ,%%%=*%%-%%%*-*:%%%-- hhhhhhhhhhhhhhhhhhhhhhhhh",
"hhhhhhhhhhhhhhhhh. o,,*%%%%%-%-$%%%%*%% hhhhhhhhhhhhhhhhhhhhhhhh",
"hhhhhhhhhhhhhhhhhhhh @O%-:--%-%%%%%*%%%Ohhhhhhhhhhhhhhhhhhhhhhhh",
"hhhhhhhhhhhhhhhhhhhhhhh %%%-=-%*%$*%-%-% hhhhhhhhhhhhhhhhhhhhhhh",
"hhhhhhhhhhhhhhhhhhhhhhhh %%%%---%%-%%%%$ hhhhhhhhhhhhhhhhhhhhhhh",
"hhhhhhhhhhhhhhhhhhhhhhhhh ,%*%-%%%%-%%%%Xhhhhhhhhhhhhhhhhhhhhhhh",
"hhhhhhhhhhhhhhhhhhhhhhhhhh ,%%:%%%-*%%%%.hhhhhhhhhhhhhhhhhhhhhhh",
"hhhhhhhhhhhhhhhhhhhhhhhhhhh %-----%%%%%%Xhhhhhhhhhhhhhhhhhhhhhhh",
"hhhhhhhhhhhhhhhhhhhhhhhhhhhh %%%%%%%%%%* hhhhhhhhhhhhhhhhhhhhhhh",
"hhhhhhhhhhhhhhhhhhhhhhhhhhhh %%%%%-:-%$% hhhhhhhhhhhhhhhhhhhhhhh",
"hhhhhhhhhhhhhhhhhhhhhhhhhhhhX%%*%%%$%*--.hhhhhhhhhhhhhhhhhhhhhhh",
"hhhhhhhhhhhhhhhhhhhhhhhhhhhh.%%%%*$%%%%Xhhhhhhhhhhhhhhhhhhhhhhhh",
"hhhhhhhhhhhhhhhhhhhhhhhhhhhX,,%%-%%*--% hhhhhhhhhhhhhhhhhhhhhhhh",
"hhhhhhhhhhhhhhhhhhhhhhhhhhh ,$---%%%-*%.hhhhhhhhhhhhhhhhhhhhhhhh",
"hhhhhhhhhhhhhhhhhhhhhhhhhh %-%%%%&%%-%=#hhhhhhhhhhhhhhhhhhhhhhhh",
"hhhhhhhhhhhhhhhhhhhhhhhhh p%$%$-%*%--%% hhhhhhhhhhhhhhhhhhhhhhhh",
"hhhhhhhhhhhhhhhhhhhhhhhh uuu>-$%%$%%--% hhhhhhhhhhhhhhhhhhhhhhhh",
"hhhhhhhhhhhhhhhhhhhhhhh upsuu%,-%%%%-,,Ohhhhhhhhhhhhhhhhhhhhhhhh",
"hhhhhhhhhhhhhhhhhhhhhh uuuuup%=%%%$*,,    O XOhhhhhhhhhhhhhhhhhh",
"hhhhhhhhhhhhhhhhhhhhh uiuuuuuu%,.XO   -%%%%%-% +   hhhhhhhhhhhhh",
"hhhhhhhhhhhhhhhhhhhh.uuiuuuuu   %%%%-%yqqqqeqq%%-%% .hhhhhhhhhhh",
"hhhhhhhhhhhhhhhhhhh uuuuuuusiuusweqtqqqq0qeqqqtqq0q-%Ohhhhhhhhhh",
"hhhhhhhhhhhhhhhhhh uuusuuuuisuufuuqq0qtqqqqqtq0eqqqqq% hhhhhhhhh",
"hhhhhhhhhhhhhhhhh uuuuuuupusiupuuuuqqeqeq0qq0qqtqqqqer% hhhhhhhh",
"hhhhhhhhhhhhhhhhh sipsuuiuiupusuuuupqqqeqqqqq0qqqqtqett$ hhhhhhh",
"hhhhhhhhhhhhhhhh iususpuuuuusuusuuuqqt0qqqtqqq . .X  +  hhhhhhhh",
"hhhhhhhhhhhhhhhh 2iauuuuu21uuusuuuuqqqqqq  OO hhhhhhhhhhhhhhhhhh",
"hhhhhhhhhhhhhhh 2uuuuuui2uuuuuuuuiqqq0 . hhhhhhhhhhhhhhhhhhhhhhh",
"hhhhhhhhhhhhhhh uupuusu2suuuiusputqqq   hhhhhhhhhhhhhhhhhhhhhhhh",
"hhhhhhhhhhhhhh 2puiuuu2iuuuupu qqq  X-* hhhhhhhhhhhhhhhhhhhhhhhh",
"hhhhhhhhhhhhhh u2uuiu4usuuuuuuu.  ,$$%* hhhhhhhhhhhhhhhhhhhhhhhh",
"hhhhhhhhhhhhhh uu2uuu2us22susuu%-%-%%-* hhhhhhhhhhhhhhhhhhhhhhhh",
"hhhhhhhhhhhhhhXuuu2uu2u4uu2upiuu=%%%*** hhhhhhhhhhhhhhhhhhhhhhhh",
"hhhhhhhhhhhhhhh.ui2ui22uuuu2uuiu%%*%%** hhhhhhhhhhhhhhhhhhhhhhhh",
"hhhhhhhhhhhhhhh ss2up2uuuus3uusuu**%%;* hhhhhhhhhhhhhhhhhhhhhhhh",
"hhhhhhhhhhhhhhhhO2uuuu2uuu2uiupua,%%*%** hhhhhhhhhhhhhhhhhhhhhhh",
"hhhhhhhhhhhhhhhh uisusu222uuupusuu%$%$-* hhhhhhhhhhhhhhhhhhhhhhh",
"hhhhhhhhhhhhhhhhh uuuuuuuuuuuisuuu%%%$%* hhhhhhhhhhhhhhhhhhhhhhh",
"hhhhhhhhhhhhhhhhhOipuufiupupuuuuuuu**%%%* hhhhhhhhhhhhhhhhhhhhhh",
"hhhhhhhhhhhhhhhhhh uuduiuuupduuuduu,%%$%* hhhhhhhhhhhhhhhhhhhhhh",
"hhhhhhhhhhhhhhhhhhh pusupuuuuiuuusuu%%$%%* hhhhhhhhhhhhhhhhhhhhh",
"hhhhhhhhhhhhhhhhhhhh suuuuuuuuusuuiuf*-%%* hhhhhhhhhhhhhhhhhhhhh",
"hhhhhhhhhhhhhhhhhhhhh fusuusuusuuuupi<%%%-* hhhhhhhhhhhhhhhhhhhh",
"hhhhhhhhhhhhhhhhhhhhhh qusuuuiuuusuuup%-%%* hhhhhhhhhhhhhhhhhhhh",
"hhhhhhhhhhhhhhhhhhhh   XXqpuuuuspuiiis*%-%-* hhhhhhhhhhhhhhhhhhh",
"hhhhhhhhhhhhhhhhhhh 988 % tupuuuupuuuiu%*%%* hhhhhhhhhhhhhhhhhhh",
"hhhhhhhhhhhhhhhhhhh 7888 % quuuiiuuuuuu%%%%%,  hhhhhhhhhhhhhhhhh",
"hhhhhhhhhhhhhhhhhhhh 8878 % quuuuuuiiui%%%--%,, X hhhhhhhhhhhhhh",
"hhhhhhhhhhhhhhhhhhhhh 8988 h   ouuupiuuq%&%-%%-,,, hhhhhhhhhhhhh",
"hhhhhhhhhhhhhhhhhhhhhhO887 hhhhhX  uiuqt-%%%-%%%%% hhhhhhhhhhhhh",
"hhhhhhhhhhhhhhhhhhhhhhh 9 hhhhh@. O  X ,,-*%%%%%%oohhhhhhhhhhhhh",
"hhhhhhhhhhhhhhhhhhhhhhh. hhhhhO89968657 ,  .  oO+ hhhhhhhhhhhhhh",
"hhhhhhhhhhhhhhhhhhhhhhhhhhhhhhh 69866888 hhhhhhhhhhhhhhhhhhhhhhh",
"hhhhhhhhhhhhhhhhhhhhhhhhhhhhhhhh X      hhhhhhhhhhhhhhhhhhhhhhhh",
"hhhhhhhhhhhhhhhhhhhhhhhhhhhhhhhhhhhhhhhhhhhhhhhhhhhhhhhhhhhhhhhh",
"hhhhhhhhhhhhhhhhhhhhhhhhhhhhhhhhhhhhhhhhhhhhhhhhhhhhhhhhhhhhhhhh"
};
