/* XPM */
static char *result[] = {
/* columns rows colors chars-per-pixel */
"64 64 32 1 ",
"  c black",
". c #010000",
"X c #000100",
"o c #010100",
"O c #000001",
"+ c #010001",
"@ c #000101",
"# c #20213A",
"$ c #2A2C3E",
"% c #2B2C3E",
"& c #2A2D3E",
"* c #2B2D3E",
"= c #2A2C3F",
"- c #2B2C3F",
"; c #2B2D3F",
": c #242542",
"> c #282840",
", c #282940",
"< c #292940",
"1 c #292B43",
"2 c #2E3045",
"3 c #2F3045",
"4 c #2F3145",
"5 c #313247",
"6 c #D89852",
"7 c #D89952",
"8 c #D99952",
"9 c #D89853",
"0 c gray76",
"q c #C3C2C2",
"w c #C3C3C2",
"e c None",
/* pixels */
"eeeeeeeeeeeeeeeeeeeeeeeeeeeeeeeeeeeeeeeeeeeeeeeeeeeeeeeeeeeeeeee",
"eeeeeeeeeeeeeeeeeeeeeeeeeeeeeeeeeeeeeeeeeeeeeeeeeeeeeeeeeeeeeeee",
"eeeeeeeeeeeeeeeeeeeeeeeeeeeeeeeeeeeeeeeeeeeeeeeeeeeeeeeeeeeeeeee",
"eeeeeeeeeeeeeeeeeeeeeeeeeeeeeeeeeeeeeeeeeeeeeeeeeeeeeeeeeeeeeeee",
"eeeeeeeeeeeeeeeeeeeeeeeeeeeeeeeeeeeeeeeeeeeeeeeeeeeeeeeeeeeeeeee",
"eeeeeeeeeeeeeeeeeeeeeeeeeeeeeeeeeeeeeeeeeeeeeeeeeeeeeeeeeeeeeeee",
"eeeeeeeeeeeeeeeeeeeeeeeeeeeeeeeeeeeeeeeeeeeeeeeeeeeeeeeeeeeeeeee",
"eeeeeeeeeeeeeeeeeeeeeeeeeeeeeeeeeeeeeeeeeeeeeeeeeeeeeeeeeeeeeeee",
"eeeeeeeeeeeeeeeeeeeeeeeeeeeeeeeeeeeeeeeeeeeeeeeeeeeeeeeeeeeeeeee",
"eeeeeeeeeeeeeeeeeeeeeeeeeeeeeeeeeeeeeeeeeeeeeeeeeeeeeeeeeeeeeeee",
"eeeeeeeeeeeeeeeeeeeeeeeeeeeeeeeeeeeeeeeeeeeeeeeeeeeeeeeeeeeeeeee",
"eeeeeeeeeeeeeeeeeeeeeeeeee       eeeeeeeeeeeeeeeeeeeeeeeeeeeeeee",
"eeeeeeeeeeeeeeeeeeeeeeeee %%%%%%% eeeeeeeeeeeeeeeeeeeeeeeeeeeeee",
"eeeeeeeeeeeeeeeeeeeeeeee $%%-%%*%% eeeeeeeeeeeeeeeeeeeeeeeeeeeee",
"eeeeeeeeeeeeeeeeeeeeeeee %%,%%%%%%%oeeeeeeeeeeeeeeeeeeeeeeeeeeee",
"eeeeeeeeeeeeeeeeeeeeeee %%,,-%,%>,%Xeeeeeeeeeeeeeeeeeeeeeeeeeeee",
"eeeeeeeeeeeeeeeeeeeeeee $%,%%%,,$,% eeeeeeeeeeeeeeeeeeeeeeeeeeee",
"eeeeeeeeeeeeeeeeeeeeeee %%,$%%%-%%%% eeeeeeeeeeeeeeeeeeeeeeeeeee",
"eeeeeeeeeeeeeeeeeeeeeee %%-*%%%%$%,-%.eeeeeeeeeeeeeeeeeeeeeeeeee",
"eeeeeeeeeeeeeeeeeeeeeee %,%%%,%%%%,,% eeeeeeeeeeeeeeeeeeeeeeeeee",
"eeeeeeeeeeeeeeeeeeeeeee ,%%%%,%*%%%%%%. eeeeeeeeeeeeeeeeeeeeeeee",
"eeeeeeeeeeeeeeeeeeeeeee ,%%%$,%%%%%-%,%%Xeeeeeeeeeeeeeeeeeeeeeee",
"eeeeeeeeeeeeeeeeeeeeeee ,%**%%%-*%%%%&%%$ eeeeeeeeeeeeeeeeeeeeee",
"eeeeeeeeeeeeeeeeeeeeee %*$%%%%%%%%%*%%*%%% eeeeeeeeeeeeeeeeeeeee",
"eeeeeeeeeeeeeeeeeeeee %%%%%%%,,%,,%,,%%$%%% O eeeeeeeeeeeeeeeeee",
"eeeeeeeeeeeeeeeeeeeee *-%%%%%%%-%%*%,$<$%%%%*%    eeeeeeeeeeeeee",
"eeeeeeeeeeeeeeeeeeeee %,%%%%%%$*%%%$%*,%%%,%%%-%%*O  eeeeeeeeeee",
"eeeeeeeeeeeeeeeeeee  %%,%%%%,,%%%%%%%*$,%%*%%%$,%%%%% Oeeeeeeeee",
"eeeeeeeeeeeeeeeee  -%%%%%%%%,%%%%%1%%%%%,%%%%%%%%,,,%$*X@eeeeeee",
"eeeeeeeeeeeeeee  %%*%%%;%%%%%-%-%%%>%%*%,%%*33%%%%%,,,%%%  eeeee",
"eeeeeeeeeeeeeX %$%%%$%%%%%%%$%-%%%,%%%%%%%%3O %%%3333-%%%%- eeee",
"eeeeeeeeeeee *%%%%**,%%%%%%%%*,%%%%%1--%%%%3@e o..   %33%$%% eee",
"eeeeeeeeeee %%%%,%%%%$%%-*%%-%,;-%%%$1%%$-%%: eeeeeee  X %2%% ee",
"eeeeeeeeee =-%-%%%%%3%%%>%%%%%*%%%$%-1%%%%%%- eeeeeeeeeee  %-% e",
"eeeeeeeee %%%%%%%43 3%-%,%%%%%%%%*,,%%%%%%$%*% eeeeeeeeeeee %%% ",
"eeeeeeee $%%,%%% X e 3%%-%%%%%*%-%%%,%%%$%%%%%Oeeeeeeeeeeeee.%%.",
"eeeeeee %%%%-%O eeeee %,%-;%$%%%%%%%%,%1%%%,%* eeeeeeeeeeeeeeO e",
"eeeeee %-$-%X eeeeeee %,%%%%%%$%,%%-%%-1%-%,%%% eeeeeeeeeeeeeeee",
"eeeee %-%%%Oeeeeeeeee.%%%-%*%%%%,%%%-,%%%%%<%*% eeeeeeeeeeeeeeee",
"eeeee %%%%.eeeeeeeeeeO%-%%%%%%,$,%%%,,%%%%*$%%% eeeeeeeeeeeeeeee",
"eeeee %%%OeeeeeeeeeeeX%%%,%%%,,%%%$$%-;%%%%%,%% eeeeeeeeeeeeeeee",
"eeeeeX%% eeeeeeeeeeee.%%%,%%%,;%%*,*%%%%%,%%%%% eeeeeeeeeeeeeeee",
"eeeeee Oeeeeeeeeeeeee %%%%-%-%%%&%,%%%$%*%%%%%; eeeeeeeeeeeeeeee",
"eeeeeeeeeeeeeeeeeeeeeO#%%*%,%%%%%%%-%%%%%%%%%$% eeeeeeeeeeeeeeee",
"eeeeeeeeeeeeeeeeeeeee q%%$%%%%%$-%**$%%%%%%%%%% eeeeeeeeeeeeeeee",
"eeeeeeeeeeeeeeeeeeeee.q5%*%%%-%%%%%,%%%%%,,%%%- eeeeeeeeeeeeeeee",
"eeeeeeeeeeeeeeeeeeeeee q%%%%%%%%%%%-%%*%%%$%%%q eeeeeeeeeeeeeeee",
"eeeeeeeeeeeeeeeeeeeeee q2%*%%$%%%%$--%,%%%%%%qOeeeeeeeeeeeeeeeee",
"eeeeeeeeeeeeeeeeeeeeeee 33%%%-,%%,,,%$,%%%%$3qXeeeeeeeeeeeeeeeee",
"eeeeeeeeeeeeeeeeeeeeeee 03%%%%%%%%%$%%%*$&%3w eeeeeeeeeeeeeeeeee",
"eeeeeeeeeeeeeeeeeeeeeeee.q3%$%%%%,,%*%%%%%-3 eeeeeeeeeeeeeeeeeee",
"eeeeeeeeeeeeeeeeeeeeeeeee 33%%,%%%-%%%%%%%3qXeeeeeeeeeeeeeeeeeee",
"eeeeeeeeeeeeeeeeeeeeeeeee q33%%%%%$%%%%%333q7.eeeeeeeeeeeeeeeeee",
"eeeeeeeeeeeeeeeeeeeeeeee 76q3wX .%#5%   .q77 eeeeeeeeeeeeeeeeeee",
"eeeeeeeeeeeeeeeeeeeeeeee 78779+ee  # eeee.  eeeeeeeeeeeeeeeeeeee",
"eeeeeeeeeeeeeeeeeeeeeeeee.   oeeeee.eeeeeeeeeeeeeeeeeeeeeeeeeeee",
"eeeeeeeeeeeeeeeeeeeeeeeeeeeeeeeeeeeeeeeeeeeeeeeeeeeeeeeeeeeeeeee",
"eeeeeeeeeeeeeeeeeeeeeeeeeeeeeeeeeeeeeeeeeeeeeeeeeeeeeeeeeeeeeeee",
"eeeeeeeeeeeeeeeeeeeeeeeeeeeeeeeeeeeeeeeeeeeeeeeeeeeeeeeeeeeeeeee",
"eeeeeeeeeeeeeeeeeeeeeeeeeeeeeeeeeeeeeeeeeeeeeeeeeeeeeeeeeeeeeeee",
"eeeeeeeeeeeeeeeeeeeeeeeeeeeeeeeeeeeeeeeeeeeeeeeeeeeeeeeeeeeeeeee",
"eeeeeeeeeeeeeeeeeeeeeeeeeeeeeeeeeeeeeeeeeeeeeeeeeeeeeeeeeeeeeeee",
"eeeeeeeeeeeeeeeeeeeeeeeeeeeeeeeeeeeeeeeeeeeeeeeeeeeeeeeeeeeeeeee",
"eeeeeeeeeeeeeeeeeeeeeeeeeeeeeeeeeeeeeeeeeeeeeeeeeeeeeeeeeeeeeeee"
};
