/* XPM */
static char *result[] = {
/* columns rows colors chars-per-pixel */
"64 64 23 1 ",
"  c #BE8E2C",
". c #BF8E2C",
"X c #BE8F2C",
"o c #BE8E2D",
"O c #D4A23D",
"+ c #9F9E9C",
"@ c #C6C4C4",
"# c #C7C4C4",
"$ c #C6C5C4",
"% c #C6C4C5",
"& c #D2CECE",
"* c #D3CECE",
"= c #D2CFCE",
"- c #D3CFCE",
"; c #D2CECF",
": c #D2CFCF",
"> c #D3CFCF",
", c #F6F4F4",
"< c #F7F4F4",
"1 c #F6F5F4",
"2 c #F7F5F4",
"3 c #F7F4F5",
"4 c #F7F5F5",
/* pixels */
"<<=======&=====:=-=====:==&=&=    =========&=======-&===-=====<<",
"2<==============&===&==-====&= o O==============-=======:-===-<<",
"<<=====--&&===-=======:=====&=   O==========-===&=======:=====<<",
"<,=======:==:==-========--====  o ==&===========:-=-====;=:=&=,<",
"<<=-==-==========&&=&-====:==-===-========&=-=====-:==========<3",
"<<=======&+======:=-=:--@==:====:=======@&:=====:===-==+======<<",
"<<=-=-=&:+==&=====:====%=:=-==-==;===:=@=========&====+=====&=<<",
"<3======:===&===============-====:-====&:=======&===&&=======-<,",
"<2===&=&====:==:=-==========&=    =>&====>;=========-===:=====<<",
"<2==========&========:========    ==:=============;==&========<<",
"<<-==&==:============-========    ==-===&&=&=-======&=-=&&=-==,<",
"<<==&=====-=======;&======&===    -:==========:============-==<<",
"<<==&==&===-===-&=-&====-=====O   :==-=:=======-==-=======&=:-<3",
"<3-========&===&&:=&==========O   ;===-=================:=====<2",
"<,-======-======-::======-====O   ================:-====-=====<3",
"<<:&:=====================:=:=    :=========-========-========1<",
"<<============================o   =================-====>=====<4",
"<<=-==&======:====:==:=-==-===   .==&==========:&===-=========<<",
"<<=:==&:==>==============--===    ====:===========&===========,<",
"<2====:=======:=====:&==&=====  o ==-:====================:==:<<",
"2<========&=:&=======:=====:=========:=====-====-==:::=&=&===:<<",
"<<=======$=====:=-=:===-+=====:=-=======+-==:&=:=-&:===@====:=<<",
"42======@-=============+============-&=+=========-===:@=======<<",
"<,:======-==&======:======:==:==-&====&==========*:=========&=2<",
"<<-=====:====::=============== X  ==&-=-=======&============&=<<",
"<<============&=======-=====&=    -=======&=:=========&:==:-==<<",
"<<===-&=========-==========&==O   =&====::=:&===============-=<3",
"<<-====:======================O  O==============&====-========2<",
"<<:==========;=====-===&=====:   O==-==&=&====================<<",
"<<=&====&===&======-==========   O========&====-====&==-======2<",
"<<==-==-=======-========:=====  oO========-====-==============<<",
"<<==============&====:=====-==   .===&==========&========:-==-<<",
"<<==-===&====&&======:===-====O   :=======&==============&====,<",
"<<-===-:===&==&:==============    ==>=-=====*======:========:=2<",
"<,=-:=====-======:===&===&====    ==-=:======&=======-========<<",
"<<--==&==-=-==================    ======-=======&=============<<",
"<<=====:====&=;:=-===&&==&=======&===================-========<<",
"<3==&====+-==&==========@===>=====&=====@-===&=========+===-=-<<",
"<<======+===========-==#:=:==&=========@::*====;======+=======<<",
"<3=&&====-==========&========:=:==========&==--=======:=======<<",
"<,====&&==========&===========   .=========&=====&-====:======<<",
"<<===:=======:================  . =&==&===-=>==-:=============<<",
"<<====&===&==&==========-=&===X   ====;==&====:;====-====&====23",
"<<============:==::=======&===    =-&=&======-================2<",
"<<=:==&=&=======:=;====-======   O=========-=========&=======-<3",
"<<======-====:-=====:&========   O:===================&===-===<<",
"<<==-==============-==========    ====-==============&====&===<<",
"<3==-=====:=&================= X  :==:==========&=====:=:-==&=<<",
"<<==:&:===&======-===&=====&== . o=:===:======:====-==:=======<<",
"2,===:==-===-=-======-======:= . o&=====================:=====<<",
"<<=====:===:=======:=&======-=    &==:=======>==========:==-==<<",
"<<========:&===-=====:==&===== o  &========&==&===============23",
"<<=::==-===-=:-===================&=========-:===:====:=&=====,<",
"<<=>===-=@======&==&-===+-======&=======+==============@&===-:<3",
"<<======@&&&========&==+==:==&=:====-==+==============@=====:=<<",
"<<=:==============-======>=-====:====-=====================&=:<<",
"<<=&=&====::==========&====;==  X ========&===================<<",
",<=:=====&====:===&==-==:=====    -============:============:=<<",
"<1===============-=====-===-==    =====&=:==================:=2<",
"<<==========-=:-=======:======O  X===-===:==:=-===============<<",
"<3&====-====&====&===:========O   ========-=&&===:==&&=:-=====,<",
"<<=================::-==&====:  . =========:==:===-=========-=<<",
"<<===&====;&=========:======== .  =-=:======:==-=======&======<<",
"<<===-====&:=-=========:===:==  o =========-====:=:===========<<"
};
