/* XPM */
static char *_94b244b2c3b43d0b776fde63608a455zFuYvgZQxyrRmreG[] = {
/* columns rows colors chars-per-pixel */
"64 64 38 1 ",
"  c #010000",
". c #474242",
"X c #464342",
"o c #474342",
"O c #464243",
"+ c #474243",
"@ c #464343",
"# c #474343",
"$ c #525752",
"% c #535752",
"& c #676666",
"* c #666766",
"= c #666667",
"- c #FE0808",
"; c #22AA12",
": c #23AA13",
"> c #22AB13",
", c #358022",
"< c #358122",
"1 c #348023",
"2 c #358023",
"3 c #3CE22A",
"4 c #3DE22A",
"5 c #3DE22B",
"6 c #FAFE08",
"7 c #FBFF09",
"8 c #94918E",
"9 c #94908F",
"0 c #94918F",
"q c #A8A4A4",
"w c #A9A4A4",
"e c #A8A5A4",
"r c #A8A4A5",
"t c #A9A4A5",
"y c #A8A5A5",
"u c #A9A5A5",
"i c #F2EEEE",
"p c #F2EEEF",
/* pixels */
",,,,,,,,,,,,,,,,,,,,,,,,,++#+++oww9q...O...ooo.......oo...@@oooo",
",,>>2,,,,,,,,,2>,,,;,,6,,,+++#++w&q8..#O%......o......oo....oo..",
",,,>22,3,,,311>1,;;,,6 6,>>+O+..q&q8..##ooooo..........o.....o..",
",,,>,2,3,,,31>11,,,,,,65>>,+....q&qq..##oooo................o...",
",,,5,,,3,,,,3,,,,,,,>,,3,>,...qqr&wruu....@o.....$.....o........",
",,,5>>,,,,,,>,,,,,3,>,,,3>...q9qr&rr8uu..o@o$...o+..............",
",,,,,,>,,,,;,,,,,,,,;,,,,3...qqqr&rryuu.oooo....ooo.............",
",,,,6,,>,,,;,,333,,,,;,,,....q9qqrr8r8y.ooo++$..oooo.o..........",
",,,6 6,>,,;,,,;,3,,,,,,,>>>..9wqq9rrrrr..@@#.....@..............",
",:,,63,,;,,,,,,:,5,,2>,,,OO..wwqqrrrrrr.@@+#....@.....@.........",
",:,,:3,,,;,,,,,:,,22>,,,,....wq9q&r&r8y@oo+o........@...........",
",,,,3,3,,;,,,,2:226:,1,>2O...wq9q&q&ryy@oooo...o@...............",
",,,5>1,3,;,,,,,;,6 6,,,;1,...qqqqqr&rry.oooo@oooX@.......X......",
",,55>21,3,,,11,;,,6>,,;;,1....qq8yrrrr@.ooo@ooooX@.....@........",
",,,,>2,,-2,,3,,;,,3,,,;,,>>.....yryr...@ooo.oo+o......@.........",
",,,,>,,- -,,,11:,,,,,,,,;>......yy&r...@ooo.oooo.....@..@.......",
",:,,:,,3->,,,,,;;>,,,,,,,,oo....8w*wo%oXo.oo...o..X.o...%@......",
",:,,:,3,,,;,,,,,,,>>,>,,,,oo....qw&8oo%..ooo...o....oo..o%......",
",,:3>,5,,,:,,,,,,,,,2;,>,4o+....qq&woo...ooo..oo..@.ooooo.......",
",,>3>,5,,,,,3,,,,,,,;,,><4o+....q8&woo@Xo.+@@.oo.oX.ooooo.%.@...",
",,,,,,5,,,,,,3,,,,,:21,,33++#+OO8q*y@@.@o...oooo@o.ooooooooX@ooo",
",,,,,,5,,3,,,,33,,,;11,,3,++#OOOqq&y...@o...o@oooo....ooooo@.Xoo",
",,5,,,,,33;,,,,5,,;,,,;,,,,.#+wwrr&ywwo@....@@..ooo....ooo...ooo",
",,,5,,,,5,,>,,5,,,;,,,;,,....uwqry&ywww@....@...oo.....@oo...oo.",
",,,5,,,,4>,;,,5,,,:,,,>,,+++Ow9rr8&rr9y..@oooo......oooooo..@ooo",
",,,5,,,,>,,,;55,,:p,,,>,,+++.9rry9rrrrr.o+oooo...o.ooooooo..Xooo",
"5,,,,,,,;,,,;,,,1p6p,:,,,,++Orwwrrrr9r8O.@.@o.....o.ooXoo.....oo",
",,,,>,,:,,,,;,,,,1p2,:,,,,,+Oww9rrrrrryO....oo...$oo.o@........o",
",,,,>,,>,,,,,,,,,,3,;,,,,>...qqwr&r&rryO....o..%$oo....@...o.@..",
",,,,:,,:,3,,,,,,1>3,;,,,>+...qqqr&r&r9y.....o.%o++.....@..%..@@.",
",,,,<;;,,3,,,,;,;,,,,;,;>....q9qr&9&yy8O....oo%o+o.......%o.oooo",
">;4,<;<,,,32,,,;;,,,,,;,,,....qqr&rry8@....ooooooo#@......oooooo",
",,i,,>,,,,,3226,;,,,,3,>22......r&r8.OO..oooooo..o..oooooo......",
",i6i,>,,,,,,26 6;,;;,3,>>3......r&yyOOO...ooooo..o.ooooooo......",
",,i,,>,,,,,,226,,,,;,,,,2...#...q&8y####o.oooooo..oo@o..oo..oo..",
",,3,,,,,2:,,,,3,,,,,;,,,3....#..qyry.###oooooooo........oo.oo@..",
",,3,,,,,,,>,,,,3,,,,3,,>2.......qqww..@@@@ooooo@..oooo..oo..Xooo",
",,3,,,,3,,>,,,>,,;,,,,,,>.......y8ww.#@@..ooooo@..oXoo..o@..oXoo",
",,,3,,,,,,,,,,;,,;,,,,,,,>......8yw8oo@@...ooo...$.@oooooo....oo",
",,,3,,,,,2,-,,;,,2:,,,,,,,,...O.r8wwo@@@...ooooo.$$.oooooo...o..",
",,,;3;,;,,- ->,,,,2,,1,,,.,...qqrrrrrr...@@@@ooo..o.oo@oooo.....",
",,,;3,;,,,,-,>,,,,,,;:,1,....wq8rrr&rry.@@##..oo.oo.oooo..oo....",
",,;,;;2,,,,3,>,,,,,,;,,,,.++.qqqy&r&r8y@oo#+..oo..oooo.@@ooo@...",
",;,,;;22,3,,3>,,,,,,,,,,;oo+.w8qr&y&ryy@ooo#..oo..oooo..@oooo...",
";,,,:2,,,,,,55,55,,:,,,,,>++.9rrr&r&rr8.o.%o.ooo.@oo.oo.@...oooo",
",,,,:5,,,,,,,,,,5,,:;,,,3.++.qq8rry&rry...o..ooo.@oooo..@...@o.o",
",,,,3,,,,5,,,,,,5,,,:,,,3,##.9qqrrr&r8r.o...ooo.oooooo@@.@......",
",,,,3,,,,,5,,,,,;5,,,,,,52#OO9qyrrrrrr9..o....ooooooooo.........",
",,,,,3,,,,,,,,,,:,,,,,,35,++.wq8yq8qq8qoo@......o...............",
",,,,;3,,:,,,,3:-,,,>,,,,,:,+.@qqrqqqwqoo........o...oo....$.$...",
",,,,;32:2,,,2>- -,,;,,,,,>52....rrwwoooo.@@@@.......oo#+...$@@..",
",,,,1;1:,,,,>,,-,,,;,,,,,>3.....r&ww..o+oo@.........oo+@....@...",
",,,,,;,:,,,,>223,,,;,,,,,>>+++..r&qq.+.#oo......@o.....@....@ooo",
",;,22:,;;,;>p,,3,4,,,,,,,>,+++..r&y8++.@oo@.....oo..........#ooo",
",:2,,,;,;,,p6p,3;,4,;,,,,,.++.wqr&yyqqoooooo....oo............o.",
",,;,,,:2,;,,p,,,;,43,,,,,..Ooww8r&r8qqqooooo....oo..............",
",,:,,,2:,i,,,3,,>,>,,,;,,+3#.9rrr=rq8yyX.@+#o@oo.............@Xo",
",,,:,,2;p6p,,3,,:,,,,,>,33+#.9r9r=r&ryrX..##oooo..............oo",
",,,:,,2;,p,,,,3,,,3,,,>,3:O#.yqqr&r=rr9X..@.o%oo............o.oo",
",,,;,,2:,,3,,,5,,,,3,,,,3:OO.rqqr&r&rrr@.@@.oooo..X.........o.oo",
",,,,;;,;,,3,,,:,,,,3,,,,:...Ou8qr&y&rr9O...%.XX.............%...",
",,2:,,,;,,3,,,:,,,,3,,,,,,..Oyyyrry&r9yO......X..............o..",
",,>,,,;,,,3,,,:,,,,>>,,,,,..Oyrrr8yryyr...OO..X.................",
",,;2,,;,,,,,,,>,,,,,,,,3,.,,OOr8rr9ryy....#OXX.................."
};
